<?xml version="1.0" encoding="UTF-8" standalone="no"?>
<svg
   width="256"
   height="256"
   viewBox="0 0 256 256"
   version="1.1"
   id="svg4"
   sodipodi:docname="Neutral Button.svg"
   xmlns:inkscape="http://www.inkscape.org/namespaces/inkscape"
   xmlns:sodipodi="http://sodipodi.sourceforge.net/DTD/sodipodi-0.dtd"
   xmlns="http://www.w3.org/2000/svg"
   xmlns:svg="http://www.w3.org/2000/svg">
  <defs
     id="defs4" />
  <sodipodi:namedview
     id="namedview4"
     pagecolor="#ffffff"
     bordercolor="#000000"
     borderopacity="0.25"
     inkscape:showpageshadow="2"
     inkscape:pageopacity="0.0"
     inkscape:pagecheckerboard="0"
     inkscape:deskcolor="#d1d1d1" />
  <g
     id="g5"
     transform="translate(-894.5,-829.5)">
    <path
       d="m 1026.5,868.347 c -1.651,0.741 -3.618,2.09 -4.373,3 -1.819,2.192 -3.694,2.086 -6.127,-0.347 -1.253,-1.253 -3.214,-1.957 -5.25,-1.885 -3.207,0.113 -3.198,0.125 0.634,0.864 2.137,0.413 4.297,1.486 4.8,2.385 1.312,2.345 4.301,2.018 7.343,-0.802 3.204,-2.969 7.253,-3.976 10.707,-2.663 1.856,0.706 3.136,2.474 4.555,6.291 2.27,6.107 4.173,6.876 10.711,4.328 2.2,-0.857 2.875,-1.301 1.5,-0.986 -1.375,0.315 -4.102,0.822 -6.06,1.126 -3.441,0.536 -3.6,0.421 -4.761,-3.455 -2.321,-7.745 -7.412,-10.669 -13.679,-7.856 M 1004,871.5 c -0.709,0.855 -2.889,1.5 -5.067,1.5 -5.008,0 -8.476,3.065 -10.75,9.5 l -1.767,5 -6.458,0.577 -6.458,0.578 6.581,0.172 c 7.107,0.187 7.924,-0.419 9.317,-6.905 0.943,-4.389 5.022,-7.922 9.147,-7.922 2.125,0 4.697,-0.832 6.182,-2 1.399,-1.1 2.087,-2 1.53,-2 -0.557,0 -1.572,0.675 -2.257,1.5 m 64.579,8.396 c 2.243,1.019 5.091,3.14 6.329,4.714 2.227,2.831 2.269,3.635 0.553,10.551 -0.793,3.196 1.744,4.952 7.907,5.475 4.394,0.372 4.338,-0.68 -0.063,-1.175 -5.815,-0.655 -7.505,-1.602 -6.862,-3.849 1.627,-5.68 1.65,-7.531 0.134,-10.464 -1.521,-2.94 -7.931,-7.175 -10.787,-7.126 -0.71,0.012 0.545,0.856 2.789,1.874 m -102.763,14.101 c -2.649,2.748 -4.816,5.667 -4.816,6.487 0,0.843 -3.037,3.02 -6.991,5.012 -9.487,4.777 -12.346,9.04 -12.857,19.172 -0.354,7.007 -0.494,7.376 -3.012,7.924 -4.724,1.029 -5.023,1.259 -7.205,5.535 -1.601,3.138 -2.027,5.362 -1.658,8.642 0.463,4.103 0.186,4.769 -3.882,9.349 -7.594,8.551 -11.559,18.722 -9.189,23.577 1.595,3.268 9.085,6.116 16.377,6.227 6.043,0.093 6.631,0.514 5.176,3.707 -0.911,2 -0.749,2.908 0.919,5.142 1.114,1.492 3.442,3.119 5.174,3.615 3.029,0.869 3.148,1.106 3.148,6.291 0,6.688 1.704,10.88 6.653,16.369 4.222,4.682 14.145,9.952 18.743,9.953 2.046,10e-4 4.288,1.302 7.636,4.434 2.984,2.791 6.07,4.683 8.332,5.107 3.851,0.723 10.067,0.255 12.834,-0.965 1.274,-0.562 2.395,0.24 4.5,3.223 4.674,6.624 8.594,8.703 16.404,8.698 5.445,0 7.334,-0.442 9.825,-2.284 2.634,-1.947 3.818,-2.182 8.118,-1.612 5.487,0.728 12.955,-1.702 12.955,-4.217 0,-1.67 3.165,-3.383 6.253,-3.383 1.311,0 4.816,-0.722 7.788,-1.605 7.11,-2.111 12.633,-7.501 13.547,-13.222 0.729,-4.555 1.611,-5.587 5.585,-6.535 3.923,-0.936 8.482,-5.983 9.288,-10.284 0.408,-2.175 2.282,-5.528 4.494,-8.041 4.151,-4.715 5.262,-8.198 4.371,-13.693 l -0.583,-3.589 6.625,-2.972 c 7.299,-3.274 15.742,-10.496 17.645,-15.091 1.028,-2.482 0.959,-3.361 -0.43,-5.482 -2.509,-3.828 -9.461,-8.443 -13.755,-9.129 -2.105,-0.337 -3.883,-0.893 -3.95,-1.235 -0.068,-0.342 -0.233,-2.667 -0.368,-5.165 -0.292,-5.418 -2.949,-10.998 -5.563,-11.681 -2.579,-0.675 -3.315,-3.632 -1.939,-7.8 0.634,-1.922 0.981,-4.01 0.77,-4.642 -0.211,-0.632 -0.99,1.381 -1.732,4.474 -1.415,5.9 -0.596,8.692 2.551,8.692 2.193,0 4.753,6.126 4.692,11.224 -0.064,5.324 0.682,6.24 5.843,7.169 4.659,0.838 11.868,6.023 11.868,8.537 0,4.478 -13.6,15.368 -20.814,16.667 -5.623,1.013 -6.261,1.912 -5.564,7.845 0.716,6.095 -0.846,9.893 -5.995,14.579 -1.828,1.664 -3.866,4.834 -4.528,7.044 -1.046,3.489 -1.952,4.378 -6.862,6.732 -4.692,2.25 -5.767,3.251 -6.302,5.867 -1.731,8.463 -6.386,12.203 -17.935,14.407 -5.244,1.002 -7.093,1.887 -9.571,4.585 -2.818,3.069 -3.559,3.345 -9,3.35 -3.312,0 -7.198,0.668 -8.804,1.505 -3.704,1.932 -11.358,2.256 -15.246,0.646 -1.673,-0.693 -4.74,-3.292 -6.817,-5.777 l -3.775,-4.516 -6.305,0.675 c -7.912,0.847 -12.561,-0.598 -16.227,-5.046 -3.424,-4.154 -7.734,-6.479 -12.027,-6.487 -6.968,-0.013 -17.974,-14.347 -16.626,-21.651 0.918,-4.967 -2.325,-9.862 -5.814,-8.777 -2.814,0.876 -5.856,-1.477 -7.908,-6.117 -1.908,-4.313 -2.008,-4.376 -7.995,-5.054 -7.311,-0.827 -11.502,-3.847 -12.465,-8.984 -0.882,-4.699 1.017,-8.838 6.734,-14.676 4.6,-4.698 4.724,-4.983 4.176,-9.605 -0.73,-6.163 2.456,-13.142 5.999,-13.142 4.25,0 5.467,-1.996 5.856,-9.609 0.49,-9.561 2.989,-13.215 12.347,-18.055 5.728,-2.963 7.329,-4.334 8.638,-7.399 0.913,-2.136 3.449,-5.098 5.869,-6.85 2.343,-1.698 3.661,-3.087 2.927,-3.087 -0.733,0 -3.501,2.249 -6.15,4.997 m 71.934,88.743 c 3.438,0.196 9.063,0.196 12.5,0 3.438,-0.195 0.625,-0.355 -6.25,-0.355 -6.875,0 -9.687,0.16 -6.25,0.355 m 2.039,5.001 c 3.459,0.196 8.859,0.195 12,-0.003 3.141,-0.198 0.311,-0.358 -6.289,-0.356 -6.6,0.002 -9.17,0.164 -5.711,0.359"
       stroke="none"
       fill="#d0bf9c"
       fill-rule="evenodd"
       id="path1" />
    <path
       d="m 1027.301,869.012 c -1.209,0.487 -3.122,1.809 -4.25,2.937 -2.592,2.592 -5.128,2.61 -7.319,0.051 -1.085,-1.267 -2.95,-2 -5.087,-2 -1.861,0 -4.516,0.897 -5.918,2 -1.485,1.168 -4.057,2 -6.182,2 -4.125,0 -8.204,3.533 -9.147,7.922 -1.385,6.448 -2.223,7.078 -9.417,7.078 -5.878,0 -7.193,0.371 -10.942,3.087 -2.42,1.752 -4.956,4.714 -5.869,6.85 -1.309,3.065 -2.91,4.436 -8.638,7.399 -9.358,4.84 -11.857,8.494 -12.347,18.055 -0.389,7.613 -1.606,9.609 -5.856,9.609 -3.543,0 -6.729,6.979 -5.999,13.142 0.548,4.622 0.424,4.907 -4.176,9.605 -5.717,5.838 -7.616,9.977 -6.734,14.676 0.963,5.137 5.154,8.157 12.465,8.984 5.987,0.678 6.087,0.741 7.995,5.054 2.052,4.64 5.094,6.993 7.908,6.117 3.489,-1.085 6.732,3.81 5.814,8.777 -1.348,7.304 9.658,21.638 16.626,21.651 4.293,0.01 8.603,2.333 12.027,6.487 3.666,4.448 8.315,5.893 16.227,5.046 l 6.305,-0.675 3.775,4.516 c 2.077,2.485 5.144,5.084 6.817,5.777 3.888,1.61 11.542,1.286 15.246,-0.646 1.606,-0.837 5.492,-1.501 8.804,-1.505 5.441,-0.01 6.182,-0.281 9,-3.35 2.478,-2.698 4.327,-3.583 9.571,-4.585 11.549,-2.204 16.204,-5.944 17.935,-14.407 0.535,-2.616 1.61,-3.617 6.302,-5.867 4.91,-2.354 5.816,-3.243 6.862,-6.732 0.662,-2.21 2.7,-5.38 4.528,-7.044 5.149,-4.686 6.711,-8.484 5.995,-14.579 -0.697,-5.933 -0.059,-6.832 5.564,-7.845 7.214,-1.299 20.814,-12.189 20.814,-16.667 0,-2.514 -7.209,-7.699 -11.868,-8.537 -5.161,-0.929 -5.907,-1.845 -5.843,-7.169 0.061,-5.098 -2.499,-11.224 -4.692,-11.224 -3.114,0 -3.967,-2.791 -2.598,-8.496 1.143,-4.763 1.094,-5.973 -0.401,-9.887 -2.083,-5.455 -9.038,-12.092 -14.149,-13.504 -2.069,-0.571 -4.128,-0.811 -4.576,-0.535 -0.448,0.277 -2.223,-0.225 -3.945,-1.115 -2.68,-1.386 -3.036,-2.005 -2.469,-4.291 1.718,-6.931 1.676,-7.73 -0.551,-10.562 -4.805,-6.108 -15.658,-8.278 -25.178,-5.034 -7.07,2.409 -8.648,1.776 -10.94,-4.386 -2.444,-6.574 -5.896,-8.43 -11.489,-6.178 m 17.638,49.049 c -2.786,2.786 -3.247,7.649 -2.065,21.774 1.463,17.483 3.438,22.165 9.347,22.165 7.309,0 9.319,-4.273 9.174,-19.5 -0.114,-11.909 -2.214,-19.175 -6.726,-23.274 -3.159,-2.87 -7.504,-3.391 -9.73,-1.165 m -55.156,3.689 c -4.212,4.83 -5.921,14.383 -4.714,26.356 1.766,17.526 10.245,24.338 17.007,13.664 1.885,-2.975 2.027,-4.352 1.568,-15.27 -0.742,-17.698 -4.06,-26.5 -9.989,-26.5 -1.29,0 -3.032,0.788 -3.872,1.75 m -10.243,58.5 c -0.218,0.688 -0.631,3.725 -0.917,6.75 -0.287,3.025 -0.81,6.674 -1.162,8.109 -0.486,1.98 -0.199,2.778 1.191,3.311 2.246,0.862 5.348,-2.573 5.348,-5.922 0,-2.661 0.797,-2.929 13.5,-4.528 6.107,-0.769 18.17,-0.907 37.527,-0.43 24.628,0.606 28.696,0.499 29.762,-0.786 1.779,-2.143 -0.749,-3.946 -6.052,-4.316 -12.406,-0.864 -61.83,-0.525 -66.623,0.458 -6.986,1.432 -6.614,1.497 -7.932,-1.396 -1.198,-2.63 -3.967,-3.375 -4.642,-1.25"
       stroke="none"
       fill="#f0e1c3"
       fill-rule="evenodd"
       id="path2" />
    <path
       d="m 1048.179,926.413 c -0.201,2.983 0.025,3.346 1.796,2.883 1.758,-0.459 2.025,-0.052 2.025,3.087 0,1.99 0.45,3.617 1,3.617 1.538,0 1.185,-6.741 -0.526,-10.05 -2.053,-3.971 -4.011,-3.76 -4.295,0.463 m -56.082,2.737 c -1.488,4.27 -1.379,5.85 0.403,5.85 0.924,0 1.5,0.938 1.5,2.441 0,2.961 1.77,4.323 2.647,2.037 0.723,-1.885 -1.356,-12.18 -2.617,-12.96 -0.46,-0.283 -1.329,0.901 -1.933,2.632"
       stroke="none"
       fill="#f3f2ef"
       fill-rule="evenodd"
       id="path3" />
    <path
       d="m 1024.224,863.855 c -4.282,1.506 -6.104,1.666 -9.661,0.852 -3.497,-0.8 -5.363,-0.657 -9.224,0.709 -2.661,0.942 -6.843,2.137 -9.292,2.656 -6.427,1.362 -13.047,8.341 -13.047,13.756 0,1.682 -0.552,1.864 -4.35,1.436 -3.022,-0.341 -5.694,0.107 -8.75,1.465 -5.238,2.327 -10.9,6.905 -10.9,8.813 0,2.459 -2.292,6.458 -3.7,6.458 -4.356,0 -14.269,7.184 -16.922,12.264 -1.907,3.65 -3.365,11.626 -2.252,12.314 1.627,1.005 0.886,3.422 -1.049,3.422 -2.716,0 -8.097,4.804 -9.713,8.671 -0.75,1.796 -1.364,5.456 -1.364,8.134 0,4.257 -0.472,5.367 -3.75,8.826 -5.454,5.756 -9.562,14.531 -10.066,21.505 -0.401,5.543 -0.255,5.993 3,9.248 3.147,3.147 11.404,6.616 15.749,6.616 0.863,0 2.489,1.913 3.613,4.25 1.124,2.337 3.468,5.15 5.21,6.25 2.578,1.628 3.174,2.667 3.205,5.59 0.054,4.999 5.316,15.024 10.205,19.441 4.63,4.183 12.918,8.288 18.549,9.188 2.082,0.333 4.32,1.357 4.975,2.276 0.654,0.919 4.191,3.149 7.86,4.955 5.672,2.792 7.437,3.21 11.804,2.79 4.991,-0.48 5.281,-0.36 10.302,4.228 8.058,7.365 18.563,9.001 28.907,4.503 2.17,-0.944 5.988,-1.629 8.506,-1.527 5.728,0.232 12.217,-2.307 15.319,-5.993 1.881,-2.236 3.192,-2.818 6.254,-2.775 4.25,0.058 9.855,-1.97 14.412,-5.215 3.576,-2.546 8.196,-10.163 8.196,-13.512 0,-1.947 0.514,-2.449 2.507,-2.449 3.557,0 10.752,-7.462 12.131,-12.582 0.599,-2.227 2.162,-5.056 3.474,-6.288 2.982,-2.802 5.332,-8.261 6.107,-14.191 0.537,-4.101 0.951,-4.689 4.11,-5.831 4.538,-1.641 14.574,-10.001 17.299,-14.411 5.08,-8.219 1.39,-15.978 -10.345,-21.755 -6.227,-3.066 -6.304,-3.154 -6.95,-8.026 -0.467,-3.52 -1.567,-5.967 -3.854,-8.571 -2.972,-3.386 -3.177,-4.085 -2.882,-9.83 0.389,-7.556 -1.229,-11.805 -6.794,-17.841 -4.002,-4.342 -11.618,-8.495 -16.287,-8.881 -2.159,-0.179 -2.327,-0.626 -2.298,-6.105 0.031,-5.739 -0.096,-6.026 -4.346,-9.799 -2.529,-2.246 -6.512,-4.521 -9.431,-5.388 -5.337,-1.585 -15.691,-2.052 -15.691,-0.708 0,0.437 -1.8,1.274 -4,1.861 -3.328,0.889 -4,0.823 -4,-0.392 0,-2.837 -3.067,-7.87 -5.766,-9.464 -4.537,-2.679 -9.233,-2.974 -15.01,-0.943 m 2.276,4.492 c -1.651,0.741 -3.618,2.09 -4.373,3 -1.842,2.219 -3.699,2.081 -6.243,-0.463 -1.685,-1.685 -2.924,-2.008 -6.078,-1.585 -2.179,0.292 -4.749,1.245 -5.712,2.116 -0.963,0.872 -3.378,1.585 -5.367,1.585 -4.786,0 -8.308,3.173 -10.546,9.5 l -1.768,5 -6.957,0.561 c -3.826,0.309 -7.929,1.091 -9.118,1.738 -2.766,1.506 -9.338,9.154 -9.338,10.868 0,0.72 -3.146,2.892 -6.991,4.829 -9.487,4.777 -12.346,9.04 -12.857,19.172 -0.354,7.007 -0.494,7.376 -3.012,7.924 -4.724,1.029 -5.023,1.259 -7.205,5.535 -1.601,3.138 -2.027,5.362 -1.658,8.642 0.463,4.103 0.186,4.769 -3.882,9.349 -7.594,8.551 -11.559,18.722 -9.189,23.577 1.595,3.268 9.085,6.116 16.377,6.227 6.043,0.093 6.631,0.514 5.176,3.707 -0.911,2 -0.749,2.908 0.919,5.142 1.114,1.492 3.442,3.119 5.174,3.615 3.029,0.869 3.148,1.106 3.148,6.291 0,6.688 1.704,10.88 6.653,16.369 4.222,4.682 14.145,9.952 18.743,9.953 2.046,10e-4 4.288,1.302 7.636,4.434 2.984,2.791 6.07,4.683 8.332,5.107 3.851,0.723 10.067,0.255 12.834,-0.965 1.274,-0.562 2.395,0.24 4.5,3.223 4.674,6.624 8.594,8.703 16.404,8.698 5.445,0 7.334,-0.442 9.825,-2.284 2.634,-1.947 3.818,-2.182 8.118,-1.612 5.487,0.728 12.955,-1.702 12.955,-4.217 0,-1.67 3.165,-3.383 6.253,-3.383 1.311,0 4.816,-0.722 7.788,-1.605 7.11,-2.111 12.633,-7.501 13.547,-13.222 0.729,-4.555 1.611,-5.587 5.585,-6.535 3.923,-0.936 8.482,-5.983 9.288,-10.284 0.408,-2.175 2.282,-5.528 4.494,-8.041 4.151,-4.715 5.262,-8.198 4.371,-13.693 l -0.583,-3.589 6.625,-2.972 c 7.299,-3.274 15.742,-10.496 17.645,-15.091 1.028,-2.482 0.959,-3.361 -0.43,-5.482 -2.509,-3.828 -9.461,-8.443 -13.755,-9.129 -2.105,-0.337 -3.883,-0.893 -3.95,-1.235 -0.068,-0.342 -0.233,-2.667 -0.368,-5.165 -0.292,-5.418 -2.949,-10.998 -5.563,-11.681 -2.558,-0.669 -3.317,-3.624 -1.975,-7.691 2.709,-8.21 -5.159,-20.826 -15.035,-24.106 -2.583,-0.858 -5.087,-1.493 -5.566,-1.411 -0.479,0.082 -1.92,-0.187 -3.202,-0.598 -1.782,-0.57 -2.188,-1.243 -1.726,-2.858 1.627,-5.68 1.65,-7.531 0.134,-10.464 -3.391,-6.557 -15.559,-9.749 -25.806,-6.77 -8.343,2.426 -9.273,2.226 -10.624,-2.281 -2.288,-7.637 -7.414,-10.548 -13.647,-7.75 m 18.057,50.876 c -2.818,4.022 -1.779,29.372 1.552,37.893 2.192,5.607 9.292,6.258 12.628,1.157 2.568,-3.925 2.526,-24.769 -0.063,-31.495 -3.231,-8.393 -10.722,-12.403 -14.117,-7.555 m -54.349,3.055 c -5.041,5.367 -6.728,19.63 -3.795,32.096 2.174,9.239 5.499,12.618 11.047,11.225 5.094,-1.278 7.385,-14.237 4.959,-28.049 -1.868,-10.637 -3.156,-14.253 -5.718,-16.047 -2.898,-2.03 -3.979,-1.901 -6.493,0.775 m 57.399,1.304 c -0.334,0.87 -0.607,2.925 -0.607,4.567 0,2.494 0.318,2.885 1.929,2.373 1.551,-0.492 1.992,-0.066 2.25,2.175 0.195,1.694 1.007,2.916 2.071,3.118 2.473,0.469 2.33,-4.758 -0.27,-9.855 -2.1,-4.116 -4.328,-5.102 -5.373,-2.378 m -55.483,3.186 c -0.521,0.973 -1.262,3.448 -1.647,5.5 -0.628,3.352 -0.485,3.732 1.412,3.732 1.585,0 2.111,0.623 2.111,2.5 0,1.556 0.567,2.5 1.5,2.5 2,0 2.032,-7.791 0.051,-12.532 -1.65,-3.95 -2.103,-4.174 -3.427,-1.7 m 57.421,26.482 c 0.374,1.237 1.092,2.69 1.595,3.228 1.317,1.406 4.29,-0.71 4.68,-3.33 0.277,-1.862 -0.165,-2.148 -3.318,-2.148 -3.306,0 -3.575,0.204 -2.957,2.25 m -57.816,3.822 c 0.259,0.989 1.293,2.543 2.299,3.453 1.722,1.559 1.919,1.479 3.4,-1.386 0.865,-1.672 1.572,-3.226 1.572,-3.453 0,-0.227 -1.742,-0.413 -3.871,-0.413 -3.234,0 -3.793,0.296 -3.4,1.799 m -12.148,24.104 c -0.227,0.728 -0.67,4.811 -0.984,9.074 -0.479,6.495 -0.327,7.75 0.937,7.75 0.83,0 1.997,-1.237 2.594,-2.75 0.597,-1.513 1.422,-3.425 1.834,-4.25 1.485,-2.979 14.069,-3.969 48.038,-3.78 31.618,0.175 32.5,0.127 32.5,-1.77 0,-1.863 -1.184,-1.988 -26.5,-2.802 -24.561,-0.79 -44.356,-0.042 -51.668,1.951 -1.724,0.47 -2.236,0.113 -2.5,-1.744 -0.362,-2.544 -3.584,-3.817 -4.251,-1.679"
       stroke="none"
       fill="#546977"
       fill-rule="evenodd"
       id="path4" />
    <rect
       style="fill:#636363;fill-opacity:0;stroke-width:0.230292"
       id="rect4"
       width="256"
       height="256"
       x="894.5"
       y="829.5" />
  </g>
</svg>
