<?xml version="1.0" encoding="UTF-8" standalone="no"?>
<svg
   width="256"
   height="256"
   viewBox="0 0 256 256"
   version="1.1"
   id="svg4"
   sodipodi:docname="Sad Button.svg"
   xmlns:inkscape="http://www.inkscape.org/namespaces/inkscape"
   xmlns:sodipodi="http://sodipodi.sourceforge.net/DTD/sodipodi-0.dtd"
   xmlns="http://www.w3.org/2000/svg"
   xmlns:svg="http://www.w3.org/2000/svg">
  <defs
     id="defs4" />
  <sodipodi:namedview
     id="namedview4"
     pagecolor="#ffffff"
     bordercolor="#000000"
     borderopacity="0.25"
     inkscape:showpageshadow="2"
     inkscape:pageopacity="0.0"
     inkscape:pagecheckerboard="0"
     inkscape:deskcolor="#d1d1d1" />
  <g
     id="g4"
     transform="translate(-184.29072,-833.17932)">
    <path
       d="m 336.418,922.353 c -1.112,2.897 -0.011,6.147 2.082,6.147 1.618,0 2,-0.667 2,-3.486 0,-2.528 -0.482,-3.579 -1.753,-3.824 -0.964,-0.186 -2.012,0.338 -2.329,1.163 m -57.206,0.835 c -1.784,1.784 -1.475,6.264 0.561,8.106 2.844,2.574 4.304,0.768 3.445,-4.264 -0.792,-4.641 -2.025,-5.823 -4.006,-3.842 m 59.469,19.763 -2.819,1.805 2.819,1.04 c 1.55,0.572 4.257,2.427 6.015,4.122 4.145,3.998 7.304,4.129 7.304,0.305 0,-3.798 -2.607,-7.223 -5.498,-7.223 -1.311,0 -2.662,-0.45 -3.002,-1 -0.817,-1.322 -1.47,-1.193 -4.819,0.951 m -66.963,2.392 c -0.264,1.736 -0.396,3.257 -0.293,3.38 0.103,0.122 1.923,-0.257 4.045,-0.842 2.122,-0.586 5.134,-0.81 6.694,-0.498 2.089,0.418 2.836,0.179 2.836,-0.908 0,-0.976 -1.026,-1.475 -3.032,-1.475 -1.668,0 -4.548,-0.633 -6.4,-1.407 l -3.368,-1.407 -0.482,3.157 m -13.224,26.692 c -0.684,4.051 0.749,7.551 2.619,6.395 1.659,-1.025 0.629,-10.43 -1.142,-10.43 -0.437,0 -1.102,1.816 -1.477,4.035"
       stroke="none"
       fill="#eeeeec"
       fill-rule="evenodd"
       id="path1" />
    <path
       d="m 396.196,953.093 c -0.255,3.369 -3.353,12.333 -6.172,17.861 -2.995,5.869 -2.999,12.913 -0.012,20.546 3.251,8.31 3.289,23.794 0.075,30.508 -3.144,6.569 -4.35,7.85 -10.252,10.893 -3.603,1.858 -5.439,3.457 -5.655,4.925 -0.175,1.196 -0.786,2.174 -1.357,2.174 -0.57,0 -0.762,-0.717 -0.426,-1.592 0.389,-1.014 -0.508,-0.651 -2.47,1 -1.694,1.425 -3.496,2.592 -4.004,2.592 -1.66,0 -0.972,2.042 1.532,4.545 1.866,1.867 3.514,2.455 6.877,2.455 4.739,0 11.003,-2.165 14.028,-4.85 1.79,-1.587 1.752,-1.669 -0.987,-2.158 -4.304,-0.767 -4.08,-3.295 0.47,-5.303 7.544,-3.328 12.939,-15.275 13.857,-30.689 0.595,-9.985 -1.483,-16.93 -7.227,-24.155 -4.041,-5.084 -4.073,-5.245 -1.526,-7.792 2.783,-2.783 4.198,-9.056 3.794,-16.827 -0.192,-3.7 -0.437,-5.559 -0.545,-4.133 m -173.261,4.127 c -1.381,5.104 -0.748,14.908 1.278,19.78 l 1.454,3.5 1.724,-3.311 c 1.396,-2.682 2.234,-3.252 4.416,-3 3.295,0.381 4.396,4.263 1.429,5.039 -1.287,0.337 -2.542,2.63 -4.037,7.38 -6.499,20.655 -5.448,33.449 3.571,43.481 2.589,2.88 5.708,5.237 7.566,5.718 3.508,0.909 4.766,3.833 2.09,4.86 -0.946,0.363 -3.005,0.176 -4.573,-0.417 -2.542,-0.959 -2.853,-0.859 -2.853,0.914 0,1.094 1.315,3.305 2.923,4.913 3.489,3.489 6.754,3.706 13.014,0.866 5.099,-2.313 7.51,-1.927 6.565,1.052 -0.527,1.658 -0.184,2.005 1.98,2.005 9.353,0 21.037,-15.629 23.531,-31.475 1.132,-7.196 2.676,-9.57 4.576,-7.036 1.278,1.706 0.224,11.123 -1.954,17.443 -1.701,4.937 -1.353,5.235 8.898,7.612 13.354,3.097 29.945,1.58 38.178,-3.49 l 3.211,-1.977 -2.11,-4.77 c -1.239,-2.799 -2.152,-7.05 -2.211,-10.288 -0.089,-4.886 0.128,-5.519 1.899,-5.519 1.655,0 2.106,0.872 2.617,5.055 0.864,7.082 3.901,13.375 8.327,17.262 4.818,4.23 7.408,5.183 14.086,5.183 4.565,0 5.925,-0.46 8.791,-2.977 1.865,-1.638 3.681,-2.688 4.035,-2.334 0.354,0.355 0.644,0.151 0.644,-0.451 0,-1.699 -2.946,-4.238 -4.918,-4.238 -0.976,0 -3.187,0.705 -4.914,1.566 -3.029,1.511 -3.354,1.452 -9.247,-1.689 -7.064,-3.765 -10.772,-8.09 -11.604,-13.534 -0.665,-4.348 -2.825,-7.343 -5.298,-7.343 -2.597,0 -5.703,4.092 -6.45,8.5 -0.373,2.2 -1.367,5.853 -2.209,8.117 -1.752,4.713 -4.227,5.826 -15.495,6.965 l -6.636,0.671 -4.614,-4.254 c -4.478,-4.127 -4.615,-4.428 -4.615,-10.114 0,-5.744 -0.079,-5.91 -3.98,-8.372 -5.139,-3.244 -10.427,-3.356 -12.434,-0.263 -0.802,1.237 -3.026,6.647 -4.941,12.022 -1.914,5.375 -4.642,11.754 -6.062,14.177 -3.072,5.241 -7.822,9.391 -8.44,7.373 -0.707,-2.313 -3.394,-4.822 -5.163,-4.822 -0.941,0 -2.854,0.9 -4.253,2 -1.398,1.1 -3.269,2 -4.158,2 -1.467,0 -1.474,-0.216 -0.069,-2.359 1.865,-2.847 1.182,-5.088 -2.786,-9.141 -5.705,-5.825 -7.799,-10.026 -9.124,-18.298 -1.578,-9.858 -0.69,-17.433 2.906,-24.784 3.467,-7.086 3.054,-9.31 -2.271,-12.242 -5.021,-2.764 -8.057,-7.96 -8.923,-15.274 -0.762,-6.438 -1.923,-7.018 -3.367,-1.682 m 86.343,24.902 c -0.617,0.617 -0.891,1.723 -0.609,2.459 0.615,1.601 -1.412,8.142 -2.786,8.991 -0.534,0.33 -1.7,-10e-4 -2.591,-0.736 -1.452,-1.198 -1.497,-1.106 -0.433,0.891 1.514,2.84 4.265,4.315 6.81,3.649 1.779,-0.465 1.91,-1.021 1.221,-5.198 -1.324,-8.036 -1.113,-10.178 1.003,-10.178 2.271,0 2.714,1.009 3.617,8.237 0.599,4.789 0.44,5.695 -1.158,6.613 -1.441,0.827 -0.964,0.928 2.148,0.452 2.2,-0.336 4.295,-1.062 4.656,-1.613 0.66,-1.009 -2.687,-11.112 -4.452,-13.439 -1.18,-1.554 -5.918,-1.636 -7.426,-0.128"
       stroke="none"
       fill="#c5c8ad"
       fill-rule="evenodd"
       id="path2" />
    <path
       d="m 305,869.632 c -4.992,0.957 -9.007,2.548 -8.5,3.368 1.071,1.733 -2.684,4.118 -5.509,3.498 -2.21,-0.485 -3.183,-0.07 -4.876,2.083 -1.163,1.479 -2.115,3.266 -2.115,3.971 0,1.807 -2.05,2.297 -5.154,1.231 -7.694,-2.642 -18.047,6.15 -19.348,16.431 -0.472,3.728 -1.861,4.749 -6.498,4.776 -13.832,0.083 -23.788,11.43 -24.794,28.26 -0.443,7.418 -0.37,7.75 1.697,7.75 3.932,0 3.592,2.851 -0.827,6.93 -3.215,2.968 -4.058,4.39 -3.68,6.21 0.269,1.298 0.777,4.139 1.13,6.313 1.048,6.465 4.015,11.144 8.699,13.723 5.325,2.932 5.738,5.156 2.271,12.242 -3.596,7.351 -4.484,14.926 -2.906,24.784 1.325,8.272 3.419,12.473 9.124,18.298 3.968,4.053 4.651,6.294 2.786,9.141 -1.405,2.143 -1.398,2.359 0.069,2.359 0.889,0 2.76,-0.9 4.158,-2 1.399,-1.1 3.312,-2 4.253,-2 1.769,0 4.456,2.509 5.163,4.822 0.618,2.018 5.368,-2.132 8.44,-7.373 1.42,-2.423 4.148,-8.802 6.062,-14.177 1.915,-5.375 4.139,-10.785 4.941,-12.022 2.007,-3.093 7.295,-2.981 12.434,0.263 3.901,2.462 3.98,2.628 3.98,8.372 0,5.686 0.137,5.987 4.615,10.114 l 4.614,4.254 6.636,-0.671 c 11.268,-1.139 13.743,-2.252 15.495,-6.965 0.842,-2.264 1.836,-5.917 2.209,-8.117 0.747,-4.408 3.853,-8.5 6.45,-8.5 2.473,0 4.633,2.995 5.298,7.343 0.831,5.439 4.539,9.769 11.578,13.52 6.001,3.199 6.128,3.22 9.586,1.579 4.419,-2.097 7.789,-1.288 9.522,2.284 1.502,3.096 1.486,2.92 0.545,6.024 -0.39,1.286 -0.255,2.25 0.315,2.25 0.549,0 1.142,-0.978 1.317,-2.174 0.216,-1.468 2.052,-3.067 5.655,-4.925 5.902,-3.043 7.108,-4.324 10.252,-10.893 3.214,-6.714 3.176,-22.198 -0.075,-30.508 -2.987,-7.633 -2.983,-14.677 0.012,-20.546 3.154,-6.183 5.976,-14.766 5.976,-18.175 0,-1.6 -0.949,-5.115 -2.109,-7.811 -1.761,-4.093 -1.926,-5.429 -1,-8.085 1.552,-4.452 1.381,-10.603 -0.466,-16.824 -2.87,-9.663 -14.056,-18.059 -24.06,-18.059 -1.728,0 -2.744,-1.068 -4.247,-4.467 C 358.427,884.668 352.18,880 340.653,880 c -5.513,0 -6.817,0.313 -7.283,1.75 -1.996,6.159 -7.334,15.257 -11.465,19.542 -4.094,4.249 -5.066,4.819 -6.368,3.738 -2.242,-1.86 -1.965,-2.737 2.452,-7.755 8.85,-10.054 11.525,-21.363 6.011,-25.41 -2.559,-1.878 -13.9,-3.211 -19,-2.233 m -28.636,34.158 c -1.726,2.093 -5.422,5.359 -8.214,7.258 -5.857,3.983 -6.659,5.3 -4.527,7.432 1.384,1.384 1.852,1.362 4.678,-0.221 5.362,-3.003 15.93,-13.818 15.534,-15.895 -0.632,-3.314 -4.112,-2.65 -7.471,1.426 m 54.998,2.71 c -1.384,3.605 1.524,6.042 11.842,9.925 5.966,2.245 6.87,2.358 8.208,1.02 2.4,-2.4 1.028,-3.758 -6.867,-6.795 -4.074,-1.567 -7.649,-3.479 -7.945,-4.25 -0.716,-1.865 -4.512,-1.793 -5.238,0.1 m 0.567,11.502 c -4.823,2.515 -5.39,3.359 -7.958,11.841 -1.734,5.731 -2.118,8.96 -1.749,14.713 0.26,4.055 1.048,8.065 1.751,8.912 1.142,1.376 1.624,1.326 4.521,-0.464 4.634,-2.864 7.965,-2.545 11.765,1.129 1.783,1.724 4.762,3.779 6.621,4.568 11.696,4.964 15.498,-14.027 4.105,-20.509 -2.645,-1.505 -2.973,-2.219 -2.979,-6.474 -0.015,-11.53 -7.7,-18.086 -16.077,-13.716 m -54.899,0.277 c -5.036,2.549 -8.868,10.982 -11.053,24.326 -0.531,3.242 -0.968,7.583 -0.971,9.645 -0.003,2.062 -0.343,3.677 -0.756,3.589 -0.413,-0.089 -2.004,0.356 -3.538,0.989 -3.334,1.377 -8.71,11.85 -8.711,16.972 -0.001,4.534 2.538,9.046 5.51,9.792 1.361,0.342 2.227,1.023 1.923,1.515 -0.304,0.491 0.262,0.893 1.257,0.893 0.995,0 3.099,-1.617 4.675,-3.592 2.659,-3.333 2.815,-4.001 2.16,-9.25 -1.49,-11.922 -1.456,-16.345 0.121,-15.74 0.804,0.309 2.707,-0.359 4.229,-1.484 3.178,-2.35 11.514,-2.866 15.119,-0.936 3.596,1.924 4.472,-0.032 4.15,-9.264 -0.443,-12.703 -2.763,-21.552 -6.678,-25.467 -3.659,-3.659 -3.97,-3.742 -7.437,-1.988 m 24.751,52.12 c -3.145,1.294 -7.901,3.753 -10.57,5.465 -5.917,3.797 -19.211,17.312 -19.211,19.529 0,1.047 -0.871,1.607 -2.5,1.607 -3.079,0 -6.38,3.15 -7.106,6.781 -0.393,1.963 -1.607,3.173 -4.37,4.352 -5.014,2.141 -7.594,5.933 -6.028,8.86 1.352,2.525 3.852,2.297 5.397,-0.493 1.641,-2.964 2.717,-3.445 4.828,-2.158 2.439,1.486 4.557,-1.101 5.445,-6.652 0.339,-2.124 1.116,-4.01 1.726,-4.192 0.609,-0.182 2.295,-0.589 3.746,-0.905 1.877,-0.409 3.076,-1.671 4.159,-4.377 2.11,-5.273 14.09,-16.296 21.878,-20.131 8.69,-4.278 12.781,-4.829 17.531,-2.362 2.087,1.083 5.512,2.534 7.612,3.223 2.101,0.69 6.409,3.41 9.574,6.044 3.165,2.634 7.552,5.706 9.749,6.827 2.196,1.12 4.609,2.779 5.361,3.686 0.753,0.907 4.548,3.42 8.433,5.586 8.483,4.726 10.676,6.54 12.294,10.161 1.329,2.975 4.678,3.737 5.622,1.278 1.594,-4.154 -3.986,-10.75 -12.97,-15.334 -2.244,-1.144 -6.138,-3.652 -8.653,-5.572 -2.515,-1.92 -6.07,-4.261 -7.901,-5.203 -1.83,-0.942 -5.352,-3.509 -7.827,-5.706 -2.475,-2.196 -6.975,-5.105 -10,-6.464 -3.025,-1.358 -7.33,-3.32 -9.566,-4.36 -5.349,-2.485 -9.692,-2.352 -16.653,0.51 m 7.677,11.669 c -0.363,0.588 -1.248,0.843 -1.965,0.568 -1.916,-0.736 -4.495,2.599 -5.155,6.667 -0.468,2.886 -0.12,4.006 1.86,5.986 2.205,2.205 3.089,2.4 9.324,2.051 3.788,-0.211 7.203,-0.895 7.589,-1.519 0.691,-1.119 -2.563,-11.14 -4.407,-13.571 -1.159,-1.527 -6.335,-1.657 -7.246,-0.182"
       stroke="none"
       fill="#e3e5d0"
       fill-rule="evenodd"
       id="path3" />
    <path
       d="m 300,864.526 c -3.025,0.837 -6.634,2.349 -8.019,3.358 -1.386,1.009 -3.496,2.145 -4.689,2.523 -1.193,0.379 -3.561,2.275 -5.263,4.213 -2.609,2.971 -3.544,3.426 -5.958,2.896 -8.069,-1.773 -18.35,7.756 -22.51,20.862 -0.478,1.506 -1.262,1.77 -3.959,1.332 -7.658,-1.242 -19.161,7.77 -24.396,19.112 -2.23,4.83 -2.659,7.278 -2.879,16.401 -0.206,8.524 -0.684,11.557 -2.335,14.792 -4.847,9.501 -4.63,21.049 0.597,31.748 2.568,5.257 2.569,5.272 0.939,11.774 -3.463,13.807 -1.626,28.887 4.56,37.426 2.116,2.921 3.227,5.71 3.406,8.548 0.599,9.528 6.117,14.57 15.972,14.597 3.319,0.01 8.851,0.253 12.294,0.543 5.459,0.46 6.816,0.201 10.613,-2.023 4.132,-2.422 8.352,-6.541 11.923,-11.64 l 1.615,-2.306 7.794,2.325 c 15.15,4.518 33.179,3.446 44.357,-2.637 l 4.773,-2.598 3.58,2.731 c 4.201,3.204 9.86,5.391 14.108,5.453 2.433,0.035 3.406,0.757 4.992,3.701 2.2,4.086 7.967,7.285 13.197,7.321 9.266,0.063 21.288,-8.062 21.288,-14.389 0,-1.839 0.633,-3.869 1.407,-4.511 0.773,-0.642 2.657,-4.185 4.185,-7.873 1.529,-3.688 3.116,-7.164 3.526,-7.726 0.411,-0.561 1.261,-4.888 1.89,-9.614 1.66,-12.472 -0.407,-21.461 -7.13,-31.007 -1.826,-2.593 -1.82,-2.734 0.328,-7.5 3.066,-6.805 3.067,-20.752 0.002,-27.646 -1.633,-3.671 -1.905,-5.378 -1.169,-7.315 0.529,-1.39 0.961,-5.181 0.961,-8.425 0,-14.861 -10.686,-28.392 -25.3,-32.037 -4.302,-1.073 -5.053,-1.698 -7.248,-6.029 -5.956,-11.754 -13.981,-16.88 -26.452,-16.896 -7.366,-0.01 -7.55,-0.073 -10.288,-3.504 -1.533,-1.921 -4.205,-4.226 -5.937,-5.122 -4.464,-2.309 -17.861,-2.773 -24.775,-0.858 m 7,4.105 c -7.613,1.266 -10.899,2.656 -11.195,4.734 -0.232,1.621 -1.123,2.213 -3.704,2.459 -4.386,0.419 -7.9,2.75 -8.291,5.502 -0.285,1.995 -0.804,2.15 -6.31,1.88 -4.613,-0.226 -6.733,0.164 -9.171,1.687 -3.759,2.349 -8.455,9.945 -9.277,15.004 -0.583,3.596 -0.596,3.604 -6.851,4.296 -7.773,0.86 -13.605,3.991 -17.877,9.599 -4.008,5.261 -7.324,15.586 -7.324,22.802 0,4.984 0.167,5.365 2.247,5.144 3.417,-0.362 3.567,3.488 0.207,5.287 -4.69,2.51 -6.933,8.347 -6.907,17.975 0.015,5.456 0.578,9.754 1.572,12 l 1.548,3.5 1.724,-3.311 c 1.396,-2.682 2.234,-3.252 4.416,-3 3.295,0.381 4.396,4.263 1.429,5.039 -1.287,0.337 -2.542,2.63 -4.037,7.38 -6.499,20.655 -5.448,33.449 3.571,43.481 2.589,2.88 5.708,5.237 7.566,5.718 3.508,0.909 4.766,3.833 2.09,4.86 -0.946,0.363 -3.005,0.176 -4.573,-0.417 -2.542,-0.959 -2.853,-0.859 -2.853,0.914 0,1.094 1.315,3.305 2.923,4.913 3.489,3.489 6.754,3.706 13.014,0.866 5.099,-2.313 7.51,-1.927 6.565,1.052 -0.527,1.658 -0.184,2.005 1.98,2.005 9.353,0 21.037,-15.629 23.531,-31.475 1.132,-7.196 2.676,-9.57 4.576,-7.036 1.278,1.706 0.224,11.123 -1.954,17.443 -1.701,4.937 -1.353,5.235 8.898,7.612 13.354,3.097 29.945,1.58 38.178,-3.49 l 3.211,-1.977 -2.11,-4.77 c -1.239,-2.799 -2.152,-7.05 -2.211,-10.288 -0.089,-4.886 0.128,-5.519 1.899,-5.519 1.655,0 2.106,0.872 2.617,5.055 0.864,7.082 3.901,13.375 8.327,17.262 4.818,4.23 7.408,5.183 14.086,5.183 4.504,0 5.946,-0.473 8.685,-2.853 3.517,-3.054 5.785,-3.114 5.785,-0.153 0,1.795 -5.264,7.006 -7.077,7.006 -1.66,0 -0.972,2.042 1.532,4.545 1.866,1.867 3.514,2.455 6.877,2.455 4.739,0 11.003,-2.165 14.028,-4.85 1.79,-1.587 1.752,-1.669 -0.987,-2.158 -4.304,-0.767 -4.08,-3.295 0.47,-5.303 7.544,-3.328 12.939,-15.275 13.857,-30.689 0.595,-9.985 -1.483,-16.93 -7.227,-24.155 -4.041,-5.084 -4.073,-5.245 -1.526,-7.792 4.742,-4.742 5.382,-21.668 1.132,-29.934 -2.186,-4.249 -2.201,-4.477 -0.512,-7.613 2.145,-3.984 1.551,-12.191 -1.36,-18.77 -3.758,-8.497 -13.748,-15.808 -21.918,-16.039 -3.111,-0.088 -3.713,-0.6 -5.992,-5.098 -1.394,-2.75 -3.655,-6.694 -5.025,-8.765 -3.203,-4.839 -11.011,-8.839 -17.218,-8.82 -7.211,0.021 -8.843,0.802 -10.122,4.841 -2.296,7.252 -12.211,21.145 -15.091,21.145 -2.5,0 -1.577,-3.39 2.226,-8.179 10.261,-12.919 11.64,-22.987 3.603,-26.295 -3.636,-1.496 -11.992,-2.506 -15.67,-1.895 m -29.408,34.837 c -1.484,1.946 -5.375,5.425 -8.645,7.732 -5.923,4.177 -7.25,6.363 -4.502,7.417 3.169,1.216 19.063,-12.751 18.4,-16.169 -0.587,-3.03 -2.438,-2.671 -5.253,1.02 m 54.588,4.782 c 0.239,1.677 2.229,3.206 7.82,6.004 7.746,3.877 11.263,4.382 11.775,1.693 0.21,-1.101 -2.044,-2.519 -7.74,-4.871 -4.419,-1.825 -8.035,-3.713 -8.035,-4.197 0,-0.483 -0.931,-0.879 -2.07,-0.879 -1.574,0 -1.993,0.539 -1.75,2.25 m -1.282,11.036 c -5.008,3.369 -7.762,11.57 -7.839,23.342 -0.045,6.997 0.295,9.421 1.46,10.388 1.233,1.023 1.844,0.977 3.25,-0.244 4.056,-3.523 11.965,-2.513 13.596,1.736 0.68,1.774 6.492,4.492 9.603,4.492 8.348,0 7.817,-17.103 -0.64,-20.636 -3.201,-1.338 -3.328,-1.602 -3.328,-6.91 0,-8.116 -1.974,-12.075 -6.67,-13.379 -5.203,-1.445 -5.55,-1.401 -9.432,1.211 m -55.765,1.256 c -4.65,3.912 -6.93,11.271 -9.498,30.646 -0.742,5.596 1.371,6.813 6.737,3.882 4.254,-2.324 8.379,-2.464 15.879,-0.542 l 2.752,0.706 -0.555,-9.367 c -0.879,-14.856 -2.675,-22.094 -6.408,-25.827 -2.715,-2.715 -5.254,-2.572 -8.907,0.502 m 61.576,0.082 c -1.389,1.389 -0.762,8.418 0.804,9.019 2.584,0.992 4.616,-1.641 4.288,-5.557 -0.229,-2.725 -0.791,-3.656 -2.342,-3.878 -1.123,-0.161 -2.36,0.027 -2.75,0.416 m -57.459,1.094 c -1.611,0.578 -1.651,8.481 -0.05,10.082 1.36,1.36 4.434,1.601 5.173,0.405 0.271,-0.437 0.236,-2.704 -0.077,-5.038 -0.564,-4.202 -2.548,-6.344 -5.046,-5.449 m 60.415,19.893 c -2.947,2.536 -7.459,3.105 -10.731,1.354 -1.674,-0.896 -1.934,-0.697 -1.934,1.481 0,2.4 0.203,2.488 4.429,1.909 5.957,-0.817 8.378,-0.042 12.877,4.122 4.527,4.191 7.397,4.553 8.278,1.043 0.86,-3.426 -2.458,-8.925 -5.635,-9.341 -1.347,-0.176 -2.912,-0.914 -3.478,-1.638 -0.825,-1.057 -1.579,-0.845 -3.806,1.07 m -68.828,4.298 c -0.357,3.749 -0.223,4.022 1.637,3.337 1.114,-0.41 4.614,-0.746 7.776,-0.746 5.198,0 5.751,-0.204 5.75,-2.126 0,-1.83 -0.732,-2.202 -5.25,-2.667 -2.887,-0.297 -6.212,-0.842 -7.387,-1.211 -1.907,-0.598 -2.178,-0.232 -2.526,3.413 m -11.062,12.331 c -3.706,3.075 -6.726,10.255 -6.753,16.055 -0.034,7.434 5.354,11.715 10.964,8.713 3.35,-1.793 4.377,-7.247 2.549,-13.534 -0.887,-3.051 -1.482,-7.203 -1.324,-9.226 0.357,-4.538 -1.541,-5.239 -5.436,-2.008 m -1.301,10.94 c -1.727,5.466 -1.727,5.784 0.002,8.424 1.714,2.615 1.861,2.656 3.161,0.878 1.657,-2.266 1.651,-3.558 -0.046,-9.982 l -1.322,-5 -1.795,5.68 M 301,971.272 c -3.025,1.269 -7.126,3.415 -9.114,4.768 -6.308,4.295 -17.984,15.942 -19.052,19.007 -0.819,2.349 -1.619,2.953 -3.909,2.953 -3.079,0 -5.203,2.404 -6.293,7.122 -0.439,1.901 -1.426,2.787 -3.588,3.219 -6.219,1.244 -9.608,8.724 -4.294,9.479 1.711,0.243 2.25,-0.176 2.25,-1.75 0,-2.142 0.457,-2.349 5.497,-2.488 2.719,-0.074 3.105,-0.518 4.16,-4.782 1.501,-6.065 1.953,-6.715 4.252,-6.114 2.3,0.602 6.091,-2.876 6.091,-5.587 0,-1.079 3.284,-4.968 7.591,-8.991 8.651,-8.079 20.019,-14.345 26.108,-14.39 4.894,-0.037 19.007,6.771 25.952,12.519 5.24,4.337 10.53,7.883 19.785,13.263 7.54,4.383 12.64,8.569 13.638,11.194 1.281,3.37 4.926,3.113 4.926,-0.348 0,-3.3 -6.374,-9.467 -13.5,-13.061 -2.75,-1.387 -6.8,-3.977 -9,-5.756 -2.2,-1.778 -5.404,-3.956 -7.119,-4.839 -1.716,-0.884 -5.457,-3.602 -8.315,-6.041 -6.206,-5.298 -18.628,-10.793 -25.566,-11.312 -3.618,-0.27 -6.52,0.265 -10.5,1.935 m 9.471,17.478 c 0.77,7.381 1.529,8.848 4.075,7.871 1.423,-0.546 1.573,-1.514 0.976,-6.29 -0.923,-7.385 -1.348,-8.331 -3.745,-8.331 -1.884,0 -1.966,0.422 -1.306,6.75 m -5.805,-5 c -0.249,0.413 -0.908,2.417 -1.466,4.455 -0.786,2.873 -0.708,3.959 0.349,4.836 0.75,0.622 1.8,0.861 2.334,0.531 1.425,-0.881 3.39,-7.418 2.74,-9.113 -0.588,-1.53 -3.182,-1.995 -3.957,-0.709"
       stroke="none"
       fill="#596f77"
       fill-rule="evenodd"
       id="path4" />
    <rect
       style="fill:#636363;fill-opacity:0;stroke-width:1.35536"
       id="rect4"
       width="256"
       height="256"
       x="184.29073"
       y="833.17932" />
  </g>
</svg>
