<?xml version="1.0" encoding="UTF-8" standalone="no"?>
<svg
   width="1600"
   height="1600"
   viewBox="0 0 1600 1600"
   version="1.1"
   id="svg5"
   sodipodi:docname="Mental Health Graphic.svg"
   xmlns:inkscape="http://www.inkscape.org/namespaces/inkscape"
   xmlns:sodipodi="http://sodipodi.sourceforge.net/DTD/sodipodi-0.dtd"
   xmlns="http://www.w3.org/2000/svg"
   xmlns:svg="http://www.w3.org/2000/svg">
  <defs
     id="defs5" />
  <sodipodi:namedview
     id="namedview5"
     pagecolor="#ffffff"
     bordercolor="#000000"
     borderopacity="0.25"
     inkscape:showpageshadow="2"
     inkscape:pageopacity="0.0"
     inkscape:pagecheckerboard="0"
     inkscape:deskcolor="#d1d1d1" />
  <path
     d="m 734.96559,263.25781 c -10.521,2.805 -16.539,6.446 -25.034,15.143 -6.243,6.391 -8.619,9.755 -12.125,17.165 -2.399,5.07 -5.136,12.142 -6.082,15.717 -3.259,12.313 -3.022,44.6 0.475,64.75 0.504,2.901 0.382,4.268 -0.383,4.308 -2.254,0.115 24.669,11.329 49.379,20.565 5.675,2.122 14.386,5.73 36,14.911 3.025,1.285 8.875,3.544 13,5.019 4.125,1.476 8.4,3.074 9.5,3.551 6.388,2.77 26.489,10.008 35.5,12.782 5.775,1.778 13.2,4.071 16.5,5.097 3.3,1.026 9.375,3.241 13.5,4.923 4.125,1.681 13.575,5.287 21,8.012 36.291,13.321 58.357,22.862 64.5,27.891 1.1,0.901 1.473,1.033 0.828,0.293 -1.329,-1.526 -0.841,-3.251 2.183,-7.711 2.684,-3.958 12.486,-23.788 16.546,-33.472 6.316,-15.066 12.71,-34.682 12.245,-37.568 -0.316,-1.965 -0.166,-2.436 0.481,-1.516 0.625,0.887 0.826,-0.286 0.599,-3.5 -0.187,-2.659 -0.495,-7.31 -0.684,-10.335 -0.249,-3.978 -1.648,-8.268 -5.053,-15.5 -2.59,-5.5 -5.122,-10.675 -5.626,-11.5 -0.505,-0.825 -2.552,-4.646 -4.55,-8.491 -7.459,-14.354 -21.583,-29.244 -33.853,-35.688 l -8.116,-4.262 -17.5,-0.013 c -13.495,-0.009 -18.94,0.382 -23.793,1.711 -7.224,1.979 -16.234,6.099 -20.957,9.583 -2.228,1.644 -3.25,1.97 -3.25,1.039 0,-0.782 -1.078,-0.196 -2.54,1.381 -1.398,1.507 -2.86,2.751 -3.25,2.764 -0.391,0.013 -2.034,1.813 -3.652,4 -3.31,4.474 -4.035,4.705 -6.979,2.226 -2.028,-1.707 -2.04,-1.701 -0.481,0.25 3.418,4.278 3.111,5.222 -3.312,10.165 -7.488,5.761 -15.549,8.361 -17.536,5.655 -0.687,-0.936 -1.25,-2.421 -1.25,-3.3 0,-3.189 -7.887,-22.291 -12.512,-30.306 -8.149,-14.119 -14.194,-21.96 -27.488,-35.658 -9.778,-10.076 -18.148,-17.046 -22.763,-18.958 -1.767,-0.732 -2.966,-1.728 -2.665,-2.214 0.956,-1.547 -13.813,-0.773 -20.802,1.091 m -35.657,142.747 c 1.038,2.035 1.887,4.62 1.887,5.743 0,1.123 1.527,6.316 3.392,11.539 1.866,5.223 3.714,10.396 4.107,11.496 0.393,1.1 1.296,3.35 2.005,5 0.71,1.65 2.497,6.15 3.971,10 4.419,11.54 9.953,23.354 10.719,22.88 0.395,-0.244 1.502,0.808 2.459,2.338 3.393,5.42 11.741,15.843 16.263,20.306 10.439,10.301 29.922,27.818 34.584,31.094 10.596,7.446 26.303,14.341 41,17.998 11.766,2.927 55.017,3.918 64.5,1.476 9.307,-2.395 30.868,-13.317 35.568,-18.017 0.866,-0.866 2.105,-1.593 2.753,-1.614 1.408,-0.047 5.866,-6.031 11.146,-14.961 2.114,-3.575 4.673,-7.719 5.688,-9.21 1.015,-1.49 1.845,-3.077 1.845,-3.527 0,-1.203 -18.17,-10.156 -29.5,-14.535 -26.833,-10.37 -30.428,-11.724 -43.5,-16.384 -6.875,-2.45 -13.4,-4.831 -14.5,-5.29 -1.1,-0.459 -8.975,-3.082 -17.5,-5.828 -13.861,-4.466 -43.073,-15.019 -56.5,-20.412 -2.75,-1.104 -6.8,-2.7 -9,-3.547 -2.2,-0.846 -5.575,-2.228 -7.5,-3.07 -8.343,-3.651 -23.832,-9.919 -41.5,-16.795 -10.45,-4.067 -20.187,-8.067 -21.637,-8.888 l -2.637,-1.494 1.887,3.702"
     stroke="none"
     fill="#deaeaa"
     fill-rule="evenodd"
     id="path1" />
  <path
     d="m 755.76759,262.16681 c -0.301,0.486 0.898,1.482 2.665,2.214 4.615,1.912 12.985,8.882 22.763,18.958 13.294,13.698 19.339,21.539 27.488,35.658 4.625,8.015 12.512,27.117 12.512,30.306 0,0.879 0.563,2.364 1.25,3.3 1.123,1.53 1.764,1.568 6.327,0.382 6.577,-1.709 17.632,-9.971 16.698,-12.478 -0.353,-0.948 -5.397,-7.957 -11.208,-15.574 -5.812,-7.618 -11.242,-14.818 -12.067,-16 -2.98,-4.271 -7.675,-9.363 -19.543,-21.195 -13.81,-13.769 -23.309,-20.096 -36.009,-23.988 -8.85,-2.712 -10.069,-2.889 -10.876,-1.583 m 185.928,6.125 c -5.867,0.891 -18.828,5.91 -24.49,9.484 -2.183,1.379 -4.226,2.507 -4.539,2.507 -0.641,0 -22.218,15.935 -24.512,18.102 -0.814,0.769 -4.625,4.052 -8.469,7.295 -3.845,3.244 -9.798,8.869 -13.23,12.5 -6.837,7.235 -8.45,10.956 -3.01,6.943 4.723,-3.484 13.733,-7.604 20.957,-9.583 4.853,-1.329 10.298,-1.72 23.793,-1.711 l 17.5,0.013 8.116,4.262 c 12.27,6.444 26.394,21.334 33.853,35.688 1.998,3.845 4.045,7.666 4.55,8.491 0.504,0.825 3.069,6 5.699,11.5 l 4.782,10 v 11.167 c 0,6.142 0.063,11.092 0.139,11 0.077,-0.092 0.912,-3.767 1.855,-8.167 0.944,-4.4 2.116,-9.8 2.604,-12 1.611,-7.257 3.861,-32.805 3.881,-44.074 0.026,-13.999 -2.161,-26.793 -6.892,-40.314 -4.941,-14.121 -8.29,-20.389 -14.272,-26.714 -4.05,-4.282 -5.912,-5.467 -9.948,-6.333 -5.507,-1.181 -10.851,-1.198 -18.367,-0.056 m -290.5,33.004 c -6.201,3.356 -13.125,10.351 -16.185,16.35 -1.805,3.538 -1.997,5.351 -1.598,15.079 0.302,7.352 1.096,12.855 2.369,16.419 3.765,10.545 22.67,30.347 39.914,41.809 11.146,7.408 19.028,11.124 46,21.686 17.859,6.993 33.506,13.343 41.5,16.841 1.925,0.842 5.3,2.224 7.5,3.07 2.2,0.847 6.25,2.443 9,3.547 13.427,5.393 42.639,15.946 56.5,20.412 8.525,2.746 16.4,5.369 17.5,5.828 1.1,0.459 7.625,2.84 14.5,5.29 13.072,4.66 16.667,6.014 43.5,16.384 6.497,2.511 12.313,5.156 24.48,11.133 9.095,4.468 12.871,7 18.181,12.191 6.978,6.823 8.752,10.451 7.227,14.786 -1.462,4.156 -6.366,6.294 -15.643,6.817 -11.237,0.634 -12.229,0.917 -13.574,3.868 -1.877,4.121 -1.377,6.906 1.786,9.936 2.954,2.83 2.966,2.832 13.25,2.244 14.013,-0.802 17.1,-1.88 23.382,-8.161 9.263,-9.263 10.46,-19.822 3.484,-30.73 -4.021,-6.286 -11.605,-14.372 -15.867,-16.914 -2.038,-1.217 -5.056,-3.457 -6.706,-4.978 -6.242,-5.756 -25.989,-14.5 -65.5,-29.002 -7.425,-2.725 -16.875,-6.331 -21,-8.012 -4.125,-1.682 -10.2,-3.897 -13.5,-4.923 -3.3,-1.026 -10.725,-3.319 -16.5,-5.097 -9.011,-2.774 -29.112,-10.012 -35.5,-12.782 -1.1,-0.477 -5.375,-2.075 -9.5,-3.551 -4.125,-1.475 -9.975,-3.734 -13,-5.019 -21.614,-9.181 -30.325,-12.789 -36,-14.911 -13.274,-4.961 -39.716,-15.529 -46.218,-18.471 -14.289,-6.465 -28.445,-17.751 -38.448,-30.652 -4.797,-6.187 -6.334,-10.855 -6.334,-19.236 0,-12.084 4.491,-17.976 13.247,-17.382 0.961,0.065 3.54,1.738 5.732,3.718 6.464,5.84 13.739,4.355 15.633,-3.191 0.945,-3.766 -3.216,-9.584 -9.112,-12.74 -10.435,-5.586 -16.484,-5.995 -24.5,-1.656 m 74.045,171.348 c -0.044,0.849 1.832,4.473 17.673,34.139 9.852,18.449 12.422,22.806 19.786,33.539 12.502,18.223 24.397,32.827 38.931,47.798 14.799,15.243 24.907,21.973 35.38,23.555 3.532,0.534 4.891,0.244 7.5,-1.599 5.377,-3.801 22.456,-19.649 32.578,-30.231 5.284,-5.525 12.106,-12.524 15.16,-15.554 9.375,-9.298 30.947,-35.414 30.947,-37.465 0,-1.078 -1.891,-0.509 -3.432,1.032 -4.7,4.7 -26.261,15.622 -35.568,18.017 -5.569,1.434 -10.08,1.591 -31.5,1.094 -26.821,-0.622 -33.045,-1.556 -48,-7.205 -17.147,-6.476 -25.972,-12.239 -43.5,-28.405 -20.744,-19.132 -20.941,-19.347 -34.431,-37.576 -0.814,-1.1 -1.5,-1.613 -1.524,-1.139"
     stroke="none"
     fill="#c99691"
     fill-rule="evenodd"
     id="path2" />
  <path
     d="m 1049.6956,84.360811 c -6.8,1.591 -12.511,5.116 -17.223,10.632 -4.411,5.161999 -4.649,5.289999 -9.861,5.289999 -11.101,0 -22.402,6.836 -26.97601,16.316 -2.56,5.307 -3.025,7.164 -1.569,6.264 0.479,-0.296 1.119,1.306 1.421,3.562 0.375,2.796 1.592,5.174 3.825,7.479 2.96401,3.058 3.81501,3.379 8.95701,3.379 3.83,0 6.087,-0.489 6.926,-1.5 1.755,-2.115 6.243,-1.863 11.001,0.618 5.073,2.644 15.734,3.649 19.993,1.884 4.098,-1.697 6.731,-5.636 7.723,-11.556 1.06,-6.325 4.375,-8.635 9.495,-6.617 7.374,2.906 17.669,5.125 23.878,5.147 10.583,0.038 18.558,-4.786 28.66,-17.338 2.082,-2.588 1.561,-10.972999 -0.875,-14.068999 -6.833,-8.687 -21.922,-11.29 -36.345,-6.27 -3.633,1.264 -4.441,1.192 -9.5,-0.847 -6.748,-2.719 -14.188,-3.623 -19.53,-2.374 m 66.636,26.321999 c -0.284,3.965 -5.833,13.011 -10.737,17.506 -2.951,2.704 -7.674,5.697 -11.203,7.098 -6.46,2.566 -7.74,3.991 -1.835,2.042 4.337,-1.431 15.307,-8.447 17.78,-11.372 3.22,-3.807 7.036,-12.425 6.575,-14.847 -0.335,-1.756 -0.477,-1.861 -0.58,-0.427 m -277.75701,8.69 c -13.59,1.586 -34.105,8.322 -47.379,15.557 -5.333,2.907 -19.983,13.068 -22.031,15.28 -0.291,0.315 -3.046,2.975 -6.121,5.911 l -5.59,5.339 -5.879,-3.01 c -5.562,-2.847 -22.542,-8.654 -32.379,-11.073 -8.811,-2.167 -25.655,-3.092 -36.79,-2.021 -23.48,2.259 -44.056,11.006 -63.209,26.872 -18.075,14.973 -30.63,30.09 -41.077,49.458 -2.254,4.178 -4.306,7.597 -4.561,7.597 -0.254,0 -1.751,-0.666 -3.325,-1.481 -4.328,-2.238 -21,-6.339 -30.964,-7.617 -11.468,-1.471 -27.573,0.033 -39.127,3.653 -28.133,8.813 -55.422,32.788 -69.237,60.827 -5.954,12.084 -8.113,18.578 -10.771,32.388 l -1.207,6.27 -3.616,-0.487 c -2.597,-0.35 -2.207,-0.108 1.384,0.859 5.41,1.456 8.289,2.842 13.168,6.338 1.788,1.281 4.611,2.25 6.555,2.25 4.037,0 13.045,2.53 17.277,4.853 8.626,4.735 18.809,19.46 20.079,29.034 0.554,4.174 1.099,4.96 5.428,7.824 7.937,5.253 11.973,12.343 11.987,21.064 0.007,3.829 -3.564,14.573 -5.005,15.058 -0.544,0.184 -0.989,0.877 -0.989,1.542 0,1.39 -7.069,8.353 -11.5,11.329 -1.65,1.108 -5.475,2.808 -8.5,3.778 -3.025,0.97 -6.625,2.762 -8,3.982 -7.776,6.899 -18.528,9.935 -33,9.318 -7.385,-0.315 -10.502,-0.917 -14,-2.705 -3.927,-2.008 -6.091,-2.318 -17,-2.439 -12.121,-0.134 -12.684,-0.238 -18.572,-3.433 -3.34,-1.812 -8.227,-5.074 -10.859,-7.25 -2.633,-2.175 -4.853,-3.955 -4.934,-3.955 -0.082,0 -1.72,0.467 -3.642,1.038 -1.921,0.57 -8.443,1.116 -14.493,1.213 -6.05,0.097 -9.2,0.335 -7,0.529 2.2,0.195 4.308,0.661 4.685,1.037 0.376,0.376 -0.032,3.383 -0.909,6.683 -0.876,3.3 -1.682,9.825 -1.791,14.5 l -0.199,8.5 0.607,-8 c 0.566,-7.46 0.663,-7.73 1.433,-4 1.327,6.424 5.453,18.118 9.3,26.36 6.994,14.986 18.902,29.432 32.263,39.14 6.649,4.831 7.824,6.995 6.166,11.354 -1.64,4.315 -1.248,12.729 0.896,19.231 2.207,6.694 7.339,16.581 9.565,18.428 0.816,0.678 1.484,1.661 1.484,2.186 0,1.307 12.272,13.121 19,18.292 12.691,9.753 24.745,16.352 37.639,20.606 7.989,2.636 10.552,3.035 18.085,2.815 9.446,-0.274 13.276,0.456 13.276,2.533 0,0.721 0.736,1.921 1.636,2.668 0.9,0.747 2.728,3.087 4.062,5.2 3.455,5.474 6.134,8.487 21.128,23.766 7.329,7.469 14.625,14.347 16.213,15.285 1.589,0.938 3.498,2.316 4.244,3.062 0.746,0.745 4.548,3.401 8.449,5.902 9.623,6.169 20.19,11.001 36.268,16.586 13.215,4.59 32.359,8.184 53.5,10.042 18.739,1.647 30.489,3.378 30.614,4.509 0.062,0.569 0.185,9.36 0.273,19.535 0.157,18.245 0.218,18.734 4.453,35.5 2.705,10.712 5.604,19.589 7.837,24 3.464,6.842 10.709,17.743 13.94,20.975 1.954,1.953 1.267,2.94 -1.446,2.079 -3.577,-1.135 -26.889,-27.121 -30.263,-33.735 -1.072,-2.1 -2.193,-3.819 -2.491,-3.819 -0.298,0 0.724,2.327 2.271,5.171 2.666,4.901 27.976,33.217 30.419,34.031 0.632,0.211 -2.171,1.908 -6.229,3.77 -6.876,3.157 -19.746,10.498 -20.878,11.91 -0.275,0.343 -2.43,1.933 -4.788,3.533 -2.359,1.601 -7.572,6.39 -11.584,10.643 -11.043,11.704 -17.689,25.901 -19.373,41.385 l -0.755,6.942 -9.5,1.698 c -20.828,3.722 -40.485,14.533 -58.038,31.917 -11.727,11.615 -18.285,19.65 -22.615,27.712 -3.972,7.392 -4.807,8.289 -7.813,8.388 -2.635,0.086 -2.738,0.185 -0.782,0.75 l 2.252,0.65 -2.614,3 c -10.02,11.499 -21.51,33.009 -29.379,54.99999 -5.45,15.233 -7.089,23.131 -7.707,37.146 -0.499,11.313 -0.318,13.875 1.3,18.374 1.034,2.876 2.464,5.453 3.178,5.726 0.713,0.274 9.491,-0.467 19.507,-1.646 10.016,-1.179 20.461,-2.394 23.211,-2.699 13.755,-1.528 39.319,-6.815 52.5,-10.857 2.475,-0.759 7.875,-2.371 12,-3.583 4.125,-1.212 7.848,-2.52 8.273,-2.905 0.425,-0.386 0.088,-2.342 -0.75,-4.347 -0.838,-2.005 -1.523,-5.009 -1.523,-6.677 0,-2.641 0.355,-3.032 2.75,-3.032 2.458,0 3,0.666 5.093,6.25 1.288,3.438 2.566,7.637 2.839,9.333 0.481,2.98 0.303,3.151 -5.342,5.12 -37.002,12.905 -79.509,19.919 -150.34,24.808 -27.037,1.866 -26.202,1.881 -28.811,-0.55 -2.766,-2.577 -2.792,-5.971 -0.07,-9.058 4.137,-4.692 6.137,-10.919 6.229,-19.403 0.084,-7.648 -0.127,-8.429 -4.782,-17.75 -4.329,-8.669 -5.164,-9.75 -7.529,-9.75 -3.102,0 -6.801,3.095 -7.503,6.278 -0.27,1.222 -0.912,5.472 -1.426,9.445 -0.925,7.131 -4.639,16.951 -7.491,19.803 -2.357,2.357 -6.385,3.513 -8.906,2.554 -1.258,-0.478 -3.588,-2.83 -5.177,-5.225 -1.589,-2.395 -7.707,-8.967 -13.596,-14.605 l -10.707,-10.25 h -5.893 c -6.181,0 -6.824,0.378 -10.588,6.215 -3.629,5.63 -1.107,23.164 5.049,35.097 3.603,6.985 16.747,21.688 19.388,21.688 0.636,0 1.866,0.599 2.734,1.331 3.983,3.356 11.175,4.956 19.47,4.332 7.756,-0.584 8.214,-0.5 10.521,1.922 2.948,3.097 35.038,18.922 48.088,23.714 33.965,12.475 74.513,14.5 142.349,7.11 23.242,-2.532 25.651,-2.429 25.651,1.091 0,0.69 0.705,1.84 1.566,2.555 2.82,2.341 11.55,18.124 11.238,20.316 -0.183,1.279 -1.149,2.25 -2.422,2.431 -1.609,0.23 -2.991,-1.013 -5.75,-5.169 -1.998,-3.01 -3.632,-5.958 -3.632,-6.552 0,-0.595 -0.45,-1.081 -1,-1.081 -0.55,0 -1.014,-0.562 -1.032,-1.25 -0.041,-1.651 -4.387,-6.542 -6.111,-6.878 -1.78,-0.347 -15.473,0.863 -29.857,2.637 -22.352,2.758 -51.073,3.808 -71.002,2.598 -10.174,-0.618 -21.17,-1.561 -24.436,-2.094 -3.267,-0.533 -6.13,-0.779 -6.363,-0.546 -0.773,0.773 1.854,13.906 4.495,22.474 5.875,19.055 18.467,37.385 34.806,50.665 2.75,2.235 6.575,4.92 8.5,5.968 1.925,1.047 4.175,2.388 5,2.98 2.116,1.518 18.613,8.976 24,10.851 2.475,0.861 5.457,1.572 6.628,1.58 2.934,0.021 3.78,1.325 6.819,10.515 6.028,18.224 20.214,36.971 37.553,49.627 8.566,6.252 12.815,8.801 18.5,11.096 2.2,0.888 5.748,2.358 7.884,3.265 3.71,1.577 3.851,1.569 3.156,-0.169 -2.835,-7.087 -1.887,-20.881 1.944,-28.289 2.169,-4.193 8.291,-10.457 12.07,-12.349 1.68,-0.842 7.305,-2.573 12.5,-3.848 8.093,-1.986 12.023,-2.319 27.446,-2.325 10.155,-0.01 20.615,0.52 24,1.203 3.3,0.666 9.15,1.731 13,2.367 6.219,1.028 20.544,4.678 33.5,8.538 2.475,0.737 9.115,2.719 14.756,4.403 l 10.256,3.063 6.802,-4.041 c 3.741,-2.222 7.184,-4.041 7.65,-4.041 0.466,0 2.322,-1.125 4.125,-2.5 1.803,-1.375 3.542,-2.5 3.864,-2.5 0.323,0 2.311,-1.089 4.419,-2.419 2.108,-1.331 7.837,-4.633 12.73,-7.339 43.914,-24.279 54.543,-28.623 76.957,-31.454 7.752,-0.979 10.779,-0.904 19.198,0.478 11.025,1.81 24.394,7.001 32.743,12.715 7.081,4.846 16.113,14.622 19.098,20.672 4.872,9.875 4.108,25.368 -1.994,40.477 -1.394,3.45 -2.41,6.398 -2.257,6.55 0.153,0.153 3.228,-1.944 6.834,-4.659 7.291,-5.49 12.609,-12.846 13.507,-18.685 0.724,-4.714 1.918,-6.332 4.68401,-6.351 3.832,-0.026 25.962,-7.996 33.524,-12.073 11.249,-6.063 23.052,-15.017 30.182,-22.896 11.25,-12.43 23.922,-35.262 23.922,-43.103 0,-2.235 4.425,-6.913 6.54,-6.913 0.341,0 4.597,-2.724 9.458,-6.053 9.74,-6.671 27.332,-24.158 30.668,-30.485 4.859,-9.214 5.872,-10.989 6.568,-11.51 0.404,-0.303 2.536,-6.038 4.739,-12.746 4.256,-12.962 8.156,-35.477 6.442,-37.191 -1.082,-1.082 -47.642,17.167 -48.22,18.9 -0.2,0.599 1.053,3.391 2.783,6.204 3.196,5.194 3.326,7.443 0.494,8.53 -1.833,0.703 -5.539,-2.46 -7.534,-6.43 -0.751,-1.496 -2.17,-3.913 -3.152,-5.373 -0.982,-1.46 -1.786,-3.294 -1.786,-4.076 0,-2.611 4.42,-5.581 13.5,-9.07 13.768,-5.29 44.332,-17.529 50.5,-20.221 5.774,-2.521 50.483,-19.479 51.355,-19.479 0.278,0 3.349,-1.314 6.825,-2.92 3.476,-1.607 8.705,-3.859 11.619,-5.005 11.444,-4.501 19.201,-9.874 19.201,-13.298 0,-0.757 0.44,-1.817 0.977,-2.354 0.537,-0.537 1.885,-5.392 2.995,-10.788 1.111,-5.396 2.227,-10.148 2.481,-10.559 0.615,-0.994 4.547,-35.20999 4.547,-39.56199 0,-1.875 -1.142,-5.569 -2.538,-8.211 -5.771,-10.918 -11.593,-10.918 -18.341,10e-4 -2.588,4.188 -6.121,14.132 -6.121,17.23 0,1.222 -0.718,2.817 -1.595,3.545 -2.266,1.88 -6.121,-0.477 -8.89,-5.436 -1.359,-2.433 -3.584,-4.519 -6.026,-5.648 -3.519,-1.627 -4.086,-1.65 -6.221,-0.251 -3.544,2.322 -4.269,4.436 -4.262,12.44 0.01,8.319 1.337,14.07199 4.18,18.07199 1.077,1.515 1.813,3.493 1.636,4.395 -0.853,4.339 -36.946,7.877 -132.822,13.02 -6.22,0.333 -11.396,1.122 -12.698,1.935 -2.532,1.58 -4.933,0.951 -6.33,-1.658 -1.113,-2.079 -1.199,-13.516 -0.147,-19.448 0.603,-3.40199 1.08,-3.99999 3.192,-3.99999 2.436,0 2.489,0.169 2.774,8.87299 l 0.29,8.874 4.71,-0.588 c 2.59,-0.323 13.034,-1.093 23.209,-1.711 10.175,-0.618 27.05,-1.646 37.5,-2.286 l 19,-1.162 -0.181,-4.163 c -0.273,-6.309 -4.714,-17.75299 -9.487,-24.45099 -1.563,-2.193 -0.358,-4.886 2.186,-4.886 1.145,0 3.521,0.697 5.282,1.548 2.958,1.432 3.048,1.427 1.2,-0.062 -1.1,-0.885 -3.235,-1.863 -4.745,-2.172 -2.199,-0.45 -2.965,-1.382 -3.855,-4.688 -1.118,-4.156 -5.749,-14.462 -8.121,-18.073 -4.754,-7.237 -7.588,-10.794 -12.99,-16.303 -3.37,-3.438 -6.47,-6.25 -6.887,-6.25 -0.418,0 -1.448,-0.689 -2.29,-1.531 -3.156,-3.156 -13.641,-7.448 -22.633,-9.264 l -9.302,-1.88 -0.225,-10.912 c -0.39,-18.897 -7.112,-32.698 -21.253,-43.635 -8.175,-6.323 -21.602,-11.695 -33.284,-13.319 -4.328,-0.601 -4.728,-0.928 -7.133,-5.83 -1.401,-2.857 -5.254,-8.786 -8.562,-13.176 -13.09501,-17.38 -28.50801,-30.162 -47.62501,-39.5 -12.198,-5.958 -13.236,-6.872 -11.515,-10.139 0.671,-1.273 1.535,-2.539 1.92,-2.814 0.748,-0.534 9,-17.399 9,-18.394 0,-0.326 2.532,-7.004 5.628,-14.841 5.565,-14.091 9.333,-28.639 9.359,-36.128 0.015,-4.429 -0.553,-4.384 13.013,-1.038 6.123,1.511 11.26301,1.839 28.00001,1.785 18.713,-0.059 21.499,-0.302 31.952,-2.788 13.689,-3.254 23.923,-7.834 30.048,-13.445 3.228,-2.957 5.375,-4.127 7.595,-4.137 2.995,-0.014 6.405,2.491 6.405,4.705 0,3.286 23.971,10.209 38.078,10.997 12.045,0.673 23.589,-1.494 33.668,-6.319 8.462,-4.05 13.899,-9.025 18.209,-16.663 3.111,-5.513 4.928,-6.712 14.045,-9.274 3.42,-0.961 16.78,-8.104 20.704,-11.07 5.115,-3.866 15.331,-14.301 21.431,-21.89 9.172,-11.41 19.822,-35.666 21.704,-49.432 0.457,-3.339 1.11,-6.351 1.453,-6.693 1.475,-1.475 3.867,0.987 7.122,7.33 1.918,3.737 3.51,6.419 3.537,5.959 0.027,-0.459 -1.409,-3.765 -3.191,-7.346 l -3.241,-6.51 2.491,-1.959 c 14.423,-11.345 24.973,-32.533 28.557,-57.349 1.733,-12 1.728,-20.902 -0.019,-34.064 -2.169,-16.342 -7.149,-29.658 -15.87,-42.436 -5.932,-8.69 -23.333,-24.711 -35.805,-32.962 -6.555,-4.338 -12.419,-8.053 -13.03,-8.257 -0.741,-0.247 -0.158,-3.525 1.747,-9.826 2.639,-8.729 2.856,-10.684 2.832,-25.455 -0.023,-14.588 -0.269,-16.795 -2.786,-25 -5.466,-17.818 -10.948,-27.68 -21.09,-37.936 -5.78,-5.845 -11.119,-10.564 -11.951,-10.564 -0.215,0 -3.314,-1.776 -6.887,-3.946 -13.309,-8.086 -37.684,-14.054 -57.4,-14.054 -9.323,0 -28.284,2.194 -34.301,3.969 -6.16,1.818 -6.819,1.493 -7.555,-3.719 -1.923,-13.624 -9.109,-34.976 -15.143,-44.998 -1.82,-3.022 -3.309,-5.89 -3.309,-6.373 0,-0.484 -0.353,-0.879 -0.784,-0.879 -0.432,0 -1.608,-1.394 -2.615,-3.099 -3.055,-5.17 -15.98,-17.403 -23.595,-22.328 -10.075,-6.518 -19.891,-10.608 -33.006,-13.754 -8.414,-2.018 -38.47501,-1.743 -48.35701,0.443 -9.04,2 -11.643,2.157 -11.643,0.703 0,-2.957 -24.443,-33.145 -32.681,-40.362 -1.948,-1.707 -5.179,-4.609 -7.181,-6.449 -5.258,-4.836 -13.963,-10.619 -22.219,-14.763 -10.208,-5.123 -15.595,-6.724 -29.919,-8.891 -10.435,-1.578 -15.887,-1.662 -26.621,-0.41 m -456.879,38.389 c -0.55,0.176 -4.375,1.093 -8.5,2.037 -9.779,2.237 -18.11,6.107 -25.323,11.761 -5.148,4.036 -5.555,4.603 -3.51,4.894 3.259,0.464 3.429,3.332 0.409,6.921 -3.816,4.535 -3.078,9.17 2.491,15.642 7.455,8.666 33.183,10.753 46.56,3.777 3.614,-1.885 5.624,-1.875 11.873,0.056 2.75,0.85 8.825,1.604 13.5,1.675 7.357,0.113 9.344,-0.251 14.777,-2.704 3.452,-1.56 7.615,-4.359 9.25,-6.221 3.785,-4.312 3.795,-3.273 0.024,2.603 -1.856,2.892 -5.006,5.842 -8.5,7.96 -3.053,1.85 -5.551,3.543 -5.551,3.762 0,0.812 7.837,-3.634 10.799,-6.126 2.935,-2.47 8.02,-10.363 8.707,-13.516 0.18,-0.825 0.795,-3.525 1.368,-6 2.258,-9.76 -2.883,-16.633 -14.545,-19.45 -13.954,-3.369 -19.91,-4.55 -22.957,-4.55 -1.72,0 -4.743,-0.675 -6.718,-1.5 -3.198,-1.336 -20.846,-2.082 -24.154,-1.021 m 359.047,103.632 c -11.812,1.722 -20.982,6.11 -29.661,14.196 -6.947,6.471 -11.865,14.048 -16.367,25.216 -4.544,11.27 -6.521,22.161 -6.508,35.837 0.01,10.551 2.297,36.885 3.545,40.816 0.95,2.994 -1.148,2.15 -10.844,-4.365 -10.892,-7.318 -12.562,-8.836 -21.168,-19.249 -8.39,-10.152 -10.407,-15.822 -8.765,-24.65 0.694,-3.729 2.183,-7.484 3.817,-9.627 2.525,-3.31 2.946,-3.484 7.258,-2.998 3.388,0.382 5.13,1.209 6.705,3.184 2.516,3.156 8.787,4.924 11.876,3.348 9.559,-4.875 6.381,-15.742 -6.435,-22.004 -12.793,-6.25 -22.496,-4.276 -33.187,6.75 -7.407,7.639 -8.758,11.018 -8.772,21.935 -0.02,15.735 3.291,24.64 13.567,36.488 11.995,13.831 30.889,28.133 46.581,35.261 5.171,2.349 5.795,2.979 6.856,6.918 2.758,10.246 9.387,29.009 14.471,40.959 3.016,7.09 5.484,13.086 5.484,13.325 0,0.867 12.388,26.12 14.976,30.529 1.459,2.486 4.827,8.57 7.484,13.52 9.206,17.151 13.856,25.045 20.32,34.5 5.918,8.656 13.965,19.759 15.221,21 0.278,0.275 3.719,4.325 7.648,9 7.647,9.102 20.861,22.767 28.851,29.839 8.777,7.768 19.662,12.079 28.518,11.295 0.835,-0.074 3.76,-1.976 6.5,-4.226 7.072,-5.81 28.303,-25.662 32.473,-30.366 1.93,-2.177 7.391,-8.027 12.136,-13 12.499,-13.101 22.229,-24.845 28.618,-34.542 3.08,-4.675 6.379,-9.4 7.33,-10.5 0.952,-1.1 2.717,-3.8 3.924,-6 5.313,-9.685 8.183,-14.5 8.644,-14.5 1.547,0 9.769,6.67 14.205,11.524 5.816,6.364 6.57,9.802 2.902,13.23 -2.923,2.732 -10.705,4.649 -15.994,3.94 -6.077,-0.815 -9.214,0.119 -11.095,3.303 -2.77,4.689 -2.177,9.391 1.582,12.554 3.225,2.714 3.306,2.726 14.526,2.124 13.283,-0.712 18.055,-2.439 24.438,-8.845 6.155,-6.176 8.534,-13.513 6.947,-21.418 -1.929,-9.603 -10.503,-20.927 -20.742,-27.393 -3.581,-2.262 -6.774,-4.799 -7.096,-5.638 -0.322,-0.839 0.417,-2.882 1.643,-4.539 2.026,-2.741 12.619,-23.31 16.398,-31.842 3.948,-8.912 10.761,-27.485 12.524,-34.14 6.994,-26.398 9.407,-44.035 9.487,-69.36 0.049,-15.172 -0.288,-19.477 -2.143,-27.399 -2.461,-10.51 -7.693,-25.035 -11.742,-32.601 -3.691,-6.898 -11.105,-14.024 -16.005,-15.384 -9.148,-2.54 -24.378,-0.341 -36.662,5.293 -6.773,3.107 -22.778,13.038 -28.968,17.976 -1.458,1.163 -4.137,3.24 -5.952,4.615 -7.92,6.001 -13.333,11.051 -28.042,26.168 -8.83,9.074 -16.117,15.787 -16.728,15.41 -0.595,-0.368 -3.662,-4.136 -6.815,-8.374 -16.154,-21.709 -36.081,-44.261 -46.311,-52.412 -11.115,-8.855 -28.771,-15.881 -39.378,-15.67 -3.367,0.067 -8.801,0.512 -12.075,0.989 m -150.806,4.318 c -2.068,0.738 -4.504,1.956 -5.413,2.706 -2.305,1.903 -5.032,8.473 -5.859,14.115 -0.387,2.639 -1.229,4.75 -1.895,4.75 -1.608,0 -5.969,4.753 -7.929,8.64 -3.696,7.331 -3.729,20.531 -0.066,26.122 1.43,2.182 1.43,2.7 -0.003,5.72 -1.892,3.986 -2.05,11.364 -0.326,15.221 1.675,3.748 5.322,7.833 10.644,11.921 4.009,3.081 4.995,3.376 11.265,3.376 6.644,0 6.934,-0.104 8.799,-3.171 2.16,-3.552 1.32,-6.789 -1.71,-6.589 -8.252,0.546 -23.101,-11.969 -20.926,-17.637 0.302,-0.788 1.816,-2.038 3.364,-2.777 3.754,-1.794 4.099,-5.104 0.926,-8.875 -6.491,-7.715 -2.941,-19.338 8.156,-26.7 2.003,-1.329 2.194,-2.055 1.639,-6.237 -0.368,-2.781 -0.175,-5.58 0.47,-6.784 1.561,-2.917 7.789,-6.512 11.484,-6.63 2.634,-0.084 3.189,-0.533 3.45,-2.793 0.579,-5.015 -7.85,-7.311 -16.07,-4.378 m 775.47401,15.518 c -4.007,1.089 -7.977,2.672 -8.822,3.517 -0.845,0.845 -1.885,1.536 -2.311,1.536 -0.951,0 -4.256,2.722 -9.715,8.003 l -4.133,3.997 h -8.457 c -22.921,0 -54.393,14.374 -61.256,27.978 -2.417,4.791 -4.484,15.735 -2.772,14.677 0.534,-0.33 1.24,-2.559 1.568,-4.952 0.728,-5.31 4.678,-14.487 6.543,-15.203 0.992,-0.38 1.144,-0.043 0.562,1.239 -0.441,0.968 -0.976,4.246 -1.189,7.282 -0.346,4.925 -0.028,6.059 2.94,10.5 3.928,5.879 8.538,8.475 15.048,8.477 5.742,0.002 14.34,-3.605 18.837,-7.903 1.781,-1.702 4.019,-3.095 4.972,-3.095 1.086,0 3.698,3.12 6.995,8.356 4.167,6.615 6.535,9.213 11.369,12.473 14.049,9.475 27.328,10.477 34.943,2.636 l 3.365,-3.465 h 12.835 c 20.283,0 32.109,-3.973 42.292,-14.21 l 4.992,-5.018 7.077,3.54 c 17.841,8.926 35.014,7.053 42.852,-4.675 1.787,-2.675 3.282,-6.05 3.32,-7.5 0.063,-2.372 0.157,-2.436 0.93,-0.637 0.612,1.424 0.88,1.553 0.93,0.446 0.116,-2.58 -5.621,-10.735 -8.658,-12.305 -1.562,-0.808 -4.487,-1.778 -6.499,-2.156 -2.888,-0.542 -3.781,-1.244 -4.243,-3.336 -1.898,-8.604 -26.958,-20.286 -40.217,-18.748 -4.782,0.555 -5.445,0.365 -8.5,-2.429 -7.061,-6.458 -18.66,-9.733 -37.313,-10.533 -8.912,-0.383 -12.383,-0.097 -18.285,1.508 m -996.71501,47.734 c -1.65,0.881 -4.604,2.86 -6.565,4.398 -2.522,1.978 -5.01,2.908 -8.5,3.178 l -4.935,0.383 5.173,0.18 c 4.215,0.147 5.723,-0.282 8.137,-2.314 1.63,-1.371 4.927,-3.616 7.327,-4.988 4.762,-2.722 4.222,-3.43 -0.637,-0.837 m 20,0.863 c -12.266,3.073 -17.713,5.665 -23.676,11.265 -2.903,2.727 -4.257,3.341 -6.44,2.924 -4.657,-0.89 -15.537,1.167 -19.997,3.78 -2.312,1.355 -5.108,3.706 -6.215,5.225 -1.84,2.526 -2.267,2.664 -5.017,1.627 -3.349,-1.265 -9.367,-0.46 -15.32,2.047 -7.204,3.035 -15.229,16.093 -16.344,26.597 -0.55,5.189 -0.401,5.686 2.713,9.03 4.137,4.442 9.354,7.669 18.296,11.317 5.583,2.277 8.944,2.934 16.607,3.245 8.749,0.356 10.56,0.088 20.294,-3.002 11.71,-3.716 15.409,-3.506 17.457,0.99 1.473,3.231 7.363,7.371 12.847,9.029 3.886,1.175 5.743,1.228 9.795,0.281 5.755,-1.344 9.943,-3.302 12.844,-6.005 2.219,-2.067 2.714,-2.193 5.074,-1.287 0.961,0.369 1.582,1.796 1.582,3.634 0,4.774 2.112,10.598 4.828,13.315 6.116,6.116 18.849,8.985 26.651,6.005 3.742,-1.429 4.834,-2.48 6.509,-6.266 1.106,-2.502 2.012,-5.167 2.012,-5.922 0,-2.472 4.931,-1.618 6.154,1.066 1.101,2.415 1.151,2.423 5.229,0.848 12.658,-4.892 21.496,-18.458 19.107,-29.33 -1.003,-4.571 -8.607,-11.957 -12.309,-11.957 -4.393,0 -8.26,-5.597 -5.181,-7.5 1.74,-1.076 1.092,-4.802 -1.956,-11.245 -5.989,-12.659 -14.813,-19.004 -28.006,-20.137 -6.065,-0.522 -8.035,-1.115 -9.903,-2.983 -1.283,-1.283 -4.875,-3.47 -7.984,-4.861 -7.172,-3.21 -20.615,-3.994 -29.651,-1.73 m -285.273,26.83 c -11.393003,4.343 -21.065003,12.404 -25.543003,21.288 -2.961,5.876 -4.292,11.338 -2.763,11.338 1.585,0 1.318,1.362 -0.698,3.561 -5.787,6.312 -14.727,23.794 -16.07,31.421 -1.138,6.47 0.035,9.549 5.096,13.368 4.497,3.394 9.799,4.638 19.791,4.644 9.423,0.007 18.246003,-1.903 24.164003,-5.229 3.848,-2.162 3.883,-2.163 8.58,-0.288 7.742,3.091 15.059,3.143 20.969,0.148 5.623,-2.849 10.888,-9.196 11.84,-14.271 0.339,-1.806 1.132,-3.677 1.762,-4.158 0.63,-0.482 5.645,-1.436 11.145,-2.121 19.872,-2.475 31.864,-6.303 39.271,-12.536 3.238,-2.724 9.891,-12.107 11.973,-16.885 3.275,-7.516 -4.54,-16.588 -18.744,-21.759 -2.284,-0.831 -9.582,-1.312 -21,-1.383 -10.787,-0.068 -18.276,-0.537 -19.523,-1.225 -3.615,-1.992 -14.134,-4.287 -19.649,-4.287 -3.396,0 -6.257,-0.612 -7.752,-1.66 -4.039,-2.828 -15.386,-2.812 -22.849,0.034 m -37.071003,37.876 c -4.765,4.906 -14.577,18.662 -13.838,19.401 0.182,0.183 2.526,-3.077 5.208,-7.243 2.682,-4.166 7.297,-9.788 10.256,-12.492 2.958,-2.704 4.951,-4.916 4.427,-4.916 -0.524,0 -3.248,2.363 -6.053,5.25 m 1063.094013,-4.588 c -2.683,1.083 -0.986,4.326 5.027,9.604 10.278,9.024 14.132,21.487 11.734,37.941 -0.88,6.043 -0.914,9.046 -0.125,11.069 1.336,3.421 3.726,4.447 6.428,2.76 6.606,-4.126 12.798,-3.103 19.339,3.193 4.693,4.517 7.797,12.405 8.681,22.062 0.56,6.122 -0.824,10.974 -4.445,15.577 -2.477,3.149 -2.398,5.836 0.196,6.659 2.649,0.841 5.806,-2.017 8.758,-7.927 4.889,-9.79 5.241,-24.368 0.821,-34.024 -3.276,-7.155 -12.105,-15.51 -21.345,-20.2 l -7.529,-3.822 0.503,-4.463 c 0.711,-6.304 -0.919,-16.438 -3.437,-21.374 -5.132,-10.058 -18.677,-19.447 -24.606,-17.055 m -599.76801,65.973 c -10.334,6.84 -16.71,16.339 -18.024,26.852 -0.782,6.265 1.325,15.431 5.128,22.301 2.796,5.05 11.182,14.181 13.042,14.2 0.62,0.007 1.687,0.687 2.372,1.512 0.685,0.825 2.063,1.5 3.063,1.5 2.824,0 2.932,1.101 0.74,7.526 -1.734,5.083 -1.947,7.466 -1.426,15.974 1.498,24.448 12.301,45.374 28.806,55.797 7.142,4.51 12.26,6.412 24.978,9.283 12.744,2.877 15.108,2.965 18.935,0.704 4.803,-2.837 3.254,-7.274 -2.546,-7.295 -8.1,-0.029 -24.924,-7.951 -32.758,-15.425 -10.365,-9.889 -13.445,-14.348 -18.261,-26.441 -3.132,-7.866 -3.821,-10.965 -4.276,-19.224 -0.365,-6.621 -0.171,-10.295 0.591,-11.213 0.624,-0.752 2.521,-4.026 4.216,-7.276 1.695,-3.251 5.524,-8.234 8.51,-11.074 5.882,-5.597 6.231,-6.39 3.857,-8.765 -1.975,-1.974 -1.421,-2.028 -9.618,0.929 -9.486,3.422 -14.285,3.284 -20.118,-0.58 -9.268,-6.139 -12.246,-12.201 -12.061,-24.551 0.094,-6.21 0.498,-7.694 3.132,-11.5 4.761,-6.879 7.85,-9.298 11.919,-9.336 4.29,-0.039 6.444,-2.47 4.387,-4.949 -2.173,-2.619 -9.882,-2.063 -14.588,1.051 m 500.82701,76.001 c -0.904,2.356 0.897,4.661 4.34,5.553 1.894,0.491 4.176,2.432 6.243,5.311 3.728,5.19 3.643,7.843 -0.491,15.376 -1.32,2.407 -2.387,4.882 -2.369,5.5 0.017,0.618 1.588,2.673 3.491,4.567 1.902,1.893 4.202,5.389 5.111,7.769 1.56,4.083 1.549,4.556 -0.191,8.414 -1.013,2.247 -4.453,6.673 -7.644,9.834 -6.408,6.349 -8.799,11.13 -6.782,13.561 2.299,2.77 4.939,1.485 12.884,-6.271 9.816,-9.583 16.099,-19.058 16.099,-24.278 0,-3.117 -0.697,-4.344 -4.316,-7.595 -2.373,-2.132 -5.16,-4.36 -6.193,-4.951 -1.812,-1.035 -1.797,-1.188 0.417,-4.296 4.617,-6.485 4.034,-17.753 -1.197,-23.131 -5.933,-6.1 -17.854,-9.395 -19.402,-5.363 m -669.28001,48.643 c -0.062,1.658 6.413,13.51 10.502,19.221 2.363,3.3 7.136,8.7 10.608,12 l 6.312,6 -7.026,-7.5 c -8.486,-9.058 -10.675,-12.107 -16.146,-22.49 -2.321,-4.405 -4.234,-7.66 -4.25,-7.231 m 915.56101,28.721 c 0.356,1.375 0.921,9.475 1.257,18 0.585,14.857 0.632,15.126 1.132,6.5 0.559,-9.656 -0.362,-20.935 -2.017,-24.688 -0.996,-2.262 -1.004,-2.258 -0.372,0.188 m 144.41,9.42 c -8.885,2.367 -16,5.376 -16,6.765 0,0.448 -0.562,0.82 -1.25,0.826 -0.687,0.006 -3.053,1.735 -5.257,3.843 -3.601,3.446 -4.662,3.886 -10.5,4.354 -11.002,0.883 -22.725,6.929 -33.493,17.271 -3.3,3.17 -5.281,5.261 -4.402,4.646 1.349,-0.944 1.611,-0.669 1.68,1.761 0.285,10.021 4.738,15.973 15.076,20.146 9.475,3.824 16.8,3.98 24.617,0.523 3.041,-1.345 5.529,-2.835 5.529,-3.311 0,-1.173 3.857,-5.244 4.968,-5.244 0.489,0 1.577,0.688 2.419,1.53 2.328,2.328 9.325,4.473 14.489,4.442 7.151,-0.044 13.086,-3.536 16.185,-9.524 2.938,-5.676 4.034,-6.057 13.302,-4.614 7.869,1.225 20.786,-0.056 29.637,-2.939 3.575,-1.164 6.928,-2.517 7.45,-3.006 0.522,-0.489 1.776,-0.889 2.785,-0.889 3.892,0 15.002,-9.07 16.945,-13.834 0.436,-1.068 0.701,-0.411 0.74,1.834 0.12,6.96 -6.027,16.188 -14.499,21.764 -1.057,0.696 -0.548,0.618 1.131,-0.173 4.444,-2.093 10.863,-9.493 12.931,-14.907 2.325,-6.088 1.561,-13.922 -1.704,-17.471 -3.875,-4.212 -9.492,-6.167 -17.786,-6.191 -4.128,-0.012 -9.015,0.411 -10.859,0.94 -2.792,0.8 -4.167,0.548 -8.223,-1.507 -18.795,-9.524 -30.078,-11.253 -45.911,-7.035 m -584.50001,10.737 c -9.35,0.526 -18.051,1.174 -19.335,1.44 -1.284,0.266 -4.753,2.845 -7.709,5.731 -4.572,4.464 -6.538,5.589 -13.165,7.534 -22.675,6.657 -39.291,19.262 -39.291,29.806 0,5.99 3.402,9.874 11.68,13.332 3.95,1.65 7.775,2.999 8.5,2.997 0.726,-10e-4 4.44,0.755 8.254,1.68 6.089,1.478 8.284,1.535 18,0.468 6.086,-0.668 17.023,-2.632 24.303,-4.364 l 13.236,-3.149 7.764,3.934 c 7.463,3.782 8.141,3.934 17.55,3.934 5.383,0 10.108,-0.45 10.5,-1 0.392,-0.55 1.776,-1.598 3.076,-2.329 2.105,-1.184 2.979,-1.003 8,1.652 3.1,1.64 8.787,3.955 12.637,5.144 8.555,2.642 26.072,3.803 32.19,2.132 4.68,-1.278 11.65,-7.215 13.167,-11.215 0.949,-2.505 1.412,-2.645 10.904,-3.318 12.511,-0.887 16.483,-1.791 20.765,-4.722 3.596,-2.462 4.993,-5.979 3.96,-9.966 -2.059,-7.944 -22.617,-14.515 -48.784,-15.593 l -13.797,-0.568 -1.482,-2.867 c -2.406,-4.651 -11.707,-13.292 -17.006,-15.798 -2.704,-1.279 -7.392,-2.946 -10.417,-3.705 -7.259,-1.823 -32.333,-2.38 -53.5,-1.19 m -1.153,6.848 c -15.004,0.634 -16.372,0.854 -19.223,3.089 -1.688,1.323 -3.369,3.531 -3.735,4.906 -1.061,3.989 -2.377,5 -6.507,5 -6.707,0 -23.968,6.906 -31.616,12.649 -2.831,2.126 -3.082,2.673 -2.01,4.389 2.113,3.384 10.141,5.333 22.244,5.4 12.392,0.07 22.196,-1.931 31.926,-6.516 5.473,-2.578 6.139,-2.681 8.723,-1.345 4.501,2.327 15.994,6.188 20.612,6.924 7.056,1.124 16.728,-2.041 22.06,-7.218 1.937,-1.88 2.777,-1.633 6.926,2.037 10.369,9.172 31.093,13.915 44.704,10.231 6,-1.624 6.897,-1.632 13.553,-0.118 6.484,1.475 7.82,1.482 14.812,0.08 8.984,-1.802 15.184,-4.29 15.184,-6.093 0,-1.623 -8.528,-4.829 -18.092,-6.802 -7.302,-1.506 -29.113,-3.475 -35.878,-3.239 -3.099,0.108 -3.813,-0.4 -6.677,-4.756 -4.707,-7.158 -8.834,-11.044 -14.866,-13.998 -11.353,-5.559 -21.715,-6.329 -62.14,-4.62 m -367.311,8.495 c -0.029,1.687 5.537,10.801 11.142,18.243 6.593,8.756 20.022,24.09 21.18,24.186 0.472,0.039 -2.715,-3.866 -7.082,-8.679 -9.858,-10.862 -18.231,-21.868 -22.195,-29.172 -1.665,-3.068 -3.035,-5.128 -3.045,-4.578 m 800.24001,28.291 c -3.805,6.915 -11.922,16.441 -19.885,23.335 -6.613,5.724 -8.878,7.978 -5.891,5.859 5.858,-4.153 14.954,-12.782 19.254,-18.265 5.056,-6.445 10.706,-15.593 10.042,-16.257 -0.209,-0.209 -1.793,2.189 -3.52,5.328 m 182.848,6.477 c -0.667,1.246 -3.654,4.035 -6.637,6.196 -6.25,4.529 -6.598,6.271 -0.393,1.971 4.162,-2.884 9.588,-9.087 8.714,-9.961 -0.26,-0.259 -1.017,0.548 -1.684,1.794 m -979.62401,34.255 c -3.3,0.706 -10.5,2.469 -16,3.917 l -10,2.633 -3.815,-2.137 c -8.804,-4.932 -21.553,-3.271 -39.494,5.145 -20.721,9.72 -31.526,20.505 -31.093,31.035 0.065,1.58 0.525,0.866 1.364,-2.116 1.058,-3.761 1.396,-4.171 2.061,-2.5 0.801,2.014 3.561,5.336 8.833,10.631 2.653,2.666 3.404,2.869 10.601,2.869 7.086,0 11.103,-0.729 16.543,-3 4.953,-2.068 9.148,-3 13.505,-3 3.797,0 5.558,0.648 9.101,3.346 4.971,3.786 13.312,6.173 18.299,5.238 4.323,-0.811 7.669,-3.974 11.629,-10.99 1.75,-3.102 4.09,-6.125 5.2,-6.719 1.109,-0.594 6.984,-1.243 13.055,-1.444 l 11.038,-0.364 5.586,-4.322 c 3.493,-2.701 6.633,-6.259 8.378,-9.492 l 2.792,-5.171 -2.675,-4.042 c -6.354,-9.601 -18.741,-12.978 -34.908,-9.517 m 738.12601,3.038 c -2.416,0.886 -6.094,3.843 -9.773,7.859 -3.245,3.541 -8.815,8.518 -12.377,11.06 -3.562,2.541 -6.476,4.852 -6.476,5.134 0,1.472 12.957,-8.885 18.605,-14.872 4.954,-5.252 7.754,-7.345 11.704,-8.75 2.855,-1.015 4.516,-1.847 3.691,-1.848 -0.825,-0.002 -3.243,0.636 -5.374,1.417 m -135.119,14.428 c -0.336,0.543 -0.01,0.757 0.727,0.475 0.736,-0.283 3.797,1.336 6.802,3.597 5.266,3.962 18.817,11.419 19.503,10.733 0.184,-0.183 -2.9,-2.007 -6.852,-4.052 -3.953,-2.045 -9.559,-5.523 -12.457,-7.73 -5.507,-4.192 -6.71,-4.663 -7.723,-3.023 m -471.00701,8.122 c 3.814,0.738 26.086,1.1 24,0.391 -0.55,-0.187 -7.075,-0.526 -14.5,-0.752 -7.907,-0.242 -11.843,-0.092 -9.5,0.361 m 417.29701,-0.366 c 4.564,0.185 11.764,0.184 16,-0.003 4.237,-0.187 0.503,-0.338 -8.297,-0.337 -8.8,10e-4 -12.266,0.154 -7.703,0.34 m -45.19901,14.646 c -1.966,3.515 -5.154,8.283 -7.086,10.595 -3.473,4.156 -3.988,5.014 -3.01,5.014 0.934,0 9.695,-12.468 12.122,-17.25 3.511,-6.921 2.142,-5.812 -2.026,1.641 m -563.598,20.781 c -2.475,0.524 -8.775,0.76 -14,0.524 -7.458,-0.336 -8.64,-0.224 -5.5,0.523 4.484,1.066 20.396,0.37 25,-1.093 3.923,-1.248 0.472,-1.219 -5.5,0.046 m 1035.00001,25.487 c -8.927,1.38 -26,7.604 -26,9.478 0,0.474 -3.955,0.863 -8.79,0.863 -15.62,0 -28.151,4.77 -39.358,14.982 -5.963,5.433 -6.712,5.814 -12.35,6.285 -12.262,1.025 -28.311,8.778 -34.67,16.751 -1.949,2.443 -2.953,5.041 -3.286,8.5 -0.316,3.291 -0.229,3.964 0.255,1.982 l 0.733,-3 1.38,3.311 c 1.49,3.577 5.26,6.756 11.586,9.77 3.242,1.544 6.274,1.907 16,1.912 11.173,0.007 12.466,-0.2 18.756,-2.993 7.663,-3.403 14.976,-8.803 16.926,-12.5 2.834,-5.374 2.84,-5.375 17.135,-4.122 21.655,1.9 36.134,-0.647 45.568,-8.015 1.354,-1.058 3.997,-1.863 6.117,-1.863 4.846,0 13.444,-3.506 18.498,-7.544 2.2,-1.758 5.125,-5.462 6.499,-8.231 1.635,-3.292 2.788,-4.636 3.331,-3.88 0.458,0.635 0.553,-1.545 0.213,-4.845 -0.547,-5.304 -1.098,-6.489 -4.755,-10.215 -5.507,-5.612 -10.815,-7.32 -22.216,-7.149 -4.99,0.075 -10.197,0.31 -11.572,0.523 m 23.262,44.649 c -1.781,1.205 -6.447,5.792 -10.369,10.192 l -7.13,8 8.495,-8.5 c 4.673,-4.675 9.564,-9.267 10.869,-10.205 3.452,-2.481 1.945,-2.067 -1.865,0.513 m -1216.76201,29.544 c -20.66,6.367 -29.778,10.776 -37.241,18.008 -1.897,1.838 -4.289,3.14 -5.77,3.14 -4.462,0 -17.393,6.085 -22.989,10.818 -5.938,5.021 -18.539,29.115 -20.083,38.398 -0.3,1.806 0.644,-0.091 2.098,-4.216 3.72,-10.552 9.596,-21.44 15.515,-28.75 5.757,-7.11 8.338,-8.386 4.045,-2 -6.387,9.5 -8.895,25.28 -5.173,32.54 4.175,8.142 9.048,11.21 17.805,11.21 7.229,0 11.538,-1.205 16.429,-4.594 4.132,-2.864 4.874,-2.859 15.364,0.102 4.382,1.236 8.705,1.594 16.027,1.325 9.02,-0.33 10.489,-0.66 14.636,-3.283 2.534,-1.603 6.024,-5.078 7.755,-7.722 3.621,-5.531 6.515,-6.69 10.963,-4.39 9.916,5.128 36.938,5.979 51.94,1.635 8.83,-2.556 19.646,-7.878 26.891,-13.229 6.799,-5.023 14.041,-14.137 15.521,-19.535 0.633,-2.304 1.59,-3.918 2.128,-3.586 0.561,0.347 0.718,-0.075 0.368,-0.988 -0.337,-0.876 -0.904,-3.149 -1.26,-5.051 -0.973,-5.185 -6.267,-10.193 -12.778,-12.085 -10.458,-3.041 -21.652,-1.614 -34.496,4.397 l -6.424,3.006 -4.678,-3.434 c -7.232,-5.308 -13.982,-7.568 -22.607,-7.568 -6.762,0 -7.584,-0.22 -9.022,-2.414 -4.455,-6.8 -16.575,-7.401 -34.964,-1.734 m 115.554,56.187 c -2.419,3.321 -6.122,7.596 -8.229,9.5 -2.107,1.903 -3.419,3.461 -2.916,3.461 1.287,0 12.997,-12.929 14.717,-16.25 2.166,-4.18 1.258,-3.344 -3.572,3.289 m 545.945,20.645 c -10e-4,1.464 -6.418,7.771 -9.853,9.684 -12.137,6.76 -35.337,5.713 -38.981,-1.758 -1.715,-3.516 -3.884,-4.32 -5.985,-2.218 -1.554,1.553 -1.532,1.909 0.327,5.305 2.609,4.767 5.846,7.047 12.526,8.824 9.636,2.565 25.37,1.277 33.001,-2.701 4.886,-2.547 12.572,-8.716 13.861,-11.125 1.918,-3.582 1.072,-6.139 -2.154,-6.511 -1.507,-0.174 -2.741,0.051 -2.742,0.5 m 342.81701,1.859 c 6.554,5.347 8.624,9.929 9.24,20.457 l 0.557,9.5 0.193,-9.29 c 0.171,-8.168 -0.075,-9.679 -2.036,-12.5 -3.38,-4.866 -7.044,-8.77 -9.27,-9.877 -1.1,-0.547 -0.508,0.222 1.316,1.71 m -768.86901,12.207 c -4.128,4.263 -8.591,9.1 -9.919,10.75 -1.327,1.65 -0.677,1.2 1.445,-1 2.121,-2.2 6.809,-7.038 10.415,-10.75 3.607,-3.712 6.335,-6.75 6.062,-6.75 -0.273,0 -3.874,3.487 -8.003,7.75 m 264.181,7.613 c -3.043,3.24 -13.836,8.356 -21.383,10.135 -7.446,1.756 -23.08,1.96 -27.846,0.363 -1.869,-0.626 -4.432,-2.073 -5.694,-3.216 -1.782,-1.613 -2.676,-1.839 -4,-1.009 -5.109,3.202 0.214,9.401 9.848,11.47 7.372,1.584 25.627,0.492 33.776,-2.02 8.043,-2.479 20.582,-9.617 22.198,-12.636 2.759,-5.156 -2.672,-7.586 -6.899,-3.087 m -365.628,59.64999 c 7.7,7.968 14.26,14.611 14.578,14.763 0.317,0.152 1.117,-0.973 1.777,-2.5 l 1.2,-2.776 -1.852,2.343 -1.851,2.342 -1.546,-2.342 c -1.638,-2.483 -19.784,-20.969 -23.883,-24.33 -1.333,-1.093 3.877,4.532 11.577,12.5 m 482.75,9.649 c -0.687,0.278 -1.252,1.48 -1.254,2.671 -0.016,9.604 -23.885,23.508 -47.43,27.628 -8.285,1.451 -22.091,1.275 -28.227,-0.359 -10.869,-2.894 -20.295,-8.736 -21.813,-13.52 -0.673,-2.12 -3.857,-3.613 -5.517,-2.588 -2.123,1.313 -1.006,6.44 2.199,10.09 4.339,4.942 9.279,7.906 18.523,11.113 6.948,2.41 9.196,2.695 21.269,2.694 11.693,-10e-4 14.905,-0.381 24,-2.839 5.775,-1.56 14.1,-4.507 18.5,-6.549 12.439,-5.771 24.5,-16.177 24.5,-21.138 0,-0.961 0.45,-2.025 1,-2.365 0.55,-0.34 1,-1.443 1,-2.452 0,-2.535 -3.4,-3.737 -6.75,-2.386 m -518.073,27.588 c 3.387,6.426 19.285,23.621 20.612,22.294 0.382,-0.382 -0.116,-1.148 -1.107,-1.702 -5.648,-3.161 -15.414,-14.44 -19.561,-22.592 -1.189,-2.338 -2.404,-4.25 -2.7,-4.25 -0.296,0 0.944,2.813 2.756,6.25 m 835.22301,35.25 c 10e-4,8.25 0.156,11.492 0.344,7.204 0.188,-4.287 0.187,-11.037 0,-15 -0.19,-3.962 -0.343,-0.454 -0.342,7.796 m -791.10201,-5.756 c 6.917,0.303 8.422,0.742 13.333,3.883 3.044,1.947 5.727,3.348 5.962,3.113 0.235,-0.235 -2.344,-2.073 -5.732,-4.084 -5.778,-3.429 -6.632,-3.644 -13.761,-3.455 l -7.6,0.201 7.798,0.342 m 924.46201,94.739 c -6.565,1.807 -12.624,5.078 -16.76,9.047 -3.415,3.278 -3.707,3.359 -12,3.346 -6.747,-0.011 -9.91,0.521 -15.338,2.58 -7.33,2.78 -14.048,6.012 -16.392,7.886 -3.329,2.663 -15.27,15.078 -15.27,15.877 0,0.478 -1.013,1.923 -2.25,3.212 -2.082,2.168 -3.257,2.383 -15.75,2.875 -12.954,0.511 -20.285,1.897 -27.554,5.21 -3.048,1.389 -14.466,12.598 -14.424,14.16 0.012,0.453 0.902,-0.301 1.978,-1.676 1.076,-1.375 1.991,-2.275 2.035,-2 0.044,0.275 0.258,2.186 0.475,4.248 0.217,2.061 1.124,5.286 2.016,7.166 1.767,3.724 7.878,8.321 11.621,8.743 4.973,0.56 21.869,-1.617 29.002,-3.738 0.956,-0.284 3.059,0.799 5,2.575 9.862,9.019 23.02,9.451 28.397,0.932 2.302,-3.645 2.572,-3.781 5.499,-2.76 1.707,0.595 6.984,0.886 11.844,0.654 8.16,-0.39 9.201,-0.694 15.053,-4.394 4.114,-2.602 7.054,-5.349 8.508,-7.951 l 2.221,-3.975 9.914,-0.598 c 15.515,-0.936 23.12,-4.345 33.415,-14.978 4.081,-4.215 5.036,-4.701 10.245,-5.213 7.543,-0.742 14.17,-4.16 18.638,-9.613 2.987,-3.646 3.6,-5.171 3.521,-8.756 -0.055,-2.514 0.361,-4.342 0.989,-4.342 2.288,0 -7.114,-7.025 -11.393,-8.512 -2.475,-0.861 -8.1,-1.819 -12.5,-2.131 -6.682,-0.473 -8.692,-1.048 -12.201,-3.489 -8.324,-5.79 -18.019,-7.28 -28.539,-4.385 m -421.76201,35.363 c -5.775,1.543 -13.65,4.075 -17.5,5.627 -6.193,2.495 -30.37,14.629 -33,16.562 -0.55,0.405 -4.6,2.658 -9,5.007 -9.45,5.046 -21.784,12.327 -26,15.349 -1.65,1.182 -4.247,2.784 -5.77,3.559 -1.524,0.775 -2.424,1.723 -2,2.107 0.423,0.383 4.37,2.13 8.77,3.881 4.4,1.752 9.8,4.27 12,5.596 2.2,1.326 5.35,3.083 7,3.904 1.65,0.821 4.8,2.63 7,4.02 2.2,1.391 4.675,2.836 5.5,3.212 0.825,0.375 2.892,1.728 4.594,3.006 1.702,1.278 3.392,2.324 3.755,2.324 0.363,0 3.471,1.958 6.906,4.35 11.043,7.693 22.674,14.65 24.484,14.646 0.969,0 3.142,-0.846 4.83,-1.875 1.688,-1.029 4.163,-2.218 5.5,-2.641 2.183,-0.692 17.549,-7.905 33.267,-15.617 6.874,-3.372 8.248,-3.509 9.614,-0.956 1.425,2.663 -1.431,5.948 -6.943,7.987 -4.795,1.774 -6.158,3.732 -3.34,4.8 1.008,0.382 2.428,1.282 3.154,2 0.727,0.718 1.988,1.306 2.803,1.306 5.667,0 30.376,-7.521 30.376,-9.246 0,-0.437 1.058,-2.472 2.352,-4.524 1.293,-2.051 4.005,-7.866 6.027,-12.921 4.154,-10.391 5.649,-21.896 3.751,-28.871 -2.469,-9.07 -14.383,-21.569 -25.63,-26.89 -12.199,-5.77 -19.607,-7.71 -31,-8.116 -9.654,-0.344 -12.285,-0.049 -21.5,2.414 m -473.049,12.517 c -8.466,1.823 -16.062,6.186 -23.054,13.241 -3.486,3.518 -6.885,6.396 -7.552,6.396 -1.884,0 -13.394,5.114 -17.845,7.928 -9.119,5.765 -14.558,10.299 -16.007,13.342 -1.607,3.375 -1.624,3.391 2.882,-2.768 2.221,-3.038 2.79,-1.371 1.533,4.492 -2.089,9.742 0.944,18.251 7.545,21.164 2.319,1.024 3.174,2.172 3.608,4.842 1.158,7.127 4.626,10.287 12.708,11.579 4.736,0.757 13.471,-1.534 20.654,-5.417 5.011,-2.71 10.577,-9.1 10.577,-12.143 0,-0.925 1.056,-2.246 2.347,-2.937 2.089,-1.118 2.868,-0.889 7.082,2.081 6.444,4.541 11.63,4.321 22.842,-0.97 8.633,-4.074 14.174,-8.534 17.257,-13.889 1.011,-1.757 2.164,-2.995 2.56,-2.749 0.895,0.553 0.074,-6.939 -1.232,-11.237 -0.531,-1.75 -2.291,-4.849 -3.911,-6.887 -1.62,-2.038 -2.945,-4.37 -2.945,-5.182 0,-2.511 -4.325,-9.582 -8,-13.081 -4.629,-4.406 -8.258,-6.232 -15.5,-7.799 -7.172,-1.552 -8.369,-1.553 -15.549,-0.01 m 682.09001,7.854 c -6.104,9.228 -17.118,21.198 -25.628,27.85 -8.621,6.739 -11.491,9.503 -5.993,5.772 11.46,-7.778 30.81,-28.648 36.169,-39.011 2.475,-4.787 1.121,-3.182 -4.548,5.389 m 261.307,-5.222 c -1.183,0.477 -2.983,2.119 -4,3.648 -1.016,1.529 -4.435,5.4 -7.597,8.603 -3.161,3.203 -4.943,5.392 -3.958,4.865 2.305,-1.234 10.58,-10.072 12.114,-12.938 0.649,-1.211 2.622,-2.834 4.386,-3.606 3.451,-1.511 2.623,-2.012 -0.945,-0.572 m -689.34801,18.055 c -16.101,2.586 -24.276,7.01 -27.637,14.954 -6.033,14.257 -2.773,24.948 12.603,41.331 5.13,5.466 12.034,9.652 12.034,7.296 0,-1.526 2.082,-2.627 4.97,-2.627 2.355,0 21.354,5.326 41.498,11.634 20.013,6.267 56.34,19.964 80.791,30.464 3.717,1.596 7.38,2.902 8.139,2.902 0.759,0 6.43,2.25 12.602,5 6.172,2.75 11.665,5 12.206,5 0.542,0 2.251,0.901 3.797,2.002 3.252,2.316 28.883,12.503 36.997,14.705 18.108,4.915 28.181,5.802 33.665,2.966 1.598,-0.826 5.028,-4.203 7.621,-7.503 3.811,-4.852 4.714,-6.758 4.714,-9.952 0,-4.819 -3.152,-12.853 -7.931,-20.216 -3.224,-4.967 -13.69,-16.189 -18.655,-20.002 -7.089,-5.444 -13.131,-9.714 -14.429,-10.195 -0.833,-0.309 -6.566,-3.991 -12.741,-8.183 -6.174,-4.192 -11.643,-7.622 -12.152,-7.622 -0.509,0 -1.075,-0.361 -1.259,-0.803 -0.183,-0.441 -3.033,-2.48 -6.333,-4.529 -3.3,-2.05 -6.675,-4.151 -7.5,-4.669 -17.59,-11.045 -35.093,-19.342 -47.5,-22.514 -10.618,-2.715 -21.187,-5.674 -25.5,-7.139 -25.224,-8.569 -46.173,-12.546 -68,-12.909 -9.075,-0.151 -18.975,0.124 -22,0.609 m 506.00001,1.024 c 0,2.187 5.969,9.644 9.693,12.108 6.567,4.346 12.108,6.826 15.017,6.722 2.432,-0.088 2.305,-0.215 -0.992,-0.992 -8.166,-1.922 -16.394,-7.793 -20.326,-14.503 -2.632,-4.491 -3.392,-5.238 -3.392,-3.335 m -623.56301,39.396 c 4.086,3.888 18.563,12.573 18.563,11.137 0,-0.232 -3.405,-2.291 -7.566,-4.574 -4.161,-2.284 -9.448,-5.752 -11.75,-7.706 -3.074,-2.611 -2.874,-2.307 0.753,1.143 m 448.30201,17.277 c -3.98,6.449 -11.41101,14.154 -17.48401,18.129 -7.44,4.869 -7.774,5.208 -2.429,2.463 6.711,-3.447 15.73101,-12.085 20.56601,-19.694 2.048,-3.223 3.54,-6.042 3.317,-6.265 -0.223,-0.224 -2.01,2.192 -3.97,5.367 m -576.84601,7.507 c -6.448,7.885 -11.785,12.593 -17.893,15.782 -3.025,1.579 -5.145,2.893 -4.71,2.92 1.606,0.098 9.341,-4.299 13.508,-7.679 2.363,-1.916 6.166,-5.96 8.45,-8.985 2.284,-3.026 5.075,-5.874 6.202,-6.331 1.566,-0.634 1.659,-0.845 0.393,-0.894 -0.911,-0.034 -3.589,2.299 -5.95,5.187 m 248.607,6.923 c -2.75,1.135 -10.059,3.797 -16.242,5.915 -13.53,4.636 -16.202,5.963 -21.318,10.585 -3.545,3.203 -3.94,4.041 -3.94,8.36 0,11.541 9.717,24.05 22.201,28.582 6.131,2.225 24.4,4.556 30.299,3.865 15.301,-1.792 36.225,-8.527 54.5,-17.543 3.575,-1.764 7.4,-3.483 8.5,-3.822 4.136,-1.272 16.509,-8.589 16.182,-9.569 -0.905,-2.714 -77.873,-28.797 -84.075,-28.491 -0.609,0.03 -3.357,0.983 -6.107,2.118 m -38.175,7.321 c -4.677,3.065 -10.325,9.563 -10.325,11.878 0,0.499 1.165,-0.81 2.59,-2.909 2.744,-4.043 5.561,-6.57 11.352,-10.182 1.957,-1.22 3.108,-2.21 2.558,-2.199 -0.55,0.011 -3.329,1.546 -6.175,3.412 m 133.425,23.574 c -2.062,1.089 -3.75,2.203 -3.75,2.476 0,0.273 1.824,-0.434 4.052,-1.571 3.82,-1.949 4.236,-1.975 7.25,-0.454 2.965,1.495 19.289,8.067 22.698,9.137 4.231,1.329 -4.865,-3.016 -11.18,-5.341 -4.026,-1.482 -8.67,-3.507 -10.32,-4.501 -3.688,-2.221 -4.084,-2.209 -8.75,0.254 m -72.206,104.276 c -3.183,2.327 -1.087,6.476 7.403,14.656 4.282,4.125 9.645,8.541 11.919,9.814 5.692,3.186 5.191,2.208 -0.886,-1.73 -5.668,-3.673 -14.722,-12.172 -17.464,-16.394 -1.699,-2.617 -1.711,-2.924 -0.166,-4.469 1.545,-1.545 2.15,-1.181 8.82,5.31 l 7.161,6.969 -6.894,-7.75 c -3.792,-4.263 -7.155,-7.75 -7.474,-7.75 -0.32,0 -1.408,0.605 -2.419,1.344 m -31.344,24.856 c -1.738,1.738 -1.443,3.951 0.906,6.8 l 2.061,2.5 -1.799,-3.249 c -1.732,-3.129 -1.732,-3.314 0.007,-5 1.728,-1.675 1.984,-1.535 5.925,3.249 5.988,7.27 20.091,21.126 22.839,22.439 1.336,0.639 0.637,-0.296 -1.611,-2.155 -6.738,-5.571 -17.084,-16.279 -20.434,-21.148 -3.188,-4.633 -5.633,-5.697 -7.894,-3.436 m 6.295,14.05 c 4.639,5.288 14.02,14.159 18.005,17.026 1.65,1.186 -2.4,-3.107 -9,-9.542 -6.6,-6.434 -12.165,-11.707 -12.366,-11.717 -0.202,-0.01 1.311,1.895 3.361,4.233"
     stroke="none"
     fill="#f0e1c2"
     fill-rule="evenodd"
     id="path3" />
  <path
     d="m 1114.7286,109.17781 c -0.981,3.093 -10.161,11.024 -15.796,13.647 -8.31,3.869 -21.35,2.873 -35.525,-2.713 -5.12,-2.018 -8.435,0.292 -9.495,6.617 -0.992,5.92 -3.625,9.859 -7.723,11.556 -4.259,1.765 -14.92,0.76 -19.993,-1.884 -4.758,-2.481 -9.246,-2.733 -11.001,-0.618 -0.839,1.011 -3.096,1.5 -6.926,1.5 -5.142,0 -5.993,-0.321 -8.95701,-3.379 -2.233,-2.305 -3.45,-4.683 -3.825,-7.479 -0.785,-5.854 -2.292,-4.075 -2.292,2.705 0,7.501 3.071,13.633 8.83501,17.64 3.937,2.736 5.113,3.024 12.811,3.136 8.039,0.116 8.629,0.279 11.429,3.142 4.349,4.449 9.53,6.509 17.685,7.033 5.388,0.346 8.435,0.017 11.819,-1.275 5.351,-2.044 11.602,-7.989 13.351,-12.698 2.294,-6.177 2.412,-6.262 9.13,-6.618 9.09,-0.481 20.818,-5.325 27.32,-11.285 4.913,-4.502 9.682,-12.364 11.023,-18.172 0.71,-3.076 -0.927,-3.824 -1.87,-0.855 m -776.45501,68.176 c -3.102,1.27 -7.87,6.252 -9.113,9.522 -1.109,2.917 -1.243,7.768 -0.339,12.289 1.304,6.517 12.45,15.35 23.966,18.99 12.926,4.086 15.316,4.438 25.723,3.783 12.403,-0.78 16.544,-1.864 23.759,-6.22 4.839,-2.922 6.901,-3.491 15.635,-4.312 9.269,-0.873 10.563,-1.266 16.426,-4.989 4.078,-2.589 7.353,-5.623 9.115,-8.442 3.574,-5.721 3.491,-6.606 -0.223,-2.375 -1.635,1.862 -5.798,4.661 -9.25,6.221 -5.433,2.453 -7.42,2.817 -14.777,2.704 -4.675,-0.071 -10.75,-0.825 -13.5,-1.675 -6.249,-1.931 -8.259,-1.941 -11.873,-0.056 -13.377,6.976 -39.105,4.889 -46.56,-3.777 -5.569,-6.472 -6.307,-11.107 -2.491,-15.642 3.298,-3.92 2.883,-6.523 -1.084,-6.802 -1.646,-0.116 -4.082,0.236 -5.414,0.781 m 251.663,88.358 c -2.068,0.738 -4.504,1.956 -5.413,2.706 -2.305,1.903 -5.032,8.473 -5.859,14.115 -0.387,2.639 -1.229,4.75 -1.895,4.75 -1.608,0 -5.969,4.753 -7.929,8.64 -3.696,7.331 -3.729,20.531 -0.066,26.122 1.43,2.182 1.43,2.7 -0.003,5.72 -1.892,3.986 -2.05,11.364 -0.326,15.221 1.675,3.748 5.322,7.833 10.644,11.921 4.009,3.081 4.995,3.376 11.265,3.376 6.644,0 6.934,-0.104 8.799,-3.171 2.16,-3.552 1.32,-6.789 -1.71,-6.589 -8.252,0.546 -23.101,-11.969 -20.926,-17.637 0.302,-0.788 1.816,-2.038 3.364,-2.777 3.754,-1.794 4.099,-5.104 0.926,-8.875 -6.491,-7.715 -2.941,-19.338 8.156,-26.7 2.003,-1.329 2.194,-2.055 1.639,-6.237 -0.368,-2.781 -0.175,-5.58 0.47,-6.784 1.561,-2.917 7.789,-6.512 11.484,-6.63 2.634,-0.084 3.189,-0.533 3.45,-2.793 0.579,-5.015 -7.85,-7.311 -16.07,-4.378 m 121.218,9.905 c -3.047,2.841 -6.628,6.741 -7.956,8.666 -1.328,1.925 1.254,-0.311 5.739,-4.969 4.484,-4.658 8.064,-8.558 7.955,-8.666 -0.108,-0.109 -2.69,2.128 -5.738,4.969 m 564.45601,45.47 c -1.819,1.233 -5.21,9.638 -6.328,15.684 -2.157,11.668 4.215,24.289 15.064,29.837 6.148,3.145 14.606,3.913 26.4,2.398 l 6.05,-0.777 2.154,3.831 c 6.101,10.856 17.876,17.223 31.851,17.223 6.257,0 17.427,-4.274 23.275,-8.906 l 4.012,-3.177 6.218,2.041 c 8.342,2.739 24.564,2.819 34.647,0.172 11.293,-2.965 20.213,-9.035 22.42,-15.256 0.915,-2.58 1.129,-2.635 12.127,-3.113 14.096,-0.612 19.662,-2.455 25.988,-8.603 7.722,-7.505 11.379,-17.441 8.707,-23.658 -0.773,-1.799 -0.867,-1.735 -0.93,0.637 -0.038,1.45 -1.533,4.825 -3.32,7.5 -7.838,11.728 -25.011,13.601 -42.852,4.675 l -7.077,-3.54 -4.992,5.018 c -10.183,10.237 -22.009,14.21 -42.292,14.21 h -12.835 l -3.365,3.465 c -7.615,7.841 -20.894,6.839 -34.943,-2.636 -4.834,-3.26 -7.202,-5.858 -11.369,-12.473 -3.297,-5.236 -5.909,-8.356 -6.995,-8.356 -0.953,0 -3.191,1.393 -4.972,3.095 -7.324,7 -19.721,9.819 -27.058,6.153 -5.342,-2.668 -10,-10.32 -10,-16.427 0,-2.724 0.486,-5.861 1.081,-6.972 1.196,-2.236 0.911,-3.113 -0.666,-2.045 m -891.41501,3.315 c -9.242,2.462 -16.344,5.676 -21.201,9.597 -3.117,2.516 -4.854,3.076 -11,3.546 -8.124,0.62 -16.996,3.684 -20.799,7.182 -1.79,1.646 -4.203,2.468 -8.5,2.894 -9.137,0.906 -14.996,3.349 -20.837,8.687 -7.939,7.256 -15.761,25.559 -14.019,32.803 3.303,13.739 18.253,27.25 35.099,31.722 6.696,1.777 26.917,2.087 32.25,0.494 1.922,-0.574 3.56,-1.044 3.642,-1.044 0.081,0 2.301,1.78 4.934,3.955 2.632,2.176 7.519,5.438 10.859,7.25 5.888,3.195 6.451,3.299 18.572,3.433 10.909,0.121 13.073,0.431 17,2.439 3.498,1.788 6.615,2.39 14,2.705 14.472,0.617 25.224,-2.419 33,-9.318 1.375,-1.22 4.975,-3.012 8,-3.982 3.025,-0.97 6.85,-2.67 8.5,-3.778 4.431,-2.976 11.5,-9.939 11.5,-11.329 0,-0.665 0.445,-1.358 0.989,-1.542 1.441,-0.485 5.012,-11.229 5.005,-15.058 -0.014,-8.721 -4.05,-15.811 -11.987,-21.064 -4.329,-2.864 -4.874,-3.65 -5.428,-7.824 -1.27,-9.574 -11.453,-24.299 -20.079,-29.034 -4.232,-2.323 -13.24,-4.853 -17.277,-4.853 -1.944,0 -4.767,-0.969 -6.555,-2.25 -1.727,-1.238 -4.271,-2.863 -5.654,-3.613 -8.152,-4.419 -27.361,-5.388 -40.014,-2.018 m 304.397,12.881 c 0,7.975 0.156,11.238 0.346,7.25 0.189,-3.988 0.189,-10.512 0,-14.5 -0.19,-3.988 -0.346,-0.725 -0.346,7.25 m -299.897,-7.456 c -12.266,3.073 -17.713,5.665 -23.676,11.265 -2.903,2.727 -4.257,3.341 -6.44,2.924 -4.657,-0.89 -15.537,1.167 -19.997,3.78 -2.312,1.355 -5.108,3.706 -6.215,5.225 -1.84,2.526 -2.267,2.664 -5.017,1.627 -3.349,-1.265 -9.367,-0.46 -15.32,2.047 -7.204,3.035 -15.229,16.093 -16.344,26.597 -0.55,5.189 -0.401,5.686 2.713,9.03 4.137,4.442 9.354,7.669 18.296,11.317 5.583,2.277 8.944,2.934 16.607,3.245 8.749,0.356 10.56,0.088 20.294,-3.002 11.71,-3.716 15.409,-3.506 17.457,0.99 1.473,3.231 7.363,7.371 12.847,9.029 3.886,1.175 5.743,1.228 9.795,0.281 5.755,-1.344 9.943,-3.302 12.844,-6.005 2.219,-2.067 2.714,-2.193 5.074,-1.287 0.961,0.369 1.582,1.796 1.582,3.634 0,4.774 2.112,10.598 4.828,13.315 6.116,6.116 18.849,8.985 26.651,6.005 3.742,-1.429 4.834,-2.48 6.509,-6.266 1.106,-2.502 2.012,-5.167 2.012,-5.922 0,-2.472 4.931,-1.618 6.154,1.066 1.101,2.415 1.151,2.423 5.229,0.848 12.658,-4.892 21.496,-18.458 19.107,-29.33 -1.003,-4.571 -8.607,-11.957 -12.309,-11.957 -4.393,0 -8.26,-5.597 -5.181,-7.5 1.74,-1.076 1.092,-4.802 -1.956,-11.245 -5.989,-12.659 -14.813,-19.004 -28.006,-20.137 -6.065,-0.522 -8.035,-1.115 -9.903,-2.983 -1.283,-1.283 -4.875,-3.47 -7.984,-4.861 -7.172,-3.21 -20.615,-3.994 -29.651,-1.73 m -175.88,57.33 c -1.282,3.651 -8.64,13.965 -11.947,16.748 -7.304,6.146 -19.395,9.989 -39.173,12.453 -5.5,0.685 -10.515,1.639 -11.145,2.121 -0.63,0.481 -1.423,2.352 -1.762,4.158 -0.952,5.075 -6.217,11.422 -11.84,14.271 -5.91,2.995 -13.227,2.943 -20.969,-0.148 -4.697,-1.875 -4.732,-1.874 -8.58,0.288 -5.918,3.326 -14.741003,5.236 -24.164003,5.229 -9.992,-0.006 -15.294,-1.25 -19.791,-4.644 -5.061,-3.819 -6.234,-6.898 -5.096,-13.368 1.343,-7.627 10.283,-25.109 16.07,-31.421 2.135,-2.329 2.269,-3.561 0.385,-3.561 -2.632,0 -11.745,9.313 -17.028,17.401 -6.578,10.071 -8.586,15.945 -8.558,25.027 0.062,19.937 14.392,29.128 40.047,25.685 4.983,-0.668 10.559,-2.171 13.635003,-3.673 4.716,-2.304 5.606,-2.433 9.5,-1.377 2.363,0.64 7.712,1.166 11.888,1.168 17.957,0.007 36.728,-10.049 43.424,-23.262 l 2.298,-4.535 7.843,-1.151 c 12.746,-1.872 26.714,-9.293 31.224,-16.59 2.359,-3.818 5.403,-16.446 4.917,-20.401 -0.342,-2.778 -0.348,-2.78 -1.178,-0.418 m 916.63001,2.788 c -2.683,1.083 -0.986,4.326 5.027,9.604 10.278,9.024 14.132,21.487 11.734,37.941 -0.88,6.043 -0.914,9.046 -0.125,11.069 1.336,3.421 3.726,4.447 6.428,2.76 6.606,-4.126 12.798,-3.103 19.339,3.193 4.693,4.517 7.797,12.405 8.681,22.062 0.56,6.122 -0.824,10.974 -4.445,15.577 -2.477,3.149 -2.398,5.836 0.196,6.659 2.649,0.841 5.806,-2.017 8.758,-7.927 4.889,-9.79 5.241,-24.368 0.821,-34.024 -3.276,-7.155 -12.105,-15.51 -21.345,-20.2 l -7.529,-3.822 0.503,-4.463 c 0.711,-6.304 -0.919,-16.438 -3.437,-21.374 -5.132,-10.058 -18.677,-19.447 -24.606,-17.055 m -792.79201,59.338 c 0.445,11.542 2.304,20.178 6.137,28.5 2.298,4.99 10.728,17.908 14.544,22.287 l 2.864,3.286 -1.999,3.92 c -2.61,5.115 -3.96,14.834 -3.984,28.685 -0.081,45.527 18.036,75.135 58.538,95.669 18.22,9.236 33.717,10.822 51.192,5.237 1.63,-0.521 2.25,-0.319 2.25,0.733 0,2.803 7.983,17.26 13.63,24.683 10.821,14.226 29.248,33.744 41.685,44.154 23.877,19.987 62.586,32.98 97.685,32.789 8.159,-0.045 22.709,-1.692 26.754,-3.028 0.81,-0.268 2.345,2.719 4.332,8.429 3.332,9.577 7.401,17.139 12.191,22.656 9.759,11.241 22.188,24.013 23.894,24.554 2.713,0.861 3.4,-0.126 1.446,-2.079 -3.231,-3.232 -10.476,-14.133 -13.94,-20.975 -2.233,-4.411 -5.132,-13.288 -7.837,-24 -4.235,-16.766 -4.296,-17.255 -4.453,-35.5 -0.088,-10.175 -0.211,-18.966 -0.273,-19.535 -0.125,-1.131 -11.875,-2.862 -30.614,-4.509 -21.141,-1.858 -40.285,-5.452 -53.5,-10.042 -16.078,-5.585 -26.645,-10.417 -36.268,-16.586 -3.901,-2.501 -7.703,-5.157 -8.449,-5.902 -0.746,-0.746 -2.655,-2.124 -4.244,-3.062 -1.588,-0.938 -8.884,-7.816 -16.213,-15.285 -14.994,-15.279 -17.673,-18.292 -21.128,-23.766 -1.334,-2.113 -3.162,-4.453 -4.062,-5.2 -0.9,-0.747 -1.636,-1.947 -1.636,-2.668 0,-2.077 -3.83,-2.807 -13.276,-2.533 -7.533,0.22 -10.096,-0.179 -18.085,-2.815 -12.894,-4.254 -24.948,-10.853 -37.639,-20.606 -6.728,-5.171 -19,-16.985 -19,-18.292 0,-0.525 -0.668,-1.508 -1.484,-2.186 -2.226,-1.847 -7.358,-11.734 -9.565,-18.428 -2.144,-6.502 -2.536,-14.916 -0.896,-19.231 1.658,-4.359 0.483,-6.523 -6.166,-11.354 -19.658,-14.283 -33.326,-35.166 -40.942,-62.552 l -1.932,-6.948 0.443,11.5 m 193.024,6.635 c -10.334,6.84 -16.71,16.339 -18.024,26.852 -0.782,6.265 1.325,15.431 5.128,22.301 2.796,5.05 11.182,14.181 13.042,14.2 0.62,0.007 1.687,0.687 2.372,1.512 0.685,0.825 2.063,1.5 3.063,1.5 2.824,0 2.932,1.101 0.74,7.526 -1.734,5.083 -1.947,7.466 -1.426,15.974 1.498,24.448 12.301,45.374 28.806,55.797 7.142,4.51 12.26,6.412 24.978,9.283 12.744,2.877 15.108,2.965 18.935,0.704 4.803,-2.837 3.254,-7.274 -2.546,-7.295 -8.1,-0.029 -24.924,-7.951 -32.758,-15.425 -10.365,-9.889 -13.445,-14.348 -18.261,-26.441 -3.132,-7.866 -3.821,-10.965 -4.276,-19.224 -0.365,-6.621 -0.171,-10.295 0.591,-11.213 0.624,-0.752 2.521,-4.026 4.216,-7.276 1.695,-3.251 5.524,-8.234 8.51,-11.074 5.882,-5.597 6.231,-6.39 3.857,-8.765 -1.975,-1.974 -1.421,-2.028 -9.618,0.929 -9.486,3.422 -14.285,3.284 -20.118,-0.58 -9.268,-6.139 -12.246,-12.201 -12.061,-24.551 0.094,-6.21 0.498,-7.694 3.132,-11.5 4.761,-6.879 7.85,-9.298 11.919,-9.336 4.29,-0.039 6.444,-2.47 4.387,-4.949 -2.173,-2.619 -9.882,-2.063 -14.588,1.051 m 500.82701,76.001 c -0.904,2.356 0.897,4.661 4.34,5.553 1.894,0.491 4.176,2.432 6.243,5.311 3.728,5.19 3.643,7.843 -0.491,15.376 -1.32,2.407 -2.387,4.882 -2.369,5.5 0.017,0.618 1.588,2.673 3.491,4.567 1.902,1.893 4.202,5.389 5.111,7.769 1.56,4.083 1.549,4.556 -0.191,8.414 -1.013,2.247 -4.453,6.673 -7.644,9.834 -6.408,6.349 -8.799,11.13 -6.782,13.561 2.299,2.77 4.939,1.485 12.884,-6.271 9.816,-9.583 16.099,-19.058 16.099,-24.278 0,-3.117 -0.697,-4.344 -4.316,-7.595 -2.373,-2.132 -5.16,-4.36 -6.193,-4.951 -1.812,-1.035 -1.797,-1.188 0.417,-4.296 4.617,-6.485 4.034,-17.753 -1.197,-23.131 -5.933,-6.1 -17.854,-9.395 -19.402,-5.363 m -156.32701,52.082 c -8.187,8.372 -8.741,9.083 -2.528,3.25 7.667,-7.198 14.153,-13.968 13.382,-13.968 -0.205,0 -5.089,4.823 -10.854,10.718 m 387.65801,2.466 c -0.237,1.274 -0.949,5.145 -1.582,8.603 -1.369,7.476 -6.682,21.749 -11.767,31.614 -5.685,11.029 -20.274,28.195 -30.587,35.989 -3.924,2.966 -17.284,10.109 -20.704,11.07 -9.117,2.562 -10.934,3.761 -14.045,9.274 -4.31,7.638 -9.747,12.613 -18.209,16.663 -10.079,4.825 -21.623,6.992 -33.668,6.319 -14.518,-0.811 -38.078,-7.723 -38.078,-11.171 0,-2.118 -3.525,-4.546 -6.579,-4.531 -2.016,0.01 -4.315,1.292 -7.421,4.137 -6.125,5.611 -16.359,10.191 -30.048,13.445 -10.453,2.486 -13.239,2.729 -31.952,2.788 -16.737,0.054 -21.87701,-0.274 -28.00001,-1.785 -13.566,-3.346 -12.998,-3.391 -13.013,1.038 -0.026,7.489 -3.794,22.037 -9.359,36.128 -3.096,7.837 -5.628,14.515 -5.628,14.841 0,0.995 -8.252,17.86 -9,18.394 -1.654,1.18 -3.141,5.259 -2.244,6.156 0.588,0.588 3.127,-1.797 6.769,-6.358 3.205,-4.014 6.412,-7.973 7.125,-8.798 6.872,-7.942 10.73,-14.015 21.716,-34.178 1.443,-2.649 1.509,-2.664 5.997,-1.313 8.58101,2.582 24.46201,3.759 43.56901,3.229 15.799,-0.438 20.024,-0.904 28.332,-3.127 5.371,-1.437 10.575,-3.118 11.565,-3.736 1.494,-0.934 2.724,-0.416 7.236,3.043 7.508,5.756 23.842,13.686 33.435,16.231 11.599,3.078 31.928,3.092 42.791,0.03 15.097,-4.255 31.251,-14.333 41.985,-26.195 4.989,-5.512 6.332,-6.389 12.896,-8.418 19.417,-6.002 31.939,-14.326 46.541,-30.938 12.999,-14.789 18.274,-30.927 18.283,-55.931 0,-14.868 -1.732,-22.625 -7.781,-34.747 -4.825,-9.67 -7.73,-12.302 -8.575,-7.766 m -425.14001,42.973 c -9.35,0.526 -18.051,1.174 -19.335,1.44 -1.284,0.266 -4.753,2.845 -7.709,5.731 -4.572,4.464 -6.538,5.589 -13.165,7.534 -22.675,6.657 -39.291,19.262 -39.291,29.806 0,5.99 3.402,9.874 11.68,13.332 3.95,1.65 7.775,2.999 8.5,2.997 0.726,-10e-4 4.44,0.755 8.254,1.68 6.089,1.478 8.284,1.535 18,0.468 6.086,-0.668 17.023,-2.632 24.303,-4.364 l 13.236,-3.149 7.764,3.934 c 7.463,3.782 8.141,3.934 17.55,3.934 5.383,0 10.108,-0.45 10.5,-1 0.392,-0.55 1.776,-1.598 3.076,-2.329 2.105,-1.184 2.979,-1.003 8,1.652 3.1,1.64 8.787,3.955 12.637,5.144 8.555,2.642 26.072,3.803 32.19,2.132 4.68,-1.278 11.65,-7.215 13.167,-11.215 0.949,-2.505 1.412,-2.645 10.904,-3.318 12.511,-0.887 16.483,-1.791 20.765,-4.722 3.596,-2.462 4.993,-5.979 3.96,-9.966 -2.059,-7.944 -22.617,-14.515 -48.784,-15.593 l -13.797,-0.568 -1.482,-2.867 c -2.406,-4.651 -11.707,-13.292 -17.006,-15.798 -2.704,-1.279 -7.392,-2.946 -10.417,-3.705 -7.259,-1.823 -32.333,-2.38 -53.5,-1.19 m -1.153,6.848 c -15.004,0.634 -16.372,0.854 -19.223,3.089 -1.688,1.323 -3.369,3.531 -3.735,4.906 -1.061,3.989 -2.377,5 -6.507,5 -6.707,0 -23.968,6.906 -31.616,12.649 -2.831,2.126 -3.082,2.673 -2.01,4.389 2.113,3.384 10.141,5.333 22.244,5.4 12.392,0.07 22.196,-1.931 31.926,-6.516 5.473,-2.578 6.139,-2.681 8.723,-1.345 4.501,2.327 15.994,6.188 20.612,6.924 7.056,1.124 16.728,-2.041 22.06,-7.218 1.937,-1.88 2.777,-1.633 6.926,2.037 10.369,9.172 31.093,13.915 44.704,10.231 6,-1.624 6.897,-1.632 13.553,-0.118 6.484,1.475 7.82,1.482 14.812,0.08 8.984,-1.802 15.184,-4.29 15.184,-6.093 0,-1.623 -8.528,-4.829 -18.092,-6.802 -7.302,-1.506 -29.113,-3.475 -35.878,-3.239 -3.099,0.108 -3.813,-0.4 -6.677,-4.756 -4.707,-7.158 -8.834,-11.044 -14.866,-13.998 -11.353,-5.559 -21.715,-6.329 -62.14,-4.62 m 669.80801,4.995 c -0.399,3.642 -12.918,14 -16.92,14 -1.009,0 -2.262,0.4 -2.785,0.889 -0.522,0.489 -3.875,1.842 -7.45,3.006 -8.851,2.883 -21.768,4.164 -29.637,2.939 -9.268,-1.443 -10.364,-1.062 -13.302,4.614 -3.099,5.988 -9.034,9.48 -16.185,9.524 -5.164,0.031 -12.161,-2.114 -14.489,-4.442 -0.842,-0.842 -1.93,-1.53 -2.419,-1.53 -1.111,0 -4.968,4.071 -4.968,5.244 0,0.476 -2.488,1.966 -5.529,3.311 -7.817,3.457 -15.142,3.301 -24.617,-0.523 -10.361,-4.183 -14.791,-10.121 -15.078,-20.21 -0.077,-2.69 -0.22,-2.806 -1.674,-1.353 -2.034,2.034 -2.756,15.39 -1.153,21.34 1.553,5.767 8.979,13.366 16.356,16.736 10.904,4.981 27.085,4.394 35.456,-1.287 3.478,-2.36 4.018,-2.449 7.739,-1.269 7.429,2.357 16.867,2.387 23.749,0.075 7.338,-2.465 16.981,-9.266 19.358,-13.653 1.577,-2.91 2.176,-3.155 10.364,-4.245 14.076,-1.874 29.252,-8.105 36.217,-14.869 4.5,-4.37 8.075,-12.261 7.53,-16.617 -0.219,-1.749 -0.472,-2.505 -0.563,-1.68 m -999.15501,91.726 c -1.499,2.826 -4.737,6.441 -8.087,9.027 l -5.586,4.314 -11.038,0.364 c -6.071,0.201 -11.946,0.85 -13.055,1.444 -1.11,0.594 -3.45,3.617 -5.2,6.719 -3.96,7.016 -7.306,10.179 -11.629,10.99 -4.987,0.935 -13.328,-1.452 -18.299,-5.238 -5.857,-4.46 -12.509,-4.562 -22.606,-0.346 -5.44,2.271 -9.457,3 -16.543,3 -7.197,0 -7.948,-0.203 -10.601,-2.869 -5.285,-5.308 -8.033,-8.619 -8.824,-10.631 -1.344,-3.42 -3.738,7.224 -2.49,11.072 3.493,10.773 20.375,16.363 40.7,13.476 8.47,-1.203 9.07,-1.153 18.258,1.519 12.01,3.491 23.558,3.887 29.374,1.007 5.726,-2.837 12.364,-10.067 14.333,-15.613 0.942,-2.651 2.027,-4.625 2.411,-4.388 1.243,0.768 16.215,-1.694 18.971,-3.119 9.109,-4.71 14.721,-14.348 13.045,-22.399 l -0.634,-3.043 -2.5,4.714 m 976.00001,92.49 c -1.375,2.775 -4.3,6.482 -6.5,8.24 -5.054,4.038 -13.652,7.544 -18.498,7.544 -2.12,0 -4.763,0.805 -6.117,1.863 -9.434,7.368 -23.913,9.915 -45.568,8.015 -14.295,-1.253 -14.301,-1.252 -17.135,4.122 -1.95,3.697 -9.263,9.097 -16.926,12.5 -6.29,2.793 -7.583,3 -18.756,2.993 -9.77,-0.005 -12.743,-0.364 -16,-1.927 -6.464,-3.104 -9.406,-5.494 -11.567,-9.396 l -2.032,-3.67 0.531,4.753 c 1.052,9.419 6.022,15.741 16.068,20.44 5.529,2.587 6.942,2.807 18,2.807 11.055,0 12.473,-0.221 18,-2.805 3.3,-1.542 8.475,-4.709 11.5,-7.036 5.473,-4.211 5.522,-4.225 10,-3.026 2.475,0.663 9.941,1.242 16.59,1.287 21.781,0.145 34.951,-5.022 47.12,-18.486 3.734,-4.132 8.188,-8.341 9.896,-9.354 5.359,-3.179 8.511,-6.42 11,-11.31 1.324,-2.601 2.331,-5.076 2.237,-5.5 -0.094,-0.423 0.182,-2.028 0.613,-3.567 1.273,-4.538 0.223,-3.892 -2.456,1.513 m -1104.75201,78.04 c -1.494,5.445 -8.712,14.546 -15.536,19.588 -7.245,5.351 -18.061,10.673 -26.891,13.229 -15.002,4.344 -42.024,3.493 -51.94,-1.635 -4.448,-2.3 -7.342,-1.141 -10.963,4.39 -1.731,2.644 -5.221,6.119 -7.755,7.722 -4.147,2.623 -5.616,2.953 -14.636,3.283 -7.322,0.269 -11.645,-0.089 -16.027,-1.325 -10.49,-2.961 -11.232,-2.966 -15.364,-0.102 -4.891,3.389 -9.2,4.594 -16.429,4.594 -8.757,0 -13.63,-3.068 -17.805,-11.21 -3.722,-7.26 -1.214,-23.04 5.173,-32.54 4.293,-6.386 1.712,-5.11 -4.045,2 -8.662,10.697 -18.03,31.479 -18.03,39.998 0,9.968 7.915,20.528 18.141,24.206 9.932,3.571 23.708,1.766 31.628,-4.145 3.221,-2.404 3.348,-2.417 8.654,-0.874 13.961,4.058 35.669,0.284 44.326,-7.706 2.098,-1.936 2.675,-1.997 8.615,-0.902 19.082,3.516 47.109,-0.806 65.136,-10.045 7.833,-4.014 11.799,-6.953 18.54,-13.737 9.95,-10.012 14.571,-18.47 16.9,-30.928 1.37,-7.328 0.071,-10.291 -1.692,-3.861 m 138.769,41.876 c -21.418,11.992 -39.905,31.393 -52.531,55.12799 -8.522,16.02 -11.486,29.136 -11.486,50.828 v 14.912 h -7.617 c -8.645,0 -8.237,1.063 -3.949,-10.295 3.912,-10.361 3.605,-18.554 -1.107,-29.597 -6.63,-15.537 -9.903,-18.966 -16.751,-17.558 -4.592,0.945 -10.115,4.894 -11.341,8.109 -0.596,1.563 -1.779,7.181 -2.63,12.485 -1.276,7.952 -3.1,13.169 -6.178,17.665 -0.116,0.169 -6.625,-6.24 -14.466,-14.244 -15.091,-15.406 -16.869,-16.548 -25.777,-16.559 -5.314,-0.01 -7.093,0.912 -12.142,6.276 -6.841,7.267 -7.471,16.404 -2.379,34.47 2.585,9.173 11.215,22.531 18.629,28.837 6.933,5.897 8.146,6.723 13.621,9.28 4.463,2.084 7.461,2.681 14.897,2.969 8.836,0.341 9.651,0.566 15.999,4.423 6.226,3.782 24.769,12.986 35.237,17.49 l 4.546,1.956 -0.863,9.897 c -1.115,12.798 -0.15,31.581 2.218,43.136 2.205,10.764 7.629,25.739 12.079,33.348 7.601,12.999 20.222,26.663 34.707,37.576 6.856,5.165 21.024,12.337 30.767,15.574 8.767,2.912 9.129,3.147 9.962,6.468 1.385,5.516 7.915,17.994 10.621,20.294 0.323,0.275 1.055,1.355 1.627,2.401 0.571,1.045 3.614,4.49 6.763,7.656 6.793,6.828 19.505,14.254 31.487,18.393 7.999,2.762 9.562,2.957 24.675,3.063 l 16.135,0.114 4.79,4.217 c 2.634,2.319 8.284,5.89 12.554,7.936 4.271,2.046 7.768,3.945 7.772,4.22 0.003,0.275 -2.614,1.781 -5.818,3.346 -6.412,3.133 -12.356,8.377 -14.756,13.017 -3.676,7.109 2.346,24.645 11.112,32.361 5.299,4.665 13.31,8.707 21.783,10.993 8.995,2.426 29.712,2.388 40.222,-0.075 14.11,-3.306 42.044,-15.318 64.5,-27.735 l 9.43,-5.213 4.07,2.118 c 2.239,1.165 7.446,3.43 11.571,5.034 12.749,4.956 30.14,12.185 33.908,14.095 5.682,2.879 35.88,14.6 43.592,16.919 17.413,5.238 29.273,6.367 36.73,3.496 8.453,-3.254 18.77,-16.24 18.77,-23.626 0,-3.819 -4.457,-16.948 -7.54,-22.208 -1.353,-2.309 -2.459,-4.383 -2.459,-4.61 10e-4,-0.227 5.964,-0.454 13.25,-0.506 29.778,-0.21 54.581,-8.888 69.44601,-24.297 3.223,-3.34 10.281,-14.094 13.691,-20.859 l 2.646,-5.25 h 5.295 c 9.807,0 29.531,-6.816 41.171,-14.227 13.345,-8.496 29.694,-23.244 37.619,-33.933 5.926,-7.994 13.872,-21.609 13.9,-23.816 0.011,-0.838 2.919,-3.219 6.463,-5.292 13.99,-8.18 26.808,-20.233 36.937,-34.732 11.031,-15.789 15.728,-26.512 21.316,-48.659 3.719,-14.739 3.745,-14.982 3.755,-35.341 0,-11.275 -0.362,-23.227 -0.816,-26.559 l -0.826,-6.059 3.326,-1.126 c 18.494,-6.262 53.693,-21.221 60.01,-25.502 6.292,-4.264 8.177,-8.018 12.238,-24.365 3.703,-14.902 5.567,-28.97999 6.287,-47.46999 l 0.451,-11.582 -3.155,-4.675 c -5.244,-7.769 -9.916,-10.388 -17.505,-9.812 -4.218,0.321 -11.874,9.443 -15.442,18.4 -2.46,6.177 -3.219,6.748 -5.251,3.954 -2.106,-2.893 -8.294,-6.204 -11.597,-6.204 -4.511,0 -11.366,5.597 -13.165,10.749 -1.221,3.497 -1.263,5.738 -0.264,13.959 0.654,5.385 1.463,10.97199 1.796,12.41399 0.601,2.594 0.525,2.632 -7.235,3.705 -4.313,0.596 -10.833,1.377 -14.489,1.734 l -6.648,0.65 -0.732,-3.336 c -1.067,-4.856 -7.864,-15.11299 -12.595,-19.00699 -9.485,-7.806 -15.159,-10.742 -18.376,-9.507 -1.7,0.652 -2.032,4.194 -0.483,5.151 2.941,1.817 9.021,17.39399 9.3,23.82499 l 0.181,4.163 -19,1.162 c -10.45,0.64 -27.325,1.668 -37.5,2.286 -10.175,0.618 -20.619,1.388 -23.209,1.711 l -4.71,0.588 -0.29,-8.874 c -0.285,-8.70399 -0.338,-8.87299 -2.774,-8.87299 -2.112,0 -2.589,0.598 -3.192,3.99999 -1.052,5.932 -0.966,17.369 0.147,19.448 1.397,2.609 3.798,3.238 6.33,1.658 1.302,-0.813 6.478,-1.602 12.698,-1.935 95.876,-5.143 131.969,-8.681 132.822,-13.02 0.177,-0.902 -0.559,-2.88 -1.636,-4.395 -2.843,-4 -4.174,-9.75299 -4.18,-18.07199 -0.01,-8.004 0.718,-10.118 4.262,-12.44 2.135,-1.399 2.702,-1.376 6.221,0.251 2.442,1.129 4.667,3.215 6.026,5.648 2.769,4.959 6.624,7.316 8.89,5.436 0.877,-0.728 1.595,-2.323 1.595,-3.545 0,-3.098 3.533,-13.042 6.121,-17.23 6.748,-10.919 12.57,-10.919 18.341,-10e-4 1.396,2.642 2.538,6.336 2.538,8.211 0,4.352 -3.932,38.56799 -4.547,39.56199 -0.254,0.411 -1.37,5.163 -2.481,10.559 -1.11,5.396 -2.458,10.251 -2.995,10.788 -0.537,0.537 -0.977,1.597 -0.977,2.354 0,3.424 -7.757,8.797 -19.201,13.298 -2.914,1.146 -8.143,3.398 -11.619,5.005 -3.476,1.606 -6.547,2.92 -6.825,2.92 -0.872,0 -45.581,16.958 -51.355,19.479 -6.168,2.692 -36.732,14.931 -50.5,20.221 -9.08,3.489 -13.5,6.459 -13.5,9.07 0,0.782 0.804,2.616 1.786,4.076 0.982,1.46 2.401,3.877 3.152,5.373 1.995,3.97 5.701,7.133 7.534,6.43 2.832,-1.087 2.702,-3.336 -0.494,-8.53 -1.73,-2.813 -2.983,-5.605 -2.783,-6.204 0.578,-1.733 47.138,-19.982 48.22,-18.9 1.714,1.714 -2.186,24.229 -6.442,37.191 -2.203,6.708 -4.335,12.443 -4.739,12.746 -0.696,0.521 -1.709,2.296 -6.568,11.51 -3.336,6.327 -20.928,23.814 -30.668,30.485 -4.861,3.329 -9.117,6.053 -9.458,6.053 -2.115,0 -6.54,4.678 -6.54,6.913 0,7.841 -12.672,30.673 -23.922,43.103 -7.13,7.879 -18.933,16.833 -30.182,22.896 -7.562,4.077 -29.692,12.047 -33.524,12.073 -2.76601,0.019 -3.96001,1.637 -4.68401,6.351 -0.898,5.839 -6.216,13.195 -13.507,18.685 -3.606,2.715 -6.681,4.812 -6.834,4.659 -0.153,-0.152 0.863,-3.1 2.257,-6.55 6.102,-15.109 6.866,-30.602 1.994,-40.477 -2.985,-6.05 -12.017,-15.826 -19.098,-20.672 -8.349,-5.714 -21.718,-10.905 -32.743,-12.715 -8.419,-1.382 -11.446,-1.457 -19.198,-0.478 -22.414,2.831 -33.043,7.175 -76.957,31.454 -4.893,2.706 -10.622,6.008 -12.73,7.339 -2.108,1.33 -4.096,2.419 -4.419,2.419 -0.322,0 -2.061,1.125 -3.864,2.5 -1.803,1.375 -3.659,2.5 -4.125,2.5 -0.466,0 -3.909,1.819 -7.65,4.041 l -6.802,4.041 -10.256,-3.063 c -5.641,-1.684 -12.281,-3.666 -14.756,-4.403 -12.956,-3.86 -27.281,-7.51 -33.5,-8.538 -3.85,-0.636 -9.7,-1.701 -13,-2.367 -3.385,-0.683 -13.845,-1.208 -24,-1.203 -15.423,0.01 -19.353,0.339 -27.446,2.325 -5.195,1.275 -10.82,3.006 -12.5,3.848 -3.779,1.892 -9.901,8.156 -12.07,12.349 -3.831,7.408 -4.779,21.202 -1.944,28.289 0.695,1.738 0.554,1.746 -3.156,0.169 -2.136,-0.907 -5.684,-2.377 -7.884,-3.265 -5.685,-2.295 -9.934,-4.844 -18.5,-11.096 -17.339,-12.656 -31.525,-31.403 -37.553,-49.627 -3.039,-9.19 -3.885,-10.494 -6.819,-10.515 -1.171,-0.01 -4.153,-0.719 -6.628,-1.58 -5.387,-1.875 -21.884,-9.333 -24,-10.851 -0.825,-0.592 -3.075,-1.933 -5,-2.98 -1.925,-1.048 -5.75,-3.733 -8.5,-5.968 -16.339,-13.28 -28.931,-31.61 -34.806,-50.665 -2.641,-8.568 -5.268,-21.701 -4.495,-22.474 0.233,-0.233 3.096,0.013 6.363,0.546 3.266,0.533 14.262,1.476 24.436,2.094 19.929,1.21 48.65,0.16 71.002,-2.598 14.384,-1.774 28.077,-2.984 29.857,-2.637 1.724,0.336 6.07,5.227 6.111,6.878 0.018,0.688 0.482,1.25 1.032,1.25 0.55,0 1,0.486 1,1.081 0,0.594 1.634,3.542 3.632,6.552 2.759,4.156 4.141,5.399 5.75,5.169 1.273,-0.181 2.239,-1.152 2.422,-2.431 0.312,-2.192 -8.418,-17.975 -11.238,-20.316 -0.861,-0.715 -1.566,-1.865 -1.566,-2.555 0,-3.52 -2.409,-3.623 -25.651,-1.091 -67.836,7.39 -108.384,5.365 -142.349,-7.11 -13.05,-4.792 -45.14,-20.617 -48.088,-23.714 -2.307,-2.422 -2.765,-2.506 -10.521,-1.922 -8.295,0.624 -15.487,-0.976 -19.47,-4.332 -0.868,-0.732 -2.098,-1.331 -2.734,-1.331 -2.641,0 -15.785,-14.703 -19.388,-21.688 -6.156,-11.933 -8.678,-29.467 -5.049,-35.097 3.764,-5.837 4.407,-6.215 10.588,-6.215 h 5.893 l 10.707,10.25 c 5.889,5.638 12.007,12.21 13.596,14.605 1.589,2.395 3.919,4.747 5.177,5.225 2.521,0.959 6.549,-0.197 8.906,-2.554 2.852,-2.852 6.566,-12.672 7.491,-19.803 0.514,-3.973 1.156,-8.223 1.426,-9.445 0.702,-3.183 4.401,-6.278 7.503,-6.278 2.365,0 3.2,1.081 7.529,9.75 4.655,9.321 4.866,10.102 4.782,17.75 -0.092,8.484 -2.092,14.711 -6.229,19.403 -2.722,3.087 -2.696,6.481 0.07,9.058 2.609,2.431 1.774,2.416 28.811,0.55 70.831,-4.889 113.338,-11.903 150.34,-24.808 5.645,-1.969 5.823,-2.14 5.342,-5.12 -0.273,-1.696 -1.551,-5.895 -2.839,-9.333 -2.093,-5.584 -2.635,-6.25 -5.093,-6.25 -2.395,0 -2.75,0.391 -2.75,3.032 0,1.668 0.685,4.672 1.523,6.677 0.838,2.005 1.175,3.961 0.75,4.347 -0.425,0.385 -4.148,1.693 -8.273,2.905 -4.125,1.212 -9.525,2.824 -12,3.583 -13.181,4.042 -38.745,9.329 -52.5,10.857 -2.75,0.305 -13.195,1.52 -23.211,2.699 -10.016,1.179 -18.794,1.92 -19.507,1.646 -0.714,-0.273 -2.144,-2.85 -3.178,-5.726 -1.618,-4.499 -1.799,-7.061 -1.3,-18.374 0.618,-14.015 2.257,-21.913 7.707,-37.146 3.434,-9.59499 10.165,-24.92999 14.384,-32.76599 2.778,-5.159 11.684,-18.624 13.8,-20.862 0.718,-0.759 1.923,-2.166 2.677,-3.126 1.224,-1.557 1.116,-1.743 -1,-1.715 -1.304,0.017 -4.839,1.413 -7.855,3.101 m 398.982,5.552 c -10e-4,1.464 -6.418,7.771 -9.853,9.684 -12.137,6.76 -35.337,5.713 -38.981,-1.758 -1.715,-3.516 -3.884,-4.32 -5.985,-2.218 -1.554,1.553 -1.532,1.909 0.327,5.305 2.609,4.767 5.846,7.047 12.526,8.824 9.636,2.565 25.37,1.277 33.001,-2.701 4.886,-2.547 12.572,-8.716 13.861,-11.125 1.918,-3.582 1.072,-6.139 -2.154,-6.511 -1.507,-0.174 -2.741,0.051 -2.742,0.5 m -161.871,21.679 c -3.043,3.24 -13.836,8.356 -21.383,10.135 -7.446,1.756 -23.08,1.96 -27.846,0.363 -1.869,-0.626 -4.432,-2.073 -5.694,-3.216 -1.782,-1.613 -2.676,-1.839 -4,-1.009 -5.109,3.202 0.214,9.401 9.848,11.47 7.372,1.584 25.627,0.492 33.776,-2.02 8.043,-2.479 20.582,-9.617 22.198,-12.636 2.759,-5.156 -2.672,-7.586 -6.899,-3.087 m 117.122,69.29899 c -0.687,0.278 -1.252,1.48 -1.254,2.671 -0.016,9.604 -23.885,23.508 -47.43,27.628 -8.285,1.451 -22.091,1.275 -28.227,-0.359 -10.869,-2.894 -20.295,-8.736 -21.813,-13.52 -0.673,-2.12 -3.857,-3.613 -5.517,-2.588 -2.123,1.313 -1.006,6.44 2.199,10.09 4.339,4.942 9.279,7.906 18.523,11.113 6.948,2.41 9.196,2.695 21.269,2.694 11.693,-10e-4 14.905,-0.381 24,-2.839 5.775,-1.56 14.1,-4.507 18.5,-6.549 12.439,-5.771 24.5,-16.177 24.5,-21.138 0,-0.961 0.45,-2.025 1,-2.365 0.55,-0.34 1,-1.443 1,-2.452 0,-2.535 -3.4,-3.737 -6.75,-2.386 m 514.15401,174.68 c 0.189,8.561 -10.227,17.195 -22.159,18.369 -5.209,0.512 -6.164,0.998 -10.245,5.213 -10.295,10.633 -17.9,14.042 -33.415,14.978 l -9.914,0.598 -2.221,3.975 c -1.454,2.602 -4.394,5.349 -8.508,7.951 -5.852,3.7 -6.893,4.004 -15.053,4.394 -4.86,0.232 -10.137,-0.059 -11.844,-0.654 -2.927,-1.021 -3.197,-0.885 -5.499,2.76 -5.377,8.519 -18.535,8.087 -28.397,-0.932 -1.941,-1.776 -4.044,-2.859 -5,-2.575 -7.133,2.121 -24.029,4.298 -29.002,3.738 -6.493,-0.731 -12.88,-8.113 -13.558,-15.672 -0.388,-4.32 -1.723,-4.888 -2.994,-1.275 -0.734,2.087 -0.51,3.57 0.976,6.454 2.542,4.933 9.285,11.712 14.084,14.159 5.436,2.771 16.833,5.456 21.067,4.961 3.02,-0.352 3.813,-0.016 5.061,2.149 2.234,3.874 9.261,8.706 15.244,10.482 11.199,3.326 22.113,1.575 29.605,-4.75 2.8,-2.364 3.469,-2.526 6.325,-1.53 5.028,1.753 17.756,0.601 22.968,-2.079 5.111,-2.628 15.075,-12.193 15.075,-14.472 0,-0.85 1.013,-1.73 2.25,-1.954 8.148,-1.479 22.175,-5.039 27.234,-6.914 5.956,-2.205 13.618,-8.754 19.279,-16.476 1.245,-1.698 3.582,-3.377 5.198,-3.731 6.678,-1.467 15.298,-11.164 16.559,-18.629 0.678,-4.011 -1.041,-12.88 -2.496,-12.88 -0.394,0 -0.673,1.954 -0.62,4.342 m -485.40401,12.504 c -5.775,1.543 -13.65,4.075 -17.5,5.627 -6.193,2.495 -30.37,14.629 -33,16.562 -0.55,0.405 -4.6,2.658 -9,5.007 -9.45,5.046 -21.784,12.327 -26,15.349 -1.65,1.182 -4.247,2.784 -5.77,3.559 -1.524,0.775 -2.424,1.723 -2,2.107 0.423,0.383 4.37,2.13 8.77,3.881 4.4,1.752 9.8,4.27 12,5.596 2.2,1.326 5.35,3.083 7,3.904 1.65,0.821 4.8,2.63 7,4.02 2.2,1.391 4.675,2.836 5.5,3.212 0.825,0.375 2.892,1.728 4.594,3.006 1.702,1.278 3.392,2.324 3.755,2.324 0.363,0 3.471,1.958 6.906,4.35 11.043,7.693 22.674,14.65 24.484,14.646 0.969,0 3.142,-0.846 4.83,-1.875 1.688,-1.029 4.163,-2.218 5.5,-2.641 2.183,-0.692 17.549,-7.905 33.267,-15.617 6.874,-3.372 8.248,-3.509 9.614,-0.956 1.425,2.663 -1.431,5.948 -6.943,7.987 -4.795,1.774 -6.158,3.732 -3.34,4.8 1.008,0.382 2.428,1.282 3.154,2 0.727,0.718 1.988,1.306 2.803,1.306 5.667,0 30.376,-7.521 30.376,-9.246 0,-0.437 1.058,-2.472 2.352,-4.524 1.293,-2.051 4.005,-7.866 6.027,-12.921 4.154,-10.391 5.649,-21.896 3.751,-28.871 -2.469,-9.07 -14.383,-21.569 -25.63,-26.89 -12.199,-5.77 -19.607,-7.71 -31,-8.116 -9.654,-0.344 -12.285,-0.049 -21.5,2.414 m -219,33.2 c -16.101,2.586 -24.276,7.01 -27.637,14.954 -6.033,14.257 -2.773,24.948 12.603,41.331 5.13,5.466 12.034,9.652 12.034,7.296 0,-1.526 2.082,-2.627 4.97,-2.627 2.355,0 21.354,5.326 41.498,11.634 20.013,6.267 56.34,19.964 80.791,30.464 3.717,1.596 7.38,2.902 8.139,2.902 0.759,0 6.43,2.25 12.602,5 6.172,2.75 11.665,5 12.206,5 0.542,0 2.251,0.901 3.797,2.002 3.252,2.316 28.883,12.503 36.997,14.705 18.108,4.915 28.181,5.802 33.665,2.966 1.598,-0.826 5.028,-4.203 7.621,-7.503 3.811,-4.852 4.714,-6.758 4.714,-9.952 0,-4.819 -3.152,-12.853 -7.931,-20.216 -3.224,-4.967 -13.69,-16.189 -18.655,-20.002 -7.089,-5.444 -13.131,-9.714 -14.429,-10.195 -0.833,-0.309 -6.566,-3.991 -12.741,-8.183 -6.174,-4.192 -11.643,-7.622 -12.152,-7.622 -0.509,0 -1.075,-0.361 -1.259,-0.803 -0.183,-0.441 -3.033,-2.48 -6.333,-4.529 -3.3,-2.05 -6.675,-4.151 -7.5,-4.669 -17.59,-11.045 -35.093,-19.342 -47.5,-22.514 -10.618,-2.715 -21.187,-5.674 -25.5,-7.139 -25.224,-8.569 -46.173,-12.546 -68,-12.909 -9.075,-0.151 -18.975,0.124 -22,0.609 m -318.092,21.098 c -4.608,7.18 -5.164,14.707 -1.592,21.512 1.942,3.7 2.635,6.738 2.935,12.864 0.912,18.672 11.821,30.407 28.315,30.458 18.814,0.059 29.681,-5.263 42.327,-20.728 2.361,-2.888 5.039,-5.254 5.95,-5.26 5.431,-0.032 21.111,-10.43 26.632,-17.661 3.902,-5.11 8.02,-15.596 7.084,-18.036 -0.559,-1.456 -1.024,-1.169 -2.801,1.731 -3.561,5.807 -8.85,10.093 -17.487,14.169 -11.212,5.291 -16.398,5.511 -22.842,0.97 -4.214,-2.97 -4.993,-3.199 -7.082,-2.081 -1.291,0.691 -2.347,2.012 -2.347,2.937 0,3.043 -5.566,9.433 -10.577,12.143 -7.183,3.883 -15.918,6.174 -20.654,5.417 -8.082,-1.292 -11.55,-4.452 -12.708,-11.579 -0.434,-2.67 -1.289,-3.818 -3.608,-4.842 -4.919,-2.171 -7.953,-7.543 -7.953,-14.083 0,-3.066 0.358,-7.262 0.795,-9.325 1.11,-5.234 -0.453,-4.737 -4.387,1.394 m 320.592,51.029 c -2.75,1.135 -10.059,3.797 -16.242,5.915 -13.53,4.636 -16.202,5.963 -21.318,10.585 -3.545,3.203 -3.94,4.041 -3.94,8.36 0,11.541 9.717,24.05 22.201,28.582 6.131,2.225 24.4,4.556 30.299,3.865 15.301,-1.792 36.225,-8.527 54.5,-17.543 3.575,-1.764 7.4,-3.483 8.5,-3.822 4.136,-1.272 16.509,-8.589 16.182,-9.569 -0.905,-2.714 -77.873,-28.797 -84.075,-28.491 -0.609,0.03 -3.357,0.983 -6.107,2.118 m 46.994,104.836 c -3.522,5.7 16.914,12.991 36.41,12.991 10.074,0 16.723,-1.044 30.347,-4.765 7.236,-1.976 9.905,-3.15 10.349,-4.55 0.329,-1.037 0.148,-2.337 -0.403,-2.888 -1.058,-1.058 -3.045,-0.691 -17.697,3.265 -6.218,1.679 -11.119,2.191 -22,2.299 -14.902,0.148 -20.16,-0.771 -28.717,-5.019 -5.126,-2.546 -7.321,-2.898 -8.289,-1.333 m 1.815,26.627 c -1.071,2.791 1.065,4.642 8.259,7.156 15.385,5.378 31.004,6.483 46.585,3.297 16.27,-3.327 19.484,-5.039 16.926,-9.018 -0.783,-1.218 -1.993,-1.106 -8.191,0.757 -17.912,5.385 -35.625,5.13 -52.501,-0.755 -10.257,-3.577 -10.256,-3.577 -11.078,-1.437 m -25.305,5.859 c -1.606,1.935 0.384,5.105 7.625,12.149 21.318,20.741 58.663,29.307 91.475,20.981 13.539,-3.436 21.315,-6.893 21.733,-9.666 0.455,-3.005 -1.655,-4.104 -4.778,-2.49 -5.26,2.72 -18.706,6.542 -28.804,8.187 -8.997,1.466 -12.123,1.541 -22.681,0.546 -22.524,-2.122 -38.917,-9.12 -53.479,-22.829 -4.893,-4.605 -9.11,-8.373 -9.373,-8.373 -0.262,0 -1.035,0.673 -1.718,1.495 m -31.025,24.031 c -2.065,2.488 1.352,7.395 13.222,18.99 11.622,11.353 19.585,16.994 32.799,23.235 20.806,9.827 35.849,12.796 60.378,11.919 29.434,-1.053 49.254,-6.821 69.683,-20.279 3.839,-2.529 7.421,-5.422 7.959,-6.429 2.807,-5.245 -0.895,-7.391 -5.438,-3.154 -4.529,4.225 -8.109,6.496 -18.106,11.491 -15.915,7.951 -31.266,11.422 -54.476,12.317 -13.297,0.512 -18.223,0.31 -25.374,-1.046 -29.937,-5.672 -54.013,-19.522 -71.829,-41.32 -3.259,-3.987 -6.291,-7.25 -6.739,-7.25 -0.447,0 -1.383,0.687 -2.079,1.526"
     stroke="none"
     fill="#d9cbae"
     fill-rule="evenodd"
     id="path4" />
  <rect
     style="fill:#636363;fill-opacity:0;stroke-width:1.84501"
     id="rect5"
     width="1600"
     height="1600"
     x="0"
     y="0" />
</svg>
