<?xml version="1.0" encoding="UTF-8" standalone="no"?>
<svg
   width="1600"
   height="1600"
   viewBox="0 0 1600 1600"
   version="1.1"
   id="svg5"
   sodipodi:docname="Self Help Graphic.svg"
   xmlns:inkscape="http://www.inkscape.org/namespaces/inkscape"
   xmlns:sodipodi="http://sodipodi.sourceforge.net/DTD/sodipodi-0.dtd"
   xmlns="http://www.w3.org/2000/svg"
   xmlns:svg="http://www.w3.org/2000/svg">
  <defs
     id="defs5" />
  <sodipodi:namedview
     id="namedview5"
     pagecolor="#ffffff"
     bordercolor="#000000"
     borderopacity="0.25"
     inkscape:showpageshadow="2"
     inkscape:pageopacity="0.0"
     inkscape:pagecheckerboard="0"
     inkscape:deskcolor="#d1d1d1" />
  <path
     d="m 1151.7837,275.67629 c -0.687,0.781 -1.243,2.676 -1.235,4.212 0.012,2.17 0.232,2.458 0.985,1.292 0.646,-1 0.974,-1.083 0.985,-0.25 0.01,0.879 2.09,1.25 7.015,1.25 4,0 7,0.429 7,1 0,0.615 5,1 13,1 8,0 13,0.385 13,1 0,0.55 2.362,1.007 5.25,1.015 3.758,0.011 4.824,0.291 3.75,0.985 -1.047,0.677 0.622,0.974 5.529,0.985 5.872,0.012 7.267,0.344 8.471,2.015 0.793,1.1 2.242,2 3.221,2 0.978,0 1.779,0.352 1.779,0.782 0,0.43 1.237,0.884 2.75,1.009 1.513,0.124 2.9,0.672 3.083,1.218 0.184,0.545 1.547,0.991 3.03,0.991 1.548,0 3.309,0.851 4.137,2 0.793,1.1 2.242,2 3.221,2 1.155,0 1.807,0.789 1.858,2.25 0.043,1.238 0.3,1.704 0.571,1.038 0.625,-1.543 7.35,5.025 7.35,7.179 0,0.843 0.45,1.533 1,1.533 0.55,0 1,2.045 1,4.545 0,5.312 -3.266,9.455 -7.455,9.455 -1.4,0 -2.545,0.45 -2.545,1 0,0.55 -0.9,1 -2,1 -1.1,0 -2,0.45 -2,1 0,0.55 -0.9,1 -2,1 -1.1,0 -2,0.45 -2,1 0,0.55 -1.35,1 -3,1 -1.65,0 -3,0.45 -3,1 0,0.556 -2.667,1 -6,1 -3.333,0 -6,0.444 -6,1 0,0.55 -1.8,1 -4,1 -2.2,0 -4,0.45 -4,1 0,0.55 -1.8,1 -4,1 -2.2,0 -4,0.45 -4,1 0,0.573 -3.094,1.007 -7.25,1.015 -5.05,0.011 -6.795,0.31 -5.75,0.985 1.099,0.71 0.362,0.973 -2.75,0.985 -2.338,0.008 -4.25,0.465 -4.25,1.015 0,0.601 -4.094,1.006 -10.25,1.015 -6.987,0.011 -9.773,0.324 -8.75,0.985 1.036,0.669 -1.054,0.974 -6.75,0.985 -4.823,0.009 -8.25,0.43 -8.25,1.015 0,0.55 -0.9,1 -2,1 -1.1,0 -2,0.45 -2,1 0,0.622 -5.667,1 -15,1 -8.25,0 -15,0.353 -15,0.785 0,0.795 -16.181,3.252 -21.25,3.228 -1.513,-0.007 -2.75,0.437 -2.75,0.987 0,0.583 -3.333,1 -8,1 -4.4,0 -8,0.396 -8,0.881 0,0.915 -9.445,1.684 -33.75,2.747 -7.838,0.343 -14.25,1.017 -14.25,1.498 0,0.481 -4.463,0.874 -9.917,0.874 -5.454,0 -10.066,0.416 -10.25,0.925 -0.44598,1.24 -17.58298,3.075 -28.70998,3.075 -5.408,0 -9.096,0.419 -9.309,1.058 -0.307,0.922 -18.054,2.628 -47.814,4.596 -4.125,0.273 -7.927,0.912 -8.45,1.421 -1.361,1.325 -6.933,1.142 -8.35,-0.275 -0.933,-0.933 -1.2,-0.933 -1.2,0 0,0.66 -0.675,1.2 -1.5,1.2 -0.825,0 -1.507,-0.562 -1.515,-1.25 -0.011,-0.889 -0.228,-0.925 -0.75,-0.123 -0.762,1.169 -10.816,2.044 -34.235,2.979 -7.425,0.296 -13.65,0.956 -13.833,1.466 -0.184,0.512 -6.91,0.937 -15,0.948 -8.067,0.011 -17.592,0.42 -21.167,0.91 -3.575,0.49 -13.25,1.044 -21.5,1.23 -8.338,0.189 -15.367,0.784 -15.826,1.34 -0.536,0.648 -1.004,0.563 -1.331,-0.242 -0.347,-0.855 -1.05,-0.95 -2.256,-0.305 -0.963,0.516 -12.289,0.975 -25.169,1.02 -12.88,0.045 -26.343,0.504 -29.918,1.019 -11.337,1.634 -104.625,2.285 -139.5,0.974 -61.211,-2.302 -74.5,-3.205 -74.5,-5.067 0,-0.494 -4.05,-0.899 -9,-0.899 -5.333,0 -9,-0.407 -9,-1 0,-0.55 -0.9,-1 -2,-1 -1.1,0 -2,0.45 -2,1 0,0.55 -1.013,0.993 -2.25,0.985 -1.691,-0.012 -1.903,-0.235 -0.854,-0.899 0.947,-0.6 -0.339,-1.058 -4,-1.426 -8.46,-0.849 -12.896,-1.801 -12.896,-2.769 0,-0.49 -1.462,-0.898 -3.25,-0.906 -2.466,-0.012 -2.888,-0.249 -1.75,-0.985 1.151,-0.744 0.794,-0.973 -1.529,-0.985 -1.869,-0.009 -3.582,-0.781 -4.471,-2.015 -0.795,-1.103 -2.589,-2 -4,-2 -1.411,0 -3.205,-0.897 -4,-2 -0.793,-1.1 -2.038,-2 -2.766,-2 -2.498,0 -6.234,-4.787 -6.234,-7.988 0,-3.351 5.633,-10.012 8.467,-10.012 0.843,0 1.533,-0.45 1.533,-1 0,-0.55 1.462,-1.036 3.25,-1.079 1.788,-0.043 2.692,-0.305 2.009,-0.58 -2,-0.808 1.161,-3.341 4.17,-3.341 1.414,0 2.571,-0.45 2.571,-1 0,-0.55 0.9,-1 2,-1 1.1,0 2,-0.45 2,-1 0,-0.55 1.35,-1 3,-1 1.65,0 3,-0.45 3,-1 0,-0.55 0.9,-1 2,-1 1.1,0 2,-0.45 2,-1 0,-0.55 1.8,-1 4,-1 2.2,0 4,-0.45 4,-1 0,-0.55 0.9,-1 2,-1 1.1,0 2,-0.45 2,-1 0,-0.55 1.35,-1 3,-1 1.65,0 3,-0.45 3,-1 0,-0.55 2.25,-1 5,-1 2.75,0 5,-0.45 5,-1 0,-0.55 0.9,-1 2,-1 1.1,0 2.007,-0.562 2.015,-1.25 0.011,-0.833 0.339,-0.75 0.985,0.25 0.646,1 0.974,1.083 0.985,0.25 0.009,-0.799 1.548,-1.256 4.265,-1.265 3.112,-0.012 3.849,-0.275 2.75,-0.985 -1.093,-0.706 -0.278,-0.978 3,-1 3.278,-0.022 4.093,-0.294 3,-1 -1.041,-0.673 0.793,-0.969 6,-0.969 5.207,0 7.041,0.296 6,0.969 -1.213,0.784 -1.069,0.972 0.75,0.985 1.588,0.01 2.25,-0.573 2.25,-1.985 0,-1.1 0.45,-2 1,-2 0.55,0 1,-0.45 1,-1 0,-0.55 -0.9,-1 -2,-1 -1.1,0 -2,-0.45 -2,-1 0,-0.583 -3.333,-1 -8,-1 -4.667,0 -8,0.417 -8,1 0,0.55 -1.8,1 -4,1 -2.2,0 -4,0.45 -4,1 0,0.571 -3,1 -7,1 -4,0 -7,0.429 -7,1 0,0.55 1.35,1 3,1 1.65,0 3,0.45 3,1 0,0.583 -3.333,1 -8,1 -4.667,0 -8,0.417 -8,1 0,0.55 -0.9,1 -2,1 -1.1,0 -2,0.45 -2,1 0,0.55 -0.9,1 -2,1 -1.1,0 -2,0.45 -2,1 0,0.55 -0.9,1 -2,1 -1.1,0 -2,0.45 -2,1 0,0.55 -1.8,1 -4,1 -2.2,0 -4,0.45 -4,1 0,0.55 -0.9,1 -2,1 -1.1,0 -2,0.45 -2,1 0,0.55 -2.25,1 -5,1 -3.879,0 -5,0.352 -5,1.571 0,2.021 -2.408,4.429 -4.429,4.429 -0.864,0 -1.571,0.45 -1.571,1 0,0.55 -0.719,1 -1.599,1 -0.879,0 -2.865,1.355 -4.412,3.012 -1.88,2.013 -2.983,2.593 -3.323,1.75 -0.279,-0.694 -0.544,-0.25 -0.587,0.988 -0.043,1.238 -0.529,2.25 -1.079,2.25 -0.55,0 -1.007,1.012 -1.015,2.25 -0.013,1.819 -0.201,1.963 -0.985,0.75 -0.67,-1.038 -0.95,0.812 -0.906,6 0.035,4.125 0.287,6.95 0.559,6.278 0.636,-1.57 5.347,2.99 5.347,5.177 0,1.05 0.961,1.545 3,1.545 1.65,0 3,0.45 3,1 0,0.55 0.9,1 2,1 1.1,0 2,0.45 2,1 0,0.55 0.801,1 1.779,1 0.979,0 2.428,0.9 3.221,2 0.793,1.1 2.242,2 3.221,2 0.978,0 1.779,0.45 1.779,1 0,0.55 1.35,1 3,1 1.65,0 3,0.45 3,1 0,0.55 2.055,1 4.566,1 4.893,0 7.966,1.21 10.551,4.157 1.116,1.271 2.978,1.838 6,1.826 7.046,-0.027 32.336,2.338 32.883,3.075 0.275,0.37 9.5,0.963 20.5,1.317 11,0.354 28.888,0.926 39.75,1.271 10.862,0.346 19.75,1.016 19.75,1.491 0,0.475 16.2,0.863 36,0.863 23.333,0 36,-0.352 36,-1 0,-0.622 5.765,-1.009 15.25,-1.023 8.388,-0.012 27.175,-0.465 41.75,-1.006 14.575,-0.541 34.713,-1.028 44.75,-1.082 10.037,-0.054 18.25,-0.431 18.25,-0.836 0,-0.406 10.688,-1.266 23.75,-1.913 13.063,-0.646 28.025,-1.394 33.25,-1.662 5.225,-0.268 13.775,-0.695 19,-0.949 5.225,-0.254 13.1,-0.91 17.5,-1.459 11.964,-1.492 33.974,-3.073 42.75,-3.071 4.501,0 7.75,-0.418 7.75,-0.999 0,-0.611 4.667,-1 12,-1 6.744,0 12,-0.408 12,-0.931 0,-0.931 6.963,-1.476 33.75,-2.638 7.838,-0.34 14.25,-1.026 14.25,-1.525 0,-0.498 1.8,-0.906 3.99998,-0.906 2.2,0 4,-0.45 4,-1 0,-0.625 6,-1 16,-1 10,0 16,-0.375 16,-1 0,-0.583 3.333,-1 8,-1 4.667,0 8,-0.417 8,-1 0,-0.583 3.333,-1 8,-1 4.667,0 8,-0.417 8,-1 0,-0.583 3.333,-1 8,-1 4.667,0 8,-0.417 8,-1 0,-0.606 4.333,-1 11,-1 6.05,0 11,-0.34 11,-0.757 0,-1.636 8.416,-3.243 16.984,-3.243 5.344,0 9.016,-0.407 9.016,-1 0,-0.55 2.25,-1 5,-1 2.75,0 5,-0.45 5,-1 0,-0.55 2.25,-1 5,-1 2.75,0 5,-0.45 5,-1 0,-0.583 3.333,-1 8,-1 4.4,0 8,-0.401 8,-0.891 0,-1.041 4.971,-2.04 13.75,-2.764 3.438,-0.284 6.25,-0.927 6.25,-1.43 0,-0.503 3.713,-0.922 8.25,-0.93 5.696,-0.011 7.786,-0.316 6.75,-0.985 -1.213,-0.784 -1.069,-0.972 0.75,-0.985 1.237,-0.008 2.25,-0.465 2.25,-1.015 0,-0.55 1.35,-1 3,-1 1.65,0 3,-0.45 3,-1 0,-0.558 2.76,-1.007 6.25,-1.015 4.404,-0.011 5.807,-0.302 4.75,-0.985 -1.074,-0.694 -0.01,-0.974 3.75,-0.985 3.517,-0.01 5.255,-0.428 5.265,-1.265 0.012,-0.981 0.183,-0.986 0.796,-0.022 0.573,0.902 1.157,0.703 2.205,-0.75 0.784,-1.088 2.226,-1.978 3.205,-1.978 0.978,0 1.779,-0.477 1.779,-1.059 0,-0.582 0.414,-0.803 0.919,-0.491 0.506,0.313 1.599,-0.111 2.429,-0.941 0.83,-0.83 2.006,-1.509 2.614,-1.509 0.608,0 2.665,-1.56 4.571,-3.467 3.366,-3.365 3.467,-3.694 3.452,-11.25 -0.011,-5.394 -0.313,-7.323 -0.985,-6.283 -0.784,1.213 -0.972,1.069 -0.985,-0.75 -0.01,-1.238 -0.465,-2.25 -1.015,-2.25 -0.55,0 -1.007,-1.012 -1.015,-2.25 -0.013,-1.819 -0.201,-1.963 -0.985,-0.75 -0.784,1.213 -0.972,1.069 -0.985,-0.75 -0.01,-1.578 -0.612,-2.25 -2.015,-2.25 -1.333,0 -2,-0.667 -2,-2 0,-1.487 -0.667,-2 -2.599,-2 -1.6,0 -3.68,-1.157 -5.412,-3.012 -1.88,-2.013 -2.983,-2.593 -3.323,-1.75 -0.401,0.996 -0.525,0.999 -0.587,0.012 -0.043,-0.687 -0.979,-1.25 -2.079,-1.25 -1.1,0 -2,-0.45 -2,-1 0,-0.55 -0.9,-1 -2,-1 -1.1,0 -2,-0.45 -2,-1 0,-0.55 -1.251,-1 -2.779,-1 -1.632,0 -3.374,-0.826 -4.221,-2 -1.198,-1.662 -2.589,-2 -8.221,-2 -3.853,0 -6.779,-0.432 -6.779,-1 0,-0.556 -2.667,-1 -6,-1 -3.333,0 -6,-0.444 -6,-1 0,-0.55 -1.35,-1 -3,-1 -1.65,0 -3,-0.45 -3,-1 0,-0.619 -5.333,-1 -14,-1 -8.667,0 -14,-0.381 -14,-1 0,-1.484 -3.311,-1.139 -4.75,0.496"
     stroke="none"
     fill="#fff5c4"
     fill-rule="evenodd"
     id="path1" />
  <path
     d="m 854.53372,86.09029 c -9.659,2.76 -12.998,4.509 -18.288,9.579 -5.122,4.91 -8.215,6.511 -12.577,6.511 -1.504,0 -3.163,0.378 -3.685,0.84 -0.522,0.462 -2.525,1.444 -4.45,2.183 -4.958,1.904 -14.833,8.653 -19.249,13.155 -4.251,4.334 -6.48,4.68 -12.251,1.901 -7.255,-3.494 -12.044,-4.409 -19.469,-3.718 -7.612,0.707 -15.298,2.94 -15.853,4.604 -0.189,0.569 -1,1.035 -1.802,1.035 -2.901,0 -8.736,4.979 -15.081,12.868 l -1.905,2.369 -5.819,-2.662 c -3.2,-1.463 -5.997,-2.482 -6.215,-2.264 -0.219,0.219 2.416,1.66 5.855,3.203 7.728,3.468 7.755,3.496 12.36,12.567 3.214,6.331 3.833,8.625 4.221,15.642 0.548,9.876 -1.263,16.419 -6.529,23.597 -3.715,5.063 -16.356,14.68 -19.297,14.68 -2.759,0 -3.675,1.999 -4.786,10.444 -1.173,8.913 -6.683,21.249 -12.412,27.784 -1.797,2.05 -5.518,6.342 -8.268,9.537 -5.129,5.959 -13.82,13.703 -20.613,18.366 -7.517,5.159 -24.18,4.589 -36.255,-1.241 -6.497,-3.136 -11.02,-6.349 -15.746,-11.183 l -3.136,-3.207 2.725,3.726 2.725,3.726 -2.35,0.901 c -1.292,0.495 -5.05,1.91 -8.35,3.144 -8.938,3.341 -19.5,8.337 -19.5,9.224 0,0.428 -0.681,0.779 -1.514,0.779 -1.391,0 -4.349,1.39 -6.935,3.26 -4.048,2.926 -15.143,11.334 -15.551,11.784 -0.275,0.304 -1.974,1.582 -3.776,2.841 -6.465,4.516 -18.501,16.727 -22.29,22.615 -2.123,3.3 -4.327,6.544 -4.898,7.208 -0.57,0.664 -1.036,1.902 -1.036,2.75 0,0.848 -0.45,1.542 -1,1.542 -0.55,0 -1,0.863 -1,1.917 0,1.054 -0.354,2.066 -0.788,2.25 -1.175,0.497 -5.212,10.771 -5.212,13.266 0,1.192 -0.374,2.595 -0.831,3.117 -1.253,1.431 -3.169,8.785 -3.169,12.161 0,4.412 -2.517,5.95 -11,6.726 -7.807,0.713 -14.818,2.304 -16.45,3.732 -0.523,0.457 -1.603,0.831 -2.4,0.831 -0.798,0 -3.844,1.171 -6.769,2.602 -4.555,2.229 -5.119,2.803 -3.922,4 0.98,0.98 3.963,1.398 9.97,1.398 4.714,0 8.571,0.405 8.571,0.899 0,1.862 13.289,2.765 74.5,5.067 34.875,1.311 128.163,0.66 139.5,-0.974 3.575,-0.515 17.038,-0.974 29.918,-1.019 12.88,-0.045 24.206,-0.504 25.169,-1.02 1.206,-0.645 1.909,-0.55 2.256,0.305 0.327,0.805 0.795,0.89 1.331,0.242 0.459,-0.556 7.488,-1.151 15.826,-1.34 8.25,-0.186 17.925,-0.74 21.5,-1.23 3.575,-0.49 13.025,-0.906 21,-0.926 l 14.5,-0.035 2.457,-5.004 c 3.348,-6.822 6.215,-9.39 9.547,-8.553 3.185,0.799 11.496,8.269 11.496,10.332 0,1.123 0.676,1.322 2.75,0.808 1.513,-0.375 7.025,-0.932 12.25,-1.239 5.337,-0.314 9.822,-1.052 10.235,-1.686 0.522,-0.802 0.739,-0.766 0.75,0.123 0.01,0.688 0.69,1.25 1.515,1.25 0.825,0 1.5,-0.54 1.5,-1.2 0,-0.933 0.267,-0.933 1.2,0 1.452,1.452 7.437,1.596 8.3,0.2 0.358,-0.579 -0.601,-1 -2.274,-1 -4.037,0 -4.347,-0.681 -2.066,-4.546 l 1.993,-3.379 -2.108,-8.133 c -3.618,-13.959 -8.12,-20.868 -15.873,-24.364 -2.536,-1.144 -4.455,-2.948 -5.528,-5.199 -2.201,-4.615 -2.201,-4.614 2.202,-9.701 2.116,-2.444 4.904,-6.184 6.197,-8.311 1.293,-2.127 2.6,-4.092 2.904,-4.367 1.547,-1.399 4.178,-7.381 5.531,-12.577 1.727,-6.63 2.072,-25.846 0.537,-29.884 -0.542,-1.424 -1.779,-2.887 -2.75,-3.249 -0.971,-0.362 -2.344,-1.463 -3.052,-2.445 -2.743,-3.811 -11.951,-4.57 -19.713,-1.626 -6.292,2.386 -15.031,10.521 -18.171,16.914 -1.758,3.58 -1.888,3.64 -8.807,4.089 -7.98,0.518 -11.151,1.91 -19.105,8.389 l -5.623,4.58 -5.147,-3.489 c -9.206,-6.24 -11.366,-6.992 -18.582,-6.468 -7.97,0.579 -12.592,2.899 -19.874,9.976 -9.144,8.888 -14.175,21.252 -14.157,34.79 0.012,8.836 1.999,14.023 8.189,21.373 3.618,4.296 3.955,5.112 2.85,6.882 -2.381,3.812 -4.338,10.275 -5.98,19.745 l -1.647,9.5 h -3.473 -3.473 l 0.247,-5.617 c 0.316,-7.161 2.349,-12.886 6.756,-19.021 1.924,-2.676 3.497,-5.315 3.497,-5.862 0,-0.547 -1.528,-3.134 -3.396,-5.748 -4.939,-6.911 -6.705,-11.803 -7.313,-20.252 -0.649,-9.035 1.186,-17.123 6.293,-27.742 2.766,-5.751 4.727,-8.271 9.215,-11.843 13.092,-10.419 21.486,-12.403 33.677,-7.956 4.126,1.505 8.633,3.626 10.016,4.714 l 2.515,1.977 4.209,-3.603 c 5.641,-4.828 13.05,-8.158 20.023,-8.997 5.32,-0.641 5.966,-1.008 8.866,-5.047 3.362,-4.681 7.74,-8.506 14.884,-13.004 3.906,-2.459 5.726,-2.885 14,-3.277 11.692,-0.553 16.845,0.73 22.14,5.514 7.681,6.939 11.306,18.763 10.687,34.863 -0.345,8.988 -0.736,10.663 -4.243,18.163 -3.505,7.497 -3.721,8.422 -2.337,10 0.839,0.956 4.054,5.563 7.144,10.238 3.089,4.675 6.001,8.971 6.469,9.548 0.469,0.576 2.101,4.169 3.627,7.984 2.503,6.257 2.726,7.794 2.275,15.702 l -0.5,8.766 4.125,-0.029 c 10.007,-0.071 30.141,-2.022 30.45,-2.95 0.198,-0.593 4.094,-1.021 9.297,-1.021 11.127,0 28.264,-1.835 28.70998,-3.075 0.184,-0.509 4.796,-0.925 10.25,-0.925 5.454,0 9.917,-0.393 9.917,-0.874 0,-0.481 6.412,-1.155 14.25,-1.498 24.305,-1.063 33.75,-1.832 33.75,-2.747 0,-0.485 3.6,-0.881 8,-0.881 4.667,0 8,-0.417 8,-1 0,-0.55 1.237,-0.994 2.75,-0.987 5.069,0.024 21.25,-2.433 21.25,-3.228 0,-0.432 6.75,-0.785 15,-0.785 9.333,0 15,-0.378 15,-1 0,-0.55 0.9,-1 2,-1 1.1,0 2,-0.439 2,-0.975 0,-0.852 -4.058,-0.586 -7.677,0.502 -0.648,0.195 -2.48,-0.138 -4.073,-0.739 -2.751,-1.038 -3.004,-1.657 -5.051,-12.361 -2.092,-10.935 -3.063,-13.965 -7.513,-23.427 -2.056,-4.374 -6.589,-11.99 -7.735,-13 -1.747,-1.538 -7.953,-15.327 -7.966,-17.698 -0.01,-1.541 -0.346,-3.322 -0.75,-3.957 -0.404,-0.634 -0.735,1.907 -0.735,5.649 0,6.487 -0.185,7.02 -4,11.498 -5.336,6.264 -13.61,11.219 -22.614,13.546 -22.314,5.765 -38.075,2.485 -49.129,-10.224 -4.346,-4.997 -5.569,-5.811 -9.618,-6.401 -12.342,-1.798 -22.10998,-11.485 -29.38198,-29.138 -2.647,-6.423 -3.199,-9.079 -3.175,-15.275 0.016,-4.125 0.611,-9.3 1.323,-11.5 4.156,-12.855 13.826,-25.957 22.58598,-30.605 2.48,-1.315 4.513,-2.842 4.519,-3.393 0.028,-2.856 5.326,-11.584 9.614,-15.841 5.234,-5.194 8.559,-7.264 14.876,-9.262 3.025,-0.957 3.406,-1.282 1.566,-1.332 -3.597,-0.099 -10.378,3.508 -15.86,8.437 -2.657,2.39 -5.273,4.042 -5.811,3.671 -0.539,-0.371 -1.636,-2.037 -2.437,-3.701 -5.116,-10.622 -13.88598,-18.442 -22.35198,-19.933 -4.162,-0.733 -5.333,-1.603 -7.451,-5.541 -0.74,-1.375 -3.301,-4.075 -5.693,-6 -2.392,-1.925 -4.629,-4.287 -4.973,-5.25 -0.343,-0.963 -1.173,-1.75 -1.844,-1.75 -0.671,0 -2.779,-1.332 -4.683,-2.959 -1.904,-1.628 -3.843,-2.978 -4.308,-3 -0.465,-0.023 -2.058,-0.904 -3.54,-1.96 -5.03,-3.581 -14.518,-6.081 -23.082,-6.081 -6.133,0 -8.032,-0.324 -8.032,-1.37 0,-3.072 -4.014,-13.641 -6.18,-16.272 -7.297,-8.864 -14.599,-13.659 -22.795,-14.97 -2.26,-0.361 -5.972,-2.094 -8.311,-3.88 -11.599,-8.857 -22.899,-11.261 -35.714,-7.598 m -166.5,44.751 c -4.059,0.869 -11.077,3.69 -13.654,5.488 -1.46,1.018 -3.373,1.851 -4.25,1.851 -0.878,0 -1.613,0.563 -1.634,1.25 -0.072,2.384 -8.538,7.884 -15.981,10.382 -4.115,1.381 -7.631,2.929 -7.814,3.44 -0.184,0.51 -0.798,0.928 -1.366,0.928 -1.979,0 -10.326,6.905 -13.801,11.417 -2.551,3.311 -4.585,4.832 -7.5,5.608 -6.503,1.729 -12.727,5.205 -16.998,9.493 -3.322,3.335 -4.387,5.46 -6.265,12.5 -2.402,9.003 -2.802,12.449 -1.342,11.547 1.051,-0.65 2.105,1.71 2.105,4.714 0,1.163 1.823,5.301 4.051,9.195 3.026,5.29 5.239,7.824 8.75,10.022 2.584,1.619 8.074,6.136 12.199,10.039 8.797,8.324 14.616,11.954 22.425,13.987 13.27,3.457 17.714,1.631 31.037,-12.752 12.976,-14.007 17.538,-23.529 17.538,-36.603 0,-9.83 1.216,-12.685 8.057,-18.91 6.522,-5.935 17.913,-28.644 18.634,-37.149 0.463,-5.458 0.381,-5.682 -3.064,-8.366 -7.89,-6.147 -22.479,-9.935 -31.127,-8.081 m 351.78098,50.452 c -5.403,0.684 -12.395,4.146 -15.658,7.751 -1.03,1.139 -3.313,4.898 -5.072,8.353 -2.924,5.743 -3.793,6.596 -10.125,9.922 -5.687,2.988 -8.03,5.045 -13.09298,11.5 -10.42,13.281 -12.108,25.78 -5.384,39.861 7.976,16.7 19.15998,26.232 32.87198,28.015 2.927,0.381 5.477,1.208 5.667,1.839 0.19,0.63 0.601,2.324 0.914,3.763 0.313,1.44 2.038,4.054 3.834,5.809 3.187,3.116 3.276,3.139 3.787,0.977 0.911,-3.861 3.25,-4.497 9.404,-2.558 4.824,1.521 6.641,1.604 13.758,0.63 4.511,-0.618 9.491,-1.79 11.068,-2.606 4.468,-2.31 10.399,-8.088 12.561,-12.237 2.026,-3.887 1.719,-5.719 -1.499,-8.953 -1.953,-1.963 -1.602,-4.678 1.015,-7.852 3.248,-3.941 3.722,-5.729 2.43,-9.153 -1.431,-3.79 0.805,-7.634 4.922,-8.466 6.331,-1.279 16.28,-13.131 18.201,-21.685 1.552,-6.907 -0.391,-12.662 -6.254,-18.52 -7.102,-7.098 -15.314,-10.961 -23.423,-11.02 -6.248,-0.045 -6.324,-0.08 -10.334,-4.771 -7.393,-8.649 -17.217,-12.168 -29.591,-10.599 m 46.219,1.914 c 4.4,0.394 9.575,0.998 11.5,1.342 1.983,0.355 1.333,-0.015 -1.5,-0.852 -2.75,-0.813 -7.925,-1.417 -11.5,-1.343 l -6.5,0.136 8,0.717 m 21.58,5.951 c 6.373,3.292 12.166,8.696 14.932,13.928 1.045,1.977 1.919,3.12 1.944,2.54 0.061,-1.455 -5.234,-9.582 -7.555,-11.596 -2.832,-2.457 -12.31,-7.857 -13.695,-7.802 -0.663,0.027 1.305,1.345 4.374,2.93 m 48.92,85.972 c 0,0.683 4.287,1.009 12.25,0.932 13.755,-0.133 11.606,-1.388 -3,-1.751 -5.939,-0.148 -9.25,0.145 -9.25,0.819 m 28,2.05 c 0,0.55 1.35,1 3,1 1.65,0 3,0.45 3,1 0,0.556 2.667,1 6,1 3.333,0 6,0.444 6,1 0,0.55 2.25,1 5,1 7.424,0 6.058,-1.428 -2.75,-2.876 -4.263,-0.701 -9.91,-1.69 -12.549,-2.199 -6.125,-1.181 -7.701,-1.165 -7.701,0.075 m 32,5.623 c 0,1.418 3.15,3.377 5.429,3.377 1.414,0 2.571,0.45 2.571,1 0,0.55 0.9,1 2,1 1.1,0 2,0.45 2,1 0,0.55 0.862,1 1.917,1 1.054,0 2.171,0.563 2.482,1.25 0.311,0.688 0.457,0.35 0.323,-0.75 -0.147,-1.212 -1.125,-2.126 -2.482,-2.32 -1.232,-0.175 -2.24,-0.738 -2.24,-1.25 0,-0.511 -0.81,-0.93 -1.8,-0.93 -0.99,0 -2.227,-0.389 -2.75,-0.864 -1.209,-1.099 -7.45,-3.204 -7.45,-2.513 m -37.5,2.405 c 15.428,2.438 20.771,2.918 22.338,2.003 1.227,-0.717 0.289,-0.978 -3.588,-1.001 -2.888,-0.016 -5.25,-0.48 -5.25,-1.03 0,-0.603 -3.671,-0.953 -9.25,-0.881 -8.308,0.106 -8.741,0.199 -4.25,0.909 m 25.5,4.131 c 7.831,2.135 10.834,3.145 18,6.054 4.125,1.675 9.412,4.359 11.75,5.964 4,2.747 4.25,2.798 4.25,0.871 0,-1.297 -0.653,-2.048 -1.779,-2.048 -0.979,0 -2.428,-0.9 -3.221,-2 -0.828,-1.149 -2.589,-2 -4.137,-2 -1.483,0 -2.846,-0.446 -3.03,-0.991 -0.183,-0.546 -1.57,-1.094 -3.083,-1.218 -1.513,-0.125 -2.75,-0.579 -2.75,-1.009 0,-0.43 -0.801,-0.782 -1.779,-0.782 -0.979,0 -2.428,-0.9 -3.221,-2 -1.204,-1.67 -2.518,-1.983 -7.971,-1.898 -6.006,0.094 -6.249,0.179 -3.029,1.057 m 30,1.386 c 0,1.668 5.28,5.455 7.605,5.455 2.547,0 2.453,-0.165 -1.705,-2.982 -4.29,-2.907 -5.9,-3.582 -5.9,-2.473 m 5,12.469 c 0,0.595 1.237,2.233 2.75,3.641 1.513,1.407 2.626,3.152 2.473,3.877 -0.152,0.724 0.186,1.603 0.75,1.952 0.565,0.349 1.027,2.104 1.027,3.9 0,3.171 -1.366,5.19 -5.5,8.13 -1.966,1.398 -1.961,1.423 0.295,1.454 3.94,0.055 7.205,-4.215 7.205,-9.423 0,-2.5 -0.45,-4.545 -1,-4.545 -0.55,0 -1,-0.69 -1,-1.533 0,-0.844 -1.575,-3.109 -3.5,-5.034 -1.925,-1.925 -3.5,-3.013 -3.5,-2.419 m -730.99998,6.066 c -2.273,0.709 -4.125,1.201 -13.5,3.584 -2.98,0.757 -2.973,0.764 0.975,1.123 2.26,0.205 4.13,-0.103 4.334,-0.713 0.197,-0.591 2.12,-1.074 4.274,-1.074 2.154,0 3.917,-0.45 3.917,-1 0,-0.583 3.333,-1 8,-1 4.667,0 8,0.417 8,1 0,0.55 0.9,1 2,1 1.1,0 2,0.45 2,1 0,0.55 -0.45,1 -1,1 -0.55,0 -1,0.9 -1,2 0,1.1 -0.525,2 -1.167,2 -0.641,0 -0.931,0.236 -0.643,0.524 1.159,1.159 3.633,-0.817 4.103,-3.278 0.814,-4.258 -0.103,-5.041 -7.12,-6.075 -7.754,-1.144 -9.759,-1.158 -13.173,-0.091 m 746.01498,6.703 c -0.014,6.969 -0.165,7.434 -3.482,10.75 -1.906,1.907 -3.963,3.467 -4.571,3.467 -0.608,0 -1.784,0.679 -2.614,1.509 -0.83,0.83 -1.923,1.254 -2.429,0.941 -0.505,-0.312 -0.919,-0.091 -0.919,0.491 0,0.582 -0.707,1.059 -1.571,1.059 -1.681,0 -4.975,2.787 -4.205,3.557 1.278,1.278 11.833,-4.476 16.503,-8.997 5.157,-4.992 5.227,-5.141 5.235,-11.06 0,-3.3 -0.429,-6.675 -0.962,-7.5 -0.675,-1.045 -0.974,0.712 -0.985,5.783 m -772.51498,0.679 c -2.907,1.333 -2.791,1.378 3.75,1.457 3.887,0.047 6.75,-0.343 6.75,-0.919 0,-0.55 -1.088,-1 -2.418,-1 -1.33,0 -3.018,-0.206 -3.75,-0.457 -0.733,-0.252 -2.682,0.162 -4.332,0.919 m 29.5,0.538 c 1.094,0.707 0.281,0.982 -3,1.015 -3.298,0.034 -4.07,0.297 -2.891,0.986 1.009,0.59 2.87,0.579 4.993,-0.03 1.862,-0.534 5.188,-0.978 7.391,-0.986 2.204,-0.009 4.682,-0.452 5.507,-0.985 1.041,-0.673 -0.793,-0.969 -6,-0.969 -5.207,0 -7.041,0.296 -6,0.969 m -43,4 c 0,0.55 -0.929,1 -2.065,1 -1.984,0 -8.567,2.389 -15.935,5.782 -3.346,1.541 -3.391,1.629 -1.033,2.013 1.357,0.221 2.632,-0.093 2.834,-0.697 0.201,-0.604 1.228,-1.098 2.282,-1.098 1.055,0 1.917,-0.45 1.917,-1 0,-0.55 1.8,-1 4,-1 2.2,0 4,-0.45 4,-1 0,-0.55 0.9,-1 2,-1 1.1,0 2,-0.45 2,-1 0,-0.55 0.9,-1 2,-1 1.1,0 2,-0.45 2,-1 0,-0.55 -0.9,-1 -2,-1 -1.1,0 -2,0.45 -2,1 m 14,4 c 0,0.55 -1.35,1 -3,1 -1.65,0 -3,0.45 -3,1 0,0.55 -0.9,1 -2,1 -1.1,0 -2,0.41 -2,0.912 0,1.016 2.557,0.864 3.638,-0.216 0.382,-0.383 1.633,-0.729 2.779,-0.77 1.146,-0.041 3.883,-0.908 6.083,-1.926 l 4,-1.852 -3.25,-0.074 c -1.788,-0.041 -3.25,0.376 -3.25,0.926 m 749.99998,2.949 c -6.493,2.578 -23.547,6.796 -31.25,7.73 -2.612,0.316 -4.75,0.968 -4.75,1.448 0,0.48 -2.138,0.88 -4.75,0.888 -2.612,0.009 -5.425,0.452 -6.25,0.985 -1.057,0.683 0.346,0.974 4.75,0.985 3.51,0.008 6.25,-0.423 6.25,-0.985 0,-0.55 1.8,-1 4,-1 2.2,0 4,-0.45 4,-1 0,-0.55 1.8,-1 4,-1 2.2,0 4,-0.45 4,-1 0,-0.556 2.667,-1 6,-1 3.333,0 6,-0.444 6,-1 0,-0.55 1.35,-1 3,-1 1.65,0 3,-0.45 3,-1 0,-0.55 0.9,-1 2,-1 1.1,0 2,-0.45 2,-1 0,-0.55 0.9,-1 2,-1 1.1,0 2,-0.45 2,-1 0,-1.292 -0.591,-1.199 -6,0.949 m -767.99998,3.051 c 0,0.55 -0.9,1 -2,1 -1.1,0 -2,0.45 -2,1 0,0.55 -1.35,1 -3,1 -1.65,0 -3,0.45 -3,1 0,0.55 -0.9,1 -2,1 -1.1,0 -2,0.45 -2,1 0,0.55 -1.157,1 -2.571,1 -1.415,0 -3.302,0.73 -4.194,1.622 -1.496,1.496 -1.377,1.568 1.529,0.93 1.733,-0.381 4.857,-1.51 6.943,-2.51 2.086,-1 5.979,-2.555 8.652,-3.455 2.672,-0.901 6.047,-2.283 7.5,-3.072 l 2.641,-1.435 -3.25,-0.04 c -1.788,-0.022 -3.25,0.41 -3.25,0.96 m -25.5,2.192 c -1.1,0.622 -2.349,1.714 -2.776,2.428 -0.427,0.713 -1.44,1.042 -2.25,0.731 -0.811,-0.311 -1.474,-0.164 -1.474,0.326 0,0.491 -1.326,1.675 -2.946,2.632 -4.895,2.891 -9.054,10.02 -9.054,15.519 0,4.809 2.327,9.706 4.093,8.614 0.526,-0.325 0.833,0.005 0.682,0.734 -0.151,0.728 0.321,1.2 1.049,1.049 0.729,-0.151 1.05,0.17 0.713,0.714 -0.604,0.979 6.475,6.061 8.443,6.061 0.561,0 1.024,0.337 1.028,0.75 0.009,0.898 4.852,3.25 6.691,3.25 0.716,0 1.301,0.45 1.301,1 0,0.55 0.9,1 2,1 1.1,0 2,-0.45 2,-1 0,-0.55 -0.801,-1 -1.779,-1 -0.979,0 -2.428,-0.9 -3.221,-2 -0.793,-1.1 -2.242,-2 -3.221,-2 -0.978,0 -1.779,-0.45 -1.779,-1 0,-0.55 -0.9,-1 -2,-1 -1.1,0 -2,-0.45 -2,-1 0,-0.55 -1.35,-1 -3,-1 -2.039,0 -3,-0.495 -3,-1.545 0,-2.187 -4.711,-6.747 -5.347,-5.177 -0.272,0.672 -0.524,-2.153 -0.559,-6.278 -0.044,-5.188 0.236,-7.038 0.906,-6 0.784,1.213 0.972,1.069 0.985,-0.75 0.008,-1.238 0.465,-2.25 1.015,-2.25 0.55,0 1.036,-1.012 1.079,-2.25 0.043,-1.238 0.308,-1.682 0.587,-0.988 0.34,0.843 1.443,0.263 3.323,-1.75 1.547,-1.657 3.533,-3.012 4.412,-3.012 0.88,0 1.599,-0.45 1.599,-1 0,-0.55 0.707,-1 1.571,-1 0.865,0 2.215,-0.643 3,-1.429 2.617,-2.616 1.469,-3.381 -2.071,-1.379 m 784.49998,5.808 c 1.057,0.683 -0.346,0.974 -4.75,0.985 -3.49,0.008 -6.25,0.457 -6.25,1.015 0,0.55 -1.35,1 -3,1 -1.65,0 -3,0.45 -3,1 0,0.55 -1.013,1.014 -2.25,1.03 -1.879,0.026 -1.985,0.186 -0.646,0.969 0.977,0.571 2.737,0.583 4.5,0.031 1.593,-0.499 4.921,-1.415 7.396,-2.036 2.475,-0.621 5.882,-1.549 7.571,-2.062 1.689,-0.512 4.025,-0.932 5.191,-0.932 1.166,0 2.398,-0.45 2.738,-1 0.38,-0.614 -1.236,-0.994 -4.191,-0.985 -3.474,0.011 -4.392,0.285 -3.309,0.985 m -51.177,2.39 c -9.863,1.426 -10.993,2.61 -2.49,2.61 3.778,0 6.667,-0.433 6.667,-1 0,-0.55 1.912,-1.007 4.25,-1.015 3.112,-0.012 3.849,-0.275 2.75,-0.985 -0.825,-0.533 -1.95,-0.913 -2.5,-0.844 -0.55,0.069 -4.455,0.624 -8.677,1.234 m -733.82298,1.61 c 0,0.55 -0.69,1 -1.533,1 -2.834,0 -8.467,6.661 -8.467,10.012 0,3.178 3.73,7.988 6.194,7.988 0.707,0 0.053,-1.143 -1.454,-2.54 -1.507,-1.398 -2.727,-3.535 -2.712,-4.75 0.032,-2.558 5.335,-10.014 6.379,-8.97 0.386,0.386 1.015,0.227 1.397,-0.354 0.383,-0.582 1.596,-1.567 2.696,-2.191 1.945,-1.103 1.938,-1.135 -0.25,-1.165 -1.237,-0.016 -2.25,0.42 -2.25,0.97 m 749.99998,3.915 c 0,0.503 -2.812,1.146 -6.25,1.43 -8.779,0.724 -13.75,1.723 -13.75,2.764 0,1.189 1.116,1.117 10.5,-0.68 4.4,-0.842 10.138,-1.791 12.75,-2.107 5.773,-0.701 6.297,-2.322 0.75,-2.322 -2.2,0 -4,0.412 -4,0.915 m -36,6.085 c 0,0.55 -2.25,1 -5,1 -2.75,0 -5,0.45 -5,1 0,0.55 -2.25,1 -5,1 -2.75,0 -5,0.45 -5,1 0,0.593 -3.672,1 -9.016,1 -8.568,0 -16.984,1.607 -16.984,3.243 0,0.417 -4.95,0.757 -11,0.757 -6.667,0 -11,0.394 -11,1 0,0.583 -3.333,1 -8,1 -4.667,0 -8,0.417 -8,1 0,0.583 -3.333,1 -8,1 -4.667,0 -8,0.417 -8,1 0,0.583 -3.333,1 -8,1 -4.667,0 -8,0.417 -8,1 0,0.625 -6,1 -16,1 -10,0 -16,0.375 -16,1 0,0.55 -1.8,1 -4,1 -2.19998,0 -3.99998,0.408 -3.99998,0.906 0,0.499 -6.412,1.185 -14.25,1.525 -26.787,1.162 -33.75,1.707 -33.75,2.638 0,0.521 -5.092,0.931 -11.571,0.931 -8.696,0 -11.927,0.355 -13,1.429 -0.786,0.785 -1.429,1.717 -1.429,2.069 0,1.037 -6.167,9.698 -8.944,12.561 -7.589,7.825 -18.271,11.471 -29.103,9.934 -7.732,-1.096 -10.319,-2.074 -17.722,-6.7 -2.899,-1.811 -5.657,-3.293 -6.13,-3.293 -0.473,0 -2.598,2.137 -4.722,4.75 -7.848,9.654 -17.871,17.982 -26.879,22.336 -6.747,3.26 -7.416,3.38 -18.5,3.317 -12.32,-0.07 -18.846,-1.481 -28.978,-6.266 -9.838,-4.646 -21.022,-18.295 -21.022,-25.655 v -2.8 l -20.75,0.663 c -11.413,0.364 -33.913,0.958 -50,1.32 -16.087,0.361 -29.25,1.035 -29.25,1.496 0,0.462 -16.2,0.839 -36,0.839 -19.8,0 -36,-0.388 -36,-0.863 0,-0.475 -8.888,-1.145 -19.75,-1.491 -10.862,-0.345 -28.75,-0.917 -39.75,-1.271 -11,-0.354 -20.225,-0.947 -20.5,-1.317 -0.547,-0.737 -25.837,-3.102 -32.883,-3.075 -3.022,0.012 -4.884,-0.555 -6,-1.826 -2.575,-2.935 -5.653,-4.157 -10.468,-4.157 -2.465,0 -4.647,-0.494 -4.848,-1.098 -0.202,-0.604 -1.477,-0.92 -2.834,-0.702 -2.284,0.367 -2.18,0.522 1.405,2.098 2.13,0.936 4.463,1.702 5.185,1.702 0.722,0 2.543,0.468 4.047,1.04 l 2.735,1.039 -3.298,2.711 c -4.654,3.826 -13.041,12.488 -13.041,13.47 0,0.453 -0.9,1.79 -2,2.97 -1.1,1.181 -2,2.94 -2,3.909 0,0.969 -0.635,2.121 -1.41,2.561 -1.732,0.982 -5.339,11.452 -6.346,18.419 -0.626,4.327 -1.221,5.402 -3.744,6.765 -12.621,6.814 -16.464,9.721 -22.628,17.116 -6.573,7.886 -14.258,22.012 -16.445,30.229 -2.473,9.289 -1.108,45.423 1.826,48.357 1.352,1.352 0.826,7.249 -0.677,7.591 -1.444,0.328 -14.576,12.527 -14.576,13.541 0,0.304 -1.013,1.562 -2.25,2.795 -4.397,4.382 -7.696,8.483 -9.265,11.515 -0.874,1.691 -2.241,3.325 -3.037,3.63 -0.797,0.306 -1.448,1.548 -1.448,2.76 0,1.213 -0.788,3.1 -1.75,4.194 -2.435,2.768 -4.25,6.096 -4.25,7.791 0,0.787 -0.341,1.58 -0.758,1.764 -1.183,0.519 -7.242,12.421 -7.242,14.223 0,0.885 -0.45,1.61 -1,1.61 -0.55,0 -1,1.104 -1,2.453 0,1.349 -0.506,3.712 -1.125,5.25 -0.618,1.538 -1.48,3.697 -1.914,4.797 -0.435,1.1 -1.479,4.925 -2.32,8.5 -4.854,20.637 -5.084,22.439 -5.107,40 -0.019,15.026 0.302,18.772 2.275,26.5 3.062,11.995 7.061,23.633 8.789,25.579 1.739,1.959 1.83,4.905 0.152,4.968 -0.687,0.026 -4.81,3.401 -9.16,7.5 -4.351,4.099 -7.501,7.44 -7,7.424 0.5,-0.015 3.833,-2.935 7.406,-6.488 5.591,-5.558 12.004,-9.713 12.004,-7.775 0,0.332 -1.236,2.221 -2.747,4.198 -1.51,1.977 -2.624,3.965 -2.475,4.418 0.149,0.454 -0.144,0.568 -0.653,0.254 -0.508,-0.315 -2.656,1.497 -4.774,4.024 -4.545,5.425 -17.351,23.101 -17.351,23.949 0,0.324 -1.286,2.47 -2.858,4.769 -2.696,3.943 -5.326,8.613 -14.181,25.18 -5.475,10.242 -6.254,15.034 -6.337,38.966 -0.063,18.486 0.193,22.079 2.114,29.661 6.074,23.966 18.307,46.113 32.221,58.335 8.14,7.15 8.689,7.922 9.299,13.072 0.848,7.154 5.085,19.034 11.873,33.291 3.228,6.779 5.869,12.521 5.869,12.761 0,0.239 2.497,4.472 5.549,9.405 5.526,8.934 17.792,22.50901 24.451,27.06201 1.925,1.316 4.4,3.25 5.5,4.298 7.352,7.003 27.79,17.02 36.784,18.027 7.241,0.811 9.253,2.055 11.794,7.291 2.683,5.532 3.285,5.942 13.041,8.893 14.538,4.398 26.376,3.33 39.822,-3.592 12.847,-6.614 20.416,-4.863 29.076,6.729 4.798,6.423 6.998,8.686 14.882,15.301 2.949,2.475 5.866,4.95 6.482,5.5 2.873,2.567 17.737,11.925 23.258,14.643 9.581,4.717 18.962,4.998 31.515,0.943 15.794,-5.102 19.846,-5.572 25.834,-2.996 2.785,1.198 5.389,2.68 5.787,3.294 1.473,2.268 14.899,13.433 20.225,16.818 7.065,4.491 17.134,8.482 23.549,9.333 l 5.044,0.669 1.183,-6.352 c 0.65,-3.494 1.464,-8.602 1.808,-11.352 0.344,-2.75 1.703,-9.563 3.021,-15.141 1.317,-5.577 2.395,-11.156 2.395,-12.397 0,-1.241 0.865,-4.778 1.922,-7.859 1.056,-3.082 2.645,-8.078 3.529,-11.103 0.884,-3.025 2.909,-9.1 4.499,-13.5 1.59,-4.4 3.569,-10.224 4.397,-12.943 l 1.506,-4.943 -3.546,-3.557 c -6.419,-6.439 -18.353,-25.62801 -22,-35.37401 -9.563,-25.555 -13.336,-53.867 -9.753,-73.183 0.816,-4.4 1.763,-10.138 2.104,-12.75 0.567,-4.337 0.441,-4.75 -1.451,-4.75 -1.824,0 -6.207,4.601 -6.207,6.517 0,0.389 -4.47,9.591 -9.934,20.449 -5.463,10.858 -12.021,24.645 -14.572,30.638 -5.814,13.657 -11.858,24.819 -21.06,38.896 -3.956,6.05 -8.76,13.92501 -10.678,17.50001 -9.338,17.414 -17.28,28.413 -21.229,29.404 -2.947,0.739 -7.442,-1.758 -7.685,-4.269 -0.359,-3.7 0.36,-5.353 5.783,-13.309 3.122,-4.579 6.29,-9.676 7.04,-11.326 0.751,-1.65 1.784,-3.675 2.296,-4.5 25.027,-40.29601 28.975,-47.28901 33.408,-59.18201 1.369,-3.675 6.472,-14.475 11.339,-24 4.866,-9.525 9.714,-19.343 10.772,-21.818 3.876,-9.063 8.349,-15.02 12.796,-17.039 2.323,-1.054 5.375,-1.927 6.783,-1.939 3.413,-0.029 6.802,-2.52 5.387,-3.959 -0.75,-0.762 -4.593,-0.464 -13.278,1.029 -11.35,1.951 -12.4,1.986 -14.696,0.482 -1.803,-1.182 -2.472,-2.513 -2.472,-4.923 0,-4.857 3.158,-7.216 11.5,-8.589 27.481,-4.525 39.373,-3.175 74,8.401 27.98,9.353 71.816,19.712 112.5,26.584 8.837,1.493 26.41,1.371 32.915,-0.228 15.524,-3.816 34.827,-16.599 41.911,-27.755 0.895,-1.41 1.863,-2.789 2.151,-3.064 1.279,-1.222 4.956,-6.939 7.096,-11.031 1.87,-3.576 2.346,-6.081 2.382,-12.542 0.04,-7.109 -0.273,-8.553 -2.616,-12.094 -3.178,-4.802 -7.228,-6.885 -17.593,-9.046 -6.544,-1.365 -16.823,-1.647 -66.246,-1.821 -48.952,-0.172 -60.132,-0.475 -68.5,-1.856 -39.687,-6.548 -61.508,-12.386 -77.518,-20.741 -4.214,-2.199 -11.49,-7.007 -16.168,-10.684 -4.679,-3.677 -10.56,-8.109 -13.068,-9.849 -5.496,-3.813 -9.946,-10.953 -9.946,-15.959 0,-4.461 1.897,-6.474 6.217,-6.597 2.526,-0.071 3.884,0.602 5.673,2.813 1.294,1.599 2.598,3.843 2.897,4.986 0.299,1.144 3.102,3.767 6.229,5.829 l 5.684,3.749 0.566,-8.328 c 0.715,-10.502 3.233,-15.48 10.671,-21.096 3.004,-2.267 5.866,-5.189 6.362,-6.493 1.483,-3.902 1.004,-11.334 -1.178,-18.24 -2.398,-7.593 -2.915,-23.326 -0.972,-29.57 3.036,-9.753 6.699,-15.445 12.036,-18.704 1.933,-1.18 6.274,-4.3 9.646,-6.934 5.181,-4.046 6.311,-5.505 7.298,-9.424 2.553,-10.138 8.693,-17.913 14.912,-18.882 2.012,-0.313 7.484,-1.664 12.159,-3 16.996,-4.86 38.885,-7.319 49,-5.506 3.025,0.543 9.55,2.151 14.5,3.574 19.23,5.531 43.454,11.445 53.171,12.982 9.419,1.49 11.455,1.483 27.5,-0.088 19.949,-1.954 28.881,-1.554 43.329,1.936 16.947,4.094 21.362,6.156 32,14.941 6.235,5.149 13.101,8.683 16.833,8.664 4.17598,-0.021 11.71198,-2.931 25.38098,-9.801 18.564,-9.332 28.625,-12.363 43.038,-12.968 10.669,-0.447 11.785,-0.3 21.5,2.841 10.934,3.535 16.006,7.135 17.296,12.275 0.442,1.76 -0.386,5.939 -2.459,12.409 -1.719,5.365 -3.536,12.23 -4.039,15.255 -0.502,3.025 -1.383,7.75 -1.958,10.5 -1.568,7.506 -4.092,34.096 -4.092,43.104 0,5.825 0.581,9.377 2.195,13.41 1.618,4.044 2.291,8.179 2.564,15.736 0.203,5.638 0.637,10.25 0.964,10.25 0.328,0 2.886,-1.701 5.686,-3.78 10.603,-7.871 13.076,-8.67 17.423,-5.625 1.786,1.251 2.212,2.375 1.973,5.215 -0.329,3.905 0.83,2.88 -19.934,17.641 -4.604,3.274 -8.596,6.232 -8.871,6.576 -0.275,0.343 -2.075,1.49 -4,2.548 -1.925,1.059 -3.725,2.215 -4,2.571 -1.09,1.407 -18.621,9.897 -24.38,11.806 -3.366,1.116 -12.42,2.987 -20.12,4.156 -12.326,1.873 -16.452,2.048 -34.5,1.461 -31.00198,-1.007 -44.73798,-2.287 -65.49998,-6.1 l -4,-0.735 2.122,2.383 c 7.992,8.975 10.59,20.071 7.837,33.466 -1.429,6.954 -2.542,9.276 -9.146,19.082 -4.135,6.14 -10.355,14.014 -13.821,17.498 -3.467,3.483 -6.094,6.671 -5.839,7.085 0.256,0.414 10.329,0.752 22.384,0.752 28.351,0 43.847,-2.304 71.46298,-10.625 4.4,-1.325 8.9,-2.827 10,-3.335 3.149,-1.458 22.102,-8.076 32,-11.176 20.174,-6.317 37.336,-5.773 45.25,1.435 5.035,4.586 0.513,12.536 -6.393,11.24 -3.145,-0.59 -3.223,-0.511 -4.777,4.835 -2.059,7.08 -2.097,30.482 -0.065,39.626 0.794,3.575 1.733,10.325 2.087,15 0.611,8.08 0.47,8.945 -2.847,17.506 -3.959,10.22 -4.39,11.931 -5.76,22.907 -1.844,14.773 -10.956,28.09701 -25.699,37.57501 l -7.203,4.631 6.612,10.941 c 3.637,6.017 8.341,12.609 10.454,14.65 4.646,4.487 5.327,9.636 1.618,12.233 -6.679,4.679 -12.528,-0.834 -27.863,-26.262 l -4.414,-7.32 -5,0.524 c -2.75,0.287 -13.536,1.017 -23.968,1.62 -10.43198,0.604 -19.19098,1.321 -19.46498,1.595 -0.274,0.273 0.347,4.413 1.379,9.199 1.031,4.785 2.204,12.301 2.604,16.701 1.048,11.504 4.445,29.079 9.007,46.595 0.913,3.506 1.124,3.636 8.46798,5.25 10.363,2.277 13.105,2.11 22.555,-1.375 18.282,-6.74 30.426,-14.461 36.13,-22.97 7.432,-11.088 12.442,-23.479 15.362,-38 2.066,-10.27 2.935,-12.134 6.924,-14.862 1.9,-1.299 8.166,-7.149 13.926,-13 26.912,-27.33901 42.14,-49.19701 47.248,-67.82001 0.902,-3.287 1.864,-12.125 2.213,-20.318 l 0.617,-14.5 6.931,-8.5 c 18.303,-22.448 27.984,-43.828 32.493,-71.76 2.933,-18.167 3.093,-17.287 -3.691,-20.208 -5.847,-2.518 -15.233,-10.272 -15.233,-12.586 0,-0.703 -0.445,-1.429 -0.989,-1.613 -0.544,-0.183 -1.944,-3.033 -3.111,-6.333 -3.734,-10.558 -1.296,-23.484 6.33,-33.56 3.584,-4.735 3.77,-5.351 3.77,-12.502 0,-15.584 4.949,-30.341 13.888,-41.407 2.457,-3.042 4.729,-5.756 5.048,-6.031 1.086,-0.934 0.379,-16.453 -1.322,-29 -1.849,-13.638 -4.509,-24.452 -8.118,-33 -11.228,-26.599 -10.734,-24.375 -8.067,-36.318 1.504,-6.735 1.693,-11.997 1.369,-38 l -0.376,-30.182 -3.291,-9.5 c -1.811,-5.225 -4.396,-11.406 -5.745,-13.735 l -2.453,-4.235 3.046,-8.631 c 6.624,-18.766 10.896,-55.973 8.83,-76.899 -0.493,-4.991 -0.419,-6.139 0.259,-4 1.634,5.162 3.916,20.691 4.113,28 0.183,6.792 0.201,6.836 0.588,1.5 0.718,-9.889 -2.473,-28.599 -6.481,-38 -0.82,-1.925 -1.833,-4.4 -2.251,-5.5 -2.058,-5.422 -9.636,-20.226 -11.229,-21.936 -0.994,-1.068 -1.808,-2.531 -1.808,-3.253 0,-0.721 -0.42,-1.311 -0.933,-1.311 -0.513,0 -1.222,-0.914 -1.577,-2.032 -0.355,-1.118 -1.735,-3.122 -3.068,-4.455 -1.332,-1.332 -2.422,-2.754 -2.422,-3.159 0,-0.405 -2.475,-3.058 -5.5,-5.896 -3.025,-2.838 -5.5,-5.398 -5.5,-5.69 0,-0.838 8.498,-2.758 12.693,-2.868 2.094,-0.055 4.932,-0.46 6.307,-0.9 1.778,-0.569 0.405,-0.829 -4.75,-0.9 -4.233,-0.059 -7.25,0.316 -7.25,0.9 m -866.69198,11.887 c -7.316,2.465 -16.243,7.341 -17.141,9.363 -0.184,0.413 -0.867,0.75 -1.519,0.75 -0.651,0 -3.363,1.8 -6.025,4 -2.663,2.2 -4.45,4 -3.972,4 0.478,0 2.102,-1.143 3.609,-2.54 1.507,-1.398 2.74,-2.142 2.74,-1.655 0,0.487 -0.901,1.7 -2.001,2.696 -5.157,4.667 -9.236,18.567 -9.107,31.04 l 0.075,7.337 -7.733,4.762 c -4.254,2.619 -10.215,6.64 -13.246,8.937 -7.081,5.362 -27.909,27.463 -30.394,32.251 -2.31,4.451 -2.461,13.161 -0.317,18.294 2.43,5.815 11.23,14.522 16.489,16.314 9.172,3.125 18.781,1.022 24.562,-5.377 1.88,-2.082 3.896,-4.079 4.479,-4.44 0.583,-0.36 4.62,1.165 8.972,3.389 5.041,2.576 10.852,4.598 16.012,5.571 7.98,1.506 8.205,1.492 15.239,-0.955 8.76,-3.046 12.357,-5.463 17.281,-11.61 5.032,-6.283 7.803,-11.64 11.619,-22.466 3.271,-9.278 5.93,-14.33 9.711,-18.456 2.045,-2.231 3.002,-2.422 13.033,-2.605 8.858,-0.161 12.014,-0.655 17.361,-2.716 18.671,-7.198 33.365,-17.866 38.549,-27.988 3.021,-5.898 3.013,-6.131 -0.334,-9.333 -6.632,-6.347 -23.977,-10.956 -38.143,-10.137 -11.261,0.652 -10.981,-0.385 1.393,-5.154 4.4,-1.696 7.454,-3.1 6.787,-3.121 -1.301,-0.041 -9.629,3.098 -15.171,5.717 -3.195,1.511 -3.46,1.493 -4.769,-0.328 -0.762,-1.06 -1.948,-2.602 -2.635,-3.427 -0.688,-0.825 -2.264,-3.143 -3.502,-5.151 -1.238,-2.008 -2.916,-3.906 -3.73,-4.218 -0.814,-0.313 -1.48,-1.092 -1.48,-1.733 0,-0.641 -1.237,-2.248 -2.75,-3.571 -11.837,-10.354 -27.45,-12.998 -43.942,-7.44 m 160.049,3.613 c 0.825,0.825 2.77,1.507 4.322,1.515 2.189,0.012 2.485,0.233 1.321,0.985 -1.138,0.736 -0.716,0.973 1.75,0.985 1.788,0.008 3.25,0.416 3.25,0.906 0,0.968 4.436,1.92 12.896,2.769 3.661,0.368 4.947,0.826 4,1.426 -1.049,0.664 -0.837,0.887 0.854,0.899 1.237,0.008 2.25,-0.418 2.25,-0.946 0,-0.982 -4.35,-2.316 -11.5,-3.527 -2.2,-0.373 -5.35,-1.252 -7,-1.954 -7.311,-3.111 -8.704,-3.55 -9.575,-3.012 -0.509,0.315 -0.925,0.095 -0.925,-0.487 0,-0.582 -0.707,-1.059 -1.571,-1.059 -1.397,0 -1.405,0.167 -0.072,1.5 m 447.143,12.682 c -16.058,1.28 -21.724,1.927 -21.228,2.424 0.439,0.439 40.87,-2.357 43.728,-3.024 2.824,-0.659 -11.492,-0.277 -22.5,0.6 m -514.5,2.755 c 11.551,1.056 22.538,5.696 29.157,12.315 2.664,2.664 4.843,4.429 4.843,3.923 0,-2.149 -9.602,-9.506 -16.76,-12.842 -6.805,-3.172 -8.828,-3.642 -16.74,-3.89 l -9,-0.282 8.5,0.776 m 418.5,3.354 c -8.8,0.531 -16.294,1.426 -16.653,1.989 -0.399,0.626 -3.701,0.835 -8.5,0.538 -4.316,-0.268 -6.88,-0.311 -5.697,-0.096 1.464,0.266 3.204,2.446 5.457,6.839 4.163,8.116 7.885,11.644 15.058,14.272 9.362,3.43 14.683,3.712 22.906,1.214 13.91,-4.225 20.764,-9.508 26.982,-20.797 l 2.892,-5.25 -13.223,0.163 c -7.272,0.089 -20.422,0.597 -29.222,1.128 m -383.5,15.249 c 0,0.297 0.953,2.407 2.117,4.69 1.782,3.492 2.046,5.397 1.663,12.006 -0.25,4.321 -0.085,7.272 0.367,6.56 1.71,-2.696 0.932,-14.65 -1.257,-19.307 -1.915,-4.074 -2.89,-5.406 -2.89,-3.949 m 935.99998,8.585 c -5.134,1.386 -8.092,2.999 -11.86,6.468 l -3.359,3.092 -9.771,-0.47 c -8.828,-0.425 -10.29,-0.233 -15.148,1.991 -3.391,1.552 -6.832,4.202 -9.315,7.173 -2.218,2.654 -6.481,6.068 -9.76,7.815 -3.203,1.707 -5.653,3.273 -5.446,3.48 0.207,0.207 3.183,-1.209 6.614,-3.149 5.975,-3.377 9.79,-4.539 8.604,-2.62 -0.307,0.497 -2.922,2.238 -5.809,3.869 -5.521,3.117 -18.947,16.085 -23.297,22.501 -7.944,11.717 -7.225,23.14 1.976,31.43 8.645,7.788 16.353,9.888 24.995,6.809 4.321,-1.539 7.045,-0.762 8.013,2.286 1.07,3.374 8.047,8.955 13.851,11.08 4.564,1.672 8.051,2.117 16.5,2.108 16.933,-0.019 24.866,-2.836 32.212,-11.438 5.079,-5.948 11.388,-10.55 14.464,-10.55 1.135,0 4.308,-0.865 7.05,-1.923 2.742,-1.057 7.686,-2.96 10.986,-4.228 6.95,-2.67 12.772,-8.119 16.5,-15.439 2.173,-4.267 2.5,-6.219 2.5,-14.91 0,-9.051 -0.255,-10.434 -2.686,-14.569 -5.154,-8.767 -8.887,-11.336 -21.814,-15.011 l -4.5,-1.279 3,-0.702 c 2.93,-0.686 2.911,-0.705 -0.795,-0.821 -2.544,-0.079 -4.575,-0.897 -6.156,-2.478 -5.684,-5.684 -13.521,-8.887 -25.871,-10.572 -4.303,-0.588 -7.903,-1.027 -8,-0.978 -0.098,0.05 -1.753,0.516 -3.678,1.035 m -1130.49998,26.711 c -10.911,9.048 -20.686,20.936 -20.453,24.874 0.025,0.435 1.108,-1.235 2.406,-3.71 3.399,-6.48 12.779,-16.408 20.869,-22.09 3.846,-2.701 6.359,-4.903 5.585,-4.895 -0.774,0.008 -4.557,2.628 -8.407,5.821 m 190.973,2.217 c -0.869,1.679 -4.762,6.404 -8.653,10.5 -3.891,4.096 -6.722,7.447 -6.292,7.447 0.944,0 6.671,-5.944 11.606,-12.046 3.67,-4.538 6.346,-8.954 5.427,-8.954 -0.28,0 -1.22,1.374 -2.088,3.053 m 862.22898,11.011 c -8.311,7.981 -11.786,12.368 -11.667,14.733 0.02,0.387 0.582,-0.277 1.25,-1.474 1.448,-2.594 12.356,-14.004 18.039,-18.868 2.22,-1.9 3.537,-3.455 2.927,-3.455 -0.61,0 -5.357,4.079 -10.549,9.064 m -883.70198,10.452 c -2.475,1.86 -8.421,5.296 -13.214,7.635 -4.793,2.34 -8.537,4.432 -8.32,4.649 0.831,0.83 19.224,-8.96 23.034,-12.26 5.077,-4.398 4.336,-4.41 -1.5,-0.024 m 797.20498,13.484 c -0.122,5.225 -0.436,11.975 -0.698,15 -0.457,5.282 -0.436,5.342 0.539,1.527 0.559,-2.185 0.873,-8.935 0.698,-15 l -0.316,-11.027 -0.223,9.5 m 248.837,5.899 c -1.79,4.321 -12.843,15.461 -17.889,18.028 -2.391,1.217 -4.151,2.408 -3.912,2.647 0.958,0.958 7.184,-3.073 12.853,-8.321 5.616,-5.2 11.754,-13.738 10.662,-14.83 -0.268,-0.268 -1.039,0.846 -1.714,2.476 m -174.038,7.873 c -0.01,2.804 14.367,16.228 17.378,16.228 0.595,0 -0.71,-1.187 -2.9,-2.637 -5.367,-3.555 -10.329,-8.226 -12.601,-11.863 -1.03,-1.65 -1.875,-2.427 -1.877,-1.728 m -351.03098,15.942 c -1.36,0.942 -3.55,2.702 -4.867,3.911 -5.587,5.128 -25.305,13.352 -41.971,17.506 -10.586,2.638 -15.156,3.227 -28.184,3.635 -17.386,0.544 -24.337,-0.448 -30.18,-4.305 -6.714,-4.432 -12.771,-2.383 -12.771,4.321 0,7.725 3.765,10.324 24,16.57 26.076,8.048 44.238,8.085 66,0.134 6.395,-2.337 17.803,-8.382 22.5,-11.924 7.964,-6.005 15.328,-14.211 16.432,-18.31 1.394,-5.177 -0.175,-9.809 -3.991,-11.782 -3.584,-1.854 -3.961,-1.841 -6.968,0.244 m -639.973,2.995 c 5.461,1.834 20.583,2.814 23.903,1.549 1.644,-0.626 -0.251,-0.779 -6,-0.484 -5.74,0.294 -10.35,-0.077 -14.547,-1.171 -7.588,-1.979 -9.395,-1.922 -3.356,0.106 m 334.244,3.267 c -3.898,1.769 -4.601,1.809 -8.375,0.478 -12.144,-4.285 -30.476,0.338 -41.979,10.586 -2.687,2.394 -4.972,3.679 -5.89,3.311 -6.646,-2.662 -14.779,-4.56 -21.643,-5.051 -10.281,-0.735 -14.257,0.994 -24.69,10.738 -6.88,6.424 -7.825,6.968 -14.544,8.369 -12.927,2.695 -22.821,8.856 -30.904,19.244 -3.783,4.861 -10.358,17.84 -12.764,25.196 -1.339,4.096 -2.667,5.872 -6.477,8.67 -5.883,4.318 -19.616,19.24 -23.814,25.874 -5.526,8.734 -7.605,16.7 -7.595,29.109 0.008,10.673 0.116,11.21 3.635,18.057 5.844,11.372 14.228,17.872 28.296,21.939 12.134,3.508 25.453,4.29 36,2.115 8.45,-1.743 19.908,-6.804 25.114,-11.092 l 3.113,-2.565 2.85,3.773 c 1.568,2.075 3.345,4.283 3.949,4.907 2.389,2.465 9.843,5.484 15.203,6.157 l 5.647,0.709 3.74,7.5 c 5.988,12.007 13.48,17.773 26.66,20.519 18.434,3.842 37.418,-6.37 48.779,-26.239 1.517,-2.654 2.768,-3.413 7.112,-4.315 7.227,-1.5 16.042,-6.085 21.526,-11.196 7.825,-7.294 14.108,-21.153 14.738,-32.511 0.038,-0.684 1.511,-2.484 3.274,-4 15.764,-13.562 18.035,-17.128 18.592,-29.188 0.321,-6.969 -0.002,-9.621 -1.727,-14.197 -2.089,-5.54 -3.199,-7.184 -9.197,-13.617 l -3.025,-3.245 3.553,-5.848 c 4.259,-7.011 6.053,-14.55 5.262,-22.117 -0.511,-4.883 -2.858,-11.558 -4.587,-13.046 -0.32,-0.275 -1.857,-2.38 -3.415,-4.678 -2.991,-4.411 -11.191,-11.949 -18.058,-16.602 -13.089,-8.869 -28.865,-12.054 -38.359,-7.744 m 691.75598,-1.535 c 0,5.059 15.875,20.785 20.71,20.515 0.435,-0.025 -1.01,-0.975 -3.21,-2.113 -5.533,-2.861 -9.118,-6.344 -13.636,-13.248 -2.125,-3.248 -3.864,-5.567 -3.864,-5.154 m -260.73,4.262 c -2.691,0.52 -6.27,4.816 -6.27,7.528 0,4.991 9.184,16.371 18.203,22.554 17.275,11.843 48.725,20.478 68.752,18.876 7.655,-0.612 20.491,-3.707 22.117,-5.333 0.49,-0.49 1.169,-2.282 1.509,-3.982 0.501,-2.504 0.066,-3.71 -2.286,-6.342 -2.811,-3.145 -3.131,-3.242 -9.85,-2.977 -19.28,0.763 -31.028,0.2 -38.652,-1.85 -12.995,-3.495 -27.836,-11.528 -38.473,-20.822 -5.641,-4.93 -11.058,-8.541 -12.32,-8.213 -0.275,0.072 -1.504,0.324 -2.73,0.561 m -463.39598,6.142 c -6.224,1.624 -11.021,4.449 -16.874,9.936 -4.279,4.011 -5.382,4.269 -9.594,2.245 -10.845,-5.211 -17.823,-6.087 -27.946,-3.507 -5.289,1.348 -6.768,2.347 -13.137,8.868 l -7.177,7.349 -5.717,0.051 c -10.98,0.099 -26.164,10.227 -33.221,22.161 -1.446,2.446 -3.856,8.071 -5.354,12.5 -2.578,7.622 -3.059,8.306 -8.995,12.8 -8.604,6.513 -13.91,11.715 -19.393,19.009 -5.563,7.401 -7.109,10.337 -12.552,23.837 l -4.161,10.319 1.259,7.043 c 0.692,3.874 1.917,8.394 2.722,10.044 1.813,3.717 10.481,10.819 17.103,14.014 12.158,5.865 29.827,7.253 38.851,3.051 4.794,-2.232 19.936,-11.666 24.043,-14.979 10.902,-8.795 15.081,-12.322 16.769,-14.151 1.1,-1.192 5.108,-4.951 8.908,-8.353 5.671,-5.078 7.441,-6.131 9.889,-5.884 2.196,0.223 3.447,1.175 4.751,3.618 5.84,10.935 10.583,14.501 18.601,13.984 4.244,-0.275 4.78,-0.046 6.318,2.687 2.545,4.522 7.141,6.747 13.819,6.689 19.512,-0.168 22.675,-0.984 30.214,-7.795 3.648,-3.295 5.621,-7.448 7.432,-15.636 0.385,-1.745 1.656,-3.212 3.463,-4 4.772,-2.081 16.004,-12.857 20.581,-19.745 6.914,-10.406 9.078,-20.344 6.024,-27.654 -1.867,-4.468 -1.912,-7.791 -0.13,-9.573 4.475,-4.475 8.025,-16.816 7.27,-25.273 -0.646,-7.238 -7.685,-21.279 -13.054,-26.037 -3.581,-3.174 -12.066,-6.502 -21.838,-8.567 -4.582,-0.968 -6.536,-0.956 -9.608,0.058 -2.97,0.98 -5.049,1.017 -9.047,0.159 -7.049,-1.511 -12.361,-1.319 -20.219,0.732 m 623.99098,54.155 c -0.349,14.575 -0.799,27.618 -1,28.984 -0.34,2.314 0.252,2.692 8.635,5.508 4.95,1.663 9.563,3.384 10.25,3.825 0.688,0.44 1.25,0.559 1.25,0.262 0,-0.948 -7.337,-4.222 -12.5,-5.577 -7.022,-1.843 -7.409,-2.287 -6.352,-7.271 0.494,-2.327 0.775,-15.031 0.625,-28.231 l -0.273,-24 -0.635,26.5 m -164.883,22.405 c -4.441,3.067 -6.107,5.107 -10.028,12.277 -4.048,7.405 -5.186,8.538 -12.306,12.26 -7.969,4.165 -10.79798,4.006 -15.58498,-0.877 -5.979,-6.101 -9.423,-6.295 -19.363,-1.091 -6.709,3.513 -8.759,4.147 -11.994,3.713 -5.498,-0.737 -8.394,-3.865 -9.785,-10.568 -0.877,-4.224 -2.008,-6.408 -4.572,-8.826 -5.67,-5.347 -13.863,-5.817 -16.199,-0.93 -1.734,3.631 -0.365,7.032 3.79,9.417 2.071,1.189 3.248,2.908 3.98,5.815 1.58,6.275 7.066,13.522 12.26,16.195 7.168,3.688 16.702,3.378 25.23,-0.82 l 6.642,-3.27 2.715,2.4 c 1.494,1.32 2.956,2.713 3.25,3.095 1.354,1.764 10.386,2.832 15.67598,1.854 10.589,-1.958 23.194,-11.293 27.771,-20.569 1.081,-2.189 3.668,-5.882 5.75,-8.208 4.662,-5.205 5.033,-9.146 1.151,-12.199 -3.346,-2.633 -4.136,-2.601 -8.383,0.332 m 191.319,20.292 c 7.545,4.464 16.551,12.885 26.257,24.553 4.918,5.912 9.11,10.749 9.314,10.75 0.205,0 -0.071,-0.562 -0.615,-1.25 -0.543,-0.687 -3.146,-4.117 -5.785,-7.62 -8.979,-11.921 -25.408,-26.83 -31.472,-28.56 -1.375,-0.392 -0.34,0.565 2.301,2.127 m -434.30098,19.965 c -5.146,0.502 -14.961,2.317 -19.204,3.55 l -3.704,1.077 3.396,3.968 c 4.062,4.745 4.868,9.261 4.954,27.743 0.065,13.936 0.608,12.298 -11.942,35.997 -2.475,4.674 -4.5,9.677 -4.5,11.118 0,1.441 1.35,6.717 3,11.724 1.986,6.025 3,11.127 3,15.09 0,6.268 0.363,5.346 -13.992,35.571 -5.78,12.17 -5.784,12.215 -1.309,13.412 6.357,1.701 24.63,5.082 27.484,5.085 1.784,0.002 2.89,-0.651 3.302,-1.949 0.915,-2.884 7.254,-8.873 11.928,-11.269 9.242,-4.739 15.341,-5.917 33.587,-6.487 10.96,-0.343 20.863,-0.106 26.5,0.633 8.123,1.066 26.995,5.47 41.5,9.685 6.852,1.992 10.129,2.639 27,5.334 7.425,1.186 21.375,3.505 31,5.154 9.705,1.662 24.734,3.415 33.74,3.936 51.20598,2.959 70.23898,0.048 93.03398,-14.231 l 5.273,-3.303 0.49,-12.757 c 0.468,-12.182 0.375,-12.983 -2.058,-17.784 -3.308,-6.528 -4.108,-16.664 -2.561,-32.459 0.646,-6.6 1.604,-16.518 2.129,-22.039 0.767,-8.078 5.405,-30.584 8.441,-40.961 0.516,-1.766 -0.445,-2.324 -8.202,-4.769 -4.832,-1.523 -10.361,-2.753 -12.286,-2.734 -10.48,0.103 -30.979,6.775 -42.357,13.786 -2.121,1.308 -7.952,3.958 -12.956,5.891 -8.248,3.186 -9.852,3.479 -17.14298,3.14 -7.809,-0.364 -14.134,-2.377 -17.365,-5.526 -0.727,-0.708 -1.632,-1.288 -2.011,-1.288 -0.378,0 -1.809,-1.032 -3.178,-2.293 -5.468,-5.035 -12.309,-8.87 -20.689,-11.597 -14.058,-4.577 -21.838,-5.515 -37.301,-4.498 -7.425,0.488 -20.25,0.848 -28.5,0.798 -14.777,-0.088 -15.326,-0.173 -37,-5.668 -12.1,-3.068 -26.916,-6.966 -32.923,-8.66 -10.638,-3.001 -17.059,-3.545 -28.577,-2.42 m 502.29598,16.082 c 4.287,0.188 11.037,0.187 15,-0.002 3.962,-0.19 0.454,-0.343 -7.796,-0.342 -8.25,10e-4 -11.492,0.156 -7.204,0.344 m 31.611,4.273 c 6.765,3.729 16.039,10.679 16.762,12.562 0.3,0.782 1.025,1.421 1.612,1.421 2.975,0 -12.985,-13.014 -19.086,-15.563 -5.434,-2.271 -5.157,-1.655 0.712,1.58 m -45.371,6.549 c -5.932,2.941 -11.776,8.916 -18.579,18.998 l -5.018,7.436 h -11.22 c -12.512,0 -26.691,2.456 -28.719,4.975 -0.275,0.342 -2.075,1.706 -4,3.032 -1.925,1.326 -4.16,3.32 -4.968,4.432 -0.807,1.111 -3.671,4.453 -6.364,7.427 -2.693,2.974 -6.533,8.833 -8.532,13.021 -3.516,7.362 -3.647,8.042 -3.969,20.613 l -0.333,13 -3.289,3 c -1.809,1.65 -4.562,5.475 -6.117,8.5 -2.526,4.915 -2.825,6.51 -2.803,15 0.029,11.288 1.855,16.243 8.369,22.711 5.245,5.209 9.525,6.701 17.218,6.003 9.95,-0.902 19.613,-8.863 22.401,-18.456 1.823,-6.271 3.627,-6.733 9.196,-2.358 6.883,5.408 19.861,7.672 24.933,4.35 2.206,-1.444 4.587,-1.706 13.641,-1.498 17.117,0.395 27.36,-2.885 36.391,-11.648 6.366,-6.179 8.711,-12.122 8.719,-22.104 0,-4.687 -0.658,-10.673 -1.475,-13.343 -1.377,-4.499 -1.355,-4.938 0.319,-6.161 3.295,-2.41 6.973,-15.067 7.451,-25.64 1.008,-22.286 -7.044,-41.483 -21.527,-51.325 -5.167,-3.51 -14.603,-3.495 -21.725,0.035 m -462.99998,131.547 c -10.406,1.516 -22.397,6.619 -19.606,8.344 1.36,0.84 86.06,0.292 86.066,-0.557 0,-0.33 -5.733,-2.01 -12.746,-3.734 -18.832,-4.628 -39.214,-6.166 -53.714,-4.053 m 490.61398,59.953 c -0.139,4.218 -1.563,13.694 -2.771,18.434 -0.396,1.551 -0.288,1.678 0.48,0.564 1.358,-1.972 3.459,-16.88 2.898,-20.564 -0.349,-2.287 -0.493,-1.915 -0.607,1.566 m -234.15,23.639 c -4.825,0.834 -16.042,4.403 -35.68,11.351 -10.901,3.857 -21.395,7.405 -23.32,7.885 -1.925,0.479 -8,2.009 -13.49998,3.399 -16.092,4.069 -29.64,5.725 -51.5,6.293 -23.01,0.598 -40.576,-1.035 -43.947,-4.085 -1.75,-1.584 -2.095,-1.569 -5.708,0.251 -6.541,3.295 -16.335,5.293 -28.845,5.886 -12.06,0.572 -22.94,-0.739 -52,-6.263 -10.274,-1.953 -41.497,-9.084 -48,-10.962 -16.747,-4.837 -31.608,-8.686 -32.005,-8.288 -0.253,0.253 -0.012,2.006 0.537,3.894 2.156,7.422 6.024,28.833 6.58,36.424 0.616,8.407 -1.552,30.716 -4.131,42.51 -0.781,3.575 -1.907,10.219 -2.501,14.765 -1.124,8.605 -2.131,12.026 -6.249,21.23501 -4.557,10.189 -4.708,9.618 3,11.371 10.902,2.479 28.733,3.773 42.769,3.103 12.218,-0.584 24.601,-1.899 58,-6.161 20.029,-2.556 57.349,-2.524 70.5,0.06 35.707,7.017 34.466,6.903 68,6.264 46.54498,-0.887 60.97098,-2.538 72.47798,-8.293 5.948,-2.976 15.626,-11.02601 16.285,-13.54701 0.259,-0.988 0.812,-1.797 1.23,-1.797 1.729,0 5.08,-10.495 6.437,-20.16 0.926,-6.594 2.756,-13.714 5.05,-19.653 3.45,-8.93 3.551,-9.548 2.458,-15 -2.241,-11.179 -2.734,-14.828 -3.403,-25.187 -0.612,-9.465 0.415,-25.917 2.075,-33.25 0.654,-2.886 0.541,-2.936 -4.61,-2.045 m -776.99998,8.129 c 0,2.246 6.004,13.481 10.243,19.166 6.212,8.332 17.946,19.281 25.658,23.94 5.958,3.6 6.987,4.65 7.562,7.716 0.366,1.951 0.865,3.349 1.108,3.106 0.244,-0.243 0.157,-1.874 -0.193,-3.624 -0.521,-2.605 -2.106,-4.15 -8.757,-8.54 -13.884,-9.163 -25.579,-22.241 -32.255,-36.07 -1.851,-3.834 -3.366,-6.397 -3.366,-5.694 m 997.75998,14.451 c -2.004,3.968 -4.833,9.24 -6.286,11.715 -1.894,3.226 -2.052,3.792 -0.559,2 2.376,-2.852 11.432,-19.987 10.863,-20.555 -0.206,-0.206 -2.014,2.872 -4.018,6.84 m -12.234,20.673 c -4.645,7.359 -15.341,19.37 -23.059,25.896 -2.182,1.844 -3.034,2.883 -1.894,2.309 5.111,-2.574 23.5,-22.825 27.482,-30.265 1.854,-3.464 0.011,-1.963 -2.529,2.06 m -1004.52598,62.203 c 5.602,3.201 13.49,9.129 15.752,11.839 1.091,1.307 1.177,1.28 0.662,-0.202 -1.095,-3.154 -17.661,-14.823 -20.995,-14.789 -0.505,0.006 1.556,1.424 4.581,3.152 m -107.5,-0.196 c -2.2,1.038 -5.238,1.92 -6.75,1.961 -1.512,0.041 -2.75,0.524 -2.75,1.074 0,0.55 -0.681,1 -1.514,1 -1.388,0 -5.292,1.806 -6.486,3 -0.275,0.275 -2.525,1.569 -5,2.875 -2.475,1.307 -5.773,3.782 -7.329,5.5 -6.045,6.67701 -7.671,8.63001 -7.671,9.20901 0,0.33 -0.9,1.745 -2,3.143 -1.1,1.399 -2,2.983 -2,3.52 0,0.538 1.63,-1.436 3.622,-4.385 3.77,-5.58 12.464,-15.11001 13.154,-14.41901 0.219,0.218 -1.409,2.682 -3.617,5.47501 -5.552,7.024 -8.159,14.47 -8.159,23.305 0,5.834 0.378,7.55 2.054,9.334 l 2.054,2.187 -2.04,6.056 c -4.314,12.803 -3.701,25.604 1.715,35.833 2.697,5.095 7.508,11.367 8.719,11.367 0.347,0 2.14,1.15 3.983,2.556 3.747,2.858 11.461,5.921 17.469,6.936 3.187,0.539 5.866,-0.039 13.57,-2.924 11.713,-4.388 18.797,-7.9 23.663,-11.733 5.569,-4.385 14.709,-17.135 20.311,-28.331 4.808,-9.607 5.216,-10.1 10.502,-12.684 3.025,-1.479 7.75,-3.449 10.5,-4.378 9.914,-3.35 19.141,-9.465 25.562,-16.942 1.889,-2.2 3.7,-4.225 4.024,-4.5 1.296,-1.099 2.914,-10.259 2.914,-16.492 0,-11.73901 -5.036,-17.16401 -17.246,-18.57901 -16.919,-1.961 -27.461,-0.635 -36.346,4.572 -4.669,2.736 -6.688,2.747 -4.428,0.023 0.789,-0.95 0.865,-1.524 0.201,-1.524 -0.584,0 -1.303,0.388 -1.595,0.861 -0.531,0.858 -1.831,0.689 -19.086,-2.48 -13.879,-2.55 -25.144,-2.706 -30,-0.416 m 1074.87998,18.03501 c -0.01,14.525 0.087,15.512 0.803,8.25 0.446,-4.538 0.451,-11.96201 0.01,-16.50001 -0.706,-7.258 -0.803,-6.266 -0.813,8.25001 m -951.10598,22.372 c -1.156,2.381 -4.665,7.096 -7.796,10.479 -3.131,3.382 -5.307,6.121 -4.836,6.086 2.441,-0.179 16.448,-19.181 15.119,-20.509 -0.211,-0.211 -1.33,1.564 -2.487,3.944 m 83.242,-2.372 c 2.769,5.133 12.346,17.656 17.794,23.266 6.103,6.286 14.878,12.784 17.136,12.69 0.58,-0.025 -0.668,-0.953 -2.774,-2.064 -5.822,-3.072 -18.553,-15.768 -25.143,-25.075 -5.941,-8.39 -8.557,-11.678 -7.013,-8.817 m 482.484,0.99 c -4.675,0.382 -13.787,1.289 -20.25,2.015 l -11.75,1.32 v 4.385 c 0,6.129 -8.492,34.723 -15.531,52.29 -4.21,10.509 -11.083,28.998 -13.91,37.418 -2.494,7.432 -2.536,7.88 -0.841,9.14 2.176,1.619 14.925,5.037 21.868,5.863 7.017,0.834 19.498,-1.069 27.352,-4.172 7.276,-2.874 17.062,-8.704 17.062,-10.165 0,-0.518 0.605,-1.546 1.344,-2.285 0.739,-0.739 2.555,-3.262 4.035,-5.608 10.81,-17.124 26.585,-22.823 37.576,-13.576 1.675,1.41 3.045,2.053 3.045,1.429 0,-0.624 -1.753,-8.201 -3.896,-16.839 -5.631,-22.702 -11.265,-48.321 -12.605,-57.318 -0.524,-3.518 -0.675,-3.63 -5.769,-4.241 -6.169,-0.741 -15.946,-0.62 -27.73,0.344 m -133.416,3.874 c -0.702,1.136 -4.696,12.442 -8.526,24.136 -8.184,24.987 -12.184,45.289 -15.959,81 -1.801,17.037 -1.569,19.387 2.962,30 4.567,10.697 7.12,13.462 16.647,18.026 5.258,2.519 7.402,2.972 14,2.962 14.004,-0.021 23.696,-4.112 27.221,-11.488 7.792,-16.309 11.058,-23.918 16.092,-37.5 3.16,-8.525 6.662,-18.425 7.782,-22 2.362,-7.538 5.239,-15.239 12.703,-34 9.296,-23.366 16.595,-50 13.702,-50 -0.435,0 -6.172,0.716 -12.75,1.592 -20.978,2.792 -57.989,1.183 -71.514,-3.11 -0.977,-0.31 -2.039,-0.138 -2.36,0.382 m 181.494,3.804 c 1.819,10.912 6.755,32.584 14.822,65.073 5.551,22.351 7.948,30.158 12.075,39.323 9.797,21.756 14.008,26.648 26.235,30.485 7.895,2.477 12.062,1.157 18.365,-5.816 12.977,-14.357 15.322,-32.492 7.966,-61.601 -2.089,-8.265 -4.317,-20.182 -10.96,-58.632 l -1.21,-7 -16.435,-0.594 c -18.048,-0.652 -25.614,-1.414 -33.936,-3.416 -3.025,-0.728 -8.251,-1.623 -11.614,-1.989 l -6.113,-0.666 0.805,4.833 m 319.90998,26.461 c -5.92,8.13 -15.536,16.819 -23.041,20.818 -3.348,1.785 -5.855,3.478 -5.571,3.762 0.814,0.814 11.264,-5.916 17.561,-11.308 5.83,-4.993 10.519,-10.325 14.204,-16.151 3.319,-5.248 1.666,-3.739 -3.153,2.879 m -991.60598,15.121 c -4.127,8.033 -12.039,16.368 -21.827,22.996 -2.23,1.51 -3.686,2.747 -3.235,2.75 1.054,0 9.327,-5.678 13.048,-8.964 5.147,-4.544 16.113,-20.032 14.183,-20.032 -0.275,0 -1.251,1.463 -2.169,3.25 m 226.744,2.761 c 3.262,1.905 13.432,3.986 18.834,3.853 5.111,-0.126 4.921,-0.198 -2.46,-0.934 -4.4,-0.439 -9.969,-1.503 -12.376,-2.364 -4.92,-1.761 -6.418,-1.969 -3.998,-0.555 m 729.87398,8.603 c -1.925,0.845 -7.325,2.63 -12,3.967 -4.675,1.337 -6.7,2.169 -4.5,1.849 4.832,-0.704 18.624,-5.195 19.95,-6.497 1.273,-1.25 0.687,-1.134 -3.45,0.681 m -52,9.386 -8.5,0.627 8,0.113 c 4.4,0.061 10.025,-0.249 12.5,-0.689 l 4.5,-0.801 -4,0.061 c -2.2,0.034 -7.825,0.344 -12.5,0.689 m -38.48,9.281 c -7.442,12.781 -19.682,25.14 -31.432,31.738 -3.074,1.726 -4.688,2.856 -3.588,2.511 4.83,-1.514 13.501,-7.566 20.105,-14.03 6.544,-6.406 18.215,-22.013 17.212,-23.016 -0.232,-0.232 -1.266,1.026 -2.297,2.797 m -551.21398,3.718 c 7.656,5.796 15.358,10.483 18.792,11.436 1.321,0.367 -0.75,-1.043 -4.603,-3.134 -3.853,-2.091 -9.782,-5.939 -13.174,-8.551 -3.393,-2.612 -6.495,-4.75 -6.894,-4.75 -0.399,0 2.246,2.25 5.879,4.999 m 51.694,9.606 c -1.679,1.029 -1.843,1.309 -0.5,0.851 1.1,-0.376 2.705,-0.888 3.566,-1.138 1.011,-0.294 2.605,1.076 4.493,3.863 3.351,4.947 6.174,7.71 12.191,11.933 6.195,4.347 5.196,2.942 -1.733,-2.439 -3.29,-2.555 -7.453,-6.895 -9.25,-9.643 -3.486,-5.331 -4.817,-5.851 -8.767,-3.427 m 415.45498,25.384 c 1.625,0.521 7.475,1.16 13,1.419 9.164,0.43 9.387,0.401 2.545,-0.334 -4.125,-0.443 -9.975,-1.082 -13,-1.419 -4.227,-0.471 -4.816,-0.394 -2.545,0.334 m -136.20798,12.753 c -3.161,2.457 -7.434,5.329 -9.497,6.383 -2.062,1.053 -3.75,2.141 -3.75,2.416 0,1.007 7.784,-3.51 13.515,-7.843 5.212,-3.94 6.209,-4.341 8.666,-3.485 1.527,0.532 3.269,0.804 3.87,0.603 0.602,-0.2 -0.74,-0.854 -2.982,-1.452 -3.967,-1.059 -4.228,-0.969 -9.822,3.378 m 48.865,6.092 c 3.162,5.738 17.848,18.25 21.278,18.126 0.61,-0.022 -0.24,-0.755 -1.89,-1.629 -5.153,-2.728 -13.86,-10.352 -17.227,-15.084 -4.386,-6.163 -4.998,-6.563 -2.161,-1.413 m -149.321,3.416 c -0.914,1.787 -3.186,6.625 -5.047,10.75 -1.861,4.125 -4.194,8.309 -5.183,9.298 -0.99,0.988 -1.564,2.032 -1.276,2.32 0.88,0.881 6.227,-7.773 8.722,-14.118 1.297,-3.3 2.994,-6.999 3.771,-8.219 l 1.411,-2.219 4.872,2.469 c 2.68,1.358 5.225,2.461 5.656,2.451 0.897,-0.021 -9.716,-5.982 -10.649,-5.982 -0.337,0 -1.362,1.463 -2.277,3.25 m 209.883,2.734 c -2.556,3.291 -6.521,7.341 -8.811,9 -2.289,1.659 -3.626,3.016 -2.97,3.016 1.734,0 10.868,-8.797 14.278,-13.75 4.224,-6.138 2.903,-5.22 -2.497,1.734 m -178.674,5.73 c 2.804,0.944 9.211,1.625 17,1.805 l 12.5,0.288 -12.5,-0.802 c -6.875,-0.442 -14.072,-1.298 -15.993,-1.904 -5.281,-1.664 -6.166,-1.125 -1.007,0.613 m -90.449,24.383 c 1.072,0.419 6.899,0.742 12.949,0.717 13.506,-0.056 11.896,-0.564 -3.449,-1.089 -6.297,-0.215 -10.572,-0.048 -9.5,0.372 m 362.44898,103.178 c 0,0.216 2.418,2.058 5.374,4.094 l 5.374,3.701 10.876,-0.323 10.876,-0.322 -10.82,-0.213 c -10.049,-0.197 -11.117,-0.414 -15,-3.042 -5.265,-3.564 -6.68,-4.389 -6.68,-3.895 m -268.69798,3.471 c 5.391,0.18 13.941,0.179 19,0 5.059,-0.181 0.648,-0.328 -9.802,-0.327 -10.45,10e-4 -14.589,0.149 -9.198,0.329 m -162.736,30.411 c -3.264,1.684 -7.989,3.409 -10.5,3.835 -4.315,0.73 -4.371,0.779 -1.02,0.89 2.293,0.076 6.358,-1.27 11.5,-3.809 4.375,-2.16 7.504,-3.938 6.954,-3.952 -0.55,-0.014 -3.67,1.353 -6.934,3.036 m -222.512,50.218 c -5.136,3.239 -10.063,9.442 -10.027,12.625 0.009,0.825 0.848,-0.3 1.863,-2.5 2.018,-4.372 4.613,-6.982 10.36,-10.42 3.239,-1.937 4.52,-3.08 3.454,-3.08 -0.163,0 -2.706,1.519 -5.65,3.375 m 827.44598,10.984 c -6.478,3.78 -18.07,11.637 -17.174,11.639 0.455,10e-4 4.176,-2.248 8.27,-4.998 4.093,-2.75 7.771,-5.01 8.173,-5.022 0.828,-0.025 6.004,-3.928 5.231,-3.944 -0.275,-0.01 -2.3,1.041 -4.5,2.325 m -837.47798,9.441 c -0.04,2.365 2.826,6.859 6.345,9.949 3.922,3.444 13.344,7.306 17.421,7.141 1.984,-0.08 1.577,-0.333 -1.518,-0.944 -5.58,-1.101 -13.156,-4.502 -16.139,-7.245 -1.317,-1.21 -3.226,-4.001 -4.241,-6.201 -1.015,-2.2 -1.856,-3.415 -1.868,-2.7 m 104.274,45.944 c 4.287,0.188 11.037,0.187 15,0 3.962,-0.19 0.454,-0.343 -7.796,-0.342 -8.25,10e-4 -11.492,0.156 -7.204,0.344 m 23.734,4.871 c -0.111,4.07 11.362,11.469 17.47,11.266 2.549,-0.085 2.372,-0.224 -1.174,-0.925 -6.735,-1.332 -12.578,-4.985 -15.126,-9.456 -0.626,-1.1 -1.153,-1.498 -1.17,-0.885 m 222.72,43.129 c 4.537,0.185 11.963,0.185 16.5,0 4.537,-0.185 0.825,-0.337 -8.25,-0.337 -9.075,0 -12.787,0.152 -8.25,0.337 m -55.146,5.448 c 2.143,0.381 7.271,0.693 11.396,0.693 4.125,0 9.253,-0.312 11.396,-0.693 2.229,-0.396 -2.647,-0.692 -11.396,-0.692 -8.749,0 -13.625,0.296 -11.396,0.692"
     stroke="none"
     fill="#fef0d5"
     fill-rule="evenodd"
     id="path2" />
  <path
     d="m 701.53372,130.45529 c 0.275,0.306 3.535,1.698 7.245,3.094 3.709,1.395 8.36,3.796 10.333,5.334 3.501,2.728 3.577,2.935 3.113,8.405 -0.721,8.505 -12.112,31.214 -18.634,37.149 -6.841,6.225 -8.057,9.08 -8.057,18.91 0,13.074 -4.562,22.596 -17.538,36.603 -13.323,14.383 -17.767,16.209 -31.037,12.752 -7.809,-2.033 -13.628,-5.663 -22.425,-13.987 -4.125,-3.903 -9.615,-8.42 -12.199,-10.039 -3.511,-2.198 -5.724,-4.732 -8.75,-10.022 -2.228,-3.894 -4.058,-8.181 -4.066,-9.527 -0.009,-1.346 -0.435,-3.109 -0.947,-3.919 -1.718,-2.718 -2.288,1.43 -1.053,7.661 1.673,8.433 2.039,9.414 3.242,8.671 0.633,-0.391 0.795,-0.204 0.39,0.451 -0.636,1.029 2.311,7.966 4.494,10.58 0.509,0.61 1.818,2.19 2.908,3.512 1.147,1.392 1.99,3.917 2.003,6 0.099,16.154 25.534,31.91 47.684,29.538 4.414,-0.473 7.517,-1.482 10.181,-3.31 6.793,-4.663 15.484,-12.407 20.613,-18.366 2.75,-3.195 6.471,-7.487 8.268,-9.537 5.729,-6.535 11.239,-18.871 12.412,-27.784 1.111,-8.445 2.027,-10.444 4.786,-10.444 2.941,0 15.582,-9.617 19.297,-14.68 5.266,-7.178 7.077,-13.721 6.529,-23.597 -0.388,-7.017 -1.007,-9.311 -4.221,-15.642 -2.072,-4.081 -4.302,-7.955 -4.957,-8.61 -1.944,-1.944 -10.746,-5.507 -11.877,-4.808 -0.575,0.355 -0.752,0.17 -0.393,-0.411 0.372,-0.602 -0.747,-1.547 -2.595,-2.193 -3.527,-1.233 -15.564,-2.689 -14.749,-1.784 m 334.49998,45.124 c -6.317,1.998 -9.642,4.068 -14.876,9.262 -4.288,4.257 -9.586,12.985 -9.614,15.841 -0.01,0.551 -2.039,2.078 -4.519,3.393 -8.75998,4.648 -18.42998,17.75 -22.58598,30.605 -0.712,2.2 -1.307,7.375 -1.323,11.5 -0.024,6.196 0.528,8.852 3.175,15.275 7.272,17.653 17.03998,27.34 29.38198,29.138 4.049,0.59 5.272,1.404 9.618,6.401 11.054,12.709 26.815,15.989 49.129,10.224 8.96,-2.315 17.273,-7.277 22.532,-13.45 3.232,-3.793 3.995,-5.523 4.356,-9.873 0.282,-3.406 -0.111,-6.586 -1.111,-8.978 -1.735,-4.153 -0.869,-13.835 1.302,-14.559 3.888,-1.296 16.466,-10.946 18.901,-14.502 7.672,-11.201 9.439,-19.032 6.704,-29.712 -3.724,-14.545 -9.069,-21.691 -20.496,-27.402 -9.063,-4.529 -15.77,-5.937 -25.2,-5.291 -6.324,0.434 -8.289,0.217 -10.122,-1.116 -9.212,-6.7 -13.208,-8.117 -22.752,-8.066 -4.675,0.025 -10.3,0.614 -12.5,1.31 m 3.781,5.714 c -5.403,0.684 -12.395,4.146 -15.658,7.751 -1.03,1.139 -3.313,4.898 -5.072,8.353 -2.924,5.743 -3.793,6.596 -10.125,9.922 -5.687,2.988 -8.03,5.045 -13.09298,11.5 -10.42,13.281 -12.108,25.78 -5.384,39.861 7.976,16.7 19.15998,26.232 32.87198,28.015 2.927,0.381 5.477,1.208 5.667,1.839 0.19,0.63 0.601,2.324 0.914,3.763 0.313,1.44 2.038,4.054 3.834,5.809 3.187,3.116 3.276,3.139 3.787,0.977 0.911,-3.861 3.25,-4.497 9.404,-2.558 4.824,1.521 6.641,1.604 13.758,0.63 4.511,-0.618 9.491,-1.79 11.068,-2.606 4.468,-2.31 10.399,-8.088 12.561,-12.237 2.026,-3.887 1.719,-5.719 -1.499,-8.953 -1.953,-1.963 -1.602,-4.678 1.015,-7.852 3.248,-3.941 3.722,-5.729 2.43,-9.153 -1.431,-3.79 0.805,-7.634 4.922,-8.466 6.331,-1.279 16.28,-13.131 18.201,-21.685 1.552,-6.907 -0.391,-12.662 -6.254,-18.52 -7.102,-7.098 -15.314,-10.961 -23.423,-11.02 -6.248,-0.045 -6.324,-0.08 -10.334,-4.771 -7.393,-8.649 -17.217,-12.168 -29.591,-10.599 m -165.19498,68.614 c -5.259,0.991 -16.355,9.334 -20.981,15.776 -2.9,4.039 -3.546,4.406 -8.866,5.047 -6.973,0.839 -14.382,4.169 -20.023,8.997 l -4.209,3.603 -2.515,-1.977 c -1.383,-1.088 -5.89,-3.209 -10.016,-4.714 -12.191,-4.447 -20.585,-2.463 -33.677,7.956 -4.488,3.572 -6.449,6.092 -9.215,11.843 -5.107,10.619 -6.942,18.707 -6.293,27.742 0.608,8.449 2.374,13.341 7.313,20.252 1.868,2.614 3.396,5.201 3.396,5.748 0,0.547 -1.573,3.186 -3.497,5.862 -4.407,6.135 -6.44,11.86 -6.756,19.021 l -0.247,5.617 h 3.473 3.473 l 1.647,-9.5 c 1.642,-9.47 3.599,-15.933 5.98,-19.745 1.105,-1.77 0.768,-2.586 -2.85,-6.882 -6.19,-7.35 -8.177,-12.537 -8.189,-21.373 -0.018,-13.538 5.013,-25.902 14.157,-34.79 7.282,-7.077 11.904,-9.397 19.874,-9.976 7.216,-0.524 9.376,0.228 18.582,6.468 l 5.147,3.489 5.751,-4.685 c 3.163,-2.576 6.795,-5.16 8.072,-5.741 1.276,-0.582 2.143,-1.344 1.926,-1.695 -0.216,-0.35 0.585,-0.648 1.782,-0.662 13.935,-0.155 14.057,-0.187 15.982,-4.169 3.121,-6.459 11.831,-14.607 18.193,-17.02 7.762,-2.944 16.97,-2.185 19.713,1.626 0.708,0.982 2.081,2.083 3.052,2.445 0.971,0.362 2.208,1.825 2.75,3.249 1.535,4.038 1.19,23.254 -0.537,29.884 -1.353,5.196 -3.984,11.178 -5.531,12.577 -0.304,0.275 -1.611,2.24 -2.904,4.367 -1.293,2.127 -4.081,5.867 -6.197,8.311 -4.403,5.087 -4.403,5.086 -2.202,9.701 1.073,2.251 2.992,4.055 5.528,5.199 7.753,3.496 12.255,10.405 15.873,24.364 l 2.108,8.133 -2.026,3.435 c -1.211,2.052 -1.631,3.679 -1.043,4.042 0.541,0.334 6.775,0.054 13.854,-0.622 l 12.872,-1.229 0.595,-2.975 c 1.367,-6.836 0.599,-14.875 -2.055,-21.508 -1.457,-3.642 -3.032,-7.094 -3.501,-7.67 -0.468,-0.577 -3.38,-4.873 -6.469,-9.548 -3.09,-4.675 -6.305,-9.282 -7.144,-10.238 -1.384,-1.578 -1.168,-2.503 2.337,-10 3.507,-7.5 3.898,-9.175 4.243,-18.163 0.407,-10.575 -1.396,-20.834 -4.862,-27.667 -2.478,-4.887 -9.022,-10.579 -13.633,-11.86 -3.735,-1.037 -17.434,-1.249 -22.235,-0.345 m -23.743,116.523 c -1.103,1.238 -2.989,3.976 -4.191,6.085 l -2.185,3.836 11.266,-0.71 c 6.197,-0.39 11.461,-0.885 11.699,-1.1 0.706,-0.639 -6.212,-7.417 -9.132,-8.946 -3.708,-1.943 -5.122,-1.784 -7.457,0.835 m -590.604,14.839 c -1.507,1.62 -2.739,2.651 -2.739,2.291 0,-0.36 -1.333,1.022 -2.961,3.071 -4.642,5.841 -6.919,13.188 -7.249,23.38 -0.16,4.934 -0.627,8.764 -1.04,8.511 -0.413,-0.253 -0.75,-0.035 -0.75,0.484 0,0.52 -3.487,3.463 -7.75,6.542 -4.262,3.078 -8.2,5.949 -8.75,6.38 -0.55,0.431 -3.989,2.902 -7.642,5.492 -14.059,9.964 -24.859,25.391 -25.034,35.76 -0.205,12.191 2.474,19.532 9.247,25.329 5.888,5.04 10.395,6.9 18.045,7.447 7.317,0.524 19.505,-2.41 21.875,-5.265 1.43,-1.723 4.585,-2.007 5.518,-0.496 1.87,3.026 24.265,8.985 33.765,8.985 3.499,0 8.807,-0.712 11.794,-1.583 5.856,-1.706 18.37,-8.157 23.762,-12.249 3.41,-2.588 11.346,-12.367 12.423,-15.309 0.5,-1.367 1.677,-1.554 7.058,-1.122 6.686,0.537 16.689,-1.199 16.689,-2.896 0,-0.527 0.373,-0.728 0.829,-0.447 2.49,1.539 22.419,-7.542 32.783,-14.937 8.926,-6.369 18.443,-17.134 22.886,-25.889 3.217,-6.337 3.904,-8.802 4.284,-15.36 0.402,-6.945 0.163,-8.383 -2.15,-12.948 -4.03,-7.953 -11.048,-14.299 -20.225,-18.288 -7.254,-3.154 -8.733,-3.439 -17.907,-3.455 -10.031,-0.017 -20.5,2.344 -20.5,4.622 0,0.539 -0.402,0.73 -0.894,0.427 -1.038,-0.642 -7.694,1.959 -8.547,3.339 -0.352,0.57 3.046,0.726 8.681,0.401 14.028,-0.811 31.409,3.827 38.01,10.144 3.347,3.202 3.355,3.435 0.334,9.333 -5.184,10.122 -19.878,20.79 -38.549,27.988 -5.347,2.061 -8.503,2.555 -17.361,2.716 -10.031,0.183 -10.988,0.374 -13.033,2.605 -3.781,4.126 -6.44,9.178 -9.711,18.456 -3.816,10.826 -6.587,16.183 -11.619,22.466 -4.924,6.147 -8.521,8.564 -17.281,11.61 -7.034,2.447 -7.259,2.461 -15.239,0.955 -5.16,-0.973 -10.971,-2.995 -16.012,-5.571 -4.352,-2.224 -8.389,-3.749 -8.972,-3.389 -0.583,0.361 -2.599,2.358 -4.479,4.44 -5.781,6.399 -15.39,8.502 -24.562,5.377 -5.259,-1.792 -14.059,-10.499 -16.489,-16.314 -2.144,-5.133 -1.993,-13.843 0.317,-18.294 2.485,-4.788 23.313,-26.889 30.394,-32.251 3.031,-2.297 8.992,-6.318 13.246,-8.937 l 7.733,-4.762 -0.075,-7.337 c -0.129,-12.518 3.055,-23.759 8.593,-30.341 3.5,-4.159 2.908,-5.041 -0.746,-1.111 m 655.761,-0.574 c -0.55,0.197 -14.275,1.327 -30.5,2.511 -16.225,1.185 -33.292,2.451 -37.926,2.814 l -8.425,0.66 -2.742,5 c -6.031,10.999 -13.021,16.351 -26.836,20.547 -8.223,2.498 -13.544,2.216 -22.906,-1.214 -7.185,-2.632 -10.896,-6.156 -15.087,-14.328 -3.237,-6.312 -3.451,-6.505 -7.207,-6.505 -3.517,0 -3.871,0.241 -3.871,2.64 0,7.207 11.291,20.901 21.022,25.497 10.132,4.785 16.658,6.196 28.978,6.266 11.084,0.063 11.753,-0.057 18.5,-3.317 9.008,-4.354 19.031,-12.682 26.879,-22.336 2.124,-2.613 4.249,-4.75 4.722,-4.75 0.473,0 3.231,1.482 6.13,3.293 7.403,4.626 9.99,5.604 17.722,6.7 10.832,1.537 21.514,-2.109 29.103,-9.934 3.29,-3.392 8.944,-11.603 8.944,-12.989 0,-0.997 -4.247,-1.36 -6.5,-0.555 m 265.30898,41.985 c 2.066,20.926 -2.206,58.133 -8.83,76.899 l -3.046,8.631 2.453,4.235 c 1.349,2.329 3.934,8.51 5.745,13.735 l 3.291,9.5 0.376,30.182 c 0.324,26.003 0.135,31.265 -1.369,38 -2.667,11.943 -3.161,9.719 8.067,36.318 3.609,8.548 6.269,19.362 8.118,33 1.701,12.547 2.408,28.066 1.322,29 -0.319,0.275 -2.591,2.989 -5.048,6.031 -8.939,11.066 -13.888,25.823 -13.888,41.407 0,7.151 -0.186,7.767 -3.77,12.502 -7.626,10.076 -10.064,23.002 -6.33,33.56 1.167,3.3 2.567,6.15 3.111,6.333 0.544,0.184 0.989,0.91 0.989,1.613 0,2.314 9.386,10.068 15.233,12.586 6.784,2.921 6.624,2.041 3.691,20.208 -4.509,27.932 -14.19,49.312 -32.493,71.76 l -6.931,8.5 -0.617,14.5 c -0.69,16.213 -2.081,22.51 -7.47,33.818 -5.184,10.879 -15.539,25.462 -28.888,40.68201 -6.195,7.063 -23.855,24.468 -27.029,26.638 -3.989,2.728 -4.858,4.592 -6.924,14.862 -2.92,14.521 -7.93,26.912 -15.362,38 -5.704,8.509 -17.848,16.23 -36.13,22.97 -9.45,3.485 -12.192,3.652 -22.555,1.375 -7.34398,-1.614 -7.55498,-1.744 -8.46798,-5.25 -4.562,-17.516 -7.959,-35.091 -9.007,-46.595 -0.4,-4.4 -1.573,-11.916 -2.604,-16.701 -1.032,-4.786 -1.653,-8.926 -1.379,-9.199 0.274,-0.274 9.033,-0.991 19.46498,-1.595 10.432,-0.603 21.218,-1.333 23.968,-1.62 l 5,-0.524 4.414,7.32 c 15.335,25.428 21.184,30.941 27.863,26.262 3.709,-2.597 3.028,-7.746 -1.618,-12.233 -2.113,-2.041 -6.817,-8.633 -10.454,-14.65 l -6.612,-10.941 7.203,-4.631 c 14.743,-9.478 23.855,-22.80201 25.699,-37.57501 1.37,-10.976 1.801,-12.687 5.76,-22.907 3.317,-8.561 3.458,-9.426 2.847,-17.506 -0.354,-4.675 -1.293,-11.425 -2.087,-15 -2.032,-9.144 -1.994,-32.546 0.065,-39.626 1.554,-5.346 1.632,-5.425 4.777,-4.835 6.906,1.296 11.428,-6.654 6.393,-11.24 -7.914,-7.208 -25.076,-7.752 -45.25,-1.435 -9.898,3.1 -28.851,9.718 -32,11.176 -1.1,0.508 -5.6,2.01 -10,3.335 -27.61598,8.321 -43.11198,10.625 -71.46298,10.625 -12.055,0 -22.128,-0.338 -22.384,-0.752 -0.255,-0.414 2.372,-3.602 5.839,-7.085 3.466,-3.484 9.686,-11.358 13.821,-17.498 6.604,-9.806 7.717,-12.128 9.146,-19.082 2.753,-13.395 0.155,-24.491 -7.837,-33.466 l -2.122,-2.383 4,0.735 c 20.762,3.813 34.498,5.093 65.49998,6.1 18.048,0.587 22.174,0.412 34.5,-1.461 7.7,-1.169 16.754,-3.04 20.12,-4.156 5.759,-1.909 23.29,-10.399 24.38,-11.806 0.275,-0.356 2.075,-1.512 4,-2.571 1.925,-1.058 3.725,-2.205 4,-2.548 0.275,-0.344 4.267,-3.302 8.871,-6.576 20.764,-14.761 19.605,-13.736 19.934,-17.641 0.239,-2.84 -0.187,-3.964 -1.973,-5.215 -4.347,-3.045 -6.82,-2.246 -17.423,5.625 -2.8,2.079 -5.358,3.78 -5.686,3.78 -0.327,0 -0.761,-4.612 -0.964,-10.25 -0.273,-7.557 -0.946,-11.692 -2.564,-15.736 -1.614,-4.033 -2.195,-7.585 -2.195,-13.41 0,-9.008 2.524,-35.598 4.092,-43.104 0.575,-2.75 1.456,-7.475 1.958,-10.5 0.503,-3.025 2.32,-9.89 4.039,-15.255 2.073,-6.47 2.901,-10.649 2.459,-12.409 -1.29,-5.14 -6.362,-8.74 -17.296,-12.275 -9.715,-3.141 -10.831,-3.288 -21.5,-2.841 -14.413,0.605 -24.474,3.636 -43.038,12.968 -13.669,6.87 -21.205,9.78 -25.38098,9.801 -3.732,0.019 -10.598,-3.515 -16.833,-8.664 -10.638,-8.785 -15.053,-10.847 -32,-14.941 -14.448,-3.49 -23.38,-3.89 -43.329,-1.936 -16.045,1.571 -18.081,1.578 -27.5,0.088 -9.717,-1.537 -33.941,-7.451 -53.171,-12.982 -4.95,-1.423 -11.475,-3.031 -14.5,-3.574 -10.115,-1.813 -32.004,0.646 -49,5.506 -4.675,1.336 -10.147,2.687 -12.159,3 -6.219,0.969 -12.359,8.744 -14.912,18.882 -0.987,3.919 -2.117,5.378 -7.298,9.424 -3.372,2.634 -7.713,5.754 -9.646,6.934 -5.337,3.259 -9,8.951 -12.036,18.704 -1.943,6.244 -1.426,21.977 0.972,29.57 2.182,6.906 2.661,14.338 1.178,18.24 -0.496,1.304 -3.358,4.226 -6.362,6.493 -7.438,5.616 -9.956,10.594 -10.671,21.096 l -0.566,8.328 -5.684,-3.749 c -3.127,-2.062 -5.93,-4.685 -6.229,-5.829 -0.299,-1.143 -1.603,-3.387 -2.897,-4.986 -1.789,-2.211 -3.147,-2.884 -5.673,-2.813 -4.32,0.123 -6.217,2.136 -6.217,6.597 0,5.006 4.45,12.146 9.946,15.959 2.508,1.74 8.389,6.172 13.068,9.849 19.914,15.651 41.052,22.741 93.686,31.425 8.368,1.381 19.548,1.684 68.5,1.856 49.423,0.174 59.702,0.456 66.246,1.821 10.365,2.161 14.415,4.244 17.593,9.046 2.343,3.541 2.656,4.985 2.616,12.094 -0.036,6.461 -0.512,8.966 -2.382,12.542 -2.14,4.092 -5.817,9.809 -7.096,11.031 -0.288,0.275 -1.256,1.654 -2.151,3.064 -7.084,11.156 -26.387,23.939 -41.911,27.755 -6.505,1.599 -24.078,1.721 -32.915,0.228 -40.684,-6.872 -84.52,-17.231 -112.5,-26.584 -34.627,-11.576 -46.519,-12.926 -74,-8.401 -8.342,1.373 -11.5,3.732 -11.5,8.589 0,2.41 0.669,3.741 2.472,4.923 2.296,1.504 3.346,1.469 14.696,-0.482 8.685,-1.493 12.528,-1.791 13.278,-1.029 1.415,1.439 -1.974,3.93 -5.387,3.959 -1.408,0.012 -4.46,0.885 -6.783,1.939 -4.447,2.019 -8.92,7.976 -12.796,17.039 -1.058,2.475 -5.906,12.293 -10.772,21.818 -4.867,9.525 -9.97,20.325 -11.339,24 -4.433,11.893 -8.381,18.886 -33.408,59.18201 -0.512,0.825 -1.545,2.85 -2.296,4.5 -0.75,1.65 -3.918,6.747 -7.04,11.326 -5.423,7.956 -6.142,9.609 -5.783,13.309 0.243,2.511 4.738,5.008 7.685,4.269 3.949,-0.991 11.891,-11.99 21.229,-29.404 1.918,-3.575 6.722,-11.45001 10.678,-17.50001 9.202,-14.077 15.246,-25.239 21.06,-38.896 2.551,-5.993 9.109,-19.78 14.572,-30.638 5.464,-10.858 9.934,-20.06 9.934,-20.449 0,-1.916 4.383,-6.517 6.207,-6.517 1.892,0 2.018,0.413 1.451,4.75 -0.341,2.612 -1.288,8.35 -2.104,12.75 -3.583,19.316 0.19,47.628 9.753,73.183 3.647,9.746 15.581,28.93501 22,35.37401 l 3.546,3.557 -1.506,4.943 c -0.828,2.719 -2.807,8.543 -4.397,12.943 -1.59,4.4 -3.615,10.475 -4.499,13.5 -0.884,3.025 -2.473,8.021 -3.529,11.103 -1.057,3.081 -1.922,6.618 -1.922,7.859 0,1.241 -1.078,6.82 -2.395,12.397 -1.318,5.578 -2.677,12.391 -3.021,15.141 -0.344,2.75 -1.158,7.858 -1.808,11.352 l -1.183,6.352 -5.044,-0.669 c -6.415,-0.851 -16.484,-4.842 -23.549,-9.333 -5.326,-3.385 -18.752,-14.55 -20.225,-16.818 -0.398,-0.614 -3.002,-2.096 -5.787,-3.294 -5.988,-2.576 -10.04,-2.106 -25.834,2.996 -12.553,4.055 -21.934,3.774 -31.515,-0.943 -5.521,-2.718 -20.385,-12.076 -23.258,-14.643 -0.616,-0.55 -3.533,-3.025 -6.482,-5.5 -7.884,-6.615 -10.084,-8.878 -14.882,-15.301 -8.66,-11.592 -16.229,-13.343 -29.076,-6.729 -13.446,6.922 -25.284,7.99 -39.822,3.592 -9.756,-2.951 -10.358,-3.361 -13.041,-8.893 -2.541,-5.236 -4.553,-6.48 -11.794,-7.291 -8.994,-1.007 -29.432,-11.024 -36.784,-18.027 -1.1,-1.048 -3.575,-2.982 -5.5,-4.298 -6.659,-4.553 -18.925,-18.12801 -24.451,-27.06201 -3.052,-4.933 -5.549,-9.166 -5.549,-9.405 0,-0.24 -2.641,-5.982 -5.869,-12.761 -6.788,-14.257 -11.025,-26.137 -11.873,-33.291 -0.61,-5.15 -1.159,-5.922 -9.299,-13.072 -13.914,-12.222 -26.147,-34.369 -32.221,-58.335 -1.921,-7.582 -2.177,-11.175 -2.114,-29.661 0.083,-23.932 0.862,-28.724 6.337,-38.966 8.855,-16.567 11.485,-21.237 14.181,-25.18 1.572,-2.299 2.858,-4.44 2.858,-4.756 0,-0.69 13.424,-19.537 15.821,-22.214 0.924,-1.031 4.041,-4.493 6.929,-7.693 5.915,-6.555 6.493,-8.074 2.5,-6.575 -3.5,1.313 -12.358,9.934 -11.551,11.241 0.336,0.542 0.116,0.681 -0.487,0.308 -3.821,-2.362 -25.021,27.946 -37.497,53.604 -8.108,16.677 -13.694,38.818 -13.709,54.341 -0.01,9.747 1.956,27.231 4.094,36.424 2.33,10.016 7.657,22.243 9.286,21.314 0.613,-0.349 0.792,-0.278 0.399,0.157 -0.923,1.023 1.049,4.75 2.152,4.068 0.461,-0.285 0.775,0.265 0.7,1.222 -0.076,0.962 0.455,1.616 1.187,1.464 0.729,-0.151 1.061,0.153 0.738,0.675 -1.312,2.122 13.348,16.547 23.369,22.995 4.853,3.123 6.642,3.827 7.291,2.872 0.652,-0.96 0.806,-0.903 0.634,0.233 -0.461,3.036 1.319,10.01 2.387,9.35 0.634,-0.392 0.773,-0.185 0.342,0.512 -1.218,1.971 7.668,27.056 15.606,44.054 13.696,29.33001 23.577,44.89501 37.267,58.70601 13.176,13.291 22.41,17.256 44.042,18.909 7.22,0.552 9.494,1.122 11.5,2.885 6.751,5.934 14.995,10.323 17.029,9.066 0.44,-0.272 0.957,-0.024 1.148,0.55 0.579,1.737 14.166,2.374 21.045,0.987 5.174,-1.043 18.995,-4.562 25.89,-6.592 1.085,-0.319 3.034,1.413 5.963,5.299 13.348,17.713 28.862,31.635 43.925,39.416 6.235,3.221 6.948,3.357 17.5,3.329 8.216,-0.021 12.139,-0.485 15.5,-1.832 7.745,-3.103 8.318,-3.081 10.372,0.406 1.454,2.467 2.083,2.873 2.816,1.816 0.681,-0.982 0.785,-0.791 0.374,0.689 -0.409,1.47 0.351,2.906 2.684,5.076 9.108,8.469 19.783,14.445 33.754,18.896 9.172,2.922 21.213,3.736 32.13,2.171 l 5.63,-0.807 0.428,6.307 c 0.449,6.599 7.218,25.323 10.603,29.329 2.68,3.171 8.09,6.67 9.227,5.967 0.567,-0.351 0.908,-0.059 0.757,0.649 -0.151,0.707 2.65,2.854 6.225,4.771 6.155,3.299 7.126,3.507 18.293,3.912 23.792,0.864 35.971,-5.242 43.431,-21.776 4.153,-9.205 6.605,-14.045 7.114,-14.045 0.211,0 3.596,1.582 7.523,3.516 10.762,5.301 28.643,9.484 40.536,9.484 5.325,0 12.365,-0.678 15.643,-1.506 11.408,-2.882 37.298,-17.222 35.805,-19.83 -0.366,-0.64 -0.309,-0.842 0.126,-0.449 0.435,0.393 1.659,0.107 2.718,-0.635 1.619,-1.134 2.661,-1.128 6.528,0.035 5.188,1.562 24.582,1.848 30.596,0.452 3.55,-0.824 3.891,-0.701 4.951,1.774 1.748,4.082 8.888,14.144 10.131,14.277 0.608,0.066 1.443,0.066 1.855,0 0.413,-0.065 0.638,0.444 0.5,1.132 -0.137,0.687 0.346,1.126 1.074,0.975 0.729,-0.151 1.074,0.131 0.768,0.626 -0.676,1.093 5.457,5.453 10.792,7.672 5.172,2.152 16.129,2.976 21.212,1.595 11.548,-3.136 25.641,-20.858 28.764,-36.171 1.33598,-6.546 2.02498,-7.663 3.86598,-6.265 2.087,1.585 8.692,3.153 18.567,4.409 16.808,2.137 35.332,-1.259 48.077,-8.815 7.729,-4.582 19.682,-15.574 18.687,-17.184 -0.388,-0.628 -0.269,-1.018 0.264,-0.867 1.591,0.451 14.179,-17.468 14.179,-20.183 0,-1.448 4.328,-4.13 4.975,-3.083 1.967,3.183 31.065,2.968 53.567,-0.397 10.614,-1.587 25.051,-5.329 26.76,-6.936 0.659,-0.619 2.109,-1.215 3.223,-1.324 6.929,-0.679 31.92,-20.154 29.951,-23.34 -0.481,-0.78 -0.382,-1.022 0.256,-0.628 1.344,0.831 3.646,-1.914 2.78,-3.315 -0.363,-0.588 -0.13,-0.945 0.518,-0.794 1.779,0.415 10.532,-15.424 12.983,-23.494 1.188,-3.91 2.528,-12.077 2.983,-18.167 1.175,-15.76501 -0.974,-40.91701 -3.975,-46.52501 -1.809,-3.381 -1.157,-5.986 1.975,-7.891 1.648,-1.002 2.661,-2.192 2.25,-2.645 -0.41,-0.453 -0.218,-0.521 0.427,-0.152 1.571,0.9 8.501,-3.26 7.671,-4.603 -0.391,-0.634 -0.173,-0.76 0.545,-0.317 3.143,1.943 19.826,-15.224 30.57,-31.456 16.726,-25.271 23.768,-46.802 23.866,-72.975 0.035,-9.468 -0.367,-13.575 -1.659,-16.931 -2.082,-5.411 -1.854,-5.688 7.61,-9.208 3.973,-1.479 7.117,-3.161 6.986,-3.738 -0.131,-0.578 0.364,-0.82 1.1,-0.537 1.591,0.61 8.89,-6.37 8.062,-7.709 -0.315,-0.51 0.023,-0.803 0.752,-0.652 0.728,0.151 1.212,-0.287 1.074,-0.975 -0.137,-0.687 0.313,-1.137 1,-1 0.688,0.138 1.188,-0.533 1.113,-1.489 -0.075,-0.957 0.245,-1.503 0.712,-1.215 1.294,0.8 4.47,-6.145 7.342,-16.051 3.387,-11.681 3.556,-25.689 0.462,-38.258 -1.664,-6.759 -1.873,-9.017 -0.967,-10.468 0.636,-1.018 0.882,-2.293 0.548,-2.834 -0.335,-0.542 -0.113,-0.861 0.492,-0.71 1.486,0.371 6.572,-11.785 8.387,-20.043 3.341,-15.208 2.905,-25.431 -1.485,-34.769 -4.907,-10.439 -25.863,-26.662 -32.161,-24.897 -1.729,0.485 -1.876,0.393 -0.693,-0.435 1.076,-0.754 -2.849,-1.055 -13.884,-1.066 -14.648,-0.014 -23.695,1.239 -22.531,3.122 0.285,0.462 -0.1,0.603 -0.857,0.312 -0.756,-0.29 -3.908,0.804 -7.003,2.433 l -5.628,2.96 -2.703,-4.671 c -4.077,-7.044 -8.44,-12.26 -9.636,-11.521 -0.627,0.387 -0.775,0.186 -0.359,-0.486 0.888,-1.437 -8.726,-12.748 -17.335,-20.395 -7.69,-6.83 -17.334,-12.135 -29.564,-16.263 -8.377,-2.827 -8.975,-3.209 -8.639,-5.522 0.198,-1.366 0.572,-13.509 0.829,-26.984 0.638,-33.372 -1.503,-49.09 -8.882,-65.218 l -3.074,-6.717 1.252,-11.283 c 1.833,-16.522 1.644,-50.079 -0.348,-61.782 -2.227,-13.079 -3.726,-17.582 -2.829,-8.5 m 211.191,3.416 c 0.825,0.567 3.802,1.512 6.616,2.101 22.191,4.639 29.027,34.791 11.884,52.414 -2.5,2.57 -6.25,4.977 -10,6.418 -3.3,1.268 -8.244,3.171 -10.986,4.228 -2.742,1.058 -5.915,1.923 -7.05,1.923 -3.076,0 -9.385,4.602 -14.464,10.55 -7.346,8.602 -15.279,11.419 -32.212,11.438 -8.449,0.009 -11.936,-0.436 -16.5,-2.108 -5.804,-2.125 -12.781,-7.706 -13.851,-11.08 -0.996,-3.135 -3.696,-3.821 -8.513,-2.162 -3.941,1.358 -7.593,1.411 -14.398,0.21 -2.073,-0.365 -4.223,-1.936 -11.05,-8.072 -8.206,-7.376 -8.606,-19.315 -1.023,-30.501 4.35,-6.416 17.776,-19.384 23.297,-22.501 5.625,-3.177 7.263,-4.774 4.896,-4.774 -2.365,0 -14.14,7.111 -19.871,12 -8.789,7.498 -16.879,16.626 -18.323,20.673 -2.009,5.635 -1.791,16.988 0.419,21.827 2.088,4.572 8.702,11.003 15.192,14.775 4.481,2.603 13.736,4.844 16.784,4.064 1.15,-0.294 2.387,0.972 4.065,4.162 6.961,13.234 16.021,18.8 34.968,21.484 7.973,1.129 23.339,-0.15 23.955,-1.994 0.185,-0.552 0.699,-0.779 1.144,-0.504 1.306,0.807 9.406,-2.386 10.814,-4.263 0.711,-0.948 1.499,-1.612 1.75,-1.474 1.314,0.719 2.483,0.09 1.856,-1 -0.396,-0.687 -0.365,-0.93 0.067,-0.54 0.433,0.391 2.066,0.049 3.628,-0.758 3.097,-1.602 10.906,-8.685 10.906,-9.893 0,-0.413 0.883,-1.991 1.963,-3.507 1.673,-2.35 2.889,-2.847 8.25,-3.372 15.573,-1.527 31.724,-12.631 38.747,-26.638 5.246,-10.463 6.07,-23.989 1.958,-32.155 -3.71,-7.368 -14.472,-15.032 -26.918,-19.167 -5.584,-1.855 -20.206,-3.321 -18,-1.804 m -483.02698,78.798 c -1.36,0.942 -3.55,2.702 -4.867,3.911 -5.587,5.128 -25.305,13.352 -41.971,17.506 -10.586,2.638 -15.156,3.227 -28.184,3.635 -17.386,0.544 -24.337,-0.448 -30.18,-4.305 -6.714,-4.432 -12.771,-2.383 -12.771,4.321 0,7.725 3.765,10.324 24,16.57 26.076,8.048 44.238,8.085 66,0.134 6.395,-2.337 17.803,-8.382 22.5,-11.924 7.964,-6.005 15.328,-14.211 16.432,-18.31 1.394,-5.177 -0.175,-9.809 -3.991,-11.782 -3.584,-1.854 -3.961,-1.841 -6.968,0.244 m -305.729,6.262 c -3.898,1.769 -4.601,1.809 -8.375,0.478 -12.144,-4.285 -30.476,0.338 -41.979,10.586 -2.687,2.394 -4.972,3.679 -5.89,3.311 -6.646,-2.662 -14.779,-4.56 -21.643,-5.051 -10.281,-0.735 -14.257,0.994 -24.69,10.738 -6.88,6.424 -7.825,6.968 -14.544,8.369 -12.927,2.695 -22.821,8.856 -30.904,19.244 -3.783,4.861 -10.358,17.84 -12.764,25.196 -1.339,4.096 -2.667,5.872 -6.477,8.67 -5.883,4.318 -19.616,19.24 -23.814,25.874 -5.526,8.734 -7.605,16.7 -7.595,29.109 0.008,10.673 0.116,11.21 3.635,18.057 5.844,11.372 14.228,17.872 28.296,21.939 12.134,3.508 25.453,4.29 36,2.115 8.45,-1.743 19.908,-6.804 25.114,-11.092 l 3.113,-2.565 2.85,3.773 c 1.568,2.075 3.345,4.283 3.949,4.907 2.389,2.465 9.843,5.484 15.203,6.157 l 5.647,0.709 3.74,7.5 c 5.988,12.007 13.48,17.773 26.66,20.519 18.434,3.842 37.418,-6.37 48.779,-26.239 1.517,-2.654 2.768,-3.413 7.112,-4.315 7.227,-1.5 16.042,-6.085 21.526,-11.196 7.825,-7.294 14.108,-21.153 14.738,-32.511 0.038,-0.684 1.511,-2.484 3.274,-4 15.764,-13.562 18.035,-17.128 18.592,-29.188 0.321,-6.969 -0.002,-9.621 -1.727,-14.197 -2.089,-5.54 -3.199,-7.184 -9.197,-13.617 l -3.025,-3.245 3.553,-5.848 c 4.259,-7.011 6.053,-14.55 5.262,-22.117 -0.511,-4.883 -2.858,-11.558 -4.587,-13.046 -0.32,-0.275 -1.857,-2.38 -3.415,-4.678 -2.991,-4.411 -11.191,-11.949 -18.058,-16.602 -13.089,-8.869 -28.865,-12.054 -38.359,-7.744 m 431.02598,2.727 c -2.691,0.52 -6.27,4.816 -6.27,7.528 0,4.991 9.184,16.371 18.203,22.554 17.275,11.843 48.725,20.478 68.752,18.876 7.655,-0.612 20.491,-3.707 22.117,-5.333 0.49,-0.49 1.169,-2.282 1.509,-3.982 0.501,-2.504 0.066,-3.71 -2.286,-6.342 -2.811,-3.145 -3.131,-3.242 -9.85,-2.977 -19.28,0.763 -31.028,0.2 -38.652,-1.85 -12.995,-3.495 -27.836,-11.528 -38.473,-20.822 -5.641,-4.93 -11.058,-8.541 -12.32,-8.213 -0.275,0.072 -1.504,0.324 -2.73,0.561 m -463.39598,6.142 c -6.224,1.624 -11.021,4.449 -16.874,9.936 -4.279,4.011 -5.382,4.269 -9.594,2.245 -10.845,-5.211 -17.823,-6.087 -27.946,-3.507 -5.289,1.348 -6.768,2.347 -13.137,8.868 l -7.177,7.349 -5.717,0.051 c -10.98,0.099 -26.164,10.227 -33.221,22.161 -1.446,2.446 -3.856,8.071 -5.354,12.5 -2.578,7.622 -3.059,8.306 -8.995,12.8 -8.604,6.513 -13.91,11.715 -19.393,19.009 -5.563,7.401 -7.109,10.337 -12.552,23.837 l -4.161,10.319 1.259,7.043 c 0.692,3.874 1.917,8.394 2.722,10.044 1.813,3.717 10.481,10.819 17.103,14.014 12.158,5.865 29.827,7.253 38.851,3.051 4.794,-2.232 19.936,-11.666 24.043,-14.979 10.902,-8.795 15.081,-12.322 16.769,-14.151 1.1,-1.192 5.108,-4.951 8.908,-8.353 5.671,-5.078 7.441,-6.131 9.889,-5.884 2.196,0.223 3.447,1.175 4.751,3.618 5.84,10.935 10.583,14.501 18.601,13.984 4.244,-0.275 4.78,-0.046 6.318,2.687 2.545,4.522 7.141,6.747 13.819,6.689 19.512,-0.168 22.675,-0.984 30.214,-7.795 3.648,-3.295 5.621,-7.448 7.432,-15.636 0.385,-1.745 1.656,-3.212 3.463,-4 4.772,-2.081 16.004,-12.857 20.581,-19.745 6.914,-10.406 9.078,-20.344 6.024,-27.654 -1.867,-4.468 -1.912,-7.791 -0.13,-9.573 4.475,-4.475 8.025,-16.816 7.27,-25.273 -0.646,-7.238 -7.685,-21.279 -13.054,-26.037 -3.581,-3.174 -12.066,-6.502 -21.838,-8.567 -4.582,-0.968 -6.536,-0.956 -9.608,0.058 -2.97,0.98 -5.049,1.017 -9.047,0.159 -7.049,-1.511 -12.361,-1.319 -20.219,0.732 m 459.10798,76.56 c -4.441,3.067 -6.107,5.107 -10.028,12.277 -4.048,7.405 -5.186,8.538 -12.306,12.26 -7.969,4.165 -10.79798,4.006 -15.58498,-0.877 -5.979,-6.101 -9.423,-6.295 -19.363,-1.091 -6.709,3.513 -8.759,4.147 -11.994,3.713 -5.498,-0.737 -8.394,-3.865 -9.785,-10.568 -0.877,-4.224 -2.008,-6.408 -4.572,-8.826 -5.67,-5.347 -13.863,-5.817 -16.199,-0.93 -1.734,3.631 -0.365,7.032 3.79,9.417 2.071,1.189 3.248,2.908 3.98,5.815 1.58,6.275 7.066,13.522 12.26,16.195 7.168,3.688 16.702,3.378 25.23,-0.82 l 6.642,-3.27 2.715,2.4 c 1.494,1.32 2.956,2.713 3.25,3.095 1.354,1.764 10.386,2.832 15.67598,1.854 10.589,-1.958 23.194,-11.293 27.771,-20.569 1.081,-2.189 3.668,-5.882 5.75,-8.208 4.662,-5.205 5.033,-9.146 1.151,-12.199 -3.346,-2.633 -4.136,-2.601 -8.383,0.332 m -242.98198,40.257 c -5.146,0.502 -14.961,2.317 -19.204,3.55 l -3.704,1.077 3.396,3.968 c 4.062,4.745 4.868,9.261 4.954,27.743 0.065,13.936 0.608,12.298 -11.942,35.997 -2.475,4.674 -4.5,9.677 -4.5,11.118 0,1.441 1.35,6.717 3,11.724 1.986,6.025 3,11.127 3,15.09 0,6.268 0.363,5.346 -13.992,35.571 -5.78,12.17 -5.784,12.215 -1.309,13.412 6.357,1.701 24.63,5.082 27.484,5.085 1.784,0.002 2.89,-0.651 3.302,-1.949 0.915,-2.884 7.254,-8.873 11.928,-11.269 9.242,-4.739 15.341,-5.917 33.587,-6.487 10.96,-0.343 20.863,-0.106 26.5,0.633 8.123,1.066 26.995,5.47 41.5,9.685 6.852,1.992 10.129,2.639 27,5.334 7.425,1.186 21.375,3.505 31,5.154 9.705,1.662 24.734,3.415 33.74,3.936 51.20598,2.959 70.23898,0.048 93.03398,-14.231 l 5.273,-3.303 0.49,-12.757 c 0.468,-12.182 0.375,-12.983 -2.058,-17.784 -3.308,-6.528 -4.108,-16.664 -2.561,-32.459 0.646,-6.6 1.604,-16.518 2.129,-22.039 0.767,-8.078 5.405,-30.584 8.441,-40.961 0.516,-1.766 -0.445,-2.324 -8.202,-4.769 -4.832,-1.523 -10.361,-2.753 -12.286,-2.734 -10.48,0.103 -30.979,6.775 -42.357,13.786 -2.121,1.308 -7.952,3.958 -12.956,5.891 -8.248,3.186 -9.852,3.479 -17.14298,3.14 -7.809,-0.364 -14.134,-2.377 -17.365,-5.526 -0.727,-0.708 -1.632,-1.288 -2.011,-1.288 -0.378,0 -1.809,-1.032 -3.178,-2.293 -5.468,-5.035 -12.309,-8.87 -20.689,-11.597 -14.058,-4.577 -21.838,-5.515 -37.301,-4.498 -7.425,0.488 -20.25,0.848 -28.5,0.798 -14.777,-0.088 -15.326,-0.173 -37,-5.668 -12.1,-3.068 -26.916,-6.966 -32.923,-8.66 -10.638,-3.001 -17.059,-3.545 -28.577,-2.42 m 488.53598,26.904 c -5.932,2.941 -11.776,8.916 -18.579,18.998 l -5.018,7.436 h -11.22 c -12.512,0 -26.691,2.456 -28.719,4.975 -0.275,0.342 -2.075,1.706 -4,3.032 -1.925,1.326 -4.16,3.32 -4.968,4.432 -0.807,1.111 -3.671,4.453 -6.364,7.427 -2.693,2.974 -6.533,8.833 -8.532,13.021 -3.516,7.362 -3.647,8.042 -3.969,20.613 l -0.333,13 -3.289,3 c -1.809,1.65 -4.562,5.475 -6.117,8.5 -2.526,4.915 -2.825,6.51 -2.803,15 0.029,11.288 1.855,16.243 8.369,22.711 5.245,5.209 9.525,6.701 17.218,6.003 9.95,-0.902 19.613,-8.863 22.401,-18.456 1.823,-6.271 3.627,-6.733 9.196,-2.358 6.883,5.408 19.861,7.672 24.933,4.35 2.206,-1.444 4.587,-1.706 13.641,-1.498 17.117,0.395 27.36,-2.885 36.391,-11.648 6.366,-6.179 8.711,-12.122 8.719,-22.104 0,-4.687 -0.658,-10.673 -1.475,-13.343 -1.377,-4.499 -1.355,-4.938 0.319,-6.161 3.295,-2.41 6.973,-15.067 7.451,-25.64 1.008,-22.286 -7.044,-41.483 -21.527,-51.325 -5.167,-3.51 -14.603,-3.495 -21.725,0.035 m -462.99998,131.547 c -10.406,1.516 -22.397,6.619 -19.606,8.344 1.36,0.84 86.06,0.292 86.066,-0.557 0,-0.33 -5.733,-2.01 -12.746,-3.734 -18.832,-4.628 -39.214,-6.166 -53.714,-4.053 m 256.46398,83.592 c -4.825,0.834 -16.042,4.403 -35.68,11.351 -10.901,3.857 -21.395,7.405 -23.32,7.885 -1.925,0.479 -8,2.009 -13.49998,3.399 -16.092,4.069 -29.64,5.725 -51.5,6.293 -23.01,0.598 -40.576,-1.035 -43.947,-4.085 -1.75,-1.584 -2.095,-1.569 -5.708,0.251 -6.541,3.295 -16.335,5.293 -28.845,5.886 -12.06,0.572 -22.94,-0.739 -52,-6.263 -10.274,-1.953 -41.497,-9.084 -48,-10.962 -16.747,-4.837 -31.608,-8.686 -32.005,-8.288 -0.253,0.253 -0.012,2.006 0.537,3.894 2.156,7.422 6.024,28.833 6.58,36.424 0.616,8.407 -1.552,30.716 -4.131,42.51 -0.781,3.575 -1.907,10.219 -2.501,14.765 -1.124,8.605 -2.131,12.026 -6.249,21.23501 -4.557,10.189 -4.708,9.618 3,11.371 10.902,2.479 28.733,3.773 42.769,3.103 12.218,-0.584 24.601,-1.899 58,-6.161 20.029,-2.556 57.349,-2.524 70.5,0.06 35.707,7.017 34.466,6.903 68,6.264 46.54498,-0.887 60.97098,-2.538 72.47798,-8.293 5.948,-2.976 15.626,-11.02601 16.285,-13.54701 0.259,-0.988 0.812,-1.797 1.23,-1.797 1.729,0 5.08,-10.495 6.437,-20.16 0.926,-6.594 2.756,-13.714 5.05,-19.653 3.45,-8.93 3.551,-9.548 2.458,-15 -2.241,-11.179 -2.734,-14.828 -3.403,-25.187 -0.612,-9.465 0.415,-25.917 2.075,-33.25 0.654,-2.886 0.541,-2.936 -4.61,-2.045 m -829.49998,100.921 c -10.473,2.062 -13.69,2.93 -18.122,4.888 -4.944,2.184 -7.145,4.052 -6.057,5.141 0.287,0.287 2.576,-0.682 5.087,-2.154 8.885,-5.207 19.427,-6.533 36.346,-4.572 12.21,1.415 17.246,6.84 17.246,18.57901 0,6.233 -1.618,15.393 -2.914,16.492 -0.324,0.275 -2.135,2.3 -4.024,4.5 -6.421,7.477 -15.648,13.592 -25.562,16.942 -2.75,0.929 -7.475,2.899 -10.5,4.378 -5.286,2.584 -5.694,3.077 -10.502,12.684 -5.602,11.196 -14.742,23.946 -20.311,28.331 -9.071,7.144 -27.934,14.523 -37.346,14.609 -3.663,0.034 -6.173,-0.239 -5.578,-0.606 0.594,-0.368 -0.727,-1.155 -2.937,-1.75 -2.21,-0.595 -5.883,-2.433 -8.163,-4.085 -2.28,-1.652 -4.404,-3.003 -4.719,-3.003 -1.159,0 -6.021,-6.381 -8.661,-11.367 -5.416,-10.229 -6.029,-23.03 -1.715,-35.833 l 2.04,-6.056 -2.054,-2.187 c -1.676,-1.784 -2.054,-3.5 -2.054,-9.334 0,-8.796 2.604,-16.277 8.073,-23.196 5.195,-6.57301 4.979,-7.47601 -0.503,-2.096 -12.865,12.626 -17.464,27.951 -11.239,37.451 1.502,2.293 1.473,2.868 -0.424,8.291 -2.944,8.416 -3.517,18.413 -1.504,26.261 1.868,7.285 5.682,14.684 7.386,14.328 0.626,-0.131 0.922,0.328 0.657,1.019 -0.581,1.514 7.635,9.596 12.623,12.419 1.963,1.11 6.463,3.033 10,4.273 8.344,2.923 24.248,3.202 33.931,0.594 9.393,-2.529 21.629,-8.715 28.204,-14.258 7.033,-5.928 14.199,-14.848 13.212,-16.445 -0.453,-0.733 -0.292,-0.906 0.429,-0.459 0.635,0.392 1.155,0.236 1.155,-0.346 0,-0.582 0.012,-1.273 0.026,-1.535 0.014,-0.262 1.129,-1.667 2.477,-3.122 1.349,-1.455 2.728,-4.115 3.065,-5.91 0.542,-2.893 1.07,-3.338 4.629,-3.908 6.351,-1.015 19.788,-6.542 25.835,-10.626 10.73,-7.247 23.544,-22.326 22.416,-26.378 -0.436,-1.565 -0.336,-1.728 0.402,-0.658 1.624,2.355 3.441,-6.398 2.67,-12.867 -1.257,-10.54901 -5.921,-16.22201 -19.663,-23.91601 -7.135,-3.996 -24.236,-6.309 -33.357,-4.513 m 615.5,43.36401 c -4.675,0.382 -13.787,1.289 -20.25,2.015 l -11.75,1.32 v 4.385 c 0,6.129 -8.492,34.723 -15.531,52.29 -4.21,10.509 -11.083,28.998 -13.91,37.418 -2.494,7.432 -2.536,7.88 -0.841,9.14 2.176,1.619 14.925,5.037 21.868,5.863 7.017,0.834 19.498,-1.069 27.352,-4.172 7.276,-2.874 17.062,-8.704 17.062,-10.165 0,-0.518 0.605,-1.546 1.344,-2.285 0.739,-0.739 2.555,-3.262 4.035,-5.608 10.81,-17.124 26.585,-22.823 37.576,-13.576 1.675,1.41 3.045,2.053 3.045,1.429 0,-0.624 -1.753,-8.201 -3.896,-16.839 -5.631,-22.702 -11.265,-48.321 -12.605,-57.318 -0.524,-3.518 -0.675,-3.63 -5.769,-4.241 -6.169,-0.741 -15.946,-0.62 -27.73,0.344 m -133.416,3.874 c -0.702,1.136 -4.696,12.442 -8.526,24.136 -8.184,24.987 -12.184,45.289 -15.959,81 -1.801,17.037 -1.569,19.387 2.962,30 4.567,10.697 7.12,13.462 16.647,18.026 5.258,2.519 7.402,2.972 14,2.962 14.004,-0.021 23.696,-4.112 27.221,-11.488 7.792,-16.309 11.058,-23.918 16.092,-37.5 3.16,-8.525 6.662,-18.425 7.782,-22 2.362,-7.538 5.239,-15.239 12.703,-34 9.296,-23.366 16.595,-50 13.702,-50 -0.435,0 -6.172,0.716 -12.75,1.592 -20.978,2.792 -57.989,1.183 -71.514,-3.11 -0.977,-0.31 -2.039,-0.138 -2.36,0.382 m 181.494,3.804 c 1.819,10.912 6.755,32.584 14.822,65.073 5.551,22.351 7.948,30.158 12.075,39.323 9.797,21.756 14.008,26.648 26.235,30.485 7.895,2.477 12.062,1.157 18.365,-5.816 12.977,-14.357 15.322,-32.492 7.966,-61.601 -2.089,-8.265 -4.317,-20.182 -10.96,-58.632 l -1.21,-7 -16.435,-0.594 c -18.048,-0.652 -25.614,-1.414 -33.936,-3.416 -3.025,-0.728 -8.251,-1.623 -11.614,-1.989 l -6.113,-0.666 0.805,4.833 m 94.277,252.021 c -0.629,0.446 4.99598,0.838 12.49998,0.871 12.978,0.056 15.567,0.402 37.145,4.968 2.23,0.471 2.275,0.427 0.411,-0.408 -1.15,-0.515 -6.55,-1.913 -12,-3.107 -10.361,-2.269 -35.928,-3.83 -38.05598,-2.324 m 56.64498,7.714 c 0,0.221 3.126,1.352 6.946,2.512 3.82,1.16 9.108,3.093 11.75,4.296 7.768,3.535 8.304,3.746 8.304,3.277 0,-0.866 -7.597,-4.298 -16.33,-7.376 -8.556,-3.016 -10.67,-3.552 -10.67,-2.709 m -248.74998,13.342 c 4.813,0.183 12.688,0.183 17.5,0 4.813,-0.184 0.875,-0.334 -8.75,-0.334 -9.625,0 -13.562,0.15 -8.75,0.334 m 282.50698,2.005 c 2.158,2.062 3.207,2.235 12.549,2.067 l 10.194,-0.183 -10.65,-0.567 c -7.235,-0.385 -11.259,-1.048 -12.549,-2.067 -1.045,-0.825 -0.839,-0.487 0.456,0.75 m -353.56598,1.1 c -1.27,0.357 2.919,0.65 9.309,0.65 6.39,0 10.579,-0.293 9.309,-0.65 -1.27,-0.358 -5.459,-0.651 -9.309,-0.651 -3.85,0 -8.039,0.293 -9.309,0.651 m -193.196,36.816 c -4.122,3.117 -8.62,6.264 -9.995,6.994 -1.567,0.832 -1.908,1.33 -0.914,1.334 0.872,0 4.403,-2.255 7.846,-5.018 3.443,-2.763 7.567,-5.7 9.164,-6.526 2.82,-1.458 3.69,-2.45 2.149,-2.45 -0.415,0 -4.128,2.55 -8.25,5.666 m 771.00498,10.708 c 0,7.579 -4.394,15.441 -10.826,19.371 -2.021,1.235 -3.179,2.247 -2.574,2.25 2.631,0.012 9.29,-6.137 11.428,-10.554 2.165,-4.471 3.959,-14.441 2.599,-14.441 -0.345,0 -0.627,1.518 -0.627,3.374 m -874.49998,23.437 c -9.653,5.183 -14.65,8.51 -16.984,11.309 -1.852,2.221 -1.785,2.208 1,-0.195 2.974,-2.567 12.707,-8.925 13.662,-8.925 0.276,0 2.937,-1.342 5.912,-2.982 2.976,-1.64 4.96,-2.978 4.41,-2.974 -0.55,0 -4.15,1.7 -8,3.767 m 10.25,42.929 c 3.438,0.196 9.063,0.196 12.5,0 3.438,-0.195 0.625,-0.355 -6.25,-0.355 -6.875,0 -9.687,0.16 -6.25,0.355 m 80.184,28.009 c 7.767,0.18 13.989,0.772 14.75,1.404 0.84,0.697 1.316,0.725 1.316,0.076 0,-1.856 -3.049,-2.231 -16.332,-2.011 l -13.168,0.219 13.434,0.312 m 43.362,16.995 c 4.287,0.188 11.037,0.187 15,0 3.962,-0.19 0.454,-0.343 -7.796,-0.342 -8.25,10e-4 -11.492,0.156 -7.204,0.344 m 80.704,28.23 c 5.225,0.339 10.4,0.965 11.5,1.391 1.185,0.458 0.981,0.148 -0.5,-0.76 -1.816,-1.115 -4.962,-1.495 -11.5,-1.391 l -9,0.142 9.5,0.618 m 114.75,2.766 c 3.438,0.196 9.063,0.196 12.5,0 3.438,-0.195 0.625,-0.355 -6.25,-0.355 -6.875,0 -9.687,0.16 -6.25,0.355"
     stroke="none"
     fill="#e4d6bb"
     fill-rule="evenodd"
     id="path3" />
  <path
     d="m 993.53372,1283.8633 c -1.375,0.212 -6.325,1.294 -11,2.405 -4.675,1.112 -10.525,2.487 -13,3.057 -5.309,1.223 -20.085,6.718 -21.45,7.978 -1.589,1.467 -4.584,0.989 -7.698,-1.228 -5.865,-4.176 -12.684,-5.896 -23.338,-5.884 -13.905,0.015 -21.716,2.643 -33.306,11.205 l -5.338,3.943 -13.862,-1.089 c -17.521,-1.376 -66.415,-0.43 -77.508,1.501 -4.4,0.766 -11.15,2.288 -15,3.382 -8.675,2.465 -10.863,2.51 -14.241,0.297 -2.147,-1.407 -4.837,-1.743 -13.715,-1.713 -10.239,0.034 -11.567,0.271 -18.212,3.25 -3.942,1.767 -7.654,3.213 -8.25,3.213 -0.595,0 -1.082,0.45 -1.082,1 0,0.55 -0.435,1 -0.966,1 -0.532,0 -3.751,1.8 -7.155,4 -4.971,3.212 -7.109,4 -10.86,4 -6.511,0 -24.113,2.628 -32.714,4.885 -3.957,1.038 -10.482,3.49 -14.5,5.449 -7.67,3.739 -9.841,4.262 -21.46,5.165 -6.876,0.534 -7.381,0.418 -13,-2.995 -9.278,-5.637 -18.019,-7.9 -27.732,-7.182 -21.506,1.591 -37.956,7.673 -51.458,19.025 -2.389,2.009 -5.089,3.661 -6,3.671 -12.223,0.129 -21.53,1.897 -33.655,6.393 -4.95,1.836 -12.825,4.489 -17.5,5.896 -33.519,10.087 -40.212,12.757 -52.42,20.908 -7.27,4.855 -9.08,7.798 -9.08,14.766 0,4.994 0.432,6.365 3,9.529 6.63,8.169 15.999,10.836 36.268,10.324 l 13.235,-0.334 -0.002,4.628 c -0.002,8.616 4.31,15.267 12.999,20.051 8.099,4.459 12.426,4.971 36.387,4.302 12.162,-0.34 22.575,-0.249 23.141,0.201 0.565,0.45 1.848,2.679 2.85,4.954 1.971,4.472 5.943,7.947 10.96,9.589 1.739,0.569 11.487,1.359 21.662,1.755 25.191,0.981 38.908,4.666 41.339,11.108 0.605,1.601 1.451,2.912 1.88,2.912 0.43,0 0.781,0.623 0.781,1.384 0,1.962 7.253,8.268 11.728,10.195 2.403,1.035 7.946,1.817 15.272,2.154 7.985,0.368 12.57,1.057 15,2.256 5.169,2.551 7.693,2.993 26.426,4.627 35.034,3.058 39.242,3.013 57.609,-0.614 15.455,-3.051 17.354,-3.215 30.965,-2.664 16.195,0.656 27.35,2.012 35.222,4.283 13.16,3.796 18.28,4.561 26.278,3.926 12.608,-1.001 18.546,-1.637 25,-2.676 16.255,-2.619 19.931,-2.964 32,-3.005 9.964,-0.034 15.452,0.491 23.5,2.249 14.368,3.139 30.65,3.158 44.74,0.053 9.969,-2.196 43.09498,-11.832 64.25998,-18.692 5.775,-1.871 19.472,-5.688 30.439,-8.482 10.966,-2.794 21.541,-5.835 23.5,-6.758 4.766,-2.246 12.081,-9.695 14.947,-15.221 1.28,-2.467 2.85,-7.321 3.49,-10.788 l 1.163,-6.303 8.981,-0.471 c 4.939,-0.259 15.055,-1.547 22.48,-2.861 7.425,-1.315 18.45,-2.926 24.5,-3.581 6.05,-0.656 12.8,-1.615 15,-2.133 2.2,-0.517 5,-1.158 6.223,-1.424 1.223,-0.266 8.007,-2.259 15.076,-4.43 24.293,-7.459 35.889,-12.354 46.876,-19.79 12.572,-8.508 32.306,-17.852 46.325,-21.934 13.929,-4.056 18.379,-7.454 21.558,-16.463 2.004,-5.681 1.802,-10.21 -0.671,-15.058 -3.727,-7.306 -9.475,-10.63 -23.887,-13.813 -4.675,-1.033 -10.3,-2.34 -12.5,-2.904 -9.407,-2.415 -23.73,-4.18 -33.425,-4.12 -8.703,0.054 -26.658,2.509 -34.325,4.694 -1.383,0.394 -1.75,-0.118 -1.75,-2.446 0,-6.287 -5.408,-14.281 -11.951,-17.665 -7.748,-4.006 -24.311,-7.521 -35.452,-7.524 -6.593,-10e-4 -26.828,1.916 -42.388,4.015 -4.01,0.541 -11.035,0.984 -15.612,0.984 -7.813,0 -8.56,-0.19 -12.209,-3.111 -8.785,-7.031 -29.139,-14.379 -53.982,-19.489 -7.348,-1.512 -33.37098,-2.645 -39.40598,-1.717"
     stroke="none"
     fill="#d9cbae"
     fill-rule="evenodd"
     id="path4" />
  <rect
     style="fill:#636363;fill-opacity:0;stroke-width:1.86694"
     id="rect5"
     width="1600"
     height="1600"
     x="0"
     y="0" />
</svg>
