<svg xmlns="http://www.w3.org/2000/svg" width="2160" height="1620" viewBox="0 0 2160 1620" version="1.1"><path d="M 0 810 C 0 1620.001, 0 1620.001, 1080.250 1619.750 C 2160.500 1619.500, 2160.500 1619.500, 2160.751 809.750 C 2161.001 0, 2161.001 -0, 1080.501 -0 C 0 0, 0 0, 0 810 M 0.498 810.500 C 0.498 1256, 0.611 1438.100, 0.750 1215.168 C 0.889 992.235, 0.889 627.735, 0.750 405.168 C 0.611 182.600, 0.498 365, 0.498 810.500 M 880 297.888 C 873.114 299.419, 864 302.457, 864 303.222 C 864 303.650, 863.519 304, 862.930 304 C 861.946 304, 854.123 309.006, 851.285 311.452 C 850.616 312.029, 849.398 313.063, 848.577 313.750 C 845.885 316.005, 842.314 315.147, 838.171 311.250 C 832.013 305.458, 831.399 305.060, 824.740 302.556 C 802.774 294.295, 782.049 300.091, 772.984 317.030 C 771.601 319.614, 769.766 321.944, 764.401 327.928 C 736.448 359.108, 730.970 398.396, 750.711 426.119 C 755.175 432.389, 754.999 436.055, 749.925 442.500 C 747.961 444.996, 742.995 456.256, 741.781 460.971 C 736.859 480.074, 736 486.361, 736 503.266 C 736 522.651, 738.241 539.694, 743.130 557.500 C 743.734 559.700, 744.595 562.400, 745.044 563.500 C 749.019 573.238, 749.042 577.586, 745.149 583.912 C 743.417 586.727, 742 589.661, 742 590.432 C 742 591.203, 741.635 591.983, 741.190 592.167 C 739.938 592.682, 736.958 603.528, 735.327 613.500 C 732.878 628.476, 735.439 651.438, 740.903 663.500 C 748.139 679.473, 749.229 685.789, 745.439 689.794 C 742.011 693.415, 736 703.665, 736 705.887 C 736 706.866, 735.677 707.990, 735.282 708.385 C 726.920 716.747, 730.731 778.013, 741.026 800.719 C 744.284 807.903, 744.710 811.512, 742.656 814.527 C 741.076 816.848, 739.398 821.430, 737.399 828.884 C 736.361 832.755, 734.597 835.755, 731.121 839.558 C 725.502 845.706, 725.027 847.569, 725.011 863.500 C 724.991 884.106, 729.594 900.340, 738.467 910.961 C 742.364 915.625, 742.362 915.595, 739.902 927 C 727.091 986.410, 768.357 1024.094, 821.500 1001.513 C 823.150 1000.812, 828 999.010, 832.278 997.508 C 840.446 994.640, 848.659 988.037, 854.054 980 C 855.346 978.075, 856.665 976.275, 856.984 976 C 858.741 974.485, 863.923 961.434, 865.435 954.716 C 867.510 945.495, 869.918 942.231, 877.234 938.727 C 883.191 935.873, 885.968 933.492, 889.531 928.184 C 890.891 926.158, 895.105 920.766, 898.895 916.203 C 903.763 910.341, 907.921 903.662, 913.058 893.453 C 920.330 879, 920.330 879, 927.055 879 C 947.059 879, 967.046 871.580, 979.822 859.412 C 986.526 853.026, 988.846 852.191, 993.812 854.371 C 1016.116 864.164, 1043.330 860.016, 1072 842.452 C 1089.608 831.664, 1089.910 831.593, 1093.905 837.250 C 1118.069 871.469, 1160.781 877.751, 1198.155 852.582 C 1203.400 849.049, 1203.400 849.049, 1206.450 851.022 C 1229.437 865.888, 1264.028 863.005, 1289.432 844.104 C 1297.283 838.263, 1298.756 837.847, 1302 840.557 C 1304.756 842.859, 1315.721 848, 1317.874 848 C 1319.043 848, 1320 848.388, 1320 848.863 C 1320 850.639, 1339.923 854, 1350.457 854 C 1366.436 854, 1381.363 849.042, 1389.854 840.915 C 1393.208 837.704, 1393.208 837.704, 1402.854 838.962 C 1436.512 843.352, 1466.242 829.181, 1477.596 803.336 C 1481.627 794.159, 1481.838 793.821, 1487.315 787.794 C 1490.167 784.656, 1493.396 780.381, 1494.490 778.294 C 1495.585 776.208, 1496.736 774.275, 1497.049 774 C 1506.280 765.873, 1499.672 711.905, 1488.608 705.067 C 1484.099 702.280, 1483.747 700.994, 1485.637 694.221 C 1491.083 674.704, 1489.279 653.616, 1480.527 634.500 C 1476.008 624.631, 1475.845 622.545, 1479.021 615.250 C 1483.087 605.907, 1484.777 599.770, 1485.966 590.026 C 1487.553 577.018, 1487.209 570.757, 1484.021 554.669 C 1480.954 539.191, 1480.971 535.242, 1484.115 532.396 C 1485.152 531.458, 1486 530.122, 1486 529.428 C 1486 528.734, 1486.382 528.017, 1486.848 527.833 C 1493.969 525.035, 1498.049 488.194, 1492.085 480.539 C 1491.640 479.967, 1490.980 478.262, 1490.619 476.750 C 1490.258 475.238, 1489.520 474, 1488.981 474 C 1488.441 474, 1488 473.294, 1488 472.430 C 1488 471.567, 1486.650 468.898, 1485 466.500 C 1480.851 460.470, 1481.145 458.812, 1487.488 452.468 C 1503.539 436.417, 1504.479 412.697, 1489.925 390.966 C 1486.219 385.432, 1486.219 385.432, 1485.801 369.466 C 1485.404 354.340, 1485.231 353.190, 1482.507 347.608 C 1479.446 341.335, 1469.715 330, 1467.392 330 C 1466.627 330, 1466 329.550, 1466 329 C 1466 328.450, 1465.309 328, 1464.465 328 C 1463.620 328, 1461.751 327.228, 1460.311 326.284 C 1458.337 324.991, 1454.645 324.437, 1445.308 324.034 C 1437.460 323.696, 1432.659 323.071, 1432.202 322.329 C 1427.895 315.344, 1392 312.505, 1392 319.149 C 1392 321.040, 1384.703 319.819, 1379.156 317 C 1369.806 312.248, 1350.763 312.931, 1340.200 318.396 C 1336.163 320.484, 1334.386 319.987, 1329.947 315.527 C 1328.051 313.622, 1326.182 312.049, 1325.794 312.032 C 1325.406 312.014, 1323.520 310.935, 1321.602 309.634 C 1313.514 304.145, 1294.475 301.787, 1284.372 305.023 C 1277.247 307.304, 1272.524 309.403, 1269.500 311.633 C 1264.578 315.261, 1261.838 315.458, 1256.180 312.591 C 1236.964 302.854, 1207.400 302.870, 1194.317 312.626 C 1190.387 315.557, 1186.178 315.642, 1180.803 312.899 C 1161.616 303.111, 1117.216 303.758, 1099.269 314.088 C 1095.340 316.349, 1095.340 316.349, 1088.450 313.591 C 1069.033 305.817, 1043.401 306.682, 1025.582 315.712 C 1020.630 318.221, 1020.630 318.221, 1014.065 314.700 C 998.967 306.601, 970.321 304.503, 955 310.374 C 943.486 314.786, 943.480 314.785, 935.102 308.518 C 922.688 299.233, 896.596 294.199, 880 297.888 M 1097.500 409.725 C 1096.400 410.007, 1093.925 411.457, 1092 412.948 C 1087.377 416.529, 1078.483 421.496, 1073.500 423.280 C 1059.950 428.130, 1056.700 429.024, 1049.345 429.923 C 1040.014 431.064, 1025.184 429.836, 1018 427.329 C 1008.106 423.875, 1002.374 421.495, 999.846 419.790 C 998.386 418.806, 996.899 418, 996.543 418 C 996.186 418, 994.238 416.875, 992.215 415.500 C 987.401 412.229, 978.850 413.074, 975.999 417.103 C 974.657 419, 961.338 422.467, 945.885 424.941 C 926.427 428.056, 899.209 424.186, 881.189 415.742 C 874.961 412.824, 874.446 413.805, 876.054 425.514 C 878.264 441.616, 875.236 456.309, 866.742 470.693 C 862.040 478.656, 861.099 482.417, 862.971 485.764 C 876.598 510.122, 882.309 536.364, 878.586 557.518 C 875.472 575.211, 874.604 577.715, 864.284 598.776 C 857.252 613.127, 857.052 615.022, 862.091 619.583 C 863.141 620.533, 864 621.915, 864 622.655 C 864 623.395, 864.373 624, 864.829 624 C 865.549 624, 868.662 630.285, 871.020 636.500 C 876.616 651.250, 877.454 678.473, 872.820 695 C 870.642 702.771, 870.307 705.410, 870.980 709.500 C 874.532 731.069, 874.564 751.919, 871.059 760.500 C 870.610 761.600, 869.200 766.015, 867.926 770.312 C 866.652 774.608, 865.247 778.347, 864.805 778.621 C 864.362 778.894, 864 780.216, 864 781.559 C 864 782.902, 863.606 784, 863.125 784 C 860.478 784, 862.246 797.579, 865.290 800.623 C 867.702 803.036, 870.911 799.735, 872.940 792.752 C 876.770 779.574, 888.472 761, 892.944 761 C 893.356 761, 894.640 760.180, 895.796 759.177 C 896.952 758.174, 899.834 756.772, 902.199 756.061 C 910.529 753.557, 911.874 752.786, 913.371 749.658 C 914.740 746.798, 919.070 741.952, 923.789 738 C 930.453 732.419, 944.420 729.171, 954.332 730.897 C 963.667 732.523, 965.710 732.296, 970.326 729.120 C 974.346 726.354, 979.527 723.790, 987 720.868 C 998.081 716.536, 1022.662 720.233, 1037.688 728.493 C 1045.294 732.674, 1045.763 732.707, 1051.788 729.500 C 1054.371 728.125, 1058.063 726.716, 1059.992 726.369 C 1061.922 726.023, 1063.959 725.379, 1064.520 724.938 C 1073.677 717.746, 1109.015 720.108, 1127.324 729.137 C 1133.924 732.392, 1133.924 732.392, 1137.712 730.219 C 1170.594 711.353, 1212.706 711.340, 1242.500 730.186 C 1249.857 734.839, 1249.009 734.849, 1259.260 730 C 1263.912 727.800, 1268.381 726, 1269.192 726 C 1270.003 726, 1270.990 725.677, 1271.385 725.282 C 1277.100 719.566, 1309.533 720.414, 1322.613 726.621 C 1325.384 727.936, 1327.248 728.096, 1331.795 727.412 C 1334.933 726.940, 1344.235 726.531, 1352.467 726.504 C 1369.260 726.448, 1367.911 727.315, 1370.898 714.660 C 1371.527 711.997, 1372.932 707.975, 1374.020 705.722 C 1376.581 700.422, 1376.520 698.957, 1373.422 691.212 C 1367.066 675.324, 1366.692 653.706, 1372.477 636.475 C 1374.803 629.545, 1375.066 624, 1373.069 624 C 1372.676 624, 1370.966 620.962, 1369.268 617.250 C 1357.311 591.097, 1358.732 571.901, 1374.130 551.593 C 1378.509 545.817, 1378.782 543.994, 1376.095 538.433 C 1372.577 531.150, 1370.856 522.622, 1370.289 509.652 C 1369.726 496.771, 1370.251 492.225, 1373.712 480 C 1376.128 471.465, 1376.406 466.254, 1374.665 462.154 C 1370.940 453.379, 1367.723 434.456, 1368.238 424.334 C 1368.587 417.464, 1368.854 417.573, 1354.787 418.893 C 1341.683 420.123, 1330.366 418.969, 1320.749 415.423 C 1311.167 411.890, 1309.230 411.655, 1303.723 413.363 C 1290.074 417.595, 1254.168 419.960, 1246.797 417.113 C 1245.534 416.625, 1242.025 415.685, 1239 415.026 C 1235.975 414.366, 1231.475 412.886, 1229 411.737 C 1222.154 408.560, 1214.943 408.861, 1207 412.657 C 1203.425 414.365, 1199.600 416.002, 1198.500 416.294 C 1197.400 416.586, 1193.800 417.813, 1190.500 419.021 C 1178.526 423.403, 1173.850 424.199, 1159.808 424.245 C 1152.277 424.270, 1144.852 423.831, 1143.308 423.269 C 1141.763 422.708, 1138.025 421.701, 1135 421.033 C 1129.841 419.893, 1121.024 417.053, 1116.500 415.074 C 1115.400 414.593, 1112.475 413.310, 1110 412.224 C 1104.701 409.898, 1100.279 409.014, 1097.500 409.725 M 1647.500 499.228 C 1645.850 499.787, 1642.685 500.864, 1640.467 501.622 C 1635.309 503.384, 1633.474 503.357, 1630.603 501.475 C 1622.363 496.077, 1606.060 499.715, 1593.673 509.717 C 1591.437 511.523, 1589.600 512, 1584.883 512 C 1560.360 512, 1549.151 548.473, 1564.536 578.203 C 1568.011 584.918, 1568.146 592, 1564.799 592 C 1564.360 592, 1564 592.443, 1564 592.984 C 1564 593.525, 1562.632 596.788, 1560.961 600.234 C 1550.073 622.683, 1551.400 663.872, 1563.278 672.106 C 1565.468 673.624, 1565.171 680.527, 1562.701 685.500 C 1556.524 697.936, 1555.638 723.392, 1560.926 736.500 C 1566.919 751.359, 1566.877 749.989, 1561.627 759 C 1559.095 763.344, 1557.188 768.365, 1556.499 772.500 C 1556.132 774.700, 1555.383 777.967, 1554.835 779.761 C 1551.516 790.617, 1556.483 828, 1561.244 828 C 1561.660 828, 1562 828.707, 1562 829.571 C 1562 830.436, 1562.674 831.817, 1563.498 832.641 C 1566.106 835.249, 1566.436 838.915, 1564.324 841.830 C 1555.379 854.183, 1551.335 883.928, 1556.484 899.500 C 1559.065 907.310, 1559.128 913.702, 1556.639 915.522 C 1555.616 916.270, 1553.296 919.721, 1551.484 923.191 C 1548.482 928.937, 1544 932.458, 1544 929.070 C 1544 928.481, 1543.410 928, 1542.688 928 C 1541.966 928, 1539.604 927.151, 1537.438 926.113 C 1529.281 922.206, 1509.862 922.597, 1491.500 927.039 C 1480.373 929.731, 1471.409 930.542, 1468.613 929.108 C 1450.098 919.619, 1410.708 920.708, 1391.029 931.254 C 1378.435 938.003, 1380.080 937.600, 1375.558 935.045 C 1351.354 921.370, 1341.708 919.719, 1320 925.539 C 1311.181 927.904, 1304.863 930.087, 1304 931.069 C 1300.653 934.877, 1292.528 935.516, 1286.500 932.444 C 1272.611 925.365, 1232 922.953, 1232 929.206 C 1232 930.795, 1222.294 930.059, 1220.887 928.364 C 1212.728 918.533, 1180.231 917.404, 1169.921 926.593 C 1169.053 927.367, 1167.660 928, 1166.826 928 C 1165.992 928, 1164.495 928.900, 1163.500 930 C 1161.675 932.016, 1156.577 932.743, 1155.580 931.129 C 1151.032 923.771, 1123.199 917.076, 1113.021 920.892 C 1111.634 921.412, 1109.225 922.117, 1107.667 922.459 C 1106.109 922.800, 1103.080 924.187, 1100.937 925.540 C 1096.187 928.538, 1095.532 928.552, 1086.608 925.840 C 1072.285 921.487, 1049.384 923.163, 1033.385 929.733 C 1027.023 932.345, 1027.023 932.345, 1020.262 930.142 C 1003.244 924.598, 990.437 925.616, 979.227 933.404 C 975.538 935.967, 973.939 936.402, 967.540 936.588 C 958.988 936.836, 953.816 938.265, 949.317 941.624 C 947.566 942.931, 945.849 944, 945.502 944 C 944.341 944, 939.529 950.190, 936.750 955.260 C 933.481 961.223, 932.913 972.153, 935.544 978.451 C 937.547 983.246, 936.705 985.612, 932.502 986.999 C 922.641 990.254, 918.686 1008.006, 924.338 1023.642 C 925.671 1027.331, 925.666 1028.879, 924.289 1037.810 C 919.539 1068.609, 937.303 1094.555, 963.753 1095.455 C 969.497 1095.651, 971.371 1096.110, 972.753 1097.664 C 979.850 1105.635, 1004.229 1112.293, 1007.419 1107.131 C 1007.714 1106.654, 1009.653 1105.984, 1011.728 1105.643 C 1013.803 1105.303, 1017.525 1103.671, 1020 1102.016 C 1025.294 1098.478, 1027.997 1098.235, 1030.560 1101.066 C 1041.248 1112.877, 1061.784 1117.914, 1077 1112.458 C 1082.529 1110.476, 1091 1105.940, 1091 1104.962 C 1091 1102.654, 1096.906 1101.916, 1102.617 1103.511 C 1114.262 1106.763, 1116.632 1107.198, 1125.467 1107.703 C 1134.068 1108.194, 1144.220 1106.809, 1146.450 1104.839 C 1147.736 1103.703, 1152 1103.771, 1152 1104.926 C 1152 1106.551, 1162.396 1111.008, 1169.062 1112.242 C 1186.302 1115.431, 1204.563 1111.220, 1215.489 1101.536 C 1220.430 1097.157, 1220.858 1097.159, 1229.641 1101.610 C 1243.543 1108.655, 1259.467 1110.187, 1275.250 1105.996 C 1282.902 1103.964, 1285.580 1103.172, 1288.782 1101.992 C 1292.855 1100.491, 1295.400 1100.946, 1305.500 1104.985 C 1324.508 1112.586, 1347.731 1108.601, 1362.903 1095.133 C 1365.960 1092.420, 1373.165 1093.461, 1376 1097.024 C 1383.338 1106.250, 1420.718 1105.205, 1433.543 1095.415 C 1438.633 1091.530, 1440.586 1091.259, 1445.220 1093.796 C 1458.799 1101.232, 1483.729 1101.771, 1497.160 1094.918 C 1501.697 1092.604, 1505.794 1092.467, 1508.741 1094.531 C 1509.943 1095.373, 1513.981 1097.198, 1517.713 1098.587 C 1525.303 1101.411, 1527 1103.017, 1527 1107.377 C 1527 1115.316, 1532.950 1131.137, 1538.500 1137.958 C 1546.148 1147.357, 1560.327 1160, 1563.220 1160 C 1566.994 1160, 1571.781 1165.190, 1573.866 1171.543 C 1577.973 1184.053, 1591.389 1199.542, 1602.538 1204.646 C 1608.134 1207.208, 1608.179 1207.279, 1612 1219.233 C 1615.872 1231.350, 1629.920 1242.859, 1642.945 1244.587 C 1648.106 1245.272, 1649.780 1246.279, 1657.491 1253.340 C 1689.610 1282.752, 1746.732 1250.822, 1732.913 1211.180 C 1731.982 1208.509, 1732.212 1207.230, 1734.515 1202.280 C 1742.944 1184.168, 1742.432 1171.612, 1732.616 1155.721 C 1729.664 1150.941, 1729.664 1150.941, 1732.770 1143.721 C 1743.274 1119.304, 1744.357 1107.138, 1738.402 1080.500 C 1738.033 1078.850, 1737.326 1076.985, 1736.831 1076.356 C 1736.336 1075.727, 1734.591 1072.447, 1732.954 1069.067 C 1731.317 1065.687, 1727.058 1058.555, 1723.489 1053.219 C 1716.659 1043.005, 1716.185 1041.651, 1718.332 1038.473 C 1727.665 1024.652, 1728.730 992.294, 1720.449 974.129 C 1717.311 967.247, 1717.366 964.900, 1720.750 961.228 C 1722.263 959.588, 1724.400 957.177, 1725.500 955.872 C 1738.928 939.939, 1740.941 910.706, 1730.242 887 C 1728.877 883.975, 1727.108 880.016, 1726.311 878.203 C 1724.650 874.425, 1725.208 870.536, 1728.279 864.500 C 1735.616 850.076, 1735.690 828.712, 1728.456 813.716 C 1725.515 807.621, 1725.422 805.525, 1727.841 799.833 C 1733.798 785.812, 1736.844 759.897, 1734.285 745 C 1732.855 736.677, 1731.147 732.896, 1724.644 723.662 C 1722.522 720.650, 1722.730 716.999, 1725.565 707.500 C 1727.680 700.412, 1728.090 682.234, 1726.308 674.500 C 1724.512 666.703, 1721.583 656.552, 1720.970 656 C 1717.153 652.561, 1717.057 647.399, 1720.587 635.500 C 1722.698 628.387, 1723.204 606.781, 1721.351 602.904 C 1720.719 601.582, 1719.625 598.925, 1718.921 597 C 1718.216 595.075, 1716.325 591.552, 1714.718 589.172 C 1712.566 585.984, 1711.955 584.140, 1712.398 582.172 C 1719.816 549.239, 1715.882 533.118, 1697.394 520.688 C 1695.136 519.170, 1692.794 516.843, 1692.190 515.517 C 1686.162 502.289, 1663.193 493.916, 1647.500 499.228" stroke="none" fill="#ffffff" fill-rule="evenodd"/><path d="M 1475.272 706.240 C 1471.632 707.409, 1468.011 713.535, 1467.985 718.566 C 1467.966 722.297, 1465.556 732.569, 1463.485 737.746 C 1461.812 741.926, 1458.773 744, 1454.321 744 C 1449.185 744, 1440 753.087, 1440 758.168 C 1440 764.995, 1419.513 768.711, 1399.074 765.591 C 1384.212 763.323, 1384.780 763.203, 1377.848 770.071 C 1365.781 782.026, 1352.264 789.016, 1341.275 788.983 C 1327.613 788.942, 1310.035 783.116, 1305.120 776.999 C 1301.017 771.894, 1295.708 770.260, 1290.414 772.471 C 1288.402 773.312, 1284.313 774, 1281.328 774 C 1276.302 774, 1270.031 776.086, 1269.977 777.776 C 1269.567 790.577, 1234.037 799.696, 1210.053 793.156 C 1198.312 789.954, 1176 792.585, 1176 797.171 C 1176 797.627, 1175.190 798, 1174.200 798 C 1173.210 798, 1171.972 798.420, 1171.450 798.933 C 1165.916 804.366, 1139.399 807.546, 1124 804.622 C 1112.032 802.350, 1087.131 791.498, 1081.194 785.966 C 1077.999 782.990, 1066.331 778, 1062.564 778 C 1058.846 778, 1058.408 778.314, 1046 789.881 C 1030.785 804.066, 991.157 808.277, 974.759 797.453 C 970.662 794.749, 965.361 794.170, 956 795.403 C 944.738 796.888, 943.991 797.391, 938.964 806.879 C 928.948 825.783, 904.448 840, 881.888 840 C 869.217 840, 862.797 848.242, 867.876 857.987 C 871.034 864.045, 868.714 883, 864.815 883 C 864.367 883, 864 883.575, 864 884.277 C 864 885.470, 859.894 890.207, 856.848 892.527 C 849.596 898.052, 842.975 900.950, 837.500 900.996 C 823.570 901.115, 817.908 908.233, 822.539 919.806 C 825.178 926.402, 819.826 935.843, 812.257 937.946 C 806.932 939.424, 805.936 939.303, 800.419 936.504 C 797.714 935.131, 794.323 934.006, 792.885 934.004 C 787.235 933.995, 783.120 928.406, 785.064 923.382 C 785.677 921.797, 786.349 917.919, 786.557 914.764 C 786.764 911.609, 787.624 907.694, 788.467 906.064 C 792.483 898.298, 789.487 892.684, 779.165 888.634 C 773.009 886.219, 760 875.993, 760 873.569 C 760 873.264, 759.020 871.888, 757.822 870.510 C 755.078 867.354, 753.271 862.143, 752.457 855.040 C 750.537 838.293, 744.152 832.751, 735.067 839.947 C 723.292 849.273, 726.724 894.570, 740.230 908.076 C 744.274 912.120, 744.856 915.178, 743.355 924.499 C 738.257 956.153, 747.411 993.709, 760.290 993.983 C 761.121 994.001, 767.141 998.034, 768 999.149 C 775.088 1008.345, 797.245 1008.687, 816.500 999.899 C 818.700 998.895, 824.194 996.918, 828.710 995.506 C 844.269 990.640, 860.272 971.399, 862.546 954.824 C 864.002 944.209, 865.916 941.561, 876 936.213 C 881.497 933.297, 884.454 930.626, 887.286 926.017 C 888.474 924.083, 890.358 921.577, 891.473 920.448 C 899.926 911.891, 908.564 898.066, 913.969 884.443 C 917.299 876.050, 916.698 876.375, 930.246 875.646 C 936.986 875.283, 944.244 874.503, 946.375 873.912 C 948.506 873.321, 951.084 872.676, 952.104 872.480 C 955.130 871.897, 968 865.686, 968 864.809 C 968 864.364, 968.573 864, 969.273 864 C 969.972 864, 973.235 861.483, 976.523 858.406 C 986.913 848.682, 987.569 848.495, 997.422 852.424 C 1019.028 861.042, 1048.695 855.195, 1075.644 837.008 C 1078.095 835.353, 1080.312 834, 1080.572 834 C 1080.831 834, 1082.803 832.835, 1084.955 831.411 C 1090.001 828.072, 1091.772 828.700, 1096.446 835.486 C 1118.842 868.005, 1159.649 874.230, 1195.453 850.591 C 1203.890 845.020, 1204.301 845.002, 1210.885 849.914 C 1224.834 860.322, 1270.509 858.461, 1280 847.099 C 1280.275 846.769, 1282.750 844.938, 1285.500 843.030 C 1288.250 841.121, 1291.391 838.741, 1292.480 837.741 C 1296.005 834.504, 1298.763 834.495, 1303.313 837.707 C 1327.141 854.528, 1366.618 855.515, 1386.261 839.781 C 1392.436 834.835, 1392.556 834.790, 1398 835.394 C 1430.450 838.994, 1445.960 834.844, 1463.012 818 C 1470.794 810.313, 1478.874 797.894, 1479.030 793.377 C 1479.047 792.895, 1481.541 789.800, 1484.573 786.500 C 1494.581 775.607, 1497.909 765.482, 1497.964 745.764 C 1498.029 722.793, 1493.317 709.693, 1483.685 706.061 C 1480.413 704.828, 1479.620 704.845, 1475.272 706.240 M 935.222 989.247 C 925.640 992.921, 921.298 1011.567, 927.384 1022.905 C 928.687 1025.332, 929.025 1027.342, 928.561 1029.905 C 926.536 1041.097, 926.232 1045.815, 927.005 1054.052 C 927.473 1059.040, 928.273 1063.656, 928.783 1064.311 C 929.293 1064.965, 930.209 1066.984, 930.820 1068.798 C 935.089 1081.485, 951.591 1092.998, 965.510 1092.999 C 972.288 1093, 972.653 1093.128, 976.510 1096.856 C 987.583 1107.557, 1008.631 1107.779, 1021.327 1097.327 C 1025.166 1094.167, 1027.939 1094.401, 1032.247 1098.250 C 1038.526 1103.859, 1046.328 1109.116, 1049.241 1109.698 C 1050.781 1110.006, 1052.284 1110.650, 1052.580 1111.129 C 1055.131 1115.257, 1077.390 1110.239, 1088.428 1103.047 C 1095.542 1098.412, 1095.413 1098.423, 1106.500 1101.464 C 1117.311 1104.429, 1120.396 1104.912, 1128.775 1104.956 C 1134.579 1104.987, 1138.749 1104.403, 1142.740 1103 C 1149.983 1100.454, 1153.095 1100.477, 1156.097 1103.098 C 1166.970 1112.588, 1195.258 1112.323, 1208.835 1102.604 C 1221.746 1093.360, 1220.438 1093.692, 1228.323 1097.663 C 1246.661 1106.897, 1269.268 1107.559, 1287.651 1099.399 C 1291.787 1097.563, 1296.378 1097.627, 1300.142 1099.573 C 1320.783 1110.248, 1344.064 1107.860, 1359.741 1093.462 C 1364.550 1089.045, 1367.020 1089.075, 1376.046 1093.661 C 1385.590 1098.509, 1392.508 1100.253, 1404.094 1100.731 C 1417.348 1101.277, 1424.480 1098.884, 1435.327 1090.250 C 1438.433 1087.778, 1441.070 1087.970, 1446.470 1091.062 C 1458.295 1097.834, 1487.146 1098.359, 1496.500 1091.973 C 1501.033 1088.878, 1504.302 1088.960, 1510.947 1092.336 C 1514.576 1094.180, 1519.852 1096.455, 1522.671 1097.391 C 1528.511 1099.331, 1529.470 1100.933, 1530.442 1110.376 C 1532.206 1127.511, 1546.551 1146.915, 1565.378 1157.632 C 1573.930 1162.500, 1573.930 1162.500, 1576.042 1169 C 1580.249 1181.945, 1592.145 1196.016, 1603.899 1201.949 C 1610.557 1205.310, 1611.419 1206.552, 1614.629 1217.415 C 1617.864 1228.359, 1633.984 1242, 1643.682 1242 C 1647.390 1242, 1652.432 1244.586, 1658.605 1249.657 C 1691.697 1276.834, 1732.735 1258.204, 1730.648 1216.951 C 1730.015 1204.451, 1730.061 1204.044, 1732.684 1198.832 C 1739.865 1184.561, 1738.874 1170.639, 1729.750 1157.623 C 1726.379 1152.814, 1726.311 1150.294, 1729.388 1144.217 C 1740.401 1122.459, 1742.354 1092.144, 1733.714 1077.061 C 1732.591 1075.103, 1731.001 1072.150, 1730.179 1070.500 C 1722.153 1054.392, 1707.861 1057.996, 1709.362 1075.749 C 1710.494 1089.143, 1700.300 1102.980, 1689.282 1103.007 C 1679.339 1103.030, 1673.522 1117.040, 1679.118 1127.482 C 1686.121 1140.548, 1685.059 1146.987, 1675.342 1150.369 C 1673.055 1151.165, 1670.243 1152.757, 1669.092 1153.908 C 1666.317 1156.683, 1660.161 1156.731, 1657.230 1154 C 1656.050 1152.900, 1654.792 1152, 1654.436 1152 C 1654.080 1152, 1652.532 1150.942, 1650.996 1149.650 C 1648.620 1147.651, 1646.656 1147.195, 1637.851 1146.597 C 1621.752 1145.505, 1616.105 1140.247, 1619.285 1129.312 C 1620.792 1124.132, 1620.057 1118.869, 1617.415 1115.921 C 1616.637 1115.053, 1616 1114.044, 1616 1113.679 C 1616 1111.852, 1611.411 1108.112, 1608.501 1107.566 C 1606.686 1107.226, 1604.651 1106.284, 1603.978 1105.474 C 1603.305 1104.663, 1602.248 1103.993, 1601.628 1103.985 C 1600.206 1103.967, 1592.677 1093.865, 1589.938 1088.301 C 1588.552 1085.485, 1587.805 1081.820, 1587.670 1077.167 C 1587.476 1070.502, 1587.298 1070.042, 1583.100 1065.366 C 1571.780 1052.758, 1573.418 1053.906, 1564.753 1052.513 C 1557.576 1051.359, 1554.699 1046.694, 1552.919 1033.319 C 1551.604 1023.437, 1549.063 1018.915, 1543.791 1017.077 C 1540.066 1015.779, 1528 1015.637, 1528 1016.892 C 1528 1017.382, 1526.987 1018.045, 1525.750 1018.366 C 1524.513 1018.686, 1521.517 1020.721, 1519.092 1022.888 C 1509.538 1031.429, 1493.299 1032.090, 1485.450 1024.258 C 1479.591 1018.411, 1467.395 1018.667, 1460.133 1024.791 C 1448.515 1034.587, 1423.640 1038.414, 1416.076 1031.569 C 1415.123 1030.706, 1413.920 1030, 1413.404 1030 C 1412.888 1030, 1410.223 1028.082, 1407.483 1025.737 C 1397.442 1017.148, 1381 1015.469, 1381 1023.033 C 1381 1028.071, 1356.671 1034.003, 1348.588 1030.937 C 1341.511 1028.252, 1338.288 1026.570, 1334.500 1023.586 C 1323.923 1015.252, 1317.698 1015.803, 1308.667 1025.869 C 1301.482 1033.879, 1295.152 1040, 1294.056 1040 C 1293.475 1040, 1293 1040.441, 1293 1040.981 C 1293 1041.520, 1291.875 1042.244, 1290.500 1042.589 C 1289.125 1042.934, 1288 1043.576, 1288 1044.015 C 1288 1045.694, 1277.096 1048.270, 1272.769 1047.614 C 1267.388 1046.798, 1256 1042.886, 1256 1041.854 C 1256 1040.090, 1248.300 1039.004, 1243.401 1040.077 C 1240.705 1040.668, 1237.037 1041.391, 1235.250 1041.685 C 1233.463 1041.979, 1232 1042.620, 1232 1043.109 C 1232 1043.599, 1231.410 1044, 1230.689 1044 C 1229.967 1044, 1228.411 1044.900, 1227.230 1046 C 1226.050 1047.100, 1224.666 1048, 1224.156 1048 C 1223.646 1048, 1221.940 1048.672, 1220.364 1049.494 C 1213.734 1052.952, 1205.060 1049.506, 1205.015 1043.396 C 1204.955 1035.161, 1186.848 1031.208, 1179.340 1037.791 C 1178.268 1038.731, 1176.691 1039.950, 1175.836 1040.500 C 1174.980 1041.050, 1173.099 1042.335, 1171.654 1043.356 C 1159.678 1051.819, 1141 1050.891, 1141 1041.834 C 1141 1037.129, 1134.230 1033.222, 1122.854 1031.361 C 1119.548 1030.820, 1113.882 1032.783, 1112 1035.121 C 1104.293 1044.694, 1079.334 1045.335, 1069.981 1036.200 C 1058.787 1025.267, 1051.812 1024.701, 1041.463 1033.887 C 1031.115 1043.073, 1023.786 1044.727, 1009.932 1041.002 C 994.341 1036.809, 988.671 1035.778, 984.603 1036.397 C 982.346 1036.740, 978.916 1037.278, 976.980 1037.593 C 972.050 1038.394, 969.403 1035.434, 969.891 1029.666 C 971.179 1014.430, 969.399 1009.380, 961.338 1005.400 C 955.259 1002.399, 953.439 1000.582, 951.853 995.935 C 949.041 987.699, 944.267 985.779, 935.222 989.247" stroke="none" fill="#d9cbae" fill-rule="evenodd"/><path d="M 880 297.888 C 873.114 299.419, 864 302.457, 864 303.222 C 864 303.650, 863.519 304, 862.930 304 C 861.946 304, 854.123 309.006, 851.285 311.452 C 850.616 312.029, 849.398 313.063, 848.577 313.750 C 845.885 316.005, 842.314 315.147, 838.171 311.250 C 832.013 305.458, 831.399 305.060, 824.740 302.556 C 802.774 294.295, 782.049 300.091, 772.984 317.030 C 771.601 319.614, 769.766 321.944, 764.401 327.928 C 736.448 359.108, 730.970 398.396, 750.711 426.119 C 755.175 432.389, 754.999 436.055, 749.925 442.500 C 747.961 444.996, 742.995 456.256, 741.781 460.971 C 736.859 480.074, 736 486.361, 736 503.266 C 736 522.651, 738.241 539.694, 743.130 557.500 C 743.734 559.700, 744.595 562.400, 745.044 563.500 C 749.019 573.238, 749.042 577.586, 745.149 583.912 C 743.417 586.727, 742 589.661, 742 590.432 C 742 591.203, 741.635 591.983, 741.190 592.167 C 739.938 592.682, 736.958 603.528, 735.327 613.500 C 732.878 628.476, 735.439 651.438, 740.903 663.500 C 748.139 679.473, 749.229 685.789, 745.439 689.794 C 742.011 693.415, 736 703.665, 736 705.887 C 736 706.866, 735.677 707.990, 735.282 708.385 C 726.920 716.747, 730.731 778.013, 741.026 800.719 C 744.284 807.903, 744.710 811.512, 742.656 814.527 C 741.076 816.848, 739.398 821.430, 737.399 828.884 C 736.361 832.755, 734.597 835.755, 731.121 839.558 C 725.502 845.706, 725.027 847.569, 725.011 863.500 C 724.991 884.106, 729.594 900.340, 738.467 910.961 C 742.364 915.625, 742.362 915.595, 739.902 927 C 727.091 986.410, 768.357 1024.094, 821.500 1001.513 C 823.150 1000.812, 828 999.010, 832.278 997.508 C 840.446 994.640, 848.659 988.037, 854.054 980 C 855.346 978.075, 856.665 976.275, 856.984 976 C 858.741 974.485, 863.923 961.434, 865.435 954.716 C 867.510 945.495, 869.918 942.231, 877.234 938.727 C 883.191 935.873, 885.968 933.492, 889.531 928.184 C 890.891 926.158, 895.105 920.766, 898.895 916.203 C 903.763 910.341, 907.921 903.662, 913.058 893.453 C 920.330 879, 920.330 879, 927.055 879 C 947.059 879, 967.046 871.580, 979.822 859.412 C 986.526 853.026, 988.846 852.191, 993.812 854.371 C 1016.116 864.164, 1043.330 860.016, 1072 842.452 C 1089.608 831.664, 1089.910 831.593, 1093.905 837.250 C 1118.069 871.469, 1160.781 877.751, 1198.155 852.582 C 1203.400 849.049, 1203.400 849.049, 1206.450 851.022 C 1229.437 865.888, 1264.028 863.005, 1289.432 844.104 C 1297.283 838.263, 1298.756 837.847, 1302 840.557 C 1304.756 842.859, 1315.721 848, 1317.874 848 C 1319.043 848, 1320 848.388, 1320 848.863 C 1320 850.639, 1339.923 854, 1350.457 854 C 1366.436 854, 1381.363 849.042, 1389.854 840.915 C 1393.208 837.704, 1393.208 837.704, 1402.854 838.962 C 1436.512 843.352, 1466.242 829.181, 1477.596 803.336 C 1481.627 794.159, 1481.838 793.821, 1487.315 787.794 C 1490.167 784.656, 1493.396 780.381, 1494.490 778.294 C 1495.585 776.208, 1496.736 774.275, 1497.049 774 C 1506.280 765.873, 1499.672 711.905, 1488.608 705.067 C 1484.099 702.280, 1483.747 700.994, 1485.637 694.221 C 1491.083 674.704, 1489.279 653.616, 1480.527 634.500 C 1476.008 624.631, 1475.845 622.545, 1479.021 615.250 C 1483.087 605.907, 1484.777 599.770, 1485.966 590.026 C 1487.553 577.018, 1487.209 570.757, 1484.021 554.669 C 1480.954 539.191, 1480.971 535.242, 1484.115 532.396 C 1485.152 531.458, 1486 530.122, 1486 529.428 C 1486 528.734, 1486.382 528.017, 1486.848 527.833 C 1493.969 525.035, 1498.049 488.194, 1492.085 480.539 C 1491.640 479.967, 1490.980 478.262, 1490.619 476.750 C 1490.258 475.238, 1489.520 474, 1488.981 474 C 1488.441 474, 1488 473.294, 1488 472.430 C 1488 471.567, 1486.650 468.898, 1485 466.500 C 1480.851 460.470, 1481.145 458.812, 1487.488 452.468 C 1503.539 436.417, 1504.479 412.697, 1489.925 390.966 C 1486.219 385.432, 1486.219 385.432, 1485.801 369.466 C 1485.404 354.340, 1485.231 353.190, 1482.507 347.608 C 1479.446 341.335, 1469.715 330, 1467.392 330 C 1466.627 330, 1466 329.550, 1466 329 C 1466 328.450, 1465.309 328, 1464.465 328 C 1463.620 328, 1461.751 327.228, 1460.311 326.284 C 1458.337 324.991, 1454.645 324.437, 1445.308 324.034 C 1437.460 323.696, 1432.659 323.071, 1432.202 322.329 C 1427.895 315.344, 1392 312.505, 1392 319.149 C 1392 321.040, 1384.703 319.819, 1379.156 317 C 1369.806 312.248, 1350.763 312.931, 1340.200 318.396 C 1336.163 320.484, 1334.386 319.987, 1329.947 315.527 C 1328.051 313.622, 1326.182 312.049, 1325.794 312.032 C 1325.406 312.014, 1323.520 310.935, 1321.602 309.634 C 1313.514 304.145, 1294.475 301.787, 1284.372 305.023 C 1277.247 307.304, 1272.524 309.403, 1269.500 311.633 C 1264.578 315.261, 1261.838 315.458, 1256.180 312.591 C 1236.964 302.854, 1207.400 302.870, 1194.317 312.626 C 1190.387 315.557, 1186.178 315.642, 1180.803 312.899 C 1161.616 303.111, 1117.216 303.758, 1099.269 314.088 C 1095.340 316.349, 1095.340 316.349, 1088.450 313.591 C 1069.033 305.817, 1043.401 306.682, 1025.582 315.712 C 1020.630 318.221, 1020.630 318.221, 1014.065 314.700 C 998.967 306.601, 970.321 304.503, 955 310.374 C 943.486 314.786, 943.480 314.785, 935.102 308.518 C 922.688 299.233, 896.596 294.199, 880 297.888 M 1097.500 409.725 C 1096.400 410.007, 1093.925 411.457, 1092 412.948 C 1087.377 416.529, 1078.483 421.496, 1073.500 423.280 C 1059.950 428.130, 1056.700 429.024, 1049.345 429.923 C 1040.014 431.064, 1025.184 429.836, 1018 427.329 C 1008.106 423.875, 1002.374 421.495, 999.846 419.790 C 998.386 418.806, 996.899 418, 996.543 418 C 996.186 418, 994.238 416.875, 992.215 415.500 C 987.401 412.229, 978.850 413.074, 975.999 417.103 C 974.657 419, 961.338 422.467, 945.885 424.941 C 926.427 428.056, 899.209 424.186, 881.189 415.742 C 874.961 412.824, 874.446 413.805, 876.054 425.514 C 878.264 441.616, 875.236 456.309, 866.742 470.693 C 862.040 478.656, 861.099 482.417, 862.971 485.764 C 876.598 510.122, 882.309 536.364, 878.586 557.518 C 875.472 575.211, 874.604 577.715, 864.284 598.776 C 857.252 613.127, 857.052 615.022, 862.091 619.583 C 863.141 620.533, 864 621.915, 864 622.655 C 864 623.395, 864.373 624, 864.829 624 C 865.549 624, 868.662 630.285, 871.020 636.500 C 876.616 651.250, 877.454 678.473, 872.820 695 C 870.642 702.771, 870.307 705.410, 870.980 709.500 C 874.532 731.069, 874.564 751.919, 871.059 760.500 C 870.610 761.600, 869.200 766.015, 867.926 770.312 C 866.652 774.608, 865.247 778.347, 864.805 778.621 C 864.362 778.894, 864 780.216, 864 781.559 C 864 782.902, 863.606 784, 863.125 784 C 860.478 784, 862.246 797.579, 865.290 800.623 C 867.702 803.036, 870.911 799.735, 872.940 792.752 C 876.770 779.574, 888.472 761, 892.944 761 C 893.356 761, 894.640 760.180, 895.796 759.177 C 896.952 758.174, 899.834 756.772, 902.199 756.061 C 910.529 753.557, 911.874 752.786, 913.371 749.658 C 914.740 746.798, 919.070 741.952, 923.789 738 C 930.453 732.419, 944.420 729.171, 954.332 730.897 C 963.667 732.523, 965.710 732.296, 970.326 729.120 C 974.346 726.354, 979.527 723.790, 987 720.868 C 998.081 716.536, 1022.662 720.233, 1037.688 728.493 C 1045.294 732.674, 1045.763 732.707, 1051.788 729.500 C 1054.371 728.125, 1058.063 726.716, 1059.992 726.369 C 1061.922 726.023, 1063.959 725.379, 1064.520 724.938 C 1073.677 717.746, 1109.015 720.108, 1127.324 729.137 C 1133.924 732.392, 1133.924 732.392, 1137.712 730.219 C 1170.594 711.353, 1212.706 711.340, 1242.500 730.186 C 1249.857 734.839, 1249.009 734.849, 1259.260 730 C 1263.912 727.800, 1268.381 726, 1269.192 726 C 1270.003 726, 1270.990 725.677, 1271.385 725.282 C 1277.100 719.566, 1309.533 720.414, 1322.613 726.621 C 1325.384 727.936, 1327.248 728.096, 1331.795 727.412 C 1334.933 726.940, 1344.235 726.531, 1352.467 726.504 C 1369.260 726.448, 1367.911 727.315, 1370.898 714.660 C 1371.527 711.997, 1372.932 707.975, 1374.020 705.722 C 1376.581 700.422, 1376.520 698.957, 1373.422 691.212 C 1367.066 675.324, 1366.692 653.706, 1372.477 636.475 C 1374.803 629.545, 1375.066 624, 1373.069 624 C 1372.676 624, 1370.966 620.962, 1369.268 617.250 C 1357.311 591.097, 1358.732 571.901, 1374.130 551.593 C 1378.509 545.817, 1378.782 543.994, 1376.095 538.433 C 1372.577 531.150, 1370.856 522.622, 1370.289 509.652 C 1369.726 496.771, 1370.251 492.225, 1373.712 480 C 1376.128 471.465, 1376.406 466.254, 1374.665 462.154 C 1370.940 453.379, 1367.723 434.456, 1368.238 424.334 C 1368.587 417.464, 1368.854 417.573, 1354.787 418.893 C 1341.683 420.123, 1330.366 418.969, 1320.749 415.423 C 1311.167 411.890, 1309.230 411.655, 1303.723 413.363 C 1290.074 417.595, 1254.168 419.960, 1246.797 417.113 C 1245.534 416.625, 1242.025 415.685, 1239 415.026 C 1235.975 414.366, 1231.475 412.886, 1229 411.737 C 1222.154 408.560, 1214.943 408.861, 1207 412.657 C 1203.425 414.365, 1199.600 416.002, 1198.500 416.294 C 1197.400 416.586, 1193.800 417.813, 1190.500 419.021 C 1178.526 423.403, 1173.850 424.199, 1159.808 424.245 C 1152.277 424.270, 1144.852 423.831, 1143.308 423.269 C 1141.763 422.708, 1138.025 421.701, 1135 421.033 C 1129.841 419.893, 1121.024 417.053, 1116.500 415.074 C 1115.400 414.593, 1112.475 413.310, 1110 412.224 C 1104.701 409.898, 1100.279 409.014, 1097.500 409.725 M 1647.500 499.228 C 1645.850 499.787, 1642.685 500.864, 1640.467 501.622 C 1635.309 503.384, 1633.474 503.357, 1630.603 501.475 C 1622.363 496.077, 1606.060 499.715, 1593.673 509.717 C 1591.437 511.523, 1589.600 512, 1584.883 512 C 1560.360 512, 1549.151 548.473, 1564.536 578.203 C 1568.011 584.918, 1568.146 592, 1564.799 592 C 1564.360 592, 1564 592.443, 1564 592.984 C 1564 593.525, 1562.632 596.788, 1560.961 600.234 C 1550.073 622.683, 1551.400 663.872, 1563.278 672.106 C 1565.468 673.624, 1565.171 680.527, 1562.701 685.500 C 1556.524 697.936, 1555.638 723.392, 1560.926 736.500 C 1566.919 751.359, 1566.877 749.989, 1561.627 759 C 1559.095 763.344, 1557.188 768.365, 1556.499 772.500 C 1556.132 774.700, 1555.383 777.967, 1554.835 779.761 C 1551.516 790.617, 1556.483 828, 1561.244 828 C 1561.660 828, 1562 828.707, 1562 829.571 C 1562 830.436, 1562.674 831.817, 1563.498 832.641 C 1566.106 835.249, 1566.436 838.915, 1564.324 841.830 C 1555.379 854.183, 1551.335 883.928, 1556.484 899.500 C 1559.065 907.310, 1559.128 913.702, 1556.639 915.522 C 1555.616 916.270, 1553.296 919.721, 1551.484 923.191 C 1548.482 928.937, 1544 932.458, 1544 929.070 C 1544 928.481, 1543.410 928, 1542.688 928 C 1541.966 928, 1539.604 927.151, 1537.438 926.113 C 1529.281 922.206, 1509.862 922.597, 1491.500 927.039 C 1480.373 929.731, 1471.409 930.542, 1468.613 929.108 C 1450.098 919.619, 1410.708 920.708, 1391.029 931.254 C 1378.435 938.003, 1380.080 937.600, 1375.558 935.045 C 1351.354 921.370, 1341.708 919.719, 1320 925.539 C 1311.181 927.904, 1304.863 930.087, 1304 931.069 C 1300.653 934.877, 1292.528 935.516, 1286.500 932.444 C 1272.611 925.365, 1232 922.953, 1232 929.206 C 1232 930.795, 1222.294 930.059, 1220.887 928.364 C 1212.728 918.533, 1180.231 917.404, 1169.921 926.593 C 1169.053 927.367, 1167.660 928, 1166.826 928 C 1165.992 928, 1164.495 928.900, 1163.500 930 C 1161.675 932.016, 1156.577 932.743, 1155.580 931.129 C 1151.032 923.771, 1123.199 917.076, 1113.021 920.892 C 1111.634 921.412, 1109.225 922.117, 1107.667 922.459 C 1106.109 922.800, 1103.080 924.187, 1100.937 925.540 C 1096.187 928.538, 1095.532 928.552, 1086.608 925.840 C 1072.285 921.487, 1049.384 923.163, 1033.385 929.733 C 1027.023 932.345, 1027.023 932.345, 1020.262 930.142 C 1003.244 924.598, 990.437 925.616, 979.227 933.404 C 975.538 935.967, 973.939 936.402, 967.540 936.588 C 958.988 936.836, 953.816 938.265, 949.317 941.624 C 947.566 942.931, 945.849 944, 945.502 944 C 944.341 944, 939.529 950.190, 936.750 955.260 C 933.481 961.223, 932.913 972.153, 935.544 978.451 C 937.547 983.246, 936.705 985.612, 932.502 986.999 C 922.641 990.254, 918.686 1008.006, 924.338 1023.642 C 925.671 1027.331, 925.666 1028.879, 924.289 1037.810 C 919.539 1068.609, 937.303 1094.555, 963.753 1095.455 C 969.497 1095.651, 971.371 1096.110, 972.753 1097.664 C 979.850 1105.635, 1004.229 1112.293, 1007.419 1107.131 C 1007.714 1106.654, 1009.653 1105.984, 1011.728 1105.643 C 1013.803 1105.303, 1017.525 1103.671, 1020 1102.016 C 1025.294 1098.478, 1027.997 1098.235, 1030.560 1101.066 C 1041.248 1112.877, 1061.784 1117.914, 1077 1112.458 C 1082.529 1110.476, 1091 1105.940, 1091 1104.962 C 1091 1102.654, 1096.906 1101.916, 1102.617 1103.511 C 1114.262 1106.763, 1116.632 1107.198, 1125.467 1107.703 C 1134.068 1108.194, 1144.220 1106.809, 1146.450 1104.839 C 1147.736 1103.703, 1152 1103.771, 1152 1104.926 C 1152 1106.551, 1162.396 1111.008, 1169.062 1112.242 C 1186.302 1115.431, 1204.563 1111.220, 1215.489 1101.536 C 1220.430 1097.157, 1220.858 1097.159, 1229.641 1101.610 C 1243.543 1108.655, 1259.467 1110.187, 1275.250 1105.996 C 1282.902 1103.964, 1285.580 1103.172, 1288.782 1101.992 C 1292.855 1100.491, 1295.400 1100.946, 1305.500 1104.985 C 1324.508 1112.586, 1347.731 1108.601, 1362.903 1095.133 C 1365.960 1092.420, 1373.165 1093.461, 1376 1097.024 C 1383.338 1106.250, 1420.718 1105.205, 1433.543 1095.415 C 1438.633 1091.530, 1440.586 1091.259, 1445.220 1093.796 C 1458.799 1101.232, 1483.729 1101.771, 1497.160 1094.918 C 1501.697 1092.604, 1505.794 1092.467, 1508.741 1094.531 C 1509.943 1095.373, 1513.981 1097.198, 1517.713 1098.587 C 1525.303 1101.411, 1527 1103.017, 1527 1107.377 C 1527 1115.316, 1532.950 1131.137, 1538.500 1137.958 C 1546.148 1147.357, 1560.327 1160, 1563.220 1160 C 1566.994 1160, 1571.781 1165.190, 1573.866 1171.543 C 1577.973 1184.053, 1591.389 1199.542, 1602.538 1204.646 C 1608.134 1207.208, 1608.179 1207.279, 1612 1219.233 C 1615.872 1231.350, 1629.920 1242.859, 1642.945 1244.587 C 1648.106 1245.272, 1649.780 1246.279, 1657.491 1253.340 C 1689.610 1282.752, 1746.732 1250.822, 1732.913 1211.180 C 1731.982 1208.509, 1732.212 1207.230, 1734.515 1202.280 C 1742.944 1184.168, 1742.432 1171.612, 1732.616 1155.721 C 1729.664 1150.941, 1729.664 1150.941, 1732.770 1143.721 C 1743.274 1119.304, 1744.357 1107.138, 1738.402 1080.500 C 1738.033 1078.850, 1737.326 1076.985, 1736.831 1076.356 C 1736.336 1075.727, 1734.591 1072.447, 1732.954 1069.067 C 1731.317 1065.687, 1727.058 1058.555, 1723.489 1053.219 C 1716.659 1043.005, 1716.185 1041.651, 1718.332 1038.473 C 1727.665 1024.652, 1728.730 992.294, 1720.449 974.129 C 1717.311 967.247, 1717.366 964.900, 1720.750 961.228 C 1722.263 959.588, 1724.400 957.177, 1725.500 955.872 C 1738.928 939.939, 1740.941 910.706, 1730.242 887 C 1728.877 883.975, 1727.108 880.016, 1726.311 878.203 C 1724.650 874.425, 1725.208 870.536, 1728.279 864.500 C 1735.616 850.076, 1735.690 828.712, 1728.456 813.716 C 1725.515 807.621, 1725.422 805.525, 1727.841 799.833 C 1733.798 785.812, 1736.844 759.897, 1734.285 745 C 1732.855 736.677, 1731.147 732.896, 1724.644 723.662 C 1722.522 720.650, 1722.730 716.999, 1725.565 707.500 C 1727.680 700.412, 1728.090 682.234, 1726.308 674.500 C 1724.512 666.703, 1721.583 656.552, 1720.970 656 C 1717.153 652.561, 1717.057 647.399, 1720.587 635.500 C 1722.698 628.387, 1723.204 606.781, 1721.351 602.904 C 1720.719 601.582, 1719.625 598.925, 1718.921 597 C 1718.216 595.075, 1716.325 591.552, 1714.718 589.172 C 1712.566 585.984, 1711.955 584.140, 1712.398 582.172 C 1719.816 549.239, 1715.882 533.118, 1697.394 520.688 C 1695.136 519.170, 1692.794 516.843, 1692.190 515.517 C 1686.162 502.289, 1663.193 493.916, 1647.500 499.228 M 1475.272 706.240 C 1471.632 707.409, 1468.011 713.535, 1467.985 718.566 C 1467.966 722.297, 1465.556 732.569, 1463.485 737.746 C 1461.812 741.926, 1458.773 744, 1454.321 744 C 1449.185 744, 1440 753.087, 1440 758.168 C 1440 764.995, 1419.513 768.711, 1399.074 765.591 C 1384.212 763.323, 1384.780 763.203, 1377.848 770.071 C 1365.781 782.026, 1352.264 789.016, 1341.275 788.983 C 1327.613 788.942, 1310.035 783.116, 1305.120 776.999 C 1301.017 771.894, 1295.708 770.260, 1290.414 772.471 C 1288.402 773.312, 1284.313 774, 1281.328 774 C 1276.302 774, 1270.031 776.086, 1269.977 777.776 C 1269.567 790.577, 1234.037 799.696, 1210.053 793.156 C 1198.312 789.954, 1176 792.585, 1176 797.171 C 1176 797.627, 1175.190 798, 1174.200 798 C 1173.210 798, 1171.972 798.420, 1171.450 798.933 C 1165.916 804.366, 1139.399 807.546, 1124 804.622 C 1112.032 802.350, 1087.131 791.498, 1081.194 785.966 C 1077.999 782.990, 1066.331 778, 1062.564 778 C 1058.846 778, 1058.408 778.314, 1046 789.881 C 1030.785 804.066, 991.157 808.277, 974.759 797.453 C 970.662 794.749, 965.361 794.170, 956 795.403 C 944.738 796.888, 943.991 797.391, 938.964 806.879 C 928.948 825.783, 904.448 840, 881.888 840 C 869.217 840, 862.797 848.242, 867.876 857.987 C 871.034 864.045, 868.714 883, 864.815 883 C 864.367 883, 864 883.575, 864 884.277 C 864 885.470, 859.894 890.207, 856.848 892.527 C 849.596 898.052, 842.975 900.950, 837.500 900.996 C 823.570 901.115, 817.908 908.233, 822.539 919.806 C 825.178 926.402, 819.826 935.843, 812.257 937.946 C 806.932 939.424, 805.936 939.303, 800.419 936.504 C 797.714 935.131, 794.323 934.006, 792.885 934.004 C 787.235 933.995, 783.120 928.406, 785.064 923.382 C 785.677 921.797, 786.349 917.919, 786.557 914.764 C 786.764 911.609, 787.624 907.694, 788.467 906.064 C 792.483 898.298, 789.487 892.684, 779.165 888.634 C 773.009 886.219, 760 875.993, 760 873.569 C 760 873.264, 759.020 871.888, 757.822 870.510 C 755.078 867.354, 753.271 862.143, 752.457 855.040 C 750.537 838.293, 744.152 832.751, 735.067 839.947 C 723.292 849.273, 726.724 894.570, 740.230 908.076 C 744.274 912.120, 744.856 915.178, 743.355 924.499 C 738.257 956.153, 747.411 993.709, 760.290 993.983 C 761.121 994.001, 767.141 998.034, 768 999.149 C 775.088 1008.345, 797.245 1008.687, 816.500 999.899 C 818.700 998.895, 824.194 996.918, 828.710 995.506 C 844.269 990.640, 860.272 971.399, 862.546 954.824 C 864.002 944.209, 865.916 941.561, 876 936.213 C 881.497 933.297, 884.454 930.626, 887.286 926.017 C 888.474 924.083, 890.358 921.577, 891.473 920.448 C 899.926 911.891, 908.564 898.066, 913.969 884.443 C 917.299 876.050, 916.698 876.375, 930.246 875.646 C 936.986 875.283, 944.244 874.503, 946.375 873.912 C 948.506 873.321, 951.084 872.676, 952.104 872.480 C 955.130 871.897, 968 865.686, 968 864.809 C 968 864.364, 968.573 864, 969.273 864 C 969.972 864, 973.235 861.483, 976.523 858.406 C 986.913 848.682, 987.569 848.495, 997.422 852.424 C 1019.028 861.042, 1048.695 855.195, 1075.644 837.008 C 1078.095 835.353, 1080.312 834, 1080.572 834 C 1080.831 834, 1082.803 832.835, 1084.955 831.411 C 1090.001 828.072, 1091.772 828.700, 1096.446 835.486 C 1118.842 868.005, 1159.649 874.230, 1195.453 850.591 C 1203.890 845.020, 1204.301 845.002, 1210.885 849.914 C 1224.834 860.322, 1270.509 858.461, 1280 847.099 C 1280.275 846.769, 1282.750 844.938, 1285.500 843.030 C 1288.250 841.121, 1291.391 838.741, 1292.480 837.741 C 1296.005 834.504, 1298.763 834.495, 1303.313 837.707 C 1327.141 854.528, 1366.618 855.515, 1386.261 839.781 C 1392.436 834.835, 1392.556 834.790, 1398 835.394 C 1430.450 838.994, 1445.960 834.844, 1463.012 818 C 1470.794 810.313, 1478.874 797.894, 1479.030 793.377 C 1479.047 792.895, 1481.541 789.800, 1484.573 786.500 C 1494.581 775.607, 1497.909 765.482, 1497.964 745.764 C 1498.029 722.793, 1493.317 709.693, 1483.685 706.061 C 1480.413 704.828, 1479.620 704.845, 1475.272 706.240 M 935.222 989.247 C 925.640 992.921, 921.298 1011.567, 927.384 1022.905 C 928.687 1025.332, 929.025 1027.342, 928.561 1029.905 C 926.536 1041.097, 926.232 1045.815, 927.005 1054.052 C 927.473 1059.040, 928.273 1063.656, 928.783 1064.311 C 929.293 1064.965, 930.209 1066.984, 930.820 1068.798 C 935.089 1081.485, 951.591 1092.998, 965.510 1092.999 C 972.288 1093, 972.653 1093.128, 976.510 1096.856 C 987.583 1107.557, 1008.631 1107.779, 1021.327 1097.327 C 1025.166 1094.167, 1027.939 1094.401, 1032.247 1098.250 C 1038.526 1103.859, 1046.328 1109.116, 1049.241 1109.698 C 1050.781 1110.006, 1052.284 1110.650, 1052.580 1111.129 C 1055.131 1115.257, 1077.390 1110.239, 1088.428 1103.047 C 1095.542 1098.412, 1095.413 1098.423, 1106.500 1101.464 C 1117.311 1104.429, 1120.396 1104.912, 1128.775 1104.956 C 1134.579 1104.987, 1138.749 1104.403, 1142.740 1103 C 1149.983 1100.454, 1153.095 1100.477, 1156.097 1103.098 C 1166.970 1112.588, 1195.258 1112.323, 1208.835 1102.604 C 1221.746 1093.360, 1220.438 1093.692, 1228.323 1097.663 C 1246.661 1106.897, 1269.268 1107.559, 1287.651 1099.399 C 1291.787 1097.563, 1296.378 1097.627, 1300.142 1099.573 C 1320.783 1110.248, 1344.064 1107.860, 1359.741 1093.462 C 1364.550 1089.045, 1367.020 1089.075, 1376.046 1093.661 C 1385.590 1098.509, 1392.508 1100.253, 1404.094 1100.731 C 1417.348 1101.277, 1424.480 1098.884, 1435.327 1090.250 C 1438.433 1087.778, 1441.070 1087.970, 1446.470 1091.062 C 1458.295 1097.834, 1487.146 1098.359, 1496.500 1091.973 C 1501.033 1088.878, 1504.302 1088.960, 1510.947 1092.336 C 1514.576 1094.180, 1519.852 1096.455, 1522.671 1097.391 C 1528.511 1099.331, 1529.470 1100.933, 1530.442 1110.376 C 1532.206 1127.511, 1546.551 1146.915, 1565.378 1157.632 C 1573.930 1162.500, 1573.930 1162.500, 1576.042 1169 C 1580.249 1181.945, 1592.145 1196.016, 1603.899 1201.949 C 1610.557 1205.310, 1611.419 1206.552, 1614.629 1217.415 C 1617.864 1228.359, 1633.984 1242, 1643.682 1242 C 1647.390 1242, 1652.432 1244.586, 1658.605 1249.657 C 1691.697 1276.834, 1732.735 1258.204, 1730.648 1216.951 C 1730.015 1204.451, 1730.061 1204.044, 1732.684 1198.832 C 1739.865 1184.561, 1738.874 1170.639, 1729.750 1157.623 C 1726.379 1152.814, 1726.311 1150.294, 1729.388 1144.217 C 1740.401 1122.459, 1742.354 1092.144, 1733.714 1077.061 C 1732.591 1075.103, 1731.001 1072.150, 1730.179 1070.500 C 1722.153 1054.392, 1707.861 1057.996, 1709.362 1075.749 C 1710.494 1089.143, 1700.300 1102.980, 1689.282 1103.007 C 1679.339 1103.030, 1673.522 1117.040, 1679.118 1127.482 C 1686.121 1140.548, 1685.059 1146.987, 1675.342 1150.369 C 1673.055 1151.165, 1670.243 1152.757, 1669.092 1153.908 C 1666.317 1156.683, 1660.161 1156.731, 1657.230 1154 C 1656.050 1152.900, 1654.792 1152, 1654.436 1152 C 1654.080 1152, 1652.532 1150.942, 1650.996 1149.650 C 1648.620 1147.651, 1646.656 1147.195, 1637.851 1146.597 C 1621.752 1145.505, 1616.105 1140.247, 1619.285 1129.312 C 1620.792 1124.132, 1620.057 1118.869, 1617.415 1115.921 C 1616.637 1115.053, 1616 1114.044, 1616 1113.679 C 1616 1111.852, 1611.411 1108.112, 1608.501 1107.566 C 1606.686 1107.226, 1604.651 1106.284, 1603.978 1105.474 C 1603.305 1104.663, 1602.248 1103.993, 1601.628 1103.985 C 1600.206 1103.967, 1592.677 1093.865, 1589.938 1088.301 C 1588.552 1085.485, 1587.805 1081.820, 1587.670 1077.167 C 1587.476 1070.502, 1587.298 1070.042, 1583.100 1065.366 C 1571.780 1052.758, 1573.418 1053.906, 1564.753 1052.513 C 1557.576 1051.359, 1554.699 1046.694, 1552.919 1033.319 C 1551.604 1023.437, 1549.063 1018.915, 1543.791 1017.077 C 1540.066 1015.779, 1528 1015.637, 1528 1016.892 C 1528 1017.382, 1526.987 1018.045, 1525.750 1018.366 C 1524.513 1018.686, 1521.517 1020.721, 1519.092 1022.888 C 1509.538 1031.429, 1493.299 1032.090, 1485.450 1024.258 C 1479.591 1018.411, 1467.395 1018.667, 1460.133 1024.791 C 1448.515 1034.587, 1423.640 1038.414, 1416.076 1031.569 C 1415.123 1030.706, 1413.920 1030, 1413.404 1030 C 1412.888 1030, 1410.223 1028.082, 1407.483 1025.737 C 1397.442 1017.148, 1381 1015.469, 1381 1023.033 C 1381 1028.071, 1356.671 1034.003, 1348.588 1030.937 C 1341.511 1028.252, 1338.288 1026.570, 1334.500 1023.586 C 1323.923 1015.252, 1317.698 1015.803, 1308.667 1025.869 C 1301.482 1033.879, 1295.152 1040, 1294.056 1040 C 1293.475 1040, 1293 1040.441, 1293 1040.981 C 1293 1041.520, 1291.875 1042.244, 1290.500 1042.589 C 1289.125 1042.934, 1288 1043.576, 1288 1044.015 C 1288 1045.694, 1277.096 1048.270, 1272.769 1047.614 C 1267.388 1046.798, 1256 1042.886, 1256 1041.854 C 1256 1040.090, 1248.300 1039.004, 1243.401 1040.077 C 1240.705 1040.668, 1237.037 1041.391, 1235.250 1041.685 C 1233.463 1041.979, 1232 1042.620, 1232 1043.109 C 1232 1043.599, 1231.410 1044, 1230.689 1044 C 1229.967 1044, 1228.411 1044.900, 1227.230 1046 C 1226.050 1047.100, 1224.666 1048, 1224.156 1048 C 1223.646 1048, 1221.940 1048.672, 1220.364 1049.494 C 1213.734 1052.952, 1205.060 1049.506, 1205.015 1043.396 C 1204.955 1035.161, 1186.848 1031.208, 1179.340 1037.791 C 1178.268 1038.731, 1176.691 1039.950, 1175.836 1040.500 C 1174.980 1041.050, 1173.099 1042.335, 1171.654 1043.356 C 1159.678 1051.819, 1141 1050.891, 1141 1041.834 C 1141 1037.129, 1134.230 1033.222, 1122.854 1031.361 C 1119.548 1030.820, 1113.882 1032.783, 1112 1035.121 C 1104.293 1044.694, 1079.334 1045.335, 1069.981 1036.200 C 1058.787 1025.267, 1051.812 1024.701, 1041.463 1033.887 C 1031.115 1043.073, 1023.786 1044.727, 1009.932 1041.002 C 994.341 1036.809, 988.671 1035.778, 984.603 1036.397 C 982.346 1036.740, 978.916 1037.278, 976.980 1037.593 C 972.050 1038.394, 969.403 1035.434, 969.891 1029.666 C 971.179 1014.430, 969.399 1009.380, 961.338 1005.400 C 955.259 1002.399, 953.439 1000.582, 951.853 995.935 C 949.041 987.699, 944.267 985.779, 935.222 989.247" stroke="none" fill="#eddebe" fill-rule="evenodd"/></svg>