<svg xmlns="http://www.w3.org/2000/svg" width="2160" height="1620" viewBox="0 0 2160 1620" version="1.1"><path d="M 1141 269.639 C 1125.461 272.043, 1110.158 280.801, 1094.607 296.189 C 1090.266 300.485, 1086.351 304, 1085.908 304 C 1085.464 304, 1083.844 305.688, 1082.307 307.750 C 1080.769 309.813, 1079.262 311.725, 1078.958 312 C 1078.653 312.275, 1077.317 314.075, 1075.989 316 C 1072.098 321.638, 1071.327 321.934, 1060.434 321.968 C 1054.897 321.986, 1047.705 322.492, 1044.451 323.094 C 1039.126 324.078, 1026.245 329.800, 1023.373 332.457 C 1022.752 333.031, 1021.203 334.175, 1019.929 335 C 1015.204 338.061, 1002.458 351.724, 999.229 357.189 C 997.339 360.389, 992.654 362.785, 982 366 C 972.543 368.855, 961.603 372.655, 957.027 374.675 C 949.172 378.142, 944.482 380.540, 944.167 381.250 C 943.983 381.663, 943.374 382, 942.812 382 C 942.250 382, 939.790 383.350, 937.345 385 C 934.900 386.650, 932.500 388, 932.012 388 C 931.523 388, 929.645 389.350, 927.839 391 C 926.032 392.650, 924.210 394, 923.789 394 C 922.912 394, 920.790 395.687, 913.860 401.891 C 908.626 406.577, 899.712 418.182, 898.561 421.808 C 898.178 423.014, 897.446 424, 896.933 424 C 896.420 424, 896 424.681, 896 425.514 C 896 428.170, 891.122 435, 889.225 435 C 883.773 435, 864.652 439.143, 854.444 442.537 C 839.139 447.624, 819.211 457.247, 816 461.100 C 815.725 461.430, 814.940 461.880, 814.255 462.100 C 809.881 463.505, 787.677 484.293, 786.462 488.121 C 786.134 489.154, 785.446 490, 784.933 490 C 784.420 490, 784 490.481, 784 491.070 C 784 492.583, 777.952 501.300, 776.069 502.500 C 774.662 503.397, 767.804 505.671, 759.500 507.996 C 746.122 511.740, 730.416 518.236, 724.303 522.553 C 716.614 527.983, 704 540.424, 704 542.578 C 704 543.360, 703.647 544, 703.216 544 C 702.784 544, 701.601 545.406, 700.586 547.124 C 698.696 550.322, 691.081 558, 689.798 558 C 689.405 558, 687.845 560.138, 686.329 562.750 C 684.814 565.362, 683.220 567.650, 682.787 567.833 C 682.354 568.017, 682 568.584, 682 569.094 C 682 569.604, 681.142 571.929, 680.094 574.261 C 677.677 579.636, 675.264 590.467, 674.461 599.546 C 673.776 607.292, 675.029 615.999, 678.235 625.764 C 680.236 631.861, 680.243 632.135, 678.494 636.014 C 677.505 638.206, 676.408 640, 676.055 640 C 675.522 640, 673.955 644.286, 671.304 653 C 669.551 658.760, 668 675.827, 668 689.353 C 668 709.778, 669.545 719.181, 675.156 732.900 C 677.959 739.752, 678.147 740.974, 677.694 749.400 C 677.426 754.405, 676.545 761.650, 675.738 765.500 C 671.146 787.401, 669.311 810.536, 670.975 825.545 C 671.643 831.570, 672.790 838.525, 673.525 841 C 674.260 843.475, 675.641 848.200, 676.595 851.500 C 677.548 854.800, 678.631 857.950, 679.001 858.500 C 679.370 859.050, 680.709 862.113, 681.976 865.307 C 684.776 872.368, 684.374 879.649, 680.574 890.700 C 677.236 900.408, 676.479 913.317, 677.956 935.353 C 679.491 958.246, 681.411 968.832, 685.419 976.500 C 687.557 980.589, 687.473 981.081, 683.689 986.638 C 679.588 992.662, 675.254 1005.642, 673.948 1015.814 C 671.995 1031.023, 675.086 1050.157, 681.686 1063.707 C 683.616 1067.670, 685.039 1071.270, 684.848 1071.707 C 684.656 1072.143, 682.777 1075.532, 680.671 1079.237 C 675.364 1088.575, 673.628 1098.690, 675.074 1111.843 C 676.752 1127.108, 678.524 1133.787, 684.008 1145.518 C 687.385 1152.740, 687.455 1153.272, 685.819 1159.387 C 683.275 1168.900, 689.300 1181.590, 698.268 1185.609 C 702.174 1187.359, 705.099 1187.487, 737.494 1187.329 C 756.747 1187.235, 795.450 1186.641, 823.500 1186.009 C 851.550 1185.377, 893.679 1184.523, 917.120 1184.111 L 959.741 1183.362 965.120 1180.727 C 968.833 1178.910, 971.374 1176.762, 973.321 1173.797 C 975.943 1169.804, 976.100 1169.004, 975.547 1162.500 C 974.693 1152.443, 974.696 1152.293, 975.997 1143.500 C 977.624 1132.504, 976.485 1113.204, 973.446 1100.247 C 971.122 1090.341, 971.080 1089.479, 972.201 1074.747 C 973.365 1059.444, 973.207 1057.051, 970.078 1042.657 C 969.272 1038.948, 969.389 1035.438, 970.579 1027.657 C 972.708 1013.741, 972.680 996.413, 970.513 987 C 967.887 975.589, 967.694 971.121, 969.541 964.500 C 970.462 961.200, 971.966 955.488, 972.884 951.807 C 973.802 948.125, 974.879 944.788, 975.277 944.390 C 975.674 943.992, 976 937.808, 976 930.647 C 976 917.043, 974.186 907.518, 969.889 898.562 C 967.524 893.632, 967.528 892.104, 969.922 886.777 C 974.666 876.220, 975.414 874.207, 976.343 869.500 C 977.576 863.254, 977.722 856.738, 976.752 851.335 L 976.004 847.170 983.752 846.536 C 1007.464 844.593, 1015.407 843.663, 1023.943 841.833 C 1034.630 839.541, 1048.538 834.862, 1053.303 831.957 C 1057.298 829.521, 1060.065 829.480, 1062.577 831.820 C 1071.561 840.191, 1086.424 843.998, 1110.119 843.999 C 1132.561 844, 1147.590 840.910, 1162.845 833.158 C 1168.975 830.043, 1170.085 830.138, 1174.380 834.140 C 1177.894 837.413, 1184.687 839.886, 1197.637 842.605 C 1209.117 845.017, 1213.403 845.371, 1237.500 845.904 L 1264.500 846.500 1265.241 854 C 1265.969 861.382, 1267.444 869.703, 1270.466 883.500 C 1272.201 891.415, 1272.407 896.224, 1271.121 898.764 C 1269.712 901.545, 1267.259 909.917, 1265.546 917.783 C 1264.435 922.887, 1263.957 930.384, 1263.949 942.830 C 1263.937 961.017, 1264.253 963.337, 1269.156 981.021 C 1271.192 988.365, 1271.200 988.731, 1269.514 996.521 C 1266.035 1012.598, 1265.802 1014.702, 1266.297 1025.500 C 1266.901 1038.661, 1268.924 1046.808, 1274.214 1057.384 L 1278.157 1065.269 1276.144 1073.884 C 1272.855 1087.960, 1271.764 1097.634, 1272.477 1106.376 C 1273.523 1119.191, 1275.809 1132.414, 1277.981 1138.221 C 1279.688 1142.781, 1279.966 1145.879, 1279.894 1159.529 C 1279.782 1180.576, 1279.614 1179.208, 1282.750 1182.716 C 1287.591 1188.131, 1289.061 1188.233, 1345.847 1187.091 C 1374.256 1186.520, 1433.050 1185.549, 1476.500 1184.933 C 1564.161 1183.690, 1557.806 1184.274, 1562.751 1177.008 C 1564.645 1174.227, 1564.994 1172.410, 1564.949 1165.600 C 1564.919 1161.145, 1565.174 1151.425, 1565.516 1144 C 1566.043 1132.529, 1565.828 1129.091, 1564.085 1121.126 C 1562.958 1115.971, 1562.239 1111.423, 1562.488 1111.019 C 1562.738 1110.616, 1564.076 1105.834, 1565.462 1100.393 C 1568.757 1087.458, 1568.802 1074.712, 1565.625 1054.500 C 1563.813 1042.971, 1563.459 1038.112, 1564.097 1033.500 C 1565.995 1019.775, 1567.131 999.868, 1566.539 990.724 C 1565.902 980.905, 1562.827 966.427, 1560.986 964.586 C 1560.444 964.044, 1560 962.790, 1560 961.800 C 1560 960.810, 1559.639 960, 1559.198 960 C 1558.756 960, 1557.620 957.846, 1556.674 955.213 C 1554.977 950.494, 1554.988 950.326, 1557.476 943.467 C 1558.864 939.640, 1560 935.521, 1560 934.313 C 1560 933.106, 1560.392 931.876, 1560.871 931.580 C 1561.350 931.284, 1562.024 928.895, 1562.370 926.271 C 1562.716 923.647, 1563.411 918.800, 1563.915 915.500 C 1565.155 907.379, 1565.178 875.719, 1563.952 864 C 1563.405 858.775, 1562.678 851.237, 1562.335 847.250 C 1561.992 843.262, 1561.370 840, 1560.952 840 C 1560.535 840, 1559.949 837.862, 1559.651 835.250 C 1557.886 819.800, 1557.819 818.230, 1558.889 817.569 C 1559.500 817.191, 1560 815.874, 1560 814.641 C 1560 813.408, 1560.545 811.855, 1561.212 811.188 C 1562.053 810.347, 1562.396 805.773, 1562.333 796.238 C 1562.239 782.061, 1561.730 779.240, 1556.535 764.119 C 1553.423 755.059, 1553.409 753.968, 1556.331 748.145 C 1564.473 731.916, 1568.073 701.975, 1564.404 681 C 1563.587 676.325, 1562.665 670.700, 1562.356 668.500 C 1562.048 666.300, 1561.391 664.072, 1560.898 663.550 C 1560.404 663.027, 1560 661.559, 1560 660.286 C 1560 659.014, 1559.583 657.191, 1559.072 656.236 C 1558.562 655.281, 1556.520 650.477, 1554.535 645.560 C 1550.976 636.746, 1550.551 632.013, 1553.175 630.392 C 1553.736 630.045, 1555.502 627.702, 1557.098 625.185 C 1561.539 618.182, 1560.924 608.594, 1555.330 597.630 C 1551.900 590.906, 1545.394 582.073, 1542.698 580.480 C 1541.140 579.560, 1537.201 576.323, 1533.944 573.287 C 1523.699 563.735, 1511.898 557.790, 1498.719 555.543 C 1495.787 555.043, 1494.259 553.955, 1491.912 550.699 C 1485.171 541.347, 1481.209 536.335, 1476.738 531.500 C 1475.213 529.850, 1473.013 527.128, 1471.851 525.452 C 1467.828 519.648, 1448.850 508, 1443.418 508 C 1441.514 508, 1437.562 504.036, 1435.537 500.094 C 1434.575 498.221, 1432.935 495.773, 1431.894 494.656 C 1430.852 493.538, 1430 492.254, 1430 491.803 C 1430 489.230, 1412.028 472.012, 1409.333 472.004 C 1408.692 472.002, 1408.017 471.606, 1407.833 471.125 C 1407.366 469.899, 1395.413 464, 1393.396 464 C 1392.482 464, 1385.511 457.736, 1377.904 450.079 C 1370.296 442.422, 1363.156 435.867, 1362.036 435.512 C 1360.916 435.156, 1360 434.476, 1360 434 C 1360 433.524, 1358.987 432.845, 1357.750 432.491 C 1356.513 432.138, 1353.700 430.999, 1351.500 429.960 C 1345.862 427.300, 1334.620 424, 1331.195 424 C 1327.558 424, 1322 421.286, 1322 419.510 C 1322 418.771, 1321.646 418.017, 1321.213 417.833 C 1320.780 417.650, 1318.868 415.475, 1316.963 413 C 1315.058 410.525, 1313.272 408.275, 1312.994 408 C 1312.716 407.725, 1311.308 405.925, 1309.865 404 C 1306.912 400.061, 1301.235 394, 1300.499 394 C 1300.233 394, 1298.855 392.988, 1297.437 391.750 C 1294.088 388.827, 1284.978 384.001, 1282.809 384 C 1281.879 384, 1280.840 383.550, 1280.500 383 C 1280.160 382.450, 1278.896 381.993, 1277.691 381.985 C 1275.483 381.970, 1269.432 380.084, 1267.409 378.781 C 1266.808 378.394, 1264.621 373.986, 1262.548 368.984 C 1260.475 363.982, 1257.703 358.612, 1256.389 357.051 C 1255.075 355.489, 1254 353.935, 1254 353.597 C 1254 352.270, 1241.859 339.554, 1236.720 335.500 C 1233.433 332.907, 1226.103 328, 1225.515 328 C 1225.153 328, 1224.183 327.326, 1223.359 326.502 C 1222.534 325.677, 1220.654 324.708, 1219.180 324.348 C 1217.706 323.987, 1216.275 323.396, 1216 323.034 C 1215.725 322.671, 1212.940 321.582, 1209.811 320.614 C 1206.682 319.645, 1203.717 318.323, 1203.223 317.676 C 1202.728 317.029, 1201.590 313.845, 1200.694 310.600 C 1198.691 303.348, 1195.670 298.886, 1187.648 291.333 C 1178.089 282.334, 1175.955 280.695, 1169.500 277.400 C 1166.200 275.715, 1162.600 273.866, 1161.500 273.291 C 1156.582 270.720, 1146.092 268.851, 1141 269.639 M 1057.740 786.992 C 1056.222 787.454, 1052.643 789.934, 1049.785 792.503 C 1044.382 797.361, 1039.005 800.435, 1030.500 803.527 C 1027.750 804.526, 1024.920 805.786, 1024.212 806.326 C 1022.215 807.849, 1004.158 808.382, 997.986 807.101 L 992.481 805.958 989.131 798.979 C 986.789 794.101, 985.229 792, 983.949 792 C 982.942 792, 981.840 791.550, 981.500 791 C 980.520 789.414, 974.446 789.837, 971.167 791.719 C 964.437 795.582, 963.869 799.974, 966.932 824.466 C 968.714 838.707, 968.942 839.543, 971.652 841.711 C 974.932 844.336, 976.581 844.427, 994.731 842.986 C 1008.172 841.919, 1018.506 840.538, 1026 838.808 C 1032.418 837.326, 1046.681 832.113, 1051.877 829.351 C 1057.286 826.475, 1059.967 826.389, 1062.773 829.004 C 1065.618 831.654, 1073.626 836.230, 1078 837.705 C 1101.875 845.757, 1143.226 841.935, 1163.500 829.803 C 1167.958 827.135, 1170.521 827.575, 1176.071 831.962 C 1181.200 836.016, 1185.457 837.587, 1199.500 840.608 C 1209.886 842.843, 1265.144 843.955, 1267.527 841.978 C 1268.558 841.122, 1269 838.733, 1269 834.021 C 1269 830.317, 1269.492 821.408, 1270.093 814.224 C 1271.811 793.707, 1269.433 791.487, 1253.732 798.946 C 1249.039 801.176, 1244.219 803, 1243.021 803 C 1241.822 803, 1237.839 804.237, 1234.171 805.750 C 1228.486 808.094, 1226.096 808.498, 1218 808.489 C 1205.464 808.473, 1198.440 805.908, 1189.493 798.080 C 1183.430 792.774, 1181.070 792, 1170.943 792 C 1165.980 792, 1162.019 792.766, 1156.318 794.830 C 1152.018 796.386, 1145.912 798.186, 1142.750 798.830 C 1139.588 799.473, 1134.412 800.563, 1131.250 801.250 C 1127.951 801.967, 1118.467 802.500, 1109 802.500 C 1088.785 802.500, 1084.330 801.466, 1079.779 795.721 C 1074.984 789.667, 1063.671 785.186, 1057.740 786.992 M 682.184 894.022 C 680.571 898.095, 678.780 914.733, 679.410 919.790 C 679.732 922.381, 680.462 931.700, 681.033 940.500 C 682.126 957.376, 683.572 965.912, 686.451 972.500 C 690.153 980.972, 690.142 981.468, 686.122 987.717 C 679.996 997.240, 676.777 1008.482, 676.224 1022.279 C 675.582 1038.284, 679.102 1055.453, 684.762 1063.927 C 688.692 1069.811, 688.611 1071.316, 683.969 1078.666 C 677.147 1089.468, 675.543 1100.996, 678.427 1118.500 C 680.774 1132.742, 683.103 1139.382, 689.022 1148.701 C 690.178 1150.521, 690.211 1151.917, 689.210 1156.761 C 687.605 1164.535, 687.684 1168.308, 689.548 1172.768 C 691.632 1177.757, 694.612 1180.755, 700 1183.284 C 705.258 1185.752, 703.198 1185.735, 792 1184.056 C 823.075 1183.469, 872.945 1182.549, 902.823 1182.012 C 939.061 1181.362, 958.461 1180.642, 961.098 1179.853 C 963.272 1179.201, 966.692 1177.249, 968.698 1175.515 C 971.986 1172.673, 972.388 1171.775, 972.771 1166.431 C 973.267 1159.506, 971.975 1153.557, 969.934 1153.365 C 969.145 1153.291, 967.970 1153.179, 967.321 1153.115 C 966.673 1153.052, 965.520 1152.377, 964.759 1151.616 C 963.997 1150.855, 961.603 1149.290, 959.437 1148.138 C 955.074 1145.819, 952 1143.578, 952 1142.717 C 952 1141.778, 945.912 1136, 944.923 1136 C 944.415 1136, 944 1135.610, 944 1135.132 C 944 1133.372, 935.815 1120.197, 933.113 1117.609 C 930.989 1115.573, 929.266 1114.916, 925.911 1114.859 C 922.049 1114.793, 913.415 1117.321, 912 1118.931 C 909.550 1121.718, 901.200 1125, 896.559 1125 C 883.634 1125, 869.590 1117.085, 863.052 1106.116 C 861.705 1103.857, 859.680 1101.721, 858.552 1101.370 C 857.423 1101.018, 856.275 1100.443, 856 1100.092 C 854.108 1097.677, 848.644 1095.757, 840.247 1094.557 C 829.631 1093.040, 824.829 1091.355, 818.271 1086.843 C 812.276 1082.718, 809.899 1080.263, 806.154 1074.327 C 804.359 1071.482, 802.240 1068.614, 801.445 1067.954 C 800.650 1067.295, 800 1065.740, 800 1064.500 C 800 1063.260, 799.325 1061.685, 798.500 1061 C 797.675 1060.315, 797 1058.910, 797 1057.878 C 797 1056.845, 796.592 1056, 796.094 1056 C 795.595 1056, 794.902 1053.638, 794.552 1050.750 C 793.158 1039.235, 792.729 1037.761, 789.795 1034.419 C 788.144 1032.539, 786.164 1031, 785.396 1031 C 784.628 1031, 784 1030.609, 784 1030.130 C 784 1029.652, 782.038 1029.039, 779.639 1028.769 C 773.476 1028.074, 761.625 1021.914, 756.822 1016.908 C 749.490 1009.267, 744.681 998.536, 742.970 986 C 741.624 976.145, 738.585 966.544, 735.898 963.660 C 734.867 962.553, 733.781 960.885, 733.485 959.952 C 732.964 958.311, 723.403 954, 720.283 954 C 717.858 954, 708.802 948.412, 705.500 944.878 C 694.584 933.197, 690.123 923.604, 686.489 904 C 684.337 892.393, 683.551 890.570, 682.184 894.022 M 1200 953 C 1200 953.550, 1199.328 954, 1198.508 954 C 1197.687 954, 1194.159 956.898, 1190.669 960.440 C 1187.179 963.983, 1183.125 967.181, 1181.661 967.549 C 1180.198 967.916, 1179 968.618, 1179 969.108 C 1179 969.599, 1178.178 970, 1177.174 970 C 1174.739 970, 1171 974.097, 1171 976.766 C 1171 977.941, 1171.667 981.512, 1172.482 984.701 C 1174.197 991.410, 1177.446 994.750, 1185.508 998.092 C 1188.385 999.284, 1191.447 1001.433, 1192.498 1002.997 C 1195.666 1007.710, 1201.844 1010, 1211.392 1010 C 1220.802 1010, 1223.205 1008.804, 1227.515 1001.976 C 1228.826 999.899, 1231.834 996.902, 1234.199 995.315 C 1242.461 989.771, 1245.561 977.823, 1239.990 972.992 C 1238.754 971.919, 1237.350 971.284, 1236.871 971.580 C 1236.392 971.876, 1236 971.641, 1236 971.059 C 1236 970.477, 1235.920 969.663, 1235.821 969.250 C 1235.390 967.439, 1229.920 964, 1227.470 964 C 1226.551 964, 1226.033 963.297, 1226.206 962.286 C 1226.381 961.267, 1225.744 960.418, 1224.634 960.191 C 1223.607 959.980, 1220.707 958.502, 1218.188 956.904 C 1215.669 955.307, 1212.797 954, 1211.804 954 C 1210.812 954, 1210 953.550, 1210 953 C 1210 952.450, 1207.750 952, 1205 952 C 1202.250 952, 1200 952.450, 1200 953 M 1173.544 975.861 C 1173.219 976.885, 1173.631 980.326, 1174.460 983.507 C 1176.193 990.163, 1179.296 993.459, 1186.617 996.425 C 1189.230 997.484, 1192.639 999.797, 1194.191 1001.564 C 1198.497 1006.469, 1202.666 1008, 1211.714 1008 C 1219.161 1008, 1219.791 1007.828, 1222.439 1005.064 C 1223.986 1003.449, 1225.758 1001.122, 1226.376 999.892 C 1226.994 998.663, 1229.493 996.256, 1231.930 994.544 C 1238.577 989.872, 1242.269 982.472, 1240.393 977.582 C 1239.336 974.827, 1238 975.870, 1238 979.448 C 1238 987.093, 1227.337 993.002, 1218 990.532 C 1216.230 990.064, 1214.889 990.442, 1213.406 991.829 C 1210.517 994.531, 1205.526 997, 1202.954 997 C 1200.455 997, 1195.208 994.266, 1192.886 991.754 C 1191.999 990.794, 1189.074 989.039, 1186.386 987.854 C 1181.338 985.629, 1178 982.659, 1178 980.394 C 1178 978.517, 1175.815 974, 1174.907 974 C 1174.482 974, 1173.869 974.838, 1173.544 975.861 M 1278.376 986.109 C 1275.445 987.605, 1272.386 994.782, 1270.006 1005.739 C 1267.471 1017.417, 1267.477 1024.579, 1270.036 1037.343 C 1271.886 1046.566, 1273.165 1049.907, 1279.110 1061.039 C 1280.853 1064.303, 1280.890 1065.003, 1279.579 1070.039 C 1275.837 1084.411, 1274.754 1093.426, 1275.319 1105.500 C 1275.912 1118.157, 1277.589 1127.547, 1280.587 1135 C 1282.113 1138.794, 1282.406 1142.593, 1282.449 1159.218 L 1282.500 1178.937 1285.279 1181.718 L 1288.058 1184.500 1337.779 1184.215 C 1365.126 1184.058, 1406.625 1183.499, 1430 1182.973 C 1453.375 1182.447, 1490.725 1182.006, 1513 1181.994 C 1543.159 1181.976, 1554.124 1181.655, 1555.945 1180.733 C 1561.360 1177.993, 1563.701 1169.465, 1560.824 1162.965 C 1559.570 1160.133, 1555.333 1157, 1552.755 1157 C 1551.966 1157, 1547.376 1155.683, 1542.555 1154.074 C 1532.641 1150.764, 1522.540 1144.293, 1514 1135.780 C 1506.654 1128.458, 1500.797 1126.177, 1493.645 1127.855 C 1479.611 1131.146, 1478.627 1131.231, 1468.506 1130.021 C 1463.009 1129.364, 1455.549 1127.829, 1451.929 1126.610 C 1444.774 1124.200, 1436 1119.461, 1436 1118.006 C 1436 1116.859, 1427.650 1111.025, 1422.956 1108.892 C 1421.006 1108.006, 1416.731 1106.953, 1413.456 1106.550 C 1395.824 1104.384, 1378.740 1096.388, 1369.245 1085.858 C 1364.575 1080.680, 1358.570 1066.069, 1357.741 1057.869 C 1357.483 1055.321, 1356.424 1052.094, 1355.386 1050.696 C 1353.598 1048.286, 1342.279 1043, 1338.908 1043 C 1336.588 1043, 1324.013 1039.463, 1319.787 1037.622 C 1314.420 1035.283, 1309.819 1030.896, 1305.036 1023.555 C 1300.128 1016.022, 1298.414 1010.881, 1296.989 999.413 C 1295.644 988.591, 1293.419 985.811, 1285.728 985.342 C 1282.853 985.167, 1279.544 985.512, 1278.376 986.109" stroke="none" fill="#f0e1c2" fill-rule="evenodd"/><path d="M 1057.740 786.992 C 1056.222 787.454, 1052.643 789.934, 1049.785 792.503 C 1044.382 797.361, 1039.005 800.435, 1030.500 803.527 C 1027.750 804.526, 1024.920 805.786, 1024.212 806.326 C 1022.215 807.849, 1004.158 808.382, 997.986 807.101 L 992.481 805.958 989.131 798.979 C 986.789 794.101, 985.229 792, 983.949 792 C 982.942 792, 981.840 791.550, 981.500 791 C 980.520 789.414, 974.446 789.837, 971.167 791.719 C 964.437 795.582, 963.869 799.974, 966.932 824.466 C 968.714 838.707, 968.942 839.543, 971.652 841.711 C 974.932 844.336, 976.581 844.427, 994.731 842.986 C 1008.172 841.919, 1018.506 840.538, 1026 838.808 C 1032.418 837.326, 1046.681 832.113, 1051.877 829.351 C 1057.286 826.475, 1059.967 826.389, 1062.773 829.004 C 1065.618 831.654, 1073.626 836.230, 1078 837.705 C 1101.875 845.757, 1143.226 841.935, 1163.500 829.803 C 1167.958 827.135, 1170.521 827.575, 1176.071 831.962 C 1181.200 836.016, 1185.457 837.587, 1199.500 840.608 C 1209.886 842.843, 1265.144 843.955, 1267.527 841.978 C 1268.558 841.122, 1269 838.733, 1269 834.021 C 1269 830.317, 1269.492 821.408, 1270.093 814.224 C 1271.811 793.707, 1269.433 791.487, 1253.732 798.946 C 1249.039 801.176, 1244.219 803, 1243.021 803 C 1241.822 803, 1237.839 804.237, 1234.171 805.750 C 1228.486 808.094, 1226.096 808.498, 1218 808.489 C 1205.464 808.473, 1198.440 805.908, 1189.493 798.080 C 1183.430 792.774, 1181.070 792, 1170.943 792 C 1165.980 792, 1162.019 792.766, 1156.318 794.830 C 1152.018 796.386, 1145.912 798.186, 1142.750 798.830 C 1139.588 799.473, 1134.412 800.563, 1131.250 801.250 C 1127.951 801.967, 1118.467 802.500, 1109 802.500 C 1088.785 802.500, 1084.330 801.466, 1079.779 795.721 C 1074.984 789.667, 1063.671 785.186, 1057.740 786.992 M 682.184 894.022 C 680.571 898.095, 678.780 914.733, 679.410 919.790 C 679.732 922.381, 680.462 931.700, 681.033 940.500 C 682.126 957.376, 683.572 965.912, 686.451 972.500 C 690.153 980.972, 690.142 981.468, 686.122 987.717 C 679.996 997.240, 676.777 1008.482, 676.224 1022.279 C 675.582 1038.284, 679.102 1055.453, 684.762 1063.927 C 688.692 1069.811, 688.611 1071.316, 683.969 1078.666 C 677.147 1089.468, 675.543 1100.996, 678.427 1118.500 C 680.774 1132.742, 683.103 1139.382, 689.022 1148.701 C 690.178 1150.521, 690.211 1151.917, 689.210 1156.761 C 687.605 1164.535, 687.684 1168.308, 689.548 1172.768 C 691.632 1177.757, 694.612 1180.755, 700 1183.284 C 705.258 1185.752, 703.198 1185.735, 792 1184.056 C 823.075 1183.469, 872.945 1182.549, 902.823 1182.012 C 939.061 1181.362, 958.461 1180.642, 961.098 1179.853 C 963.272 1179.201, 966.692 1177.249, 968.698 1175.515 C 971.986 1172.673, 972.388 1171.775, 972.771 1166.431 C 973.267 1159.506, 971.975 1153.557, 969.934 1153.365 C 969.145 1153.291, 967.970 1153.179, 967.321 1153.115 C 966.673 1153.052, 965.520 1152.377, 964.759 1151.616 C 963.997 1150.855, 961.603 1149.290, 959.437 1148.138 C 955.074 1145.819, 952 1143.578, 952 1142.717 C 952 1141.778, 945.912 1136, 944.923 1136 C 944.415 1136, 944 1135.610, 944 1135.132 C 944 1133.372, 935.815 1120.197, 933.113 1117.609 C 930.989 1115.573, 929.266 1114.916, 925.911 1114.859 C 922.049 1114.793, 913.415 1117.321, 912 1118.931 C 909.550 1121.718, 901.200 1125, 896.559 1125 C 883.634 1125, 869.590 1117.085, 863.052 1106.116 C 861.705 1103.857, 859.680 1101.721, 858.552 1101.370 C 857.423 1101.018, 856.275 1100.443, 856 1100.092 C 854.108 1097.677, 848.644 1095.757, 840.247 1094.557 C 829.631 1093.040, 824.829 1091.355, 818.271 1086.843 C 812.276 1082.718, 809.899 1080.263, 806.154 1074.327 C 804.359 1071.482, 802.240 1068.614, 801.445 1067.954 C 800.650 1067.295, 800 1065.740, 800 1064.500 C 800 1063.260, 799.325 1061.685, 798.500 1061 C 797.675 1060.315, 797 1058.910, 797 1057.878 C 797 1056.845, 796.592 1056, 796.094 1056 C 795.595 1056, 794.902 1053.638, 794.552 1050.750 C 793.158 1039.235, 792.729 1037.761, 789.795 1034.419 C 788.144 1032.539, 786.164 1031, 785.396 1031 C 784.628 1031, 784 1030.609, 784 1030.130 C 784 1029.652, 782.038 1029.039, 779.639 1028.769 C 773.476 1028.074, 761.625 1021.914, 756.822 1016.908 C 749.490 1009.267, 744.681 998.536, 742.970 986 C 741.624 976.145, 738.585 966.544, 735.898 963.660 C 734.867 962.553, 733.781 960.885, 733.485 959.952 C 732.964 958.311, 723.403 954, 720.283 954 C 717.858 954, 708.802 948.412, 705.500 944.878 C 694.584 933.197, 690.123 923.604, 686.489 904 C 684.337 892.393, 683.551 890.570, 682.184 894.022 M 1173.544 975.861 C 1173.219 976.885, 1173.631 980.326, 1174.460 983.507 C 1176.193 990.163, 1179.296 993.459, 1186.617 996.425 C 1189.230 997.484, 1192.639 999.797, 1194.191 1001.564 C 1198.497 1006.469, 1202.666 1008, 1211.714 1008 C 1219.161 1008, 1219.791 1007.828, 1222.439 1005.064 C 1223.986 1003.449, 1225.758 1001.122, 1226.376 999.892 C 1226.994 998.663, 1229.493 996.256, 1231.930 994.544 C 1238.577 989.872, 1242.269 982.472, 1240.393 977.582 C 1239.336 974.827, 1238 975.870, 1238 979.448 C 1238 987.093, 1227.337 993.002, 1218 990.532 C 1216.230 990.064, 1214.889 990.442, 1213.406 991.829 C 1210.517 994.531, 1205.526 997, 1202.954 997 C 1200.455 997, 1195.208 994.266, 1192.886 991.754 C 1191.999 990.794, 1189.074 989.039, 1186.386 987.854 C 1181.338 985.629, 1178 982.659, 1178 980.394 C 1178 978.517, 1175.815 974, 1174.907 974 C 1174.482 974, 1173.869 974.838, 1173.544 975.861 M 1278.376 986.109 C 1275.445 987.605, 1272.386 994.782, 1270.006 1005.739 C 1267.471 1017.417, 1267.477 1024.579, 1270.036 1037.343 C 1271.886 1046.566, 1273.165 1049.907, 1279.110 1061.039 C 1280.853 1064.303, 1280.890 1065.003, 1279.579 1070.039 C 1275.837 1084.411, 1274.754 1093.426, 1275.319 1105.500 C 1275.912 1118.157, 1277.589 1127.547, 1280.587 1135 C 1282.113 1138.794, 1282.406 1142.593, 1282.449 1159.218 L 1282.500 1178.937 1285.279 1181.718 L 1288.058 1184.500 1337.779 1184.215 C 1365.126 1184.058, 1406.625 1183.499, 1430 1182.973 C 1453.375 1182.447, 1490.725 1182.006, 1513 1181.994 C 1543.159 1181.976, 1554.124 1181.655, 1555.945 1180.733 C 1561.360 1177.993, 1563.701 1169.465, 1560.824 1162.965 C 1559.570 1160.133, 1555.333 1157, 1552.755 1157 C 1551.966 1157, 1547.376 1155.683, 1542.555 1154.074 C 1532.641 1150.764, 1522.540 1144.293, 1514 1135.780 C 1506.654 1128.458, 1500.797 1126.177, 1493.645 1127.855 C 1479.611 1131.146, 1478.627 1131.231, 1468.506 1130.021 C 1463.009 1129.364, 1455.549 1127.829, 1451.929 1126.610 C 1444.774 1124.200, 1436 1119.461, 1436 1118.006 C 1436 1116.859, 1427.650 1111.025, 1422.956 1108.892 C 1421.006 1108.006, 1416.731 1106.953, 1413.456 1106.550 C 1395.824 1104.384, 1378.740 1096.388, 1369.245 1085.858 C 1364.575 1080.680, 1358.570 1066.069, 1357.741 1057.869 C 1357.483 1055.321, 1356.424 1052.094, 1355.386 1050.696 C 1353.598 1048.286, 1342.279 1043, 1338.908 1043 C 1336.588 1043, 1324.013 1039.463, 1319.787 1037.622 C 1314.420 1035.283, 1309.819 1030.896, 1305.036 1023.555 C 1300.128 1016.022, 1298.414 1010.881, 1296.989 999.413 C 1295.644 988.591, 1293.419 985.811, 1285.728 985.342 C 1282.853 985.167, 1279.544 985.512, 1278.376 986.109" stroke="none" fill="#d9cbae" fill-rule="evenodd"/><path d="M 0 810 L 0 1620.001 1080.250 1619.750 L 2160.500 1619.500 2160.751 809.750 L 2161.001 -0 1080.501 -0 L 0 0 0 810 M 0.498 810.500 C 0.498 1256, 0.611 1438.100, 0.750 1215.168 C 0.889 992.235, 0.889 627.735, 0.750 405.168 C 0.611 182.600, 0.498 365, 0.498 810.500 M 1141 269.639 C 1125.461 272.043, 1110.158 280.801, 1094.607 296.189 C 1090.266 300.485, 1086.351 304, 1085.908 304 C 1085.464 304, 1083.844 305.688, 1082.307 307.750 C 1080.769 309.813, 1079.262 311.725, 1078.958 312 C 1078.653 312.275, 1077.317 314.075, 1075.989 316 C 1072.098 321.638, 1071.327 321.934, 1060.434 321.968 C 1054.897 321.986, 1047.705 322.492, 1044.451 323.094 C 1039.126 324.078, 1026.245 329.800, 1023.373 332.457 C 1022.752 333.031, 1021.203 334.175, 1019.929 335 C 1015.204 338.061, 1002.458 351.724, 999.229 357.189 C 997.339 360.389, 992.654 362.785, 982 366 C 972.543 368.855, 961.603 372.655, 957.027 374.675 C 949.172 378.142, 944.482 380.540, 944.167 381.250 C 943.983 381.663, 943.374 382, 942.812 382 C 942.250 382, 939.790 383.350, 937.345 385 C 934.900 386.650, 932.500 388, 932.012 388 C 931.523 388, 929.645 389.350, 927.839 391 C 926.032 392.650, 924.210 394, 923.789 394 C 922.912 394, 920.790 395.687, 913.860 401.891 C 908.626 406.577, 899.712 418.182, 898.561 421.808 C 898.178 423.014, 897.446 424, 896.933 424 C 896.420 424, 896 424.681, 896 425.514 C 896 428.170, 891.122 435, 889.225 435 C 883.773 435, 864.652 439.143, 854.444 442.537 C 839.139 447.624, 819.211 457.247, 816 461.100 C 815.725 461.430, 814.940 461.880, 814.255 462.100 C 809.881 463.505, 787.677 484.293, 786.462 488.121 C 786.134 489.154, 785.446 490, 784.933 490 C 784.420 490, 784 490.481, 784 491.070 C 784 492.583, 777.952 501.300, 776.069 502.500 C 774.662 503.397, 767.804 505.671, 759.500 507.996 C 746.122 511.740, 730.416 518.236, 724.303 522.553 C 716.614 527.983, 704 540.424, 704 542.578 C 704 543.360, 703.647 544, 703.216 544 C 702.784 544, 701.601 545.406, 700.586 547.124 C 698.696 550.322, 691.081 558, 689.798 558 C 689.405 558, 687.845 560.138, 686.329 562.750 C 684.814 565.362, 683.220 567.650, 682.787 567.833 C 682.354 568.017, 682 568.584, 682 569.094 C 682 569.604, 681.142 571.929, 680.094 574.261 C 677.677 579.636, 675.264 590.467, 674.461 599.546 C 673.776 607.292, 675.029 615.999, 678.235 625.764 C 680.236 631.861, 680.243 632.135, 678.494 636.014 C 677.505 638.206, 676.408 640, 676.055 640 C 675.522 640, 673.955 644.286, 671.304 653 C 669.551 658.760, 668 675.827, 668 689.353 C 668 709.778, 669.545 719.181, 675.156 732.900 C 677.959 739.752, 678.147 740.974, 677.694 749.400 C 677.426 754.405, 676.545 761.650, 675.738 765.500 C 671.146 787.401, 669.311 810.536, 670.975 825.545 C 671.643 831.570, 672.790 838.525, 673.525 841 C 674.260 843.475, 675.641 848.200, 676.595 851.500 C 677.548 854.800, 678.631 857.950, 679.001 858.500 C 679.370 859.050, 680.709 862.113, 681.976 865.307 C 684.776 872.368, 684.374 879.649, 680.574 890.700 C 677.236 900.408, 676.479 913.317, 677.956 935.353 C 679.491 958.246, 681.411 968.832, 685.419 976.500 C 687.557 980.589, 687.473 981.081, 683.689 986.638 C 679.588 992.662, 675.254 1005.642, 673.948 1015.814 C 671.995 1031.023, 675.086 1050.157, 681.686 1063.707 C 683.616 1067.670, 685.039 1071.270, 684.848 1071.707 C 684.656 1072.143, 682.777 1075.532, 680.671 1079.237 C 675.364 1088.575, 673.628 1098.690, 675.074 1111.843 C 676.752 1127.108, 678.524 1133.787, 684.008 1145.518 C 687.385 1152.740, 687.455 1153.272, 685.819 1159.387 C 683.275 1168.900, 689.300 1181.590, 698.268 1185.609 C 702.174 1187.359, 705.099 1187.487, 737.494 1187.329 C 756.747 1187.235, 795.450 1186.641, 823.500 1186.009 C 851.550 1185.377, 893.679 1184.523, 917.120 1184.111 L 959.741 1183.362 965.120 1180.727 C 968.833 1178.910, 971.374 1176.762, 973.321 1173.797 C 975.943 1169.804, 976.100 1169.004, 975.547 1162.500 C 974.693 1152.443, 974.696 1152.293, 975.997 1143.500 C 977.624 1132.504, 976.485 1113.204, 973.446 1100.247 C 971.122 1090.341, 971.080 1089.479, 972.201 1074.747 C 973.365 1059.444, 973.207 1057.051, 970.078 1042.657 C 969.272 1038.948, 969.389 1035.438, 970.579 1027.657 C 972.708 1013.741, 972.680 996.413, 970.513 987 C 967.887 975.589, 967.694 971.121, 969.541 964.500 C 970.462 961.200, 971.966 955.488, 972.884 951.807 C 973.802 948.125, 974.879 944.788, 975.277 944.390 C 975.674 943.992, 976 937.808, 976 930.647 C 976 917.043, 974.186 907.518, 969.889 898.562 C 967.524 893.632, 967.528 892.104, 969.922 886.777 C 974.666 876.220, 975.414 874.207, 976.343 869.500 C 977.576 863.254, 977.722 856.738, 976.752 851.335 L 976.004 847.170 983.752 846.536 C 1007.464 844.593, 1015.407 843.663, 1023.943 841.833 C 1034.630 839.541, 1048.538 834.862, 1053.303 831.957 C 1057.298 829.521, 1060.065 829.480, 1062.577 831.820 C 1071.561 840.191, 1086.424 843.998, 1110.119 843.999 C 1132.561 844, 1147.590 840.910, 1162.845 833.158 C 1168.975 830.043, 1170.085 830.138, 1174.380 834.140 C 1177.894 837.413, 1184.687 839.886, 1197.637 842.605 C 1209.117 845.017, 1213.403 845.371, 1237.500 845.904 L 1264.500 846.500 1265.241 854 C 1265.969 861.382, 1267.444 869.703, 1270.466 883.500 C 1272.201 891.415, 1272.407 896.224, 1271.121 898.764 C 1269.712 901.545, 1267.259 909.917, 1265.546 917.783 C 1264.435 922.887, 1263.957 930.384, 1263.949 942.830 C 1263.937 961.017, 1264.253 963.337, 1269.156 981.021 C 1271.192 988.365, 1271.200 988.731, 1269.514 996.521 C 1266.035 1012.598, 1265.802 1014.702, 1266.297 1025.500 C 1266.901 1038.661, 1268.924 1046.808, 1274.214 1057.384 L 1278.157 1065.269 1276.144 1073.884 C 1272.855 1087.960, 1271.764 1097.634, 1272.477 1106.376 C 1273.523 1119.191, 1275.809 1132.414, 1277.981 1138.221 C 1279.688 1142.781, 1279.966 1145.879, 1279.894 1159.529 C 1279.782 1180.576, 1279.614 1179.208, 1282.750 1182.716 C 1287.591 1188.131, 1289.061 1188.233, 1345.847 1187.091 C 1374.256 1186.520, 1433.050 1185.549, 1476.500 1184.933 C 1564.161 1183.690, 1557.806 1184.274, 1562.751 1177.008 C 1564.645 1174.227, 1564.994 1172.410, 1564.949 1165.600 C 1564.919 1161.145, 1565.174 1151.425, 1565.516 1144 C 1566.043 1132.529, 1565.828 1129.091, 1564.085 1121.126 C 1562.958 1115.971, 1562.239 1111.423, 1562.488 1111.019 C 1562.738 1110.616, 1564.076 1105.834, 1565.462 1100.393 C 1568.757 1087.458, 1568.802 1074.712, 1565.625 1054.500 C 1563.813 1042.971, 1563.459 1038.112, 1564.097 1033.500 C 1565.995 1019.775, 1567.131 999.868, 1566.539 990.724 C 1565.902 980.905, 1562.827 966.427, 1560.986 964.586 C 1560.444 964.044, 1560 962.790, 1560 961.800 C 1560 960.810, 1559.639 960, 1559.198 960 C 1558.756 960, 1557.620 957.846, 1556.674 955.213 C 1554.977 950.494, 1554.988 950.326, 1557.476 943.467 C 1558.864 939.640, 1560 935.521, 1560 934.313 C 1560 933.106, 1560.392 931.876, 1560.871 931.580 C 1561.350 931.284, 1562.024 928.895, 1562.370 926.271 C 1562.716 923.647, 1563.411 918.800, 1563.915 915.500 C 1565.155 907.379, 1565.178 875.719, 1563.952 864 C 1563.405 858.775, 1562.678 851.237, 1562.335 847.250 C 1561.992 843.262, 1561.370 840, 1560.952 840 C 1560.535 840, 1559.949 837.862, 1559.651 835.250 C 1557.886 819.800, 1557.819 818.230, 1558.889 817.569 C 1559.500 817.191, 1560 815.874, 1560 814.641 C 1560 813.408, 1560.545 811.855, 1561.212 811.188 C 1562.053 810.347, 1562.396 805.773, 1562.333 796.238 C 1562.239 782.061, 1561.730 779.240, 1556.535 764.119 C 1553.423 755.059, 1553.409 753.968, 1556.331 748.145 C 1564.473 731.916, 1568.073 701.975, 1564.404 681 C 1563.587 676.325, 1562.665 670.700, 1562.356 668.500 C 1562.048 666.300, 1561.391 664.072, 1560.898 663.550 C 1560.404 663.027, 1560 661.559, 1560 660.286 C 1560 659.014, 1559.583 657.191, 1559.072 656.236 C 1558.562 655.281, 1556.520 650.477, 1554.535 645.560 C 1550.976 636.746, 1550.551 632.013, 1553.175 630.392 C 1553.736 630.045, 1555.502 627.702, 1557.098 625.185 C 1561.539 618.182, 1560.924 608.594, 1555.330 597.630 C 1551.900 590.906, 1545.394 582.073, 1542.698 580.480 C 1541.140 579.560, 1537.201 576.323, 1533.944 573.287 C 1523.699 563.735, 1511.898 557.790, 1498.719 555.543 C 1495.787 555.043, 1494.259 553.955, 1491.912 550.699 C 1485.171 541.347, 1481.209 536.335, 1476.738 531.500 C 1475.213 529.850, 1473.013 527.128, 1471.851 525.452 C 1467.828 519.648, 1448.850 508, 1443.418 508 C 1441.514 508, 1437.562 504.036, 1435.537 500.094 C 1434.575 498.221, 1432.935 495.773, 1431.894 494.656 C 1430.852 493.538, 1430 492.254, 1430 491.803 C 1430 489.230, 1412.028 472.012, 1409.333 472.004 C 1408.692 472.002, 1408.017 471.606, 1407.833 471.125 C 1407.366 469.899, 1395.413 464, 1393.396 464 C 1392.482 464, 1385.511 457.736, 1377.904 450.079 C 1370.296 442.422, 1363.156 435.867, 1362.036 435.512 C 1360.916 435.156, 1360 434.476, 1360 434 C 1360 433.524, 1358.987 432.845, 1357.750 432.491 C 1356.513 432.138, 1353.700 430.999, 1351.500 429.960 C 1345.862 427.300, 1334.620 424, 1331.195 424 C 1327.558 424, 1322 421.286, 1322 419.510 C 1322 418.771, 1321.646 418.017, 1321.213 417.833 C 1320.780 417.650, 1318.868 415.475, 1316.963 413 C 1315.058 410.525, 1313.272 408.275, 1312.994 408 C 1312.716 407.725, 1311.308 405.925, 1309.865 404 C 1306.912 400.061, 1301.235 394, 1300.499 394 C 1300.233 394, 1298.855 392.988, 1297.437 391.750 C 1294.088 388.827, 1284.978 384.001, 1282.809 384 C 1281.879 384, 1280.840 383.550, 1280.500 383 C 1280.160 382.450, 1278.896 381.993, 1277.691 381.985 C 1275.483 381.970, 1269.432 380.084, 1267.409 378.781 C 1266.808 378.394, 1264.621 373.986, 1262.548 368.984 C 1260.475 363.982, 1257.703 358.612, 1256.389 357.051 C 1255.075 355.489, 1254 353.935, 1254 353.597 C 1254 352.270, 1241.859 339.554, 1236.720 335.500 C 1233.433 332.907, 1226.103 328, 1225.515 328 C 1225.153 328, 1224.183 327.326, 1223.359 326.502 C 1222.534 325.677, 1220.654 324.708, 1219.180 324.348 C 1217.706 323.987, 1216.275 323.396, 1216 323.034 C 1215.725 322.671, 1212.940 321.582, 1209.811 320.614 C 1206.682 319.645, 1203.717 318.323, 1203.223 317.676 C 1202.728 317.029, 1201.590 313.845, 1200.694 310.600 C 1198.691 303.348, 1195.670 298.886, 1187.648 291.333 C 1178.089 282.334, 1175.955 280.695, 1169.500 277.400 C 1166.200 275.715, 1162.600 273.866, 1161.500 273.291 C 1156.582 270.720, 1146.092 268.851, 1141 269.639 M 1200 953 C 1200 953.550, 1199.328 954, 1198.508 954 C 1197.687 954, 1194.159 956.898, 1190.669 960.440 C 1187.179 963.983, 1183.125 967.181, 1181.661 967.549 C 1180.198 967.916, 1179 968.618, 1179 969.108 C 1179 969.599, 1178.178 970, 1177.174 970 C 1174.739 970, 1171 974.097, 1171 976.766 C 1171 977.941, 1171.667 981.512, 1172.482 984.701 C 1174.197 991.410, 1177.446 994.750, 1185.508 998.092 C 1188.385 999.284, 1191.447 1001.433, 1192.498 1002.997 C 1195.666 1007.710, 1201.844 1010, 1211.392 1010 C 1220.802 1010, 1223.205 1008.804, 1227.515 1001.976 C 1228.826 999.899, 1231.834 996.902, 1234.199 995.315 C 1242.461 989.771, 1245.561 977.823, 1239.990 972.992 C 1238.754 971.919, 1237.350 971.284, 1236.871 971.580 C 1236.392 971.876, 1236 971.641, 1236 971.059 C 1236 970.477, 1235.920 969.663, 1235.821 969.250 C 1235.390 967.439, 1229.920 964, 1227.470 964 C 1226.551 964, 1226.033 963.297, 1226.206 962.286 C 1226.381 961.267, 1225.744 960.418, 1224.634 960.191 C 1223.607 959.980, 1220.707 958.502, 1218.188 956.904 C 1215.669 955.307, 1212.797 954, 1211.804 954 C 1210.812 954, 1210 953.550, 1210 953 C 1210 952.450, 1207.750 952, 1205 952 C 1202.250 952, 1200 952.450, 1200 953" stroke="none" fill="#ffffff" fill-rule="evenodd"/></svg>