<svg width="20" height="13" viewBox="0 0 20 13" fill="none" xmlns="http://www.w3.org/2000/svg">
<path d="M5 12.7524C4.64583 12.7524 4.34875 12.6324 4.10875 12.3924C3.86958 12.1532 3.75 11.8565 3.75 11.5024C3.75 11.1482 3.86958 10.8511 4.10875 10.6111C4.34875 10.372 4.64583 10.2524 5 10.2524H8.75C8.45833 9.89821 8.22417 9.5128 8.0475 9.09613C7.87 8.67946 7.72917 8.23155 7.625 7.75238H1.875C1.52083 7.75238 1.22375 7.63238 0.98375 7.39238C0.744584 7.15321 0.625 6.85655 0.625 6.50238C0.625 6.14821 0.744584 5.85113 0.98375 5.61113C1.22375 5.37196 1.52083 5.25238 1.875 5.25238H7.625C7.72917 4.77321 7.87 4.3253 8.0475 3.90863C8.22417 3.49196 8.45833 3.10655 8.75 2.75238H1.25C0.895833 2.75238 0.59875 2.63238 0.35875 2.39238C0.119584 2.15321 0 1.85655 0 1.50238C0 1.14821 0.119584 0.851131 0.35875 0.611131C0.59875 0.371964 0.895833 0.25238 1.25 0.25238H13.75C15.4792 0.25238 16.9533 0.861547 18.1725 2.07988C19.3908 3.29905 20 4.77321 20 6.50238C20 8.23155 19.3908 9.7053 18.1725 10.9236C16.9533 12.1428 15.4792 12.7524 13.75 12.7524H5ZM13.75 10.2524C14.7917 10.2524 15.6771 9.8878 16.4062 9.15863C17.1354 8.42946 17.5 7.54405 17.5 6.50238C17.5 5.46071 17.1354 4.5753 16.4062 3.84613C15.6771 3.11696 14.7917 2.75238 13.75 2.75238C12.7083 2.75238 11.8229 3.11696 11.0938 3.84613C10.3646 4.5753 10 5.46071 10 6.50238C10 7.54405 10.3646 8.42946 11.0938 9.15863C11.8229 9.8878 12.7083 10.2524 13.75 10.2524ZM1.25 12.7524C0.895833 12.7524 0.59875 12.6324 0.35875 12.3924C0.119584 12.1532 0 11.8565 0 11.5024C0 11.1482 0.119584 10.8511 0.35875 10.6111C0.59875 10.372 0.895833 10.2524 1.25 10.2524C1.60417 10.2524 1.90125 10.372 2.14125 10.6111C2.38042 10.8511 2.5 11.1482 2.5 11.5024C2.5 11.8565 2.38042 12.1532 2.14125 12.3924C1.90125 12.6324 1.60417 12.7524 1.25 12.7524Z" fill="#A5A5A5"/>
</svg>
