<svg width="20" height="19" viewBox="0 0 20 19" fill="none" xmlns="http://www.w3.org/2000/svg">
<path d="M10 5.05791C11.2273 5.05791 12.2222 4.06299 12.2222 2.83569C12.2222 1.60839 11.2273 0.613464 10 0.613464C8.7727 0.613464 7.77778 1.60839 7.77778 2.83569C7.77778 4.06299 8.7727 5.05791 10 5.05791Z" fill="#A5A5A5"/>
<path d="M20 13.9468V11.7246C17.5111 11.7246 15.3778 10.6579 13.7778 8.7468L12.2889 6.96902C11.8667 6.45791 11.2444 6.16902 10.5889 6.16902H9.42222C8.76667 6.16902 8.14444 6.45791 7.72222 6.96902L6.23333 8.7468C4.62222 10.6579 2.48889 11.7246 0 11.7246V13.9468C3.07778 13.9468 5.76667 12.6468 7.77778 10.3357V12.8357L3.46667 14.5579C2.72222 14.8579 2.22222 15.5912 2.22222 16.4024C2.22222 17.5024 3.11111 18.3912 4.21111 18.3912H6.66667V17.8357C6.66667 16.3024 7.91111 15.0579 9.44444 15.0579H12.7778C13.0889 15.0579 13.3333 15.3024 13.3333 15.6135C13.3333 15.9246 13.0889 16.169 12.7778 16.169H9.44444C8.52222 16.169 7.77778 16.9135 7.77778 17.8357V18.3912H15.7889C16.8889 18.3912 17.7778 17.5024 17.7778 16.4024C17.7778 15.5912 17.2778 14.8579 16.5333 14.5579L12.2222 12.8357V10.3357C14.2333 12.6468 16.9222 13.9468 20 13.9468Z" fill="#A5A5A5"/>
</svg>
