<?xml version="1.0" standalone="no"?>
<!DOCTYPE svg PUBLIC "-//W3C//DTD SVG 20010904//EN"
 "http://www.w3.org/TR/2001/REC-SVG-20010904/DTD/svg10.dtd">
<svg version="1.0" xmlns="http://www.w3.org/2000/svg"
 width="2160.000000pt" height="1620.000000pt" viewBox="0 0 2160.000000 1620.000000"
 preserveAspectRatio="xMidYMid meet">

<g transform="translate(0.000000,1620.000000) scale(0.100000,-0.100000)"
fill="#000000" stroke="none">
<path d="M16011 14661 c-10 -6 -12 -22 -7 -57 3 -27 10 -188 16 -359 5 -170
12 -373 15 -450 2 -77 7 -221 10 -320 3 -99 8 -243 10 -320 5 -127 58 -1689
70 -2065 3 -85 19 -562 36 -1060 17 -498 32 -961 34 -1030 11 -418 16 -553 20
-615 3 -38 8 -162 10 -275 5 -205 27 -888 45 -1395 5 -148 12 -351 15 -450 3
-99 9 -315 15 -480 25 -725 40 -1197 46 -1420 3 -132 9 -243 13 -247 3 -4 16
-5 29 -2 22 6 22 9 22 183 0 158 -8 409 -40 1331 -6 157 -19 564 -30 905 -25
795 -30 960 -60 1833 -5 158 -12 370 -15 472 -3 102 -10 302 -15 445 -5 143
-14 427 -20 630 -6 204 -13 404 -15 445 -5 61 -34 990 -60 1870 -3 102 -8 230
-10 285 -9 160 -39 1114 -61 1890 -5 164 -11 253 -18 257 -15 10 -38 10 -55
-1z m116 -2613 c-3 -8 -6 -5 -6 6 -1 11 2 17 5 13 3 -3 4 -12 1 -19z"/>
<path d="M9331 14361 c-20 -13 -10 -5037 11 -5057 7 -7 32 -16 56 -20 l42 -7
0 334 c0 184 3 1330 7 2547 l6 2212 -54 0 c-30 0 -60 -4 -68 -9z"/>
<path d="M16846 4056 c-19 -39 -54 -85 -95 -126 -65 -64 -67 -65 -191 -102
-193 -57 -165 -54 -795 -88 -167 -9 -285 -18 -470 -35 -27 -2 -131 -9 -230
-15 -99 -6 -245 -15 -325 -20 -80 -6 -260 -17 -400 -25 -140 -8 -282 -17 -315
-20 -33 -3 -163 -12 -290 -20 -126 -9 -259 -17 -295 -20 -36 -2 -148 -9 -250
-15 -102 -5 -214 -12 -250 -15 -61 -5 -647 -43 -1025 -66 -435 -26 -559 -37
-570 -52 -5 -7 -31 -32 -57 -54 -45 -39 -46 -41 -25 -52 12 -6 51 -9 87 -8 36
2 130 7 210 11 80 4 206 12 280 18 74 5 159 9 188 8 30 0 52 2 49 7 -3 4 16 7
41 5 26 -2 110 1 187 7 77 5 181 12 230 15 50 3 110 9 135 13 25 3 49 5 54 4
18 -4 554 33 551 39 -2 3 36 5 83 5 127 0 526 27 536 36 5 4 21 6 35 3 14 -3
89 0 166 6 77 6 149 12 160 12 11 0 88 4 170 9 629 39 796 50 840 54 105 11
165 15 309 21 82 3 160 10 173 15 14 5 29 7 33 4 8 -5 216 7 855 49 44 3 92 7
107 10 31 5 73 40 64 54 -3 5 2 9 10 8 9 0 25 14 35 32 10 17 16 32 13 32 -4
0 -1 7 6 15 17 20 25 146 12 171 -6 12 -7 36 -2 64 13 70 -2 72 -34 6z m-106
-360 c0 -11 -19 -15 -25 -6 -3 5 1 10 9 10 9 0 16 -2 16 -4z m-5449 -364 c-7
-2 -18 1 -23 6 -8 8 -4 9 13 5 13 -4 18 -8 10 -11z"/>
</g>
</svg>
