<?xml version="1.0" standalone="no"?>
<!DOCTYPE svg PUBLIC "-//W3C//DTD SVG 20010904//EN"
 "http://www.w3.org/TR/2001/REC-SVG-20010904/DTD/svg10.dtd">
<svg version="1.0" xmlns="http://www.w3.org/2000/svg"
 width="2160.000000pt" height="1620.000000pt" viewBox="0 0 2160.000000 1620.000000"
 preserveAspectRatio="xMidYMid meet">

<g transform="translate(0.000000,1620.000000) scale(0.100000,-0.100000)"
fill="#000000" stroke="none">
<path d="M12460 15291 c0 -6 17 -7 38 -4 51 8 53 13 4 13 -23 0 -42 -4 -42 -9z"/>
<path d="M12674 15290 c21 -4 47 -5 56 -3 10 3 24 -4 31 -14 8 -11 22 -22 31
-26 10 -3 15 -12 12 -21 -3 -8 0 -17 6 -21 8 -5 7 -11 -2 -22 -12 -14 -11 -15
8 -3 20 12 20 15 6 42 -8 16 -20 32 -28 35 -8 3 -14 11 -14 18 0 17 -33 25
-95 24 l-50 -1 39 -8z"/>
<path d="M12418 15283 c6 -2 18 -2 25 0 6 3 1 5 -13 5 -14 0 -19 -2 -12 -5z"/>
<path d="M12293 15273 c9 -2 17 -9 17 -14 0 -6 5 -7 10 -4 16 10 1 25 -23 24
-17 -1 -18 -2 -4 -6z"/>
<path d="M12720 15270 c0 -6 -14 -8 -40 -4 -27 4 -40 3 -40 -5 0 -6 16 -11 38
-11 42 0 71 13 53 24 -6 4 -11 2 -11 -4z"/>
<path d="M12410 15261 c-56 -5 -66 -7 -40 -11 50 -7 150 0 150 11 0 5 -8 8
-17 7 -10 -1 -52 -4 -93 -7z"/>
<path d="M12250 15250 c8 -5 20 -10 25 -10 6 0 3 5 -5 10 -8 5 -19 10 -25 10
-5 0 -3 -5 5 -10z"/>
<path d="M13105 15240 c27 -12 43 -12 25 0 -8 5 -22 9 -30 9 -10 0 -8 -3 5 -9z"/>
<path d="M13150 15225 c0 -9 -6 -12 -15 -9 -8 4 -15 1 -15 -5 0 -8 11 -10 35
-5 29 5 35 3 35 -10 0 -10 4 -15 10 -11 14 9 2 31 -26 43 -19 9 -24 9 -24 -3z"/>
<path d="M12184 15215 c-10 -8 -14 -15 -8 -15 6 0 17 7 24 15 16 19 9 19 -16
0z"/>
<path d="M12232 15210 c0 -14 2 -19 5 -12 2 6 2 18 0 25 -3 6 -5 1 -5 -13z"/>
<path d="M12905 15220 c-19 -8 -19 -9 3 -9 12 -1 22 4 22 9 0 6 -1 10 -2 9 -2
0 -12 -4 -23 -9z"/>
<path d="M12145 15190 c3 -5 8 -10 11 -10 2 0 4 5 4 10 0 6 -5 10 -11 10 -5 0
-7 -4 -4 -10z"/>
<path d="M12890 15190 c8 -5 20 -10 25 -10 6 0 3 5 -5 10 -8 5 -19 10 -25 10
-5 0 -3 -5 5 -10z"/>
<path d="M12175 15180 c-3 -5 0 -10 9 -10 8 0 23 -3 33 -7 16 -6 16 -5 4 10
-15 19 -37 22 -46 7z"/>
<path d="M13138 15183 c-29 -7 -20 -18 16 -19 28 0 32 2 21 13 -8 7 -15 12
-17 12 -2 -1 -11 -3 -20 -6z"/>
<path d="M12095 15170 c3 -5 13 -10 21 -10 8 0 12 5 9 10 -3 6 -13 10 -21 10
-8 0 -12 -4 -9 -10z"/>
<path d="M12870 15170 c8 -5 28 -10 44 -10 39 0 30 6 -19 13 -27 4 -35 3 -25
-3z"/>
<path d="M13212 15171 c-9 -5 -3 -8 17 -7 17 1 31 4 31 9 0 10 -32 9 -48 -2z"/>
<path d="M12020 15140 c-8 -5 -11 -12 -7 -16 4 -4 13 -2 19 4 15 15 7 24 -12
12z"/>
<path d="M13218 15105 c-10 -13 -28 -26 -40 -28 l-23 -4 23 -2 c15 -1 22 -7
22 -21 0 -11 5 -20 10 -20 13 0 9 32 -5 42 -6 5 -4 8 5 8 8 0 23 12 33 25 13
18 14 25 5 25 -7 0 -21 -11 -30 -25z"/>
<path d="M12005 15100 c-3 -6 5 -10 19 -10 13 0 33 -3 43 -7 17 -6 17 -6 1 10
-18 19 -53 23 -63 7z"/>
<path d="M13240 15069 c0 -5 5 -7 10 -4 6 3 10 8 10 11 0 2 -4 4 -10 4 -5 0
-10 -5 -10 -11z"/>
<path d="M13122 15040 c0 -14 2 -19 5 -12 2 6 2 18 0 25 -3 6 -5 1 -5 -13z"/>
<path d="M13147 15004 c-13 -25 -14 -40 -7 -54 12 -23 13 -30 1 -30 -5 0 -11
6 -14 13 -2 6 -3 4 -1 -6 2 -14 -4 -18 -24 -16 -40 3 -62 0 -62 -9 0 -4 19 -8
43 -8 54 0 81 23 71 60 -4 18 -1 33 8 44 25 29 30 42 15 42 -7 0 -21 -16 -30
-36z"/>
<path d="M6336 15015 c4 -8 13 -15 21 -15 12 0 12 2 -1 15 -8 8 -17 15 -20 15
-3 0 -3 -7 0 -15z"/>
<path d="M6420 15020 c55 -10 124 -19 93 -13 -13 2 -23 9 -23 14 0 5 -26 8
-57 8 l-58 -2 45 -7z"/>
<path d="M6238 15003 c7 -3 16 -2 19 1 4 3 -2 6 -13 5 -11 0 -14 -3 -6 -6z"/>
<path d="M6408 15003 c6 -2 18 -2 25 0 6 3 1 5 -13 5 -14 0 -19 -2 -12 -5z"/>
<path d="M6118 14973 c7 -3 16 -2 19 1 4 3 -2 6 -13 5 -11 0 -14 -3 -6 -6z"/>
<path d="M6560 14965 c0 -8 2 -15 4 -15 2 0 6 7 10 15 3 8 1 15 -4 15 -6 0
-10 -7 -10 -15z"/>
<path d="M13171 14964 c0 -11 3 -14 6 -6 3 7 2 16 -1 19 -3 4 -6 -2 -5 -13z"/>
<path d="M6105 14950 c3 -5 13 -10 21 -10 8 0 12 5 9 10 -3 6 -13 10 -21 10
-8 0 -12 -4 -9 -10z"/>
<path d="M6575 14940 c-3 -5 1 -10 10 -10 9 0 13 5 10 10 -3 6 -8 10 -10 10
-2 0 -7 -4 -10 -10z"/>
<path d="M6065 14930 c-3 -6 1 -7 9 -4 18 7 21 14 7 14 -6 0 -13 -4 -16 -10z"/>
<path d="M6130 14930 c-23 -7 -23 -8 -3 -9 12 -1 25 4 28 9 3 6 5 10 3 9 -2
-1 -14 -5 -28 -9z"/>
<path d="M5748 14923 c6 -2 18 -2 25 0 6 3 1 5 -13 5 -14 0 -19 -2 -12 -5z"/>
<path d="M6584 14891 c16 -30 54 -44 78 -30 9 6 4 9 -15 9 -19 0 -31 7 -39 25
-6 14 -17 25 -25 25 -11 0 -11 -5 1 -29z"/>
<path d="M11943 14880 c0 -25 2 -35 4 -22 2 12 2 32 0 45 -2 12 -4 2 -4 -23z"/>
<path d="M5455 14900 c-19 -8 -19 -9 3 -9 12 -1 22 4 22 9 0 6 -1 10 -2 9 -2
0 -12 -4 -23 -9z"/>
<path d="M5970 14885 c-15 -8 -19 -14 -10 -14 18 -1 46 16 40 23 -3 2 -16 -2
-30 -9z"/>
<path d="M11972 14880 c0 -14 2 -19 5 -12 2 6 2 18 0 25 -3 6 -5 1 -5 -13z"/>
<path d="M5406 14865 c-11 -8 -16 -18 -12 -22 3 -4 16 3 29 15 24 25 12 29
-17 7z"/>
<path d="M5454 14871 c8 -12 46 -21 46 -11 0 8 -24 20 -41 20 -6 0 -8 -4 -5
-9z"/>
<path d="M13070 14871 c-8 -6 -18 -7 -22 -5 -4 3 -8 0 -8 -5 0 -16 36 -13 50
4 14 17 3 20 -20 6z"/>
<path d="M5928 14853 c7 -3 16 -2 19 1 4 3 -2 6 -13 5 -11 0 -14 -3 -6 -6z"/>
<path d="M5985 14850 c3 -5 8 -10 11 -10 2 0 4 5 4 10 0 6 -5 10 -11 10 -5 0
-7 -4 -4 -10z"/>
<path d="M6560 14850 c0 -5 9 -10 20 -10 11 0 20 5 20 10 0 6 -9 10 -20 10
-11 0 -20 -4 -20 -10z"/>
<path d="M6670 14850 c-8 -5 -10 -10 -5 -10 6 0 17 5 25 10 8 5 11 10 5 10 -5
0 -17 -5 -25 -10z"/>
<path d="M5438 14843 c7 -3 16 -2 19 1 4 3 -2 6 -13 5 -11 0 -14 -3 -6 -6z"/>
<path d="M5330 14830 c0 -5 5 -10 10 -10 6 0 10 5 10 10 0 6 -4 10 -10 10 -5
0 -10 -4 -10 -10z"/>
<path d="M12900 14830 c0 -5 5 -10 11 -10 5 0 7 5 4 10 -3 6 -8 10 -11 10 -2
0 -4 -4 -4 -10z"/>
<path d="M13005 14830 c27 -12 43 -12 25 0 -8 5 -22 9 -30 9 -10 0 -8 -3 5 -9z"/>
<path d="M6735 14820 c3 -5 13 -10 21 -10 8 0 14 -5 14 -11 0 -7 10 -20 22
-30 23 -20 39 -26 21 -8 -6 6 -9 19 -6 28 4 9 3 13 -2 9 -4 -4 -19 2 -33 12
-26 21 -47 27 -37 10z"/>
<path d="M12940 14821 c0 -10 60 -24 68 -16 3 3 -2 5 -11 5 -9 0 -17 5 -17 10
0 6 -9 10 -20 10 -11 0 -20 -4 -20 -9z"/>
<path d="M5300 14809 c0 -5 5 -7 10 -4 6 3 10 8 10 11 0 2 -4 4 -10 4 -5 0
-10 -5 -10 -11z"/>
<path d="M11905 14810 c-3 -5 -1 -10 4 -10 6 0 11 5 11 10 0 6 -2 10 -4 10 -3
0 -8 -4 -11 -10z"/>
<path d="M5332 14797 c-7 -8 -26 -17 -43 -21 -19 -3 -28 -10 -23 -17 4 -7 9
-7 13 -2 10 15 71 25 71 11 0 -6 2 -9 5 -6 3 3 2 15 -3 27 -7 20 -10 21 -20 8z"/>
<path d="M12880 14799 c0 -5 5 -7 10 -4 6 3 10 8 10 11 0 2 -4 4 -10 4 -5 0
-10 -5 -10 -11z"/>
<path d="M6720 14790 c0 -5 7 -10 16 -10 8 0 12 5 9 10 -3 6 -10 10 -16 10 -5
0 -9 -4 -9 -10z"/>
<path d="M12910 14780 c0 -13 11 -13 30 0 12 8 11 10 -7 10 -13 0 -23 -4 -23
-10z"/>
<path d="M11881 14760 c-1 -8 -4 -26 -7 -40 -5 -22 -4 -23 6 -7 6 10 9 28 7
40 -2 12 -5 15 -6 7z"/>
<path d="M11912 14750 c0 -14 2 -19 5 -12 2 6 2 18 0 25 -3 6 -5 1 -5 -13z"/>
<path d="M12870 14760 c-9 -6 -10 -10 -3 -10 6 0 15 5 18 10 8 12 4 12 -15 0z"/>
<path d="M12650 14751 c0 -5 -3 -18 -7 -28 -6 -17 -6 -17 10 -1 19 18 22 38 7
38 -5 0 -10 -4 -10 -9z"/>
<path d="M12690 14743 c0 -10 4 -14 8 -8 4 6 11 13 16 18 5 4 2 7 -7 7 -10 0
-17 -8 -17 -17z"/>
<path d="M5256 14736 c4 -11 2 -21 -7 -27 -12 -8 -12 -11 1 -19 8 -5 20 -10
25 -10 6 0 3 5 -5 10 -13 9 -13 11 0 20 13 8 13 12 -3 27 -17 17 -18 17 -11
-1z"/>
<path d="M6840 14742 c0 -12 19 -26 26 -19 2 2 -2 10 -11 17 -9 8 -15 8 -15 2z"/>
<path d="M12750 14740 c0 -5 11 -10 25 -10 14 0 25 5 25 10 0 6 -11 10 -25 10
-14 0 -25 -4 -25 -10z"/>
<path d="M5220 14719 c0 -5 5 -7 10 -4 6 3 10 8 10 11 0 2 -4 4 -10 4 -5 0
-10 -5 -10 -11z"/>
<path d="M6810 14717 c0 -8 7 -17 15 -21 8 -3 15 -2 15 3 0 5 -7 14 -15 21
-12 10 -15 10 -15 -3z"/>
<path d="M6870 14704 c0 -12 59 -68 66 -61 2 2 -7 17 -21 33 -14 16 -25 25
-25 19 0 -5 -5 -3 -10 5 -5 8 -10 10 -10 4z"/>
<path d="M11887 14690 c-14 -17 -15 -20 -2 -20 9 0 18 7 22 15 9 24 -1 27 -20
5z"/>
<path d="M5207 14689 c7 -7 15 -10 18 -7 3 3 -2 9 -12 12 -14 6 -15 5 -6 -5z"/>
<path d="M12605 14670 c-4 -6 -15 -8 -26 -5 -22 7 -24 2 -6 -14 11 -8 18 -6
32 9 10 11 15 20 12 20 -3 0 -9 -5 -12 -10z"/>
<path d="M5145 14660 c-27 -7 -28 -8 -5 -8 14 0 34 3 45 8 25 11 2 11 -40 0z"/>
<path d="M5041 14649 c-13 -5 -22 -12 -19 -15 3 -3 21 2 39 10 37 16 19 21
-20 5z"/>
<path d="M6885 14639 c-8 -12 32 -31 57 -27 17 2 14 6 -16 19 -20 9 -39 13
-41 8z"/>
<path d="M11880 14640 c0 -5 5 -10 11 -10 5 0 7 5 4 10 -3 6 -8 10 -11 10 -2
0 -4 -4 -4 -10z"/>
<path d="M4954 14633 c3 -4 1 -12 -5 -20 -9 -10 -6 -13 12 -13 17 0 20 3 11 9
-8 4 18 6 60 4 45 -2 92 2 123 11 l50 14 -52 -2 c-28 0 -46 -4 -40 -8 17 -11
-80 -9 -126 1 -21 5 -36 7 -33 4z"/>
<path d="M11911 14609 c0 -9 16 -28 37 -43 41 -28 52 -32 52 -16 0 6 -9 10
-20 10 -11 0 -20 7 -20 16 0 14 2 14 22 0 27 -19 75 -21 80 -4 3 7 31 15 64
19 l59 6 -62 2 c-40 0 -63 -3 -63 -10 0 -7 -13 -9 -37 -5 -21 4 -52 7 -70 6
-22 0 -33 5 -36 18 -4 14 -5 14 -6 1z"/>
<path d="M5163 14603 c9 -2 23 -2 30 0 6 3 -1 5 -18 5 -16 0 -22 -2 -12 -5z"/>
<path d="M6973 14568 c1 -34 4 -38 26 -38 22 0 23 1 8 13 -9 6 -20 23 -25 37
-9 23 -10 21 -9 -12z"/>
<path d="M12418 14593 c12 -2 32 -2 45 0 12 2 2 4 -23 4 -25 0 -35 -2 -22 -4z"/>
<path d="M4794 14545 c1 -14 9 -21 26 -22 l25 -2 -25 8 -25 7 23 8 c14 5 29 3
38 -5 19 -15 31 -4 13 13 -8 7 -28 13 -45 13 -25 0 -31 -4 -30 -20z"/>
<path d="M12190 14566 c0 -10 32 -36 43 -36 7 0 6 4 -3 10 -13 9 -13 11 0 20
12 8 9 10 -12 10 -16 0 -28 -2 -28 -4z"/>
<path d="M12426 14563 c5 -5 11 -12 15 -16 3 -4 12 -1 19 8 11 13 9 15 -15 15
-16 0 -24 -3 -19 -7z"/>
<path d="M12110 14551 c0 -5 16 -9 35 -8 21 1 30 4 22 9 -17 11 -57 10 -57 -1z"/>
<path d="M4739 14533 c-13 -17 -13 -17 6 -3 11 8 22 16 24 17 2 2 0 3 -6 3 -6
0 -17 -8 -24 -17z"/>
<path d="M12060 14535 c0 -9 9 -15 21 -15 18 0 19 2 5 15 -8 8 -17 15 -20 15
-3 0 -6 -7 -6 -15z"/>
<path d="M12400 14539 c0 -5 5 -7 10 -4 6 3 10 8 10 11 0 2 -4 4 -10 4 -5 0
-10 -5 -10 -11z"/>
<path d="M7060 14509 c0 -6 14 -16 30 -22 17 -6 30 -15 30 -19 0 -4 5 -8 11
-8 8 0 8 4 0 14 -9 11 -9 15 1 19 7 2 0 4 -17 4 -16 0 -31 6 -33 12 -5 14 -22
14 -22 0z"/>
<path d="M4666 14479 c-14 -11 -26 -25 -26 -31 0 -6 8 -1 19 10 10 12 24 22
32 22 10 0 10 -3 1 -12 -18 -18 -14 -27 9 -21 12 4 18 11 15 20 -3 8 -6 19 -6
24 0 15 -15 11 -44 -12z"/>
<path d="M7160 14470 c0 -5 5 -10 10 -10 6 0 10 5 10 10 0 6 -4 10 -10 10 -5
0 -10 -4 -10 -10z"/>
<path d="M4618 14444 c-4 -3 -4 -13 -1 -22 5 -11 2 -14 -10 -9 -9 3 -19 2 -22
-2 -3 -5 2 -12 11 -15 24 -9 31 -7 38 10 7 17 -6 48 -16 38z"/>
<path d="M7073 14443 c9 -2 23 -2 30 0 6 3 -1 5 -18 5 -16 0 -22 -2 -12 -5z"/>
<path d="M7210 14426 c0 -13 -3 -33 -6 -43 -6 -14 -4 -16 6 -6 15 14 21 73 8
73 -4 0 -8 -11 -8 -24z"/>
<path d="M7415 14430 c3 -5 10 -10 16 -10 5 0 9 5 9 10 0 6 -7 10 -16 10 -8 0
-12 -4 -9 -10z"/>
<path d="M7560 14420 c0 -15 21 -23 32 -12 6 6 2 11 -11 15 -12 3 -21 1 -21
-3z"/>
<path d="M7250 14410 c0 -5 5 -10 10 -10 6 0 10 5 10 10 0 6 -4 10 -10 10 -5
0 -10 -4 -10 -10z"/>
<path d="M7318 14406 c-24 -17 -13 -26 34 -26 21 0 38 -4 38 -10 0 -5 11 -10
25 -10 62 0 3 30 -62 32 -25 0 -31 13 -10 21 6 3 8 6 2 6 -5 0 -18 -6 -27 -13z"/>
<path d="M7607 14403 c-4 -3 -1 -13 6 -21 10 -13 9 -15 -8 -8 -42 17 -55 18
-68 4 -12 -11 -4 -13 52 -13 36 1 66 5 66 10 0 5 -9 8 -19 6 -14 -2 -17 2 -13
13 6 16 -4 22 -16 9z"/>
<path d="M4570 14381 c0 -8 41 -23 47 -17 2 1 -8 8 -22 14 -14 6 -25 8 -25 3z"/>
<path d="M7250 14380 c0 -5 -7 -10 -17 -10 -9 0 -14 -2 -11 -5 3 -3 19 -2 37
1 23 5 29 9 19 15 -18 12 -28 11 -28 -1z"/>
<path d="M4547 14349 c4 -13 8 -18 11 -10 2 7 -1 18 -6 23 -8 8 -9 4 -5 -13z"/>
<path d="M4516 14331 c-10 -11 -16 -26 -13 -33 4 -9 6 -7 6 4 1 9 9 21 18 27
10 5 15 12 12 15 -3 4 -14 -3 -23 -13z"/>
<path d="M7765 14329 c-11 -17 3 -23 20 -9 10 8 33 11 66 8 30 -3 45 -2 37 3
-19 12 -116 11 -123 -2z"/>
<path d="M7805 14301 l-40 -18 47 1 c25 1 41 4 35 8 -18 12 17 10 49 -2 16 -7
31 -7 36 -2 6 6 -5 12 -27 16 -20 4 -42 9 -48 11 -7 2 -30 -4 -52 -14z"/>
<path d="M4527 14303 c-13 -12 -7 -25 6 -14 8 6 17 8 20 4 4 -3 7 -1 7 5 0 13
-22 16 -33 5z"/>
<path d="M7963 14296 c0 -8 8 -11 19 -8 10 2 15 8 12 13 -8 14 -31 11 -31 -5z"/>
<path d="M7680 14290 c0 -5 18 -10 40 -10 22 0 40 5 40 10 0 6 -18 10 -40 10
-22 0 -40 -4 -40 -10z"/>
<path d="M8090 14255 c9 -11 9 -15 1 -15 -7 0 -9 -5 -6 -10 4 -6 11 -8 16 -5
15 10 10 32 -7 39 -14 5 -15 4 -4 -9z"/>
<path d="M4457 14221 c-4 -17 -3 -21 5 -13 5 5 8 16 6 23 -3 8 -7 3 -11 -10z"/>
<path d="M8120 14230 c0 -5 5 -10 11 -10 5 0 7 5 4 10 -3 6 -8 10 -11 10 -2 0
-4 -4 -4 -10z"/>
<path d="M4472 14180 c0 -14 2 -19 5 -12 2 6 2 18 0 25 -3 6 -5 1 -5 -13z"/>
<path d="M4430 14161 c-15 -38 -1 -72 20 -46 7 8 10 19 6 22 -4 4 -11 1 -16
-7 -8 -13 -10 -13 -10 1 0 9 7 22 15 29 17 14 20 30 6 30 -5 0 -14 -13 -21
-29z"/>
<path d="M8162 14117 c2 -19 6 -33 9 -31 10 6 8 54 -2 60 -5 3 -8 -10 -7 -29z"/>
<path d="M4342 14068 c2 -12 8 -23 15 -25 7 -3 9 4 6 18 -4 15 -3 20 5 15 7
-4 12 -14 12 -21 0 -12 4 -11 20 3 l21 17 -23 7 c-46 12 -60 9 -56 -14z"/>
<path d="M4257 14059 c-69 -11 -66 -15 8 -14 36 0 63 4 62 9 -5 14 -16 15 -70
5z"/>
<path d="M4446 14061 c-4 -7 -5 -15 -2 -18 9 -9 19 4 14 18 -4 11 -6 11 -12 0z"/>
<path d="M8082 14020 c0 -14 2 -19 5 -12 2 6 2 18 0 25 -3 6 -5 1 -5 -13z"/>
<path d="M8120 14020 c0 -11 5 -20 10 -20 6 0 10 9 10 20 0 11 -4 20 -10 20
-5 0 -10 -9 -10 -20z"/>
<path d="M4098 14023 c-19 -5 -25 -33 -7 -33 5 0 7 5 4 10 -3 6 1 10 9 10 8 0
18 5 21 10 6 10 2 11 -27 3z"/>
<path d="M4136 14004 c-11 -7 -17 -17 -13 -20 3 -4 14 1 23 10 21 22 15 28
-10 10z"/>
<path d="M4036 13974 c-11 -8 -16 -14 -10 -14 13 0 39 18 34 24 -3 2 -14 -2
-24 -10z"/>
<path d="M4083 13963 c9 -2 23 -2 30 0 6 3 -1 5 -18 5 -16 0 -22 -2 -12 -5z"/>
<path d="M8155 13960 c3 -5 8 -10 11 -10 2 0 4 5 4 10 0 6 -5 10 -11 10 -5 0
-7 -4 -4 -10z"/>
<path d="M3972 13944 c2 -10 -3 -19 -9 -21 -7 -3 -13 0 -13 6 0 6 -5 11 -12
11 -6 0 -9 -3 -6 -6 7 -6 -47 -64 -61 -64 -5 0 -9 -16 -9 -35 0 -19 4 -35 9
-35 5 0 9 10 9 23 1 37 27 62 63 60 l32 -2 -30 8 c-29 7 -29 7 -7 15 14 5 29
3 38 -5 8 -6 16 -10 18 -8 7 8 -7 69 -16 69 -5 0 -8 -7 -6 -16z"/>
<path d="M8091 13944 c-7 -8 -10 -18 -7 -21 7 -7 36 16 36 28 0 13 -13 10 -29
-7z"/>
<path d="M8130 13910 c-11 -11 -18 -26 -14 -32 5 -8 10 -5 14 7 4 10 15 21 25
25 12 4 15 9 7 14 -6 4 -21 -3 -32 -14z"/>
<path d="M7521 13876 c2 -2 33 -6 69 -9 38 -3 57 -1 45 3 -19 8 -123 14 -114
6z"/>
<path d="M7793 13873 c9 -2 25 -2 35 0 9 3 1 5 -18 5 -19 0 -27 -2 -17 -5z"/>
<path d="M7888 13870 c12 -5 22 -16 22 -25 0 -8 7 -15 15 -15 8 0 15 3 15 6 0
12 -43 44 -59 43 -10 0 -8 -3 7 -9z"/>
<path d="M7943 13873 c9 -2 25 -2 35 0 9 3 1 5 -18 5 -19 0 -27 -2 -17 -5z"/>
<path d="M8065 13870 c-16 -7 -17 -9 -3 -9 9 -1 20 4 23 9 7 11 7 11 -20 0z"/>
<path d="M3906 13834 c-4 -14 -5 -28 -3 -31 3 -2 8 8 11 23 4 14 5 28 3 31 -3
2 -8 -8 -11 -23z"/>
<path d="M7560 13850 c20 -13 43 -13 35 0 -3 6 -16 10 -28 10 -18 0 -19 -2 -7
-10z"/>
<path d="M7848 13853 c7 -3 16 -2 19 1 4 3 -2 6 -13 5 -11 0 -14 -3 -6 -6z"/>
<path d="M7980 13850 c0 -5 9 -10 21 -10 11 0 17 5 14 10 -3 6 -13 10 -21 10
-8 0 -14 -4 -14 -10z"/>
<path d="M8035 13840 c-3 -5 1 -10 10 -10 9 0 13 5 10 10 -3 6 -8 10 -10 10
-2 0 -7 -4 -10 -10z"/>
<path d="M3820 13800 c0 -5 5 -10 11 -10 5 0 7 5 4 10 -3 6 -8 10 -11 10 -2 0
-4 -4 -4 -10z"/>
<path d="M7286 13785 c-3 -8 -1 -15 3 -15 5 0 11 7 15 15 3 8 1 15 -3 15 -5 0
-11 -7 -15 -15z"/>
<path d="M7330 13790 c0 -5 5 -10 10 -10 6 0 10 5 10 10 0 6 -4 10 -10 10 -5
0 -10 -4 -10 -10z"/>
<path d="M7241 13756 c-7 -8 -8 -17 -3 -20 6 -3 15 1 21 8 7 8 8 17 3 20 -6 3
-15 -1 -21 -8z"/>
<path d="M3814 13745 c13 -10 15 -15 6 -15 -7 0 -11 -3 -7 -6 3 -3 10 -3 16 0
15 10 2 36 -18 36 -14 -1 -13 -3 3 -15z"/>
<path d="M3770 13735 c0 -8 7 -15 15 -15 9 0 12 6 9 15 -4 8 -10 15 -15 15 -5
0 -9 -7 -9 -15z"/>
<path d="M3730 13736 c0 -2 7 -7 16 -10 8 -3 12 -2 9 4 -6 10 -25 14 -25 6z"/>
<path d="M3736 13706 c3 -8 0 -17 -6 -21 -12 -8 5 -35 22 -35 6 0 6 6 -1 14
-8 10 -9 16 -1 21 14 9 13 22 -4 28 -10 4 -13 1 -10 -7z"/>
<path d="M7180 13710 c0 -5 4 -10 9 -10 6 0 13 5 16 10 3 6 -1 10 -9 10 -9 0
-16 -4 -16 -10z"/>
<path d="M3696 13701 c-4 -7 -5 -15 -2 -18 9 -9 19 4 14 18 -4 11 -6 11 -12 0z"/>
<path d="M7120 13700 c0 -5 9 -10 21 -10 11 0 17 -4 14 -10 -3 -5 1 -10 9 -10
19 0 21 11 4 28 -15 15 -48 16 -48 2z"/>
<path d="M3663 13664 c-12 -25 -9 -27 19 -16 13 6 14 10 4 23 -10 15 -13 14
-23 -7z"/>
<path d="M6573 13633 c9 -2 23 -2 30 0 6 3 -1 5 -18 5 -16 0 -22 -2 -12 -5z"/>
<path d="M6688 13633 c7 -3 16 -2 19 1 4 3 -2 6 -13 5 -11 0 -14 -3 -6 -6z"/>
<path d="M6748 13633 c-16 -2 -28 -8 -28 -13 0 -7 47 1 85 15 13 4 -22 3 -57
-2z"/>
<path d="M3620 13620 c-8 -5 -18 -6 -24 -3 -5 3 -6 1 -2 -5 9 -15 33 -15 41
-1 10 15 2 20 -15 9z"/>
<path d="M6560 13610 c0 -6 7 -10 15 -10 8 0 15 2 15 4 0 2 -7 6 -15 10 -8 3
-15 1 -15 -4z"/>
<path d="M6620 13609 c0 -11 21 -15 52 -11 42 6 34 17 -12 17 -22 0 -40 -3
-40 -6z"/>
<path d="M6575 13580 c-16 -7 -17 -9 -3 -9 9 -1 20 4 23 9 7 11 7 11 -20 0z"/>
<path d="M3560 13550 c-7 -16 -23 -36 -36 -45 -24 -16 -32 -9 -14 13 5 7 2 6
-7 -2 -12 -11 -13 -19 -6 -28 6 -7 13 -22 16 -33 3 -13 5 -9 6 13 1 25 5 32
21 32 13 0 26 12 37 35 9 19 21 31 26 28 6 -3 7 -1 3 5 -13 21 -33 13 -46 -18z"/>
<path d="M3635 13570 c-3 -5 1 -10 9 -10 9 0 16 5 16 10 0 6 -4 10 -9 10 -6 0
-13 -4 -16 -10z"/>
<path d="M6508 13553 c7 -3 16 -2 19 1 4 3 -2 6 -13 5 -11 0 -14 -3 -6 -6z"/>
<path d="M3560 13490 c0 -5 9 -10 20 -10 11 0 20 5 20 10 0 6 -9 10 -20 10
-11 0 -20 -4 -20 -10z"/>
<path d="M3480 13464 c0 -8 5 -12 10 -9 6 3 10 10 10 16 0 5 -4 9 -10 9 -5 0
-10 -7 -10 -16z"/>
<path d="M3456 13455 c-3 -8 -1 -15 4 -15 6 0 10 7 10 15 0 8 -2 15 -4 15 -2
0 -6 -7 -10 -15z"/>
<path d="M6320 13460 c0 -5 11 -10 24 -10 14 0 28 5 31 10 4 6 -7 10 -24 10
-17 0 -31 -4 -31 -10z"/>
<path d="M6334 13425 c-17 -13 -17 -14 -2 -15 9 0 20 5 23 11 11 17 0 20 -21
4z"/>
<path d="M3440 13415 c0 -8 2 -15 4 -15 2 0 6 7 10 15 3 8 1 15 -4 15 -6 0
-10 -7 -10 -15z"/>
<path d="M3470 13414 c0 -8 5 -12 10 -9 6 3 10 10 10 16 0 5 -4 9 -10 9 -5 0
-10 -7 -10 -16z"/>
<path d="M6308 13393 c6 -2 18 -2 25 0 6 3 1 5 -13 5 -14 0 -19 -2 -12 -5z"/>
<path d="M6275 13379 c4 -5 1 -17 -7 -26 -12 -15 -11 -15 10 -4 26 14 28 26 6
35 -9 3 -12 2 -9 -5z"/>
<path d="M3415 13369 c-4 -6 -5 -12 -2 -15 2 -3 7 2 10 11 7 17 1 20 -8 4z"/>
<path d="M3429 13340 c-1 -5 -2 -14 -3 -19 0 -5 -4 -13 -8 -17 -13 -12 -9 -46
3 -38 8 4 9 -4 4 -27 -4 -19 -4 -31 0 -27 8 7 17 138 9 138 -2 0 -5 -4 -5 -10z"/>
<path d="M6001 13304 c0 -11 3 -14 6 -6 3 7 2 16 -1 19 -3 4 -6 -2 -5 -13z"/>
<path d="M6068 13313 c6 -2 18 -2 25 0 6 3 1 5 -13 5 -14 0 -19 -2 -12 -5z"/>
<path d="M6197 13313 c-4 -3 -22 -6 -41 -5 -23 1 -36 -4 -40 -15 -9 -22 1 -28
20 -12 9 7 26 15 37 16 19 3 50 23 36 23 -3 0 -9 -3 -12 -7z"/>
<path d="M6030 13270 c0 -5 16 -9 35 -8 23 1 31 4 23 9 -18 12 -58 11 -58 -1z"/>
<path d="M3383 13230 c0 -25 2 -35 4 -22 2 12 2 32 0 45 -2 12 -4 2 -4 -23z"/>
<path d="M5931 13213 c0 -16 4 -37 9 -48 7 -18 9 -18 15 -3 3 9 2 25 -3 35 -5
10 -7 24 -5 31 3 6 0 12 -6 12 -6 0 -11 -12 -10 -27z"/>
<path d="M3403 13195 c0 -22 2 -30 4 -17 2 12 2 30 0 40 -3 9 -5 -1 -4 -23z"/>
<path d="M5966 13213 c-6 -14 -5 -15 5 -6 7 7 10 15 7 18 -3 3 -9 -2 -12 -12z"/>
<path d="M3426 13168 c-7 -27 -8 -133 -1 -126 5 4 14 148 10 148 -2 0 -5 -10
-9 -22z"/>
<path d="M3382 13120 c0 -19 2 -27 5 -17 2 9 2 25 0 35 -3 9 -5 1 -5 -18z"/>
<path d="M5926 13125 c-9 -26 -7 -32 5 -12 6 10 9 21 6 23 -2 3 -7 -2 -11 -11z"/>
<path d="M3381 13063 c0 -12 4 -25 10 -29 6 -3 9 -15 6 -25 -3 -10 -1 -22 4
-25 5 -3 9 11 9 31 0 20 -4 34 -9 30 -5 -3 -12 5 -14 17 -4 23 -4 23 -6 1z"/>
<path d="M5885 13057 c-4 -10 -5 -21 -1 -24 10 -10 18 4 13 24 -4 17 -4 17
-12 0z"/>
<path d="M5846 13024 c-4 -20 -5 -38 -3 -40 3 -3 8 11 11 32 4 20 5 38 3 40
-3 3 -8 -11 -11 -32z"/>
<path d="M3422 12975 c-7 -15 -11 -30 -8 -32 7 -7 28 36 24 49 -2 6 -9 -2 -16
-17z"/>
<path d="M8425 12979 c5 -6 32 -13 103 -26 39 -6 42 -20 5 -25 -16 -2 0 -4 35
-4 52 1 60 3 46 13 -9 7 -37 15 -63 19 -25 4 -50 10 -56 14 -13 10 -75 18 -70
9z"/>
<path d="M8188 12973 c7 -3 16 -2 19 1 4 3 -2 6 -13 5 -11 0 -14 -3 -6 -6z"/>
<path d="M8570 12970 c0 -5 6 -10 14 -10 8 0 18 5 21 10 3 6 -3 10 -14 10 -12
0 -21 -4 -21 -10z"/>
<path d="M8825 12970 c3 -5 10 -10 16 -10 5 0 9 5 9 10 0 6 -7 10 -16 10 -8 0
-12 -4 -9 -10z"/>
<path d="M5846 12953 c-6 -14 -5 -15 5 -6 7 7 10 15 7 18 -3 3 -9 -2 -12 -12z"/>
<path d="M8124 12956 c21 -17 55 -19 96 -6 20 7 17 8 -20 8 -25 -1 -56 2 -70
6 -24 7 -24 7 -6 -8z"/>
<path d="M8400 12950 c0 -5 6 -10 14 -10 8 0 18 5 21 10 3 6 -3 10 -14 10 -12
0 -21 -4 -21 -10z"/>
<path d="M8040 12939 c-12 -8 -9 -9 13 -4 16 3 27 2 24 -2 -3 -4 14 -9 37 -10
29 -1 35 1 21 6 -40 17 -80 21 -95 10z"/>
<path d="M8465 12940 c27 -12 43 -12 25 0 -8 5 -22 9 -30 9 -10 0 -8 -3 5 -9z"/>
<path d="M8880 12943 c0 -8 -11 -11 -32 -8 l-33 5 32 -10 c21 -7 33 -18 35
-33 3 -20 4 -20 9 5 3 15 2 33 -2 40 -6 9 -9 10 -9 1z"/>
<path d="M8208 12923 c6 -2 18 -2 25 0 6 3 1 5 -13 5 -14 0 -19 -2 -12 -5z"/>
<path d="M5761 12768 c0 -72 4 -127 7 -121 4 5 13 12 21 15 11 3 14 23 12 88
-2 59 1 85 11 91 10 7 10 11 0 21 -9 9 -12 9 -12 -5 0 -9 -7 -17 -16 -17 -12
0 -14 7 -9 30 4 19 3 30 -5 30 -7 0 -10 -41 -9 -132z"/>
<path d="M7950 12881 c-7 -13 -7 -22 0 -26 5 -3 10 1 10 11 0 11 6 15 20 11
24 -6 27 8 4 17 -22 8 -22 8 -34 -13z"/>
<path d="M8925 12890 c3 -5 10 -10 16 -10 5 0 9 5 9 10 0 6 -7 10 -16 10 -8 0
-12 -4 -9 -10z"/>
<path d="M8960 12878 c0 -4 6 -8 14 -8 8 0 21 -3 30 -6 9 -3 16 -2 16 4 0 5
-13 12 -30 14 -16 3 -30 1 -30 -4z"/>
<path d="M3420 12871 c0 -6 5 -13 10 -16 6 -3 10 1 10 9 0 9 -4 16 -10 16 -5
0 -10 -4 -10 -9z"/>
<path d="M8916 12860 c5 -5 25 -12 44 -15 l35 -6 -34 15 c-38 18 -60 21 -45 6z"/>
<path d="M9060 12856 c0 -2 7 -6 15 -10 8 -3 15 -1 15 4 0 6 -7 10 -15 10 -8
0 -15 -2 -15 -4z"/>
<path d="M3413 12833 c8 -10 17 -31 20 -48 l4 -30 2 28 c1 32 -14 67 -31 67
-6 0 -5 -7 5 -17z"/>
<path d="M7978 12843 c7 -3 16 -2 19 1 4 3 -2 6 -13 5 -11 0 -14 -3 -6 -6z"/>
<path d="M9028 12843 c7 -3 16 -2 19 1 4 3 -2 6 -13 5 -11 0 -14 -3 -6 -6z"/>
<path d="M3395 12803 c4 -10 8 -24 8 -31 0 -8 4 -9 10 -3 11 11 0 51 -15 51
-6 0 -7 -7 -3 -17z"/>
<path d="M9130 12810 c12 -8 13 -11 1 -19 -10 -6 -10 -10 -1 -16 7 -4 16 -2
20 5 5 9 9 9 14 1 4 -6 5 -15 1 -20 -3 -5 -1 -12 4 -15 5 -3 11 0 14 8 6 15
-38 66 -57 66 -6 0 -4 -5 4 -10z"/>
<path d="M7887 12803 c-4 -3 -7 -20 -6 -37 l1 -31 8 35 c9 36 8 45 -3 33z"/>
<path d="M7912 12780 c0 -14 2 -19 5 -12 2 6 2 18 0 25 -3 6 -5 1 -5 -13z"/>
<path d="M9132 12729 c6 -16 13 -28 15 -25 8 8 -6 56 -17 56 -5 0 -5 -13 2
-31z"/>
<path d="M7912 12730 c0 -14 2 -19 5 -12 2 6 2 18 0 25 -3 6 -5 1 -5 -13z"/>
<path d="M7853 12713 c-7 -2 -13 -9 -13 -14 0 -4 7 -6 16 -2 9 3 20 0 24 -8 5
-7 12 -10 16 -7 6 6 -19 39 -28 37 -2 0 -9 -3 -15 -6z"/>
<path d="M9167 12713 c-4 -3 -7 -11 -7 -17 0 -6 5 -5 12 2 6 6 9 14 7 17 -3 3
-9 2 -12 -2z"/>
<path d="M9120 12679 c0 -7 -14 -8 -42 -4 -39 7 -41 6 -26 -9 9 -9 23 -16 31
-16 18 0 67 39 50 40 -7 0 -13 -5 -13 -11z"/>
<path d="M7726 12651 c-3 -5 3 -11 13 -14 14 -3 18 -1 14 9 -6 16 -19 18 -27
5z"/>
<path d="M5807 12643 c-4 -3 -7 -13 -7 -21 0 -12 3 -12 15 -2 8 7 15 16 15 21
0 11 -14 12 -23 2z"/>
<path d="M9041 12634 c0 -11 3 -14 6 -6 3 7 2 16 -1 19 -3 4 -6 -2 -5 -13z"/>
<path d="M9085 12630 c-3 -5 -2 -10 4 -10 5 0 13 5 16 10 3 6 2 10 -4 10 -5 0
-13 -4 -16 -10z"/>
<path d="M7658 12623 c7 -3 16 -2 19 1 4 3 -2 6 -13 5 -11 0 -14 -3 -6 -6z"/>
<path d="M5760 12605 c0 -8 4 -15 10 -15 5 0 7 7 4 15 -4 8 -8 15 -10 15 -2 0
-4 -7 -4 -15z"/>
<path d="M7590 12599 c0 -5 5 -7 10 -4 6 3 10 8 10 11 0 2 -4 4 -10 4 -5 0
-10 -5 -10 -11z"/>
<path d="M7673 12603 c9 -2 23 -2 30 0 6 3 -1 5 -18 5 -16 0 -22 -2 -12 -5z"/>
<path d="M8888 12570 c2 -16 8 -27 13 -24 5 3 7 10 3 15 -3 5 0 16 6 24 10 12
9 15 -7 15 -16 0 -19 -5 -15 -30z"/>
<path d="M5766 12563 c-6 -14 -5 -15 5 -6 7 7 10 15 7 18 -3 3 -9 -2 -12 -12z"/>
<path d="M7530 12570 c-8 -5 -12 -12 -9 -15 8 -8 39 5 39 16 0 11 -11 11 -30
-1z"/>
<path d="M8926 12571 c-4 -7 -5 -15 -2 -18 9 -9 19 4 14 18 -4 11 -6 11 -12 0z"/>
<path d="M3340 12555 c0 -8 4 -15 10 -15 5 0 7 7 4 15 -4 8 -8 15 -10 15 -2 0
-4 -7 -4 -15z"/>
<path d="M7510 12530 c-12 -8 -10 -10 8 -10 13 0 20 4 17 10 -7 12 -6 12 -25
0z"/>
<path d="M7555 12530 c-3 -5 1 -10 9 -10 9 0 16 5 16 10 0 6 -4 10 -9 10 -6 0
-13 -4 -16 -10z"/>
<path d="M3375 12493 c4 -16 7 -28 8 -28 1 -1 10 -7 20 -14 15 -12 17 -10 17
23 0 20 -5 36 -11 36 -6 0 -8 -9 -4 -20 4 -11 2 -20 -4 -20 -6 0 -11 11 -11
25 0 14 -5 25 -11 25 -7 0 -9 -10 -4 -27z"/>
<path d="M4130 12516 c0 -2 7 -9 15 -16 12 -10 15 -10 15 4 0 9 -7 16 -15 16
-8 0 -15 -2 -15 -4z"/>
<path d="M5693 12511 c16 -6 17 -9 4 -19 -15 -13 -11 -66 4 -56 5 3 7 10 3 15
-3 5 1 20 10 33 17 27 12 36 -18 35 -19 0 -19 -1 -3 -8z"/>
<path d="M8821 12494 c-16 -16 -19 -24 -10 -24 19 1 49 24 49 39 0 16 -12 12
-39 -15z"/>
<path d="M8890 12509 c0 -5 5 -7 10 -4 6 3 10 8 10 11 0 2 -4 4 -10 4 -5 0
-10 -5 -10 -11z"/>
<path d="M5740 12506 c0 -2 7 -9 15 -16 13 -11 14 -10 9 4 -5 14 -24 23 -24
12z"/>
<path d="M8871 12484 c0 -11 3 -14 6 -6 3 7 2 16 -1 19 -3 4 -6 -2 -5 -13z"/>
<path d="M3431 12474 c0 -11 3 -14 6 -6 3 7 2 16 -1 19 -3 4 -6 -2 -5 -13z"/>
<path d="M7420 12471 c-7 -13 -7 -27 0 -43 l11 -23 -5 24 c-3 13 -1 33 5 43 5
10 7 18 5 18 -3 0 -10 -9 -16 -19z"/>
<path d="M5730 12458 c-12 -22 -12 -22 6 -6 10 10 15 20 12 24 -4 3 -12 -5
-18 -18z"/>
<path d="M4080 12458 c0 -9 7 -19 16 -22 25 -10 27 -1 4 19 -17 15 -20 16 -20
3z"/>
<path d="M8835 12450 c-3 -5 -1 -10 4 -10 6 0 11 5 11 10 0 6 -2 10 -4 10 -3
0 -8 -4 -11 -10z"/>
<path d="M3426 12432 c-2 -4 13 -6 35 -4 21 2 39 6 39 8 0 7 -69 4 -74 -4z"/>
<path d="M3858 12433 c7 -3 16 -2 19 1 4 3 -2 6 -13 5 -11 0 -14 -3 -6 -6z"/>
<path d="M3913 12433 c9 -2 23 -2 30 0 6 3 -1 5 -18 5 -16 0 -22 -2 -12 -5z"/>
<path d="M4028 12433 c7 -3 16 -2 19 1 4 3 -2 6 -13 5 -11 0 -14 -3 -6 -6z"/>
<path d="M4232 12415 c0 -16 2 -22 5 -12 2 9 2 23 0 30 -3 6 -5 -1 -5 -18z"/>
<path d="M5638 12433 c6 -2 18 -2 25 0 6 3 1 5 -13 5 -14 0 -19 -2 -12 -5z"/>
<path d="M8161 12398 c2 -29 3 -34 6 -16 5 31 19 44 53 51 16 3 10 5 -17 6
l-43 1 1 -42z"/>
<path d="M8250 12425 c0 -8 5 -15 10 -15 6 0 10 7 10 15 0 8 -4 15 -10 15 -5
0 -10 -7 -10 -15z"/>
<path d="M8290 12431 c0 -5 -3 -16 -6 -24 -3 -9 3 -16 15 -20 12 -3 21 -1 21
4 0 5 -5 9 -11 9 -6 0 -8 9 -4 20 4 11 2 20 -4 20 -6 0 -11 -4 -11 -9z"/>
<path d="M8648 12433 c7 -3 16 -2 19 1 4 3 -2 6 -13 5 -11 0 -14 -3 -6 -6z"/>
<path d="M8703 12433 c9 -2 17 -9 17 -14 0 -6 5 -7 11 -3 14 8 -8 24 -31 23
-11 -1 -10 -3 3 -6z"/>
<path d="M3485 12421 c-29 -7 -29 -7 -7 -15 12 -4 22 -14 22 -22 0 -8 4 -14 9
-14 4 0 8 13 7 30 -1 16 -1 29 -1 29 0 -1 -13 -4 -30 -8z"/>
<path d="M3800 12420 c20 -13 40 -13 40 0 0 6 -12 10 -27 10 -22 0 -25 -2 -13
-10z"/>
<path d="M4196 12416 c21 -15 30 -14 19 3 -3 6 -14 11 -23 11 -13 0 -13 -2 4
-14z"/>
<path d="M3861 12416 c2 -2 22 -6 44 -9 27 -4 35 -3 25 3 -14 9 -79 15 -69 6z"/>
<path d="M3978 12413 c12 -2 30 -2 40 0 9 3 -1 5 -23 4 -22 0 -30 -2 -17 -4z"/>
<path d="M5643 12413 c-30 -6 -44 -25 -33 -43 8 -12 10 -10 10 9 0 20 4 23 34
19 24 -3 32 0 29 9 -3 7 -8 12 -12 12 -3 -1 -16 -4 -28 -6z"/>
<path d="M8645 12410 c-3 -6 5 -10 19 -10 14 0 28 5 31 10 3 6 -5 10 -19 10
-14 0 -28 -4 -31 -10z"/>
<path d="M8760 12409 c0 -5 5 -7 10 -4 6 3 10 8 10 11 0 2 -4 4 -10 4 -5 0
-10 -5 -10 -11z"/>
<path d="M3760 12399 c0 -5 5 -7 10 -4 6 3 10 8 10 11 0 2 -4 4 -10 4 -5 0
-10 -5 -10 -11z"/>
<path d="M7401 12394 c0 -11 3 -14 6 -6 3 7 2 16 -1 19 -3 4 -6 -2 -5 -13z"/>
<path d="M8340 12406 c0 -2 7 -9 15 -16 12 -10 15 -10 15 4 0 9 -7 16 -15 16
-8 0 -15 -2 -15 -4z"/>
<path d="M3825 12393 c-33 -7 -48 -13 -44 -18 3 -2 27 2 54 10 46 12 37 19
-10 8z"/>
<path d="M7433 12365 c0 -22 2 -30 4 -17 2 12 2 30 0 40 -3 9 -5 -1 -4 -23z"/>
<path d="M8200 12384 c0 -14 3 -14 15 -4 8 7 15 14 15 16 0 2 -7 4 -15 4 -8 0
-15 -7 -15 -16z"/>
<path d="M5645 12380 c-3 -5 -2 -10 4 -10 5 0 13 5 16 10 3 6 2 10 -4 10 -5 0
-13 -4 -16 -10z"/>
<path d="M8660 12380 c-11 -8 -7 -9 15 -4 37 8 45 14 19 14 -10 0 -26 -5 -34
-10z"/>
<path d="M4265 12349 c-4 -6 -5 -11 -4 -12 2 -2 13 -9 24 -17 l20 -15 -20 24
c-17 21 -18 24 -2 18 9 -4 17 -2 17 3 0 13 -27 13 -35 -1z"/>
<path d="M4315 12350 c3 -5 8 -10 11 -10 2 0 4 5 4 10 0 6 -5 10 -11 10 -5 0
-7 -4 -4 -10z"/>
<path d="M4361 12346 c-10 -11 -7 -18 11 -30 16 -11 24 -13 27 -5 2 6 -3 15
-10 20 -12 8 -12 11 1 19 13 8 13 10 -1 10 -9 0 -22 -6 -28 -14z"/>
<path d="M5140 12342 c-6 -7 -9 -16 -5 -20 3 -3 9 -1 13 5 9 15 104 13 114 -2
4 -5 10 -6 14 -3 3 4 0 13 -7 20 -18 17 -113 17 -129 0z"/>
<path d="M5549 12347 c6 -8 8 -17 4 -21 -4 -4 0 -4 10 0 14 5 15 9 6 20 -6 8
-16 14 -21 14 -7 0 -6 -5 1 -13z"/>
<path d="M7400 12345 c0 -8 2 -15 4 -15 2 0 6 7 10 15 3 8 1 15 -4 15 -6 0
-10 -7 -10 -15z"/>
<path d="M7953 12353 c9 -2 23 -2 30 0 6 3 -1 5 -18 5 -16 0 -22 -2 -12 -5z"/>
<path d="M8053 12353 c9 -2 23 -2 30 0 6 3 -1 5 -18 5 -16 0 -22 -2 -12 -5z"/>
<path d="M8488 12353 c7 -3 16 -2 19 1 4 3 -2 6 -13 5 -11 0 -14 -3 -6 -6z"/>
<path d="M5448 12343 c6 -2 18 -2 25 0 6 3 1 5 -13 5 -14 0 -19 -2 -12 -5z"/>
<path d="M5512 12334 c-7 -8 -8 -14 -3 -14 10 0 25 19 20 25 -2 1 -10 -3 -17
-11z"/>
<path d="M5090 12332 c0 -4 10 -16 22 -26 19 -16 20 -17 15 -1 -4 9 -7 21 -7
26 0 5 -7 9 -15 9 -8 0 -15 -3 -15 -8z"/>
<path d="M8000 12331 c0 -10 83 -19 118 -13 43 8 21 17 -48 20 -39 1 -70 -2
-70 -7z"/>
<path d="M4313 12315 c0 -8 9 -15 19 -15 10 0 18 -4 18 -10 0 -5 12 -13 28
-16 15 -4 32 -10 37 -14 6 -4 21 0 35 7 l25 15 -27 -6 c-28 -6 -74 10 -114 39
-18 13 -21 14 -21 0z"/>
<path d="M5378 12313 c12 -2 32 -2 45 0 12 2 2 4 -23 4 -25 0 -35 -2 -22 -4z"/>
<path d="M7954 12306 c-10 -8 -15 -18 -11 -22 4 -5 12 -2 17 5 4 8 23 14 42
14 26 -1 29 1 13 7 -29 12 -39 12 -61 -4z"/>
<path d="M5198 12303 c12 -2 30 -2 40 0 9 3 -1 5 -23 4 -22 0 -30 -2 -17 -4z"/>
<path d="M7432 12290 c0 -14 2 -19 5 -12 2 6 2 18 0 25 -3 6 -5 1 -5 -13z"/>
<path d="M5040 12290 c0 -5 7 -10 15 -10 8 0 15 5 15 10 0 6 -7 10 -15 10 -8
0 -15 -4 -15 -10z"/>
<path d="M4960 12265 l35 -12 -40 -8 c-48 -9 -57 -14 -50 -25 3 -5 28 1 55 12
27 11 47 24 44 29 -7 12 -1 11 33 -2 22 -8 25 -8 16 2 -7 7 -38 13 -70 15 -58
2 -58 2 -23 -11z"/>
<path d="M7394 12254 c-5 -18 -1 -29 12 -39 11 -8 15 -15 11 -15 -4 0 -2 -6 5
-14 8 -8 17 -10 24 -5 14 11 66 -3 72 -20 3 -10 -4 -11 -29 -6 -23 5 -31 4
-24 -3 13 -13 30 -15 133 -13 l82 1 0 30 0 30 -80 0 c-44 0 -80 -4 -80 -9 0
-6 -14 -5 -35 0 -19 6 -40 7 -47 3 -8 -5 -9 0 -5 15 4 18 2 21 -10 17 -13 -5
-14 -1 -10 24 8 36 -10 41 -19 4z"/>
<path d="M7863 12273 c9 -2 17 -9 17 -14 0 -6 5 -7 11 -3 14 8 -8 24 -31 23
-11 -1 -10 -3 3 -6z"/>
<path d="M4470 12260 c-8 -5 -11 -12 -7 -16 4 -4 15 0 24 9 18 18 8 23 -17 7z"/>
<path d="M7840 12254 c0 -17 17 -36 24 -26 3 5 -1 15 -9 22 -8 7 -15 9 -15 4z"/>
<path d="M4545 12240 c3 -5 8 -10 11 -10 2 0 4 5 4 10 0 6 -5 10 -11 10 -5 0
-7 -4 -4 -10z"/>
<path d="M5010 12240 c-8 -5 -10 -10 -5 -10 6 0 17 5 25 10 8 5 11 10 5 10 -5
0 -17 -5 -25 -10z"/>
<path d="M4493 12223 c9 -2 23 -2 30 0 6 3 -1 5 -18 5 -16 0 -22 -2 -12 -5z"/>
<path d="M4705 12190 c-13 -5 -14 -9 -5 -9 8 0 24 4 35 9 13 5 14 9 5 9 -8 0
-24 -4 -35 -9z"/>
<path d="M7760 12180 c0 -5 5 -10 10 -10 6 0 10 5 10 10 0 6 -4 10 -10 10 -5
0 -10 -4 -10 -10z"/>
<path d="M7800 12174 c0 -8 5 -12 10 -9 6 4 8 11 5 16 -9 14 -15 11 -15 -7z"/>
<path d="M9625 11330 l-40 -7 53 -2 c29 0 52 3 52 9 0 11 -5 11 -65 0z"/>
<path d="M9750 11330 c-12 -8 -10 -10 8 -10 13 0 20 4 17 10 -7 12 -6 12 -25
0z"/>
<path d="M9808 11323 c7 -3 16 -2 19 1 4 3 -2 6 -13 5 -11 0 -14 -3 -6 -6z"/>
<path d="M9878 11323 c7 -3 16 -2 19 1 4 3 -2 6 -13 5 -11 0 -14 -3 -6 -6z"/>
<path d="M9547 11303 c-3 -5 8 -8 25 -9 20 -1 25 2 16 7 -16 11 -35 11 -41 2z"/>
<path d="M10120 11300 c-25 -8 -25 -8 -2 -9 21 -1 22 -2 8 -17 -14 -14 -22
-34 -12 -34 1 0 17 5 35 11 29 10 43 29 21 29 -5 0 -10 -4 -10 -10 0 -5 -7
-10 -17 -10 -15 0 -15 1 0 18 29 32 23 37 -23 22z"/>
<path d="M10370 11300 c0 -5 5 -10 11 -10 5 0 7 5 4 10 -3 6 -8 10 -11 10 -2
0 -4 -4 -4 -10z"/>
<path d="M9970 11296 c0 -2 7 -7 16 -10 8 -3 12 -2 9 4 -6 10 -25 14 -25 6z"/>
<path d="M10332 11287 c9 -9 31 -17 49 -17 25 0 29 -3 20 -13 -8 -10 -7 -14 4
-14 8 0 12 4 9 9 -3 4 -1 8 5 8 5 0 13 -5 17 -11 4 -8 9 -8 17 0 18 18 -7 34
-55 36 -24 1 -52 5 -63 10 -19 8 -19 8 -3 -8z m108 -17 c8 -5 11 -10 5 -10 -5
0 -17 5 -25 10 -8 5 -10 10 -5 10 6 0 17 -5 25 -10z"/>
<path d="M9938 11283 c-27 -7 -21 -21 7 -19 14 0 25 4 25 8 0 11 -13 15 -32
11z"/>
<path d="M10062 11281 c-8 -5 -6 -12 8 -24 19 -16 20 -16 20 3 0 22 -11 31
-28 21z"/>
<path d="M9581 11266 c-9 -10 -8 -15 2 -19 8 -3 13 3 14 14 2 23 -1 24 -16 5z"/>
<path d="M9470 11260 c-9 -6 -10 -10 -3 -10 6 0 15 5 18 10 8 12 4 12 -15 0z"/>
<path d="M9510 11255 c-9 -10 -9 -15 -1 -15 6 0 11 5 11 12 0 9 3 9 12 0 7 -7
16 -12 21 -12 5 0 2 7 -7 15 -8 8 -17 15 -19 15 -3 0 -10 -7 -17 -15z"/>
<path d="M9990 11260 c0 -5 5 -10 11 -10 5 0 7 5 4 10 -3 6 -8 10 -11 10 -2 0
-4 -4 -4 -10z"/>
<path d="M10035 11250 c27 -12 43 -12 25 0 -8 5 -22 9 -30 9 -10 0 -8 -3 5 -9z"/>
<path d="M10470 11246 c0 -2 7 -7 16 -10 8 -3 12 -2 9 4 -6 10 -25 14 -25 6z"/>
<path d="M9415 11220 c-3 -6 1 -7 9 -4 18 7 21 14 7 14 -6 0 -13 -4 -16 -10z"/>
<path d="M10630 11220 c11 -7 5 -10 -25 -10 -22 0 -47 -4 -54 -9 -10 -6 -1 -8
25 -4 22 3 57 0 78 -6 25 -6 45 -7 55 -1 12 7 7 9 -20 10 -23 0 -39 6 -43 15
-3 8 -11 15 -18 15 -9 0 -8 -3 2 -10z"/>
<path d="M10518 11213 c6 -2 18 -2 25 0 6 3 1 5 -13 5 -14 0 -19 -2 -12 -5z"/>
<path d="M9278 11203 c7 -3 16 -2 19 1 4 3 -2 6 -13 5 -11 0 -14 -3 -6 -6z"/>
<path d="M9302 11195 c-22 -12 -27 -24 -15 -35 4 -3 3 1 -2 9 -6 10 -2 12 15
6 42 -13 69 -13 63 1 -4 10 6 14 38 15 l44 2 -40 6 c-31 5 -43 2 -55 -11 -11
-13 -19 -15 -30 -8 -12 8 -11 10 8 10 12 0 22 5 22 10 0 13 -19 11 -48 -5z"/>
<path d="M9210 11184 c-30 -11 -32 -13 -10 -13 14 -1 32 3 40 9 24 15 8 17
-30 4z"/>
<path d="M10765 11191 c6 -11 4 -13 -8 -8 -9 3 -29 0 -44 -8 -28 -15 -28 -15
16 -10 51 5 60 11 41 28 -10 10 -11 9 -5 -2z"/>
<path d="M10480 11180 c0 -17 22 -21 55 -10 l30 9 -30 -1 c-17 -1 -36 1 -43 5
-7 5 -12 3 -12 -3z"/>
<path d="M10608 11173 c6 -2 18 -2 25 0 6 3 1 5 -13 5 -14 0 -19 -2 -12 -5z"/>
<path d="M9408 11163 c7 -3 16 -2 19 1 4 3 -2 6 -13 5 -11 0 -14 -3 -6 -6z"/>
<path d="M9121 11131 c-29 -26 -31 -30 -12 -28 13 1 20 6 17 14 -3 7 1 13 8
13 8 0 16 7 20 15 8 21 4 19 -33 -14z"/>
<path d="M9175 11150 c3 -5 11 -10 16 -10 6 0 7 5 4 10 -3 6 -11 10 -16 10 -6
0 -7 -4 -4 -10z"/>
<path d="M10801 11129 c-1 -9 8 -24 19 -34 11 -10 20 -13 20 -7 0 6 -6 15 -14
19 -7 4 -16 15 -19 23 -5 13 -6 13 -6 -1z"/>
<path d="M9160 11119 c0 -5 5 -7 10 -4 6 3 10 8 10 11 0 2 -4 4 -10 4 -5 0
-10 -5 -10 -11z"/>
<path d="M9060 11096 c0 -2 7 -7 16 -10 8 -3 12 -2 9 4 -6 10 -25 14 -25 6z"/>
<path d="M9128 11083 c7 -3 16 -2 19 1 4 3 -2 6 -13 5 -11 0 -14 -3 -6 -6z"/>
<path d="M9178 11083 c7 -3 16 -2 19 1 4 3 -2 6 -13 5 -11 0 -14 -3 -6 -6z"/>
<path d="M10803 11067 c0 -12 1 -16 4 -8 5 11 7 11 14 0 5 -8 9 -9 9 -3 0 6
-6 16 -13 22 -10 8 -13 6 -14 -11z"/>
<path d="M9024 11052 c11 -18 -4 -37 -16 -21 -7 10 -8 9 -4 -5 4 -11 1 -23 -6
-28 -8 -5 -5 -7 11 -5 17 3 25 11 27 30 1 15 -2 30 -8 33 -7 4 -8 2 -4 -4z"/>
<path d="M10806 11024 c-6 -15 -4 -15 11 -3 10 7 20 15 22 16 2 2 -3 3 -11 3
-9 0 -19 -7 -22 -16z"/>
<path d="M10650 10989 c-10 -7 -11 -12 -4 -15 6 -3 9 -17 7 -32 -3 -26 -3 -26
8 -4 7 12 20 22 31 22 10 0 18 5 18 10 0 6 -11 8 -25 4 -15 -4 -25 -2 -25 4 0
6 8 13 18 15 12 3 13 5 2 6 -8 0 -22 -4 -30 -10z"/>
<path d="M10708 10993 c7 -3 16 -2 19 1 4 3 -2 6 -13 5 -11 0 -14 -3 -6 -6z"/>
<path d="M10746 10991 c2 -2 -4 -10 -14 -18 -16 -12 -16 -13 2 -6 14 5 17 3
11 -7 -5 -9 -4 -11 4 -6 6 4 8 12 5 18 -5 7 -1 9 9 5 8 -3 17 0 20 6 3 7 -5
12 -18 12 -13 0 -22 -2 -19 -4z"/>
<path d="M9003 10969 c-11 -11 -6 -49 6 -49 4 0 8 14 8 30 0 34 0 33 -14 19z"/>
<path d="M9030 10951 c0 -21 -11 -39 -35 -63 -21 -20 -41 -51 -49 -77 -7 -25
-19 -47 -27 -49 -11 -4 -12 -2 -1 9 14 15 16 55 3 63 -5 4 -7 -3 -4 -14 3 -11
0 -26 -6 -34 -14 -16 -4 -46 15 -46 8 0 14 7 14 16 0 8 3 13 8 11 4 -3 7 10 8
28 1 41 23 73 36 53 6 -9 7 -5 3 10 -4 13 -2 22 5 22 6 0 15 -10 21 -22 7 -18
8 -15 4 17 -4 29 -3 36 4 25 8 -11 11 -3 11 33 0 26 -2 47 -5 47 -3 0 -5 -13
-5 -29z"/>
<path d="M10685 10940 c-8 -13 5 -13 25 0 13 8 13 10 -2 10 -9 0 -20 -4 -23
-10z"/>
<path d="M10489 10920 c-7 -27 -4 -72 6 -80 15 -12 30 3 21 19 -4 5 -1 11 5
13 6 2 3 13 -10 28 -11 14 -21 23 -22 20z m16 -50 c1 -17 -1 -28 -4 -24 -3 3
-6 19 -7 35 -1 17 1 28 4 25 3 -3 6 -19 7 -36z"/>
<path d="M10526 10908 c3 -5 10 -6 15 -3 13 9 11 12 -6 12 -8 0 -12 -4 -9 -9z"/>
<path d="M10567 10909 c7 -7 15 -10 18 -7 3 3 -2 9 -12 12 -14 6 -15 5 -6 -5z"/>
<path d="M10480 10809 c0 -5 5 -7 10 -4 6 3 10 8 10 11 0 2 -4 4 -10 4 -5 0
-10 -5 -10 -11z"/>
<path d="M10404 10739 c0 -10 6 -15 13 -12 9 3 11 0 7 -10 -3 -8 -1 -18 5 -22
7 -3 8 0 5 9 -4 11 0 16 10 16 21 0 20 17 -1 24 -10 3 -6 4 9 2 15 -2 25 1 22
5 -3 5 -20 8 -37 6 -23 -1 -33 -7 -33 -18z"/>
<path d="M9777 10730 c11 -12 33 -24 48 -25 14 -2 33 -9 41 -16 8 -6 17 -10
19 -7 9 9 -22 29 -47 30 -13 1 -30 7 -38 13 -31 24 -44 27 -23 5z"/>
<path d="M9821 10740 c-9 -5 -4 -7 13 -7 29 0 32 2 13 10 -8 3 -20 2 -26 -3z"/>
<path d="M9887 10736 c-19 -14 -17 -18 17 -30 16 -6 17 -4 6 10 -12 13 -11 17
1 25 8 5 10 9 4 9 -5 -1 -18 -7 -28 -14z"/>
<path d="M8952 10715 c0 -16 2 -22 5 -12 2 9 2 23 0 30 -3 6 -5 -1 -5 -18z"/>
<path d="M8900 10717 c0 -23 40 -97 53 -97 9 0 9 2 1 8 -7 4 -17 26 -23 49
-11 41 -31 67 -31 40z"/>
<path d="M9763 10705 c0 -8 4 -12 9 -9 5 3 6 10 3 15 -9 13 -12 11 -12 -6z"/>
<path d="M10396 10683 c-6 -14 -5 -15 5 -6 7 7 10 15 7 18 -3 3 -9 -2 -12 -12z"/>
<path d="M9900 10680 c0 -5 5 -10 10 -10 6 0 10 5 10 10 0 6 -4 10 -10 10 -5
0 -10 -4 -10 -10z"/>
<path d="M9020 10670 c0 -5 -16 -10 -35 -10 -19 0 -35 -4 -35 -10 0 -5 16 -10
35 -10 19 0 35 5 35 10 0 6 5 10 10 10 6 0 10 -7 10 -15 0 -8 -4 -15 -10 -15
-5 0 -10 -7 -10 -15 0 -8 5 -15 10 -15 6 0 10 7 10 15 0 8 5 15 10 15 6 0 10
-4 10 -10 0 -14 15 -13 56 5 29 12 33 18 26 31 -11 19 -72 26 -85 9 -6 -7 -10
-6 -14 3 -6 14 -23 16 -23 2z m86 -20 c8 0 14 -4 14 -10 0 -5 -13 -10 -30 -10
-21 0 -30 5 -30 16 0 11 5 14 16 10 9 -3 22 -6 30 -6z"/>
<path d="M9722 10666 c7 -8 15 -12 17 -11 5 6 -10 25 -20 25 -5 0 -4 -6 3 -14z"/>
<path d="M9989 10672 c9 -7 10 -11 2 -15 -7 -4 -8 -5 0 -3 15 2 13 20 -3 24
-10 3 -10 2 1 -6z"/>
<path d="M10035 10670 c19 -8 123 -14 114 -6 -2 2 -33 6 -69 9 -40 4 -57 2
-45 -3z"/>
<path d="M10160 10670 c0 -6 15 -10 34 -10 19 0 42 -3 50 -6 11 -4 15 -2 11 7
-6 16 -95 24 -95 9z"/>
<path d="M10278 10673 c7 -3 16 -2 19 1 4 3 -2 6 -13 5 -11 0 -14 -3 -6 -6z"/>
<path d="M10320 10671 c0 -5 -10 -12 -22 -14 -17 -3 -14 -5 9 -6 25 -1 31 2
27 14 -7 17 -14 20 -14 6z"/>
<path d="M10357 10669 c7 -7 15 -10 18 -7 3 3 -2 9 -12 12 -14 6 -15 5 -6 -5z"/>
<path d="M9684 10619 c-1 -31 3 -34 26 -19 10 6 11 10 3 10 -7 0 -13 6 -13 14
0 29 -15 24 -16 -5z"/>
<path d="M9710 10647 c0 -4 6 -16 13 -27 9 -16 9 -22 0 -28 -6 -4 -14 -21 -17
-37 l-6 -30 12 28 c7 15 15 27 20 27 13 0 9 35 -7 56 -8 10 -15 16 -15 11z"/>
<path d="M10168 10643 c6 -2 18 -2 25 0 6 3 1 5 -13 5 -14 0 -19 -2 -12 -5z"/>
<path d="M9155 10620 c-9 -14 4 -32 17 -24 6 4 8 2 5 -3 -4 -6 -1 -15 6 -21
10 -8 12 -5 11 15 -1 27 -28 50 -39 33z"/>
<path d="M9675 10521 c-3 -5 -27 -8 -53 -6 -26 1 -39 1 -29 -2 9 -2 15 -8 12
-13 -3 -5 0 -12 6 -16 8 -4 9 -3 5 4 -4 7 -3 12 3 12 5 0 13 -4 16 -10 3 -5
11 -10 16 -10 6 0 7 5 3 12 -5 7 -2 9 8 6 8 -4 21 -2 29 3 11 7 11 9 1 9 -7 0
-10 5 -7 10 3 6 4 10 1 10 -3 0 -7 -4 -11 -9z"/>
<path d="M9244 10503 c0 -13 9 -19 29 -20 16 -1 25 2 22 8 -4 5 -11 7 -16 4
-5 -4 -12 1 -15 9 -8 21 -20 20 -20 -1z"/>
<path d="M9313 10505 c0 -8 7 -15 15 -15 12 0 12 3 2 15 -7 8 -13 15 -15 15
-1 0 -2 -7 -2 -15z"/>
<path d="M9521 10504 c0 -11 3 -14 6 -6 3 7 2 16 -1 19 -3 4 -6 -2 -5 -13z"/>
<path d="M9550 10471 c0 -6 19 -9 43 -9 31 1 37 3 22 9 -28 11 -65 11 -65 0z"/>
<path d="M9298 10463 c7 -3 16 -2 19 1 4 3 -2 6 -13 5 -11 0 -14 -3 -6 -6z"/>
<path d="M9338 10463 c7 -3 16 -2 19 1 4 3 -2 6 -13 5 -11 0 -14 -3 -6 -6z"/>
<path d="M14377 10392 c16 -13 15 -14 -12 -8 -20 4 -25 4 -16 -3 8 -5 30 -9
50 -9 32 0 33 1 13 9 -13 5 -21 12 -18 17 2 4 -4 8 -15 8 -19 0 -20 -1 -2 -14z"/>
<path d="M14418 10393 c6 -2 18 -2 25 0 6 3 1 5 -13 5 -14 0 -19 -2 -12 -5z"/>
<path d="M14475 10390 c-18 -8 -18 -9 -2 -9 10 -1 16 -5 13 -9 -2 -4 4 -8 15
-8 10 0 19 4 19 8 0 5 9 3 20 -4 11 -7 20 -18 20 -25 0 -7 5 -13 10 -13 15 0
12 6 -13 34 -17 18 -30 24 -48 20 -19 -5 -21 -3 -9 5 18 13 3 13 -25 1z"/>
<path d="M14758 10383 c6 -2 18 -2 25 0 6 3 1 5 -13 5 -14 0 -19 -2 -12 -5z"/>
<path d="M14665 10370 c-13 -6 -15 -9 -5 -9 8 0 22 4 30 9 18 12 2 12 -25 0z"/>
<path d="M14800 10370 c-21 -7 -21 -8 -5 -9 11 0 27 4 35 9 18 11 5 11 -30 0z"/>
<path d="M14287 10335 c-16 -20 -32 -33 -37 -30 -6 3 -7 -1 -4 -10 4 -10 10
-12 18 -6 7 6 17 6 26 1 8 -6 20 -10 25 -10 6 0 3 5 -5 10 -11 7 -11 10 -2 10
10 0 10 5 2 20 -8 14 -8 20 0 20 6 0 9 4 6 9 -4 5 0 12 6 14 7 3 9 6 3 6 -5 1
-23 -15 -38 -34z m5 -27 c-7 -7 -12 -8 -12 -2 0 14 12 26 19 19 2 -3 -1 -11
-7 -17z"/>
<path d="M14718 10363 c6 -2 18 -2 25 0 6 3 1 5 -13 5 -14 0 -19 -2 -12 -5z"/>
<path d="M14917 10349 c7 -7 15 -10 18 -7 3 3 -2 9 -12 12 -14 6 -15 5 -6 -5z"/>
<path d="M14880 10342 c0 -27 167 -39 192 -14 8 8 9 12 1 12 -6 0 -13 -4 -15
-9 -1 -4 -27 -5 -55 -1 -29 3 -53 3 -53 -2 0 -14 -27 -9 -40 7 -14 16 -30 20
-30 7z"/>
<path d="M14600 10330 c-8 -5 -12 -11 -9 -14 3 -3 14 1 25 9 21 16 8 20 -16 5z"/>
<path d="M15171 10331 c-7 -5 -11 -13 -7 -19 7 -12 134 -4 156 10 12 7 10 8
-5 4 -18 -5 -107 -9 -130 -7 -5 1 -3 6 5 11 8 5 11 10 5 10 -5 0 -16 -4 -24
-9z"/>
<path d="M14880 10310 c0 -5 5 -10 11 -10 5 0 7 5 4 10 -3 6 -8 10 -11 10 -2
0 -4 -4 -4 -10z"/>
<path d="M15115 10310 c4 -6 -6 -10 -22 -11 -15 0 -36 -3 -45 -7 -9 -4 33 -8
94 -10 61 -1 109 1 105 4 -3 4 -29 6 -57 5 -36 0 -52 4 -56 14 -4 8 -10 15
-16 15 -5 0 -6 -4 -3 -10z"/>
<path d="M14970 10300 c0 -12 28 -25 36 -17 3 3 -4 10 -15 17 -15 7 -21 7 -21
0z"/>
<path d="M15333 10303 c9 -2 23 -2 30 0 6 3 -1 5 -18 5 -16 0 -22 -2 -12 -5z"/>
<path d="M14575 10290 c-3 -5 -1 -10 4 -10 6 0 11 5 11 10 0 6 -2 10 -4 10 -3
0 -8 -4 -11 -10z"/>
<path d="M14625 10290 c-3 -5 -1 -10 4 -10 6 0 11 5 11 10 0 6 -2 10 -4 10 -3
0 -8 -4 -11 -10z"/>
<path d="M14910 10296 c0 -2 11 -6 25 -8 14 -3 25 -1 25 3 0 5 -11 9 -25 9
-14 0 -25 -2 -25 -4z"/>
<path d="M14135 10270 c-3 -11 -11 -20 -16 -20 -22 0 -6 -15 18 -17 14 0 21 2
15 6 -7 4 -8 12 -2 21 12 19 12 30 1 30 -5 0 -13 -9 -16 -20z"/>
<path d="M14080 10255 c-14 -8 -19 -14 -11 -15 19 0 -6 -30 -26 -30 -13 0 -13
3 -2 18 13 15 12 16 -3 3 -31 -23 -20 -29 51 -27 64 1 80 16 19 16 -32 0 -33
19 -3 37 28 17 5 15 -25 -2z"/>
<path d="M15444 10241 c0 -11 5 -17 13 -14 10 4 11 9 2 19 -15 18 -15 18 -15
-5z"/>
<path d="M15449 10208 c-5 -16 -2 -63 5 -65 5 -1 13 -7 17 -15 6 -9 9 -6 9 12
0 14 3 35 6 48 5 18 2 22 -15 22 -11 0 -21 -1 -22 -2z m18 -40 c-3 -7 -5 -2
-5 12 0 14 2 19 5 13 2 -7 2 -19 0 -25z"/>
<path d="M13984 10169 c-3 -6 -2 -15 3 -20 5 -5 9 -1 9 11 0 23 -2 24 -12 9z"/>
<path d="M13976 10115 c4 -8 7 -15 9 -15 2 0 5 7 9 15 3 9 0 15 -9 15 -9 0
-12 -6 -9 -15z"/>
<path d="M15444 10074 c3 -9 6 -23 6 -32 0 -13 3 -12 14 4 10 13 11 23 4 31
-15 18 -31 16 -24 -3z"/>
<path d="M13984 10046 c1 -20 26 -36 26 -16 0 6 -4 9 -9 5 -5 -3 -11 3 -14 12
-3 15 -4 15 -3 -1z"/>
<path d="M14030 10027 c0 -17 25 -40 39 -35 6 1 -1 14 -14 27 -18 17 -25 19
-25 8z"/>
<path d="M14065 10030 c3 -5 8 -10 11 -10 2 0 4 5 4 10 0 6 -5 10 -11 10 -5 0
-7 -4 -4 -10z"/>
<path d="M15170 10030 c0 -5 -11 -12 -25 -16 -37 -9 -31 -28 6 -20 17 3 35 6
40 6 5 0 9 9 9 20 0 11 -7 20 -15 20 -8 0 -15 -4 -15 -10z"/>
<path d="M15281 10036 c10 -9 79 -14 79 -5 0 5 -19 9 -42 9 -23 0 -39 -2 -37
-4z"/>
<path d="M15417 10024 c4 -12 0 -14 -21 -8 -15 4 -26 2 -26 -4 0 -6 8 -13 18
-15 13 -4 12 -5 -5 -6 -12 0 -23 4 -25 11 -3 8 -9 8 -22 1 -16 -9 -14 -11 16
-17 42 -8 59 -2 75 23 10 15 9 20 -2 25 -9 3 -12 0 -8 -10z"/>
<path d="M5120 10016 c-25 -6 -58 -18 -74 -27 -24 -13 -26 -17 -12 -22 11 -5
15 -3 10 5 -5 8 -2 9 10 5 10 -4 30 -9 44 -12 21 -4 19 -2 -7 8 l-34 13 40 12
c22 7 50 12 62 12 11 0 21 5 21 10 0 11 0 11 -60 -4z"/>
<path d="M5440 10010 c0 -5 -13 -10 -30 -10 -16 0 -30 -3 -30 -8 0 -4 15 -7
33 -7 19 0 31 -5 30 -11 -1 -8 6 -10 19 -6 l22 5 -22 8 c-14 5 -20 14 -16 24
3 8 3 15 0 15 -3 0 -6 -4 -6 -10z"/>
<path d="M4755 10000 c-3 -5 -2 -10 4 -10 5 0 18 -3 28 -7 17 -6 17 -6 1 10
-19 20 -24 21 -33 7z"/>
<path d="M4818 10003 c7 -3 16 -2 19 1 4 3 -2 6 -13 5 -11 0 -14 -3 -6 -6z"/>
<path d="M4875 10000 c16 -7 12 -9 -20 -11 -33 -2 -35 -3 -11 -6 15 -3 40 -1
55 2 24 7 25 8 6 15 -27 12 -56 11 -30 0z"/>
<path d="M5109 9989 c-10 -6 -7 -9 14 -9 29 0 35 5 14 13 -8 3 -20 1 -28 -4z"/>
<path d="M5168 9993 c6 -2 18 -2 25 0 6 3 1 5 -13 5 -14 0 -19 -2 -12 -5z"/>
<path d="M5495 9990 c-3 -6 1 -7 9 -4 11 4 16 0 16 -10 0 -9 7 -16 15 -16 12
0 12 3 -2 20 -19 22 -29 25 -38 10z"/>
<path d="M14018 9977 c12 -13 22 -27 22 -31 0 -7 21 -29 57 -59 21 -18 21 -18
16 2 -3 12 -13 21 -24 21 -21 0 -26 16 -7 22 7 3 9 12 5 22 -5 12 -13 16 -23
12 -11 -4 -22 1 -31 14 -8 11 -19 20 -25 20 -6 0 -2 -10 10 -23z m57 -26 c3
-5 2 -12 -3 -15 -5 -3 -9 1 -9 9 0 17 3 19 12 6z"/>
<path d="M4712 9978 c2 -6 11 -13 19 -16 12 -3 12 -2 0 6 -11 8 -11 10 0 15
10 4 8 6 -4 6 -10 1 -17 -4 -15 -11z"/>
<path d="M4913 9979 c-41 -12 -41 -16 -3 -16 17 0 30 4 30 9 0 5 15 7 33 4 24
-5 27 -4 12 3 -25 12 -31 12 -72 0z"/>
<path d="M5555 9980 c3 -5 11 -10 16 -10 6 0 7 5 4 10 -3 6 -11 10 -16 10 -6
0 -7 -4 -4 -10z"/>
<path d="M4670 9970 c8 -5 20 -10 25 -10 6 0 3 5 -5 10 -8 5 -19 10 -25 10 -5
0 -3 -5 5 -10z"/>
<path d="M4750 9970 c0 -5 10 -10 23 -10 18 0 19 2 7 10 -19 13 -30 13 -30 0z"/>
<path d="M5405 9970 c4 -6 11 -8 16 -5 14 9 11 15 -7 15 -8 0 -12 -5 -9 -10z"/>
<path d="M5153 9963 c9 -2 23 -2 30 0 6 3 -1 5 -18 5 -16 0 -22 -2 -12 -5z"/>
<path d="M14132 9949 c2 -7 10 -15 17 -17 8 -3 12 1 9 9 -2 7 -10 15 -17 17
-8 3 -12 -1 -9 -9z"/>
<path d="M14438 9953 c7 -3 16 -2 19 1 4 3 -2 6 -13 5 -11 0 -14 -3 -6 -6z"/>
<path d="M14530 9944 c0 -8 5 -12 10 -9 6 3 10 10 10 16 0 5 -4 9 -10 9 -5 0
-10 -7 -10 -16z"/>
<path d="M15046 9923 c3 -39 -11 -51 -55 -48 -19 1 -46 -4 -60 -11 -14 -8 -32
-14 -38 -14 -7 0 -13 -7 -13 -15 0 -12 6 -11 35 5 41 23 45 24 45 10 0 -5 -7
-10 -15 -10 -8 0 -19 -9 -25 -20 -7 -14 -7 -20 0 -20 5 0 10 5 10 10 0 6 9 10
21 10 11 0 17 5 14 10 -3 6 -1 10 5 10 6 0 8 5 5 10 -8 13 1 13 27 -1 16 -9
19 -8 13 2 -6 9 -3 10 11 5 10 -4 15 -4 11 0 -3 4 3 16 15 26 19 16 20 21 8
28 -12 7 -10 12 8 28 l23 20 -24 -2 c-20 -1 -23 -6 -21 -33z"/>
<path d="M4618 9938 c-3 -7 -22 -12 -43 -12 -21 0 -32 -2 -25 -4 8 -3 -1 -12
-21 -23 l-34 -18 54 4 c29 2 56 7 60 11 3 4 -12 4 -34 1 -27 -4 -35 -3 -25 3
8 5 22 10 31 10 19 0 70 39 52 40 -6 0 -13 -5 -15 -12z"/>
<path d="M5613 9942 c-9 -6 -4 -13 17 -26 17 -9 30 -21 30 -25 0 -5 7 -11 15
-15 13 -5 13 -2 -1 19 -9 14 -23 25 -31 25 -9 0 -13 6 -9 15 6 16 -2 19 -21 7z"/>
<path d="M14400 9940 c0 -8 24 -20 41 -20 6 0 8 4 5 9 -8 12 -46 21 -46 11z"/>
<path d="M14115 9920 c10 -11 20 -18 23 -15 7 6 -18 35 -31 35 -5 0 -2 -9 8
-20z"/>
<path d="M14490 9930 c0 -5 4 -10 9 -10 6 0 13 5 16 10 3 6 -1 10 -9 10 -9 0
-16 -4 -16 -10z"/>
<path d="M15104 9928 c10 -6 22 -6 26 -2 5 5 -3 10 -18 11 -22 1 -24 0 -8 -9z"/>
<path d="M4495 9910 c-3 -5 -2 -10 4 -10 5 0 13 5 16 10 3 6 2 10 -4 10 -5 0
-13 -4 -16 -10z"/>
<path d="M14400 9901 c0 -5 5 -13 10 -16 6 -3 10 -2 10 4 0 5 -4 13 -10 16 -5
3 -10 2 -10 -4z"/>
<path d="M14445 9900 c-3 -5 -2 -10 4 -10 5 0 13 5 16 10 3 6 2 10 -4 10 -5 0
-13 -4 -16 -10z"/>
<path d="M5625 9890 c3 -5 8 -10 11 -10 2 0 4 5 4 10 0 6 -5 10 -11 10 -5 0
-7 -4 -4 -10z"/>
<path d="M14133 9875 c0 -10 4 -12 10 -6 7 7 16 7 28 0 10 -5 31 -7 46 -3 19
4 24 3 14 -4 -9 -7 -10 -12 -2 -16 6 -4 11 -2 11 3 0 6 17 11 38 12 79 1 67
14 -16 15 -48 1 -96 4 -108 8 -15 6 -21 3 -21 -9z"/>
<path d="M4450 9865 c-7 -9 -11 -17 -8 -20 2 -2 12 4 21 15 9 11 13 20 8 20
-5 0 -14 -7 -21 -15z"/>
<path d="M14380 9876 c0 -2 7 -7 16 -10 8 -3 12 -2 9 4 -6 10 -25 14 -25 6z"/>
<path d="M14596 9870 c12 -5 25 -13 29 -19 3 -6 13 -11 21 -11 8 0 12 5 9 10
-4 6 9 10 31 10 59 0 36 7 -41 13 -43 3 -62 2 -49 -3z"/>
<path d="M14888 9873 c7 -3 16 -2 19 1 4 3 -2 6 -13 5 -11 0 -14 -3 -6 -6z"/>
<path d="M5684 9845 c-9 -21 -2 -26 13 -10 8 9 9 16 3 20 -6 3 -13 -1 -16 -10z"/>
<path d="M4471 9834 c0 -11 3 -14 6 -6 3 7 2 16 -1 19 -3 4 -6 -2 -5 -13z"/>
<path d="M14268 9843 c7 -3 16 -2 19 1 4 3 -2 6 -13 5 -11 0 -14 -3 -6 -6z"/>
<path d="M14677 9843 c-13 -13 -7 -21 13 -16 11 3 20 9 20 14 0 10 -24 12 -33
2z"/>
<path d="M4421 9829 c-1 -9 2 -18 5 -22 8 -8 34 3 34 15 0 6 -6 8 -14 5 -8 -3
-17 -1 -20 6 -2 7 -5 6 -5 -4z"/>
<path d="M5696 9812 c-10 -31 2 -79 19 -79 17 0 20 13 6 19 -5 2 -13 16 -17
32 -5 21 -4 27 5 22 6 -4 11 -16 11 -26 0 -13 5 -18 15 -14 11 5 13 10 5 19
-5 6 -7 15 -3 18 3 4 -1 7 -9 7 -9 0 -18 6 -21 13 -2 7 -7 2 -11 -11z"/>
<path d="M14750 9790 c20 -13 33 -13 25 0 -3 6 -14 10 -23 10 -15 0 -15 -2 -2
-10z"/>
<path d="M14840 9791 c-38 -5 -41 -7 -21 -13 14 -4 37 -1 55 7 34 15 32 15
-34 6z"/>
<path d="M4340 9760 c0 -5 -11 -10 -25 -10 -16 0 -25 -6 -25 -15 0 -13 4 -14
21 -4 16 8 27 8 44 -1 13 -7 29 -10 37 -7 8 3 6 6 -7 7 l-20 1 20 9 c18 8 17
9 -8 9 -16 1 -26 5 -22 11 3 6 1 10 -4 10 -6 0 -11 -4 -11 -10z"/>
<path d="M4231 9711 c-1 -8 -8 -23 -18 -33 -9 -10 -14 -20 -11 -23 8 -9 40 45
34 58 -3 8 -5 7 -5 -2z"/>
<path d="M5686 9711 c-8 -12 3 -41 15 -41 5 0 12 0 17 0 4 0 10 12 14 26 7 25
7 25 -19 8 -24 -15 -25 -15 -20 0 7 17 2 22 -7 7z"/>
<path d="M4192 9688 c-7 -7 -11 -21 -11 -32 1 -21 1 -21 6 -1 3 11 10 26 15
33 13 15 6 16 -10 0z"/>
<path d="M5681 9649 c-1 -13 -10 -16 -41 -14 -22 1 -37 -2 -34 -7 3 -5 14 -6
24 -3 11 3 28 1 39 -4 14 -8 22 -7 32 6 8 10 9 14 2 10 -7 -4 -13 0 -16 10 -4
15 -5 15 -6 2z"/>
<path d="M4196 9624 c-8 -20 4 -94 15 -94 5 0 9 -12 9 -27 0 -42 14 -16 15 28
1 25 -4 43 -12 46 -18 7 -16 33 5 49 16 12 16 13 -4 14 -12 0 -25 -7 -28 -16z"/>
<path d="M5600 9601 c0 -5 5 -13 10 -16 6 -3 10 -2 10 4 0 5 -4 13 -10 16 -5
3 -10 2 -10 -4z"/>
<path d="M5640 9603 c5 -2 8 -9 4 -14 -3 -5 0 -9 6 -9 15 0 7 23 -8 26 -7 1
-8 0 -2 -3z"/>
<path d="M5581 9558 c-13 -4 -27 -6 -32 -2 -14 8 -29 -5 -23 -21 5 -12 9 -12
30 1 13 9 30 14 38 11 8 -3 19 0 25 7 13 15 -4 17 -38 4z"/>
<path d="M5445 9549 c-11 -17 -2 -18 19 -3 17 12 17 14 4 14 -9 0 -20 -5 -23
-11z"/>
<path d="M5468 9523 c-23 -27 -28 -50 -12 -50 8 0 14 9 14 19 0 10 7 21 15 24
8 4 15 10 15 15 0 15 -16 10 -32 -8z"/>
<path d="M5555 9520 c-3 -6 1 -7 9 -4 18 7 21 14 7 14 -6 0 -13 -4 -16 -10z"/>
<path d="M4190 9511 c0 -6 4 -13 10 -16 6 -3 7 1 4 9 -7 18 -14 21 -14 7z"/>
<path d="M5490 9500 c0 -5 7 -7 15 -4 8 4 15 8 15 10 0 2 -7 4 -15 4 -8 0 -15
-4 -15 -10z"/>
<path d="M4268 9473 c7 -3 16 -2 19 1 4 3 -2 6 -13 5 -11 0 -14 -3 -6 -6z"/>
<path d="M4328 9468 c-21 -6 -38 -14 -38 -19 0 -8 22 -6 73 8 11 3 17 -1 17
-11 0 -12 -12 -16 -47 -17 l-48 -1 44 -9 c33 -6 47 -5 57 6 8 7 14 16 14 20 0
7 -27 36 -32 34 -2 -1 -20 -6 -40 -11z"/>
<path d="M5440 9450 c0 -5 5 -10 10 -10 6 0 10 5 10 10 0 6 -4 10 -10 10 -5 0
-10 -4 -10 -10z"/>
<path d="M4384 9394 c-15 -6 -5 -61 15 -76 14 -11 14 -11 4 2 -6 8 -10 30 -9
48 1 17 2 32 2 31 -1 0 -6 -3 -12 -5z"/>
<path d="M5364 9386 c-3 -8 -4 -23 -1 -33 3 -12 5 -9 6 9 1 21 7 28 29 31 l27
4 -28 2 c-16 0 -30 -5 -33 -13z"/>
<path d="M5421 9383 c-7 -8 -11 -16 -8 -19 2 -2 10 2 17 11 17 20 9 27 -9 8z"/>
<path d="M5380 9370 c0 -5 5 -10 10 -10 6 0 10 5 10 10 0 6 -4 10 -10 10 -5 0
-10 -4 -10 -10z"/>
<path d="M4430 9310 c-13 -9 -13 -11 0 -20 8 -5 24 -10 35 -9 18 0 17 1 -5 13
l-24 14 24 5 c19 3 20 5 5 5 -11 1 -27 -3 -35 -8z"/>
<path d="M4898 9313 c-32 -8 -19 -18 22 -18 22 0 40 3 40 7 0 5 -4 8 -9 8 -5
0 -15 2 -23 4 -7 2 -21 2 -30 -1z"/>
<path d="M5281 9295 c-23 -25 -19 -33 9 -15 9 6 17 5 23 -3 6 -8 7 -5 3 7 -4
11 -1 23 6 28 10 6 10 8 -2 8 -8 0 -26 -12 -39 -25z"/>
<path d="M5200 9290 c0 -5 4 -10 9 -10 6 0 13 5 16 10 3 6 -1 10 -9 10 -9 0
-16 -4 -16 -10z"/>
<path d="M4893 9273 c-25 -10 -12 -18 27 -18 41 0 52 8 24 19 -18 7 -33 7 -51
-1z"/>
<path d="M4455 9250 c-3 -5 -2 -10 4 -10 5 0 13 5 16 10 3 6 2 10 -4 10 -5 0
-13 -4 -16 -10z"/>
<path d="M5220 9247 c-20 -16 -24 -38 -5 -31 8 4 12 11 8 17 -4 6 0 8 10 4 11
-4 14 -2 10 9 -6 17 -4 16 -23 1z"/>
<path d="M4580 9231 c-23 -6 -23 -8 -6 -14 11 -4 22 -4 25 1 3 5 13 12 21 15
13 5 13 5 0 5 -8 0 -26 -3 -40 -7z"/>
<path d="M4713 9228 c16 -10 65 -10 70 0 3 4 -14 7 -38 7 -24 0 -38 -3 -32 -7z"/>
<path d="M4805 9230 c-3 -5 -1 -10 4 -10 6 0 11 5 11 10 0 6 -2 10 -4 10 -3 0
-8 -4 -11 -10z"/>
<path d="M5025 9230 c-3 -5 -1 -10 4 -10 6 0 11 5 11 10 0 6 -2 10 -4 10 -3 0
-8 -4 -11 -10z"/>
<path d="M5078 9233 c6 -2 18 -2 25 0 6 3 1 5 -13 5 -14 0 -19 -2 -12 -5z"/>
<path d="M5155 9230 c-3 -5 -18 -10 -33 -11 -15 0 -21 -3 -14 -6 19 -7 82 6
82 17 0 13 -27 13 -35 0z"/>
<path d="M4635 9220 c-4 -6 9 -10 31 -10 42 0 42 4 2 14 -15 3 -30 2 -33 -4z"/>
<path d="M15505 3260 c-3 -5 -1 -10 4 -10 6 0 11 5 11 10 0 6 -2 10 -4 10 -3
0 -8 -4 -11 -10z"/>
<path d="M15582 3253 c-12 -2 -20 -9 -16 -14 3 -6 -3 -13 -15 -16 -26 -7 -26
-12 -3 -29 23 -18 37 -17 22 1 -21 25 25 58 70 51 24 -4 30 -3 20 4 -15 10
-37 11 -78 3z"/>
<path d="M15530 3240 c-8 -5 -26 -7 -40 -4 -25 4 -25 4 -2 -6 21 -9 62 1 62
15 0 7 -3 6 -20 -5z"/>
<path d="M16008 3223 c6 -2 18 -2 25 0 6 3 1 5 -13 5 -14 0 -19 -2 -12 -5z"/>
<path d="M16066 3221 c-18 -7 -18 -8 5 -14 42 -12 80 -8 97 10 16 16 16 16 -3
9 -11 -4 -36 -10 -55 -12 -27 -3 -31 -2 -15 5 24 12 -1 13 -29 2z"/>
<path d="M16190 3210 c0 -5 9 -10 21 -10 11 0 17 5 14 10 -3 6 -13 10 -21 10
-8 0 -14 -4 -14 -10z"/>
<path d="M16250 3210 c-18 -12 -2 -12 25 0 13 6 15 9 5 9 -8 0 -22 -4 -30 -9z"/>
<path d="M16310 3200 c8 -5 20 -10 25 -10 6 0 3 5 -5 10 -8 5 -19 10 -25 10
-5 0 -3 -5 5 -10z"/>
<path d="M16013 3193 c9 -2 23 -2 30 0 6 3 -1 5 -18 5 -16 0 -22 -2 -12 -5z"/>
<path d="M16267 3187 c-4 -10 2 -13 20 -9 18 3 21 7 11 13 -18 12 -25 11 -31
-4z"/>
<path d="M16040 3180 c-42 -7 -43 -7 -10 -9 19 -1 46 -4 60 -6 21 -5 22 -4 5
4 -16 7 -12 10 25 13 44 4 44 5 5 5 -22 0 -60 -3 -85 -7z"/>
<path d="M16176 3175 c4 -8 10 -15 15 -15 5 0 9 7 9 15 0 8 -7 15 -15 15 -9 0
-12 -6 -9 -15z"/>
<path d="M16225 3181 c-3 -5 -1 -12 5 -16 5 -3 10 1 10 9 0 18 -6 21 -15 7z"/>
<path d="M16325 3176 c-29 -13 -29 -14 -5 -13 14 0 34 7 45 14 26 17 0 17 -40
-1z"/>
<path d="M16430 3180 c0 -4 11 -10 25 -12 13 -3 22 -2 20 2 -7 11 -45 20 -45
10z"/>
<path d="M16398 3173 c7 -3 16 -2 19 1 4 3 -2 6 -13 5 -11 0 -14 -3 -6 -6z"/>
<path d="M15626 3146 c3 -8 17 -23 32 -32 l26 -17 -24 31 c-26 33 -43 42 -34
18z"/>
<path d="M16520 3151 c0 -5 21 -16 47 -24 54 -18 70 -16 21 2 -18 7 -41 17
-50 22 -10 5 -18 5 -18 0z"/>
<path d="M16490 3137 c0 -16 40 -40 61 -37 8 1 21 2 29 1 13 -1 13 -2 0 -11
-9 -6 -10 -10 -3 -10 23 0 23 19 1 31 -13 7 -24 12 -25 11 -13 -8 -43 1 -43
13 0 8 -4 15 -10 15 -5 0 -10 -6 -10 -13z"/>
<path d="M16620 3089 c-12 -8 -10 -9 9 -4 14 4 21 3 18 -2 -4 -6 0 -18 7 -28
11 -15 16 -16 32 -6 18 12 18 12 0 7 -13 -5 -17 -2 -13 8 4 10 1 13 -9 9 -9
-3 -14 0 -12 7 4 17 -14 22 -32 9z"/>
<path d="M15722 3058 c17 -17 22 -18 29 -7 6 10 9 11 9 2 0 -7 5 -13 10 -13 6
0 10 8 10 18 0 13 -9 18 -39 18 -38 1 -38 1 -19 -18z"/>
<path d="M15810 3076 c0 -2 7 -9 15 -16 12 -10 15 -10 15 4 0 9 -7 16 -15 16
-8 0 -15 -2 -15 -4z"/>
<path d="M16721 3033 c8 -13 18 -23 24 -23 5 0 2 -5 -7 -11 -10 -5 -18 -20
-17 -32 1 -20 2 -20 8 3 5 17 9 21 15 12 4 -6 4 -16 1 -22 -3 -5 -1 -10 4 -10
6 0 11 7 11 15 0 9 6 12 17 8 11 -4 14 -3 9 5 -4 7 -14 12 -22 12 -8 0 -13 4
-10 9 3 4 -6 19 -21 32 -25 23 -25 23 -12 2z"/>
<path d="M16664 3014 c-19 -15 -19 -16 1 -8 11 4 28 7 37 8 9 0 14 4 12 8 -8
13 -29 9 -50 -8z"/>
<path d="M15804 3005 c3 -9 6 -21 6 -26 0 -5 7 -9 15 -9 21 0 12 44 -10 49
-13 2 -16 -1 -11 -14z"/>
<path d="M16560 2944 c0 -8 5 -12 10 -9 6 3 10 10 10 16 0 5 -4 9 -10 9 -5 0
-10 -7 -10 -16z"/>
<path d="M16770 2949 c0 -6 9 -8 20 -4 13 4 22 1 26 -9 3 -9 11 -16 17 -16 5
0 2 9 -8 20 -19 21 -55 27 -55 9z"/>
<path d="M16795 2920 c3 -5 8 -10 11 -10 2 0 4 5 4 10 0 6 -5 10 -11 10 -5 0
-7 -4 -4 -10z"/>
<path d="M15885 2909 c-4 -6 -5 -13 -2 -16 7 -7 27 6 27 18 0 12 -17 12 -25
-2z"/>
<path d="M5553 2894 c3 -3 22 -6 42 -6 20 0 39 3 42 6 4 3 -15 6 -42 6 -27 0
-46 -3 -42 -6z"/>
<path d="M5690 2893 c19 -3 41 -9 48 -15 15 -13 27 -4 17 11 -3 6 -27 10 -53
9 -41 -1 -42 -2 -12 -5z"/>
<path d="M16835 2890 c-6 -10 11 -50 21 -50 3 0 2 10 -2 22 -6 20 -5 21 9 9 9
-7 14 -18 10 -24 -3 -6 -1 -7 5 -3 9 5 7 14 -5 31 -20 27 -29 30 -38 15z"/>
<path d="M5514 2881 c4 -5 3 -11 -1 -14 -5 -2 -2 -2 5 0 8 1 26 3 40 4 l27 1
-25 8 c-35 11 -52 12 -46 1z"/>
<path d="M5628 2870 c12 -5 29 -7 37 -4 8 4 15 2 15 -4 0 -11 49 -26 58 -18 9
10 -66 36 -100 35 -30 0 -31 -1 -10 -9z"/>
<path d="M15905 2870 c3 -5 8 -10 11 -10 2 0 4 5 4 10 0 6 -5 10 -11 10 -5 0
-7 -4 -4 -10z"/>
<path d="M16804 2862 c0 -10 6 -19 13 -19 15 0 15 0 7 21 -8 22 -20 20 -20 -2z"/>
<path d="M5409 2863 c-1 -5 -1 -15 0 -25 1 -9 -3 -19 -9 -23 -5 -3 -10 2 -10
12 0 15 -2 16 -10 3 -6 -9 -5 -17 2 -21 6 -4 7 -12 4 -18 -4 -6 -12 -9 -17 -6
-16 11 -37 -19 -28 -40 7 -19 8 -18 8 3 1 18 6 22 22 20 14 -2 25 6 36 27 33
62 34 65 16 58 -11 -4 -14 -3 -9 5 4 7 5 12 2 12 -3 0 -7 -3 -7 -7z"/>
<path d="M5470 2850 c31 -10 76 -12 67 -4 -4 4 -26 8 -49 9 -34 3 -37 1 -18
-5z"/>
<path d="M5560 2850 c-11 -7 -6 -9 17 -7 18 1 33 5 33 10 0 10 -32 9 -50 -3z"/>
<path d="M6030 2830 c0 -5 4 -10 9 -10 6 0 13 5 16 10 3 6 -1 10 -9 10 -9 0
-16 -4 -16 -10z"/>
<path d="M15940 2833 c0 -11 43 -53 54 -53 5 0 3 6 -3 14 -6 7 -9 21 -5 30 3
9 1 16 -5 16 -6 0 -11 -5 -11 -11 0 -8 -5 -8 -15 1 -8 7 -15 8 -15 3z"/>
<path d="M16885 2830 c-3 -5 -1 -18 5 -29 13 -25 13 -34 0 -26 -5 3 -10 2 -10
-4 0 -5 9 -9 20 -8 15 1 19 6 14 22 -5 17 -3 17 16 -5 l22 -25 -18 33 c-12 20
-24 30 -32 27 -10 -3 -12 0 -8 10 6 17 0 20 -9 5z"/>
<path d="M6010 2783 c0 -22 2 -25 10 -13 13 20 13 40 0 40 -5 0 -10 -12 -10
-27z"/>
<path d="M6055 2799 c-11 -17 1 -21 15 -4 8 9 8 15 2 15 -6 0 -14 -5 -17 -11z"/>
<path d="M5416 2774 c-4 -10 -1 -14 6 -12 15 5 23 28 10 28 -5 0 -13 -7 -16
-16z"/>
<path d="M6870 2780 c-18 -12 -15 -12 84 -15 44 -2 73 1 65 5 -24 13 -133 20
-149 10z"/>
<path d="M6826 2761 c-3 -5 1 -15 10 -22 13 -10 17 -10 24 1 6 9 4 17 -3 22
-16 10 -25 10 -31 -1z"/>
<path d="M6014 2735 c-9 -14 -15 -28 -12 -30 2 -2 12 9 22 25 21 36 13 40 -10
5z"/>
<path d="M7043 2640 c4 -63 7 -173 7 -243 0 -82 4 -126 10 -122 6 4 8 -37 6
-117 l-5 -123 10 120 c6 78 6 122 -1 129 -6 6 -9 73 -8 165 0 100 4 142 8 116
8 -40 8 -40 5 8 -1 26 2 50 6 53 5 3 9 17 8 32 0 24 -1 25 -9 7 -6 -14 -9 -16
-11 -5 -1 8 -5 -3 -9 -25 -6 -35 -7 -32 -7 24 0 57 1 62 13 46 11 -15 14 -16
14 -3 0 8 -10 23 -21 34 l-22 19 6 -115z"/>
<path d="M5320 2731 c0 -6 4 -13 10 -16 6 -3 7 1 4 9 -7 18 -14 21 -14 7z"/>
<path d="M16020 2737 c0 -13 33 -67 40 -67 5 0 0 16 -11 35 -19 31 -29 42 -29
32z"/>
<path d="M16050 2733 c0 -5 8 -17 17 -28 14 -18 15 -18 9 -2 -3 10 -6 23 -6
28 0 5 -4 9 -10 9 -5 0 -10 -3 -10 -7z"/>
<path d="M14520 2720 l-25 -8 28 -1 c15 -1 30 -8 33 -16 4 -10 19 -15 43 -14
37 1 35 3 -11 13 -16 4 -28 13 -28 21 0 16 -3 17 -40 5z"/>
<path d="M6777 2704 c-4 -4 -4 -18 0 -32 5 -20 3 -24 -10 -19 -21 8 -31 -21
-12 -39 13 -13 17 -10 31 25 9 23 20 41 25 41 5 0 9 7 9 15 0 8 -4 15 -10 15
-5 0 -10 -6 -10 -12 0 -10 -2 -10 -8 0 -5 7 -11 9 -15 6z"/>
<path d="M16963 2693 c1 -12 4 -20 8 -17 4 2 9 -2 12 -8 3 -7 4 -3 4 9 -1 12
-4 20 -8 17 -4 -2 -9 2 -12 8 -3 7 -4 3 -4 -9z"/>
<path d="M5322 2680 c0 -14 2 -19 5 -12 2 6 2 18 0 25 -3 6 -5 1 -5 -13z"/>
<path d="M5338 2668 c-2 -22 -8 -32 -17 -30 -9 2 -11 -3 -7 -13 3 -9 6 -22 6
-28 1 -7 7 -1 14 13 14 24 14 24 13 -14 -1 -21 -3 -34 -5 -27 -4 13 -22 5 -22
-10 0 -6 5 -7 10 -4 6 3 10 -5 10 -19 0 -14 4 -27 8 -30 5 -3 8 38 7 89 -1 95
-11 136 -17 73z"/>
<path d="M14437 2661 c-9 -21 -17 -44 -16 -52 0 -8 4 -6 9 6 8 18 9 18 9 2 1
-10 6 -15 12 -12 5 4 9 17 8 28 0 12 -1 29 0 37 1 13 2 13 11 0 6 -10 10 -11
10 -2 0 7 13 12 32 12 41 0 34 6 -18 13 -39 6 -41 6 -57 -32z"/>
<path d="M14648 2683 c6 -2 18 -2 25 0 6 3 1 5 -13 5 -14 0 -19 -2 -12 -5z"/>
<path d="M5930 2670 c0 -5 5 -10 10 -10 6 0 10 5 10 10 0 6 -4 10 -10 10 -5 0
-10 -4 -10 -10z"/>
<path d="M16077 2666 c-5 -13 -3 -23 8 -28 8 -5 15 -15 15 -22 0 -8 7 -16 15
-20 8 -3 15 -15 15 -26 0 -14 4 -19 12 -14 8 5 9 0 6 -14 -4 -12 -3 -24 2 -27
4 -2 6 17 5 43 -1 36 -6 48 -19 50 -15 3 -17 11 -13 38 6 38 -7 46 -18 12 l-7
-23 -7 25 c-6 23 -8 23 -14 6z"/>
<path d="M14722 2650 c0 -14 2 -19 5 -12 2 6 2 18 0 25 -3 6 -5 1 -5 -13z"/>
<path d="M14752 2659 c2 -7 10 -15 17 -17 8 -3 12 1 9 9 -2 7 -10 15 -17 17
-8 3 -12 -1 -9 -9z"/>
<path d="M16151 2654 c0 -11 3 -14 6 -6 3 7 2 16 -1 19 -3 4 -6 -2 -5 -13z"/>
<path d="M5951 2643 c-9 -16 -12 -16 -21 -3 -9 13 -10 13 -10 0 1 -8 6 -22 13
-32 12 -15 14 -13 26 13 15 34 9 50 -8 22z"/>
<path d="M17000 2635 c0 -8 2 -15 4 -15 2 0 6 7 10 15 3 8 1 15 -4 15 -6 0
-10 -7 -10 -15z"/>
<path d="M16961 2635 c0 -5 3 -16 8 -23 7 -11 9 -10 14 3 4 9 3 14 -2 10 -5
-3 -12 1 -14 7 -3 7 -6 9 -6 3z"/>
<path d="M14775 2610 c-19 -8 -19 -9 3 -9 12 -1 24 -1 27 -1 9 0 7 14 -2 17
-4 1 -17 -2 -28 -7z"/>
<path d="M14815 2560 c-10 -11 -13 -20 -7 -20 6 0 12 6 15 13 3 9 7 9 20 -2
10 -7 17 -9 17 -3 0 5 -6 15 -13 21 -11 8 -18 6 -32 -9z"/>
<path d="M6709 2558 c-5 -16 -3 -61 3 -71 4 -7 8 7 8 31 0 23 -2 42 -5 42 -3
0 -5 -1 -6 -2z"/>
<path d="M5317 2499 c3 -24 7 -46 9 -48 9 -10 3 65 -5 78 -6 10 -8 -1 -4 -30z"/>
<path d="M14880 2505 c6 -16 17 -37 25 -45 16 -18 33 -80 17 -65 -5 6 -12 19
-14 29 -1 11 -8 21 -15 23 -9 3 -10 -4 -3 -27 12 -43 25 -57 60 -64 29 -5 40
-28 20 -41 -5 -3 -10 -12 -10 -18 0 -7 7 -3 16 8 12 17 16 18 24 5 6 -9 5 -17
-3 -22 -9 -6 -9 -8 1 -8 31 0 20 36 -44 132 -78 120 -89 134 -74 93z m84 -121
c9 -22 8 -24 -9 -18 -8 4 -15 12 -15 20 0 19 16 18 24 -2z"/>
<path d="M17042 2505 c0 -16 2 -22 5 -12 2 9 2 23 0 30 -3 6 -5 -1 -5 -18z"/>
<path d="M5850 2510 c0 -5 5 -10 10 -10 6 0 10 5 10 10 0 6 -4 10 -10 10 -5 0
-10 -4 -10 -10z"/>
<path d="M5876 2488 c-23 -53 -19 -71 5 -25 11 21 18 44 16 50 -3 7 -12 -5
-21 -25z"/>
<path d="M14411 2500 c0 -14 4 -34 9 -45 7 -17 9 -16 9 10 0 17 -4 37 -9 45
-8 12 -10 10 -9 -10z"/>
<path d="M14441 2504 c0 -11 3 -14 6 -6 3 7 2 16 -1 19 -3 4 -6 -2 -5 -13z"/>
<path d="M14472 2495 c0 -16 2 -22 5 -12 2 9 2 23 0 30 -3 6 -5 -1 -5 -18z"/>
<path d="M16223 2504 c-20 -21 -16 -42 3 -22 9 9 15 21 13 26 -2 6 -9 4 -16
-4z"/>
<path d="M6672 2475 c-14 -31 -15 -35 -3 -35 5 0 11 8 15 18 3 9 9 23 12 30 3
6 2 12 -4 12 -5 0 -14 -11 -20 -25z"/>
<path d="M5345 2470 c-3 -5 -1 -10 4 -10 6 0 11 5 11 10 0 6 -2 10 -4 10 -3 0
-8 -4 -11 -10z"/>
<path d="M5841 2464 c0 -11 3 -14 6 -6 3 7 2 16 -1 19 -3 4 -6 -2 -5 -13z"/>
<path d="M16180 2470 c0 -8 5 -22 10 -30 9 -13 10 -13 10 0 0 8 -5 22 -10 30
-9 13 -10 13 -10 0z"/>
<path d="M14444 2459 c-3 -6 -1 -16 5 -22 8 -8 11 -5 11 11 0 24 -5 28 -16 11z"/>
<path d="M6695 2450 c-3 -5 -1 -10 4 -10 6 0 11 5 11 10 0 6 -2 10 -4 10 -3 0
-8 -4 -11 -10z"/>
<path d="M16217 2453 c-4 -3 -3 -13 2 -22 5 -9 11 -29 15 -46 5 -23 4 -27 -4
-15 -10 13 -11 13 -7 0 2 -8 8 -15 13 -15 5 0 15 -4 22 -8 19 -12 30 0 24 28
-3 16 -11 25 -23 25 -13 0 -19 7 -19 24 0 25 -12 40 -23 29z"/>
<path d="M5303 2405 c0 -27 2 -38 4 -22 2 15 2 37 0 50 -2 12 -4 0 -4 -28z"/>
<path d="M17054 2442 c-8 -4 -9 -21 -5 -47 l7 -40 5 48 c2 26 4 47 4 47 0 0
-5 -4 -11 -8z"/>
<path d="M5320 2360 c0 -46 2 -81 5 -78 8 7 8 148 1 156 -3 3 -6 -32 -6 -78z"/>
<path d="M5340 2418 c0 -19 2 -20 10 -8 13 19 13 30 0 30 -5 0 -10 -10 -10
-22z"/>
<path d="M5840 2424 c0 -9 -9 -18 -20 -21 -11 -3 -20 -14 -20 -24 0 -11 -4
-19 -9 -19 -5 0 -12 -15 -16 -32 -4 -18 -9 -42 -11 -53 -4 -16 -3 -17 5 -5 8
11 11 12 11 2 0 -7 5 -10 11 -6 8 4 8 9 0 17 -20 20 -12 45 28 87 22 24 37 49
34 56 -7 19 -13 18 -13 -2z"/>
<path d="M14461 2372 c-11 -62 -7 -131 7 -117 5 5 13 185 8 185 -2 0 -8 -31
-15 -68z"/>
<path d="M14421 2423 c0 -4 4 -17 9 -28 8 -19 9 -19 9 2 1 12 -3 25 -9 28 -5
3 -10 3 -9 -2z"/>
<path d="M16200 2411 c0 -5 5 -13 10 -16 6 -3 10 -2 10 4 0 5 -4 13 -10 16 -5
3 -10 2 -10 -4z"/>
<path d="M17063 2348 c-6 -13 -7 -32 -3 -43 4 -11 5 -25 3 -31 -2 -7 0 -15 6
-19 7 -4 11 14 11 54 0 34 -2 61 -3 61 -2 0 -8 -10 -14 -22z"/>
<path d="M5353 2300 c0 -36 2 -50 4 -32 2 17 2 47 0 65 -2 17 -4 3 -4 -33z"/>
<path d="M5810 2341 c-12 -24 -13 -44 -1 -37 8 5 22 56 15 56 -2 0 -8 -9 -14
-19z"/>
<path d="M6612 2330 c-12 -13 -18 -29 -15 -38 5 -11 3 -13 -8 -7 -8 4 -11 5
-7 0 4 -4 3 -16 -3 -26 -7 -13 -6 -19 2 -19 6 0 13 9 16 20 3 11 10 20 15 20
5 0 6 10 3 21 -5 13 -3 19 3 15 5 -3 13 1 16 10 10 26 0 27 -22 4z"/>
<path d="M16269 2279 c28 -51 51 -73 51 -50 0 6 -4 11 -10 11 -13 0 -13 27 -1
32 5 2 7 15 4 30 -3 15 -9 25 -15 22 -5 -3 -6 -14 -3 -25 9 -26 -8 -24 -20 3
-6 12 -16 24 -23 26 -7 2 1 -20 17 -49z"/>
<path d="M15039 2274 c5 -11 8 -32 5 -45 -5 -19 -3 -21 5 -9 15 21 14 33 -5
56 -15 19 -15 18 -5 -2z"/>
<path d="M5303 2240 c0 -25 2 -35 4 -22 2 12 2 32 0 45 -2 12 -4 2 -4 -23z"/>
<path d="M5331 2235 c-2 -16 -5 -61 -6 -100 -2 -61 -1 -65 7 -30 5 22 7 67 5
100 -2 33 -5 47 -6 30z"/>
<path d="M5766 2233 c-6 -14 -5 -15 5 -6 7 7 10 15 7 18 -3 3 -9 -2 -12 -12z"/>
<path d="M6626 2241 c-4 -7 -5 -15 -2 -18 9 -9 19 4 14 18 -4 11 -6 11 -12 0z"/>
<path d="M14472 2200 c0 -19 2 -27 5 -17 2 9 2 25 0 35 -3 9 -5 1 -5 -18z"/>
<path d="M17081 2214 c0 -11 3 -14 6 -6 3 7 2 16 -1 19 -3 4 -6 -2 -5 -13z"/>
<path d="M15063 2208 c-6 -7 -13 -31 -17 -53 -5 -31 -4 -36 4 -25 9 11 13 12
17 3 2 -7 12 -13 21 -13 15 1 16 2 1 13 -19 14 -34 67 -19 67 5 0 10 -6 10
-14 0 -7 7 -19 15 -26 13 -11 14 -10 9 6 -15 39 -30 55 -41 42z"/>
<path d="M17047 2179 c3 -24 7 -46 9 -48 9 -10 3 65 -5 78 -6 10 -8 -1 -4 -30z"/>
<path d="M6532 2182 c-16 -34 -16 -35 8 -62 11 -13 20 -18 20 -12 0 6 -7 17
-15 26 -8 8 -12 22 -9 31 6 13 8 14 15 3 7 -10 9 -10 9 2 0 32 -15 39 -28 12z"/>
<path d="M5353 2160 c0 -25 2 -35 4 -22 2 12 2 32 0 45 -2 12 -4 2 -4 -23z"/>
<path d="M5681 2184 c0 -11 3 -14 6 -6 3 7 2 16 -1 19 -3 4 -6 -2 -5 -13z"/>
<path d="M16340 2190 c0 -5 7 -10 15 -10 8 0 15 5 15 10 0 6 -7 10 -15 10 -8
0 -15 -4 -15 -10z"/>
<path d="M5302 2150 c0 -19 2 -27 5 -17 2 9 2 25 0 35 -3 9 -5 1 -5 -18z"/>
<path d="M5720 2159 c0 -11 5 -17 10 -14 6 3 10 13 10 21 0 8 -4 14 -10 14 -5
0 -10 -9 -10 -21z"/>
<path d="M17082 2150 c0 -19 2 -27 5 -17 2 9 2 25 0 35 -3 9 -5 1 -5 -18z"/>
<path d="M16330 2164 c1 -5 7 -20 15 -34 13 -24 14 -24 15 -4 0 12 -7 27 -15
34 -8 7 -15 9 -15 4z"/>
<path d="M16375 2139 c5 -21 3 -34 -5 -39 -7 -5 -9 -13 -5 -21 7 -10 11 -8 17
7 6 14 7 10 4 -13 -3 -18 -2 -34 2 -37 4 -2 7 10 7 27 -4 91 -6 107 -16 107
-7 0 -8 -11 -4 -31z"/>
<path d="M7042 2140 c0 -14 2 -19 5 -12 2 6 2 18 0 25 -3 6 -5 1 -5 -13z"/>
<path d="M5687 2130 c-3 -11 -1 -20 5 -20 5 0 6 -10 2 -22 -3 -13 -3 -20 1
-16 11 11 16 66 6 72 -5 3 -11 -3 -14 -14z"/>
<path d="M6493 2103 c-10 -21 -10 -28 0 -35 20 -13 24 -9 25 27 2 42 -8 45
-25 8z"/>
<path d="M14474 2059 c3 -34 6 -70 6 -80 0 -12 7 -19 20 -19 18 0 20 7 20 80
0 80 0 80 -26 80 -27 0 -27 0 -20 -61z"/>
<path d="M17053 2080 c0 -25 2 -35 4 -22 2 12 2 32 0 45 -2 12 -4 2 -4 -23z"/>
<path d="M15130 2103 c0 -5 7 -17 15 -27 19 -25 19 -37 1 -30 -8 3 -17 1 -21
-5 -10 -18 23 -24 39 -8 13 12 12 18 -5 46 -18 30 -29 39 -29 24z"/>
<path d="M17074 1950 c0 -85 2 -120 3 -77 2 42 2 112 0 155 -1 42 -3 7 -3 -78z"/>
<path d="M6546 2081 c-4 -7 -5 -15 -2 -18 9 -9 19 4 14 18 -4 11 -6 11 -12 0z"/>
<path d="M5303 2035 c0 -27 2 -38 4 -22 2 15 2 37 0 50 -2 12 -4 0 -4 -28z"/>
<path d="M5344 2055 c-4 -9 -4 -28 -1 -43 3 -15 1 -63 -5 -107 -7 -56 -7 -91
1 -115 9 -31 10 -27 6 30 -3 36 -2 57 3 48 4 -9 7 32 8 92 0 61 -1 110 -3 110
-2 0 -6 -7 -9 -15z"/>
<path d="M7081 2054 c0 -11 3 -14 6 -6 3 7 2 16 -1 19 -3 4 -6 -2 -5 -13z"/>
<path d="M6465 2041 c4 -7 3 -16 -3 -20 -6 -4 -7 -12 -3 -20 7 -10 10 -8 16 9
4 13 2 27 -5 34 -10 8 -11 8 -5 -3z"/>
<path d="M5323 2000 c0 -25 2 -35 4 -22 2 12 2 32 0 45 -2 12 -4 2 -4 -23z"/>
<path d="M16463 2024 c-15 -16 -17 -34 -4 -34 10 0 26 39 19 45 -1 2 -9 -3
-15 -11z"/>
<path d="M5640 2014 c0 -8 5 -12 10 -9 6 4 8 11 5 16 -9 14 -15 11 -15 -7z"/>
<path d="M5605 1989 c-5 -20 -3 -35 5 -42 10 -9 11 -7 5 11 -4 13 -2 22 4 22
13 0 15 27 2 34 -5 4 -12 -8 -16 -25z"/>
<path d="M7061 1988 c-1 -19 4 -28 14 -28 8 0 15 8 15 18 0 14 -2 14 -9 3 -7
-11 -10 -9 -14 10 -4 23 -4 22 -6 -3z"/>
<path d="M15193 2003 c-15 -5 -18 -43 -4 -43 5 0 11 10 14 22 7 26 6 27 -10
21z"/>
<path d="M6430 1989 c0 -5 5 -7 10 -4 6 3 10 8 10 11 0 2 -4 4 -10 4 -5 0 -10
-5 -10 -11z"/>
<path d="M16420 1987 c0 -23 38 -97 50 -97 14 0 13 27 -1 32 -9 3 -9 9 0 25 7
14 8 24 1 28 -6 3 -10 -4 -10 -17 -1 -20 -3 -19 -20 12 -12 23 -19 29 -20 17z"/>
<path d="M15120 1975 c0 -8 7 -15 16 -15 14 0 14 3 4 15 -7 8 -14 15 -16 15
-2 0 -4 -7 -4 -15z"/>
<path d="M6450 1971 c0 -7 -7 -11 -14 -8 -10 4 -13 1 -9 -9 5 -14 7 -14 21 0
9 9 13 19 9 22 -4 4 -7 2 -7 -5z"/>
<path d="M15207 1958 c-7 -27 1 -68 14 -68 5 0 9 5 9 11 0 8 5 8 15 -1 22 -18
18 -1 -9 43 -22 36 -24 37 -29 15z m23 -29 c0 -5 -4 -9 -10 -9 -5 0 -10 7 -10
16 0 8 5 12 10 9 6 -3 10 -10 10 -16z"/>
<path d="M7043 1920 c0 -25 2 -35 4 -22 2 12 2 32 0 45 -2 12 -4 2 -4 -23z"/>
<path d="M5316 1899 c-3 -17 -5 -52 -5 -78 1 -38 3 -33 10 28 9 77 6 105 -5
50z"/>
<path d="M6390 1910 c0 -5 4 -10 9 -10 6 0 13 5 16 10 3 6 -1 10 -9 10 -9 0
-16 -4 -16 -10z"/>
<path d="M6446 1901 c-4 -7 -5 -15 -2 -18 9 -9 19 4 14 18 -4 11 -6 11 -12 0z"/>
<path d="M7089 1903 c-4 -30 0 -145 5 -150 3 -4 6 30 6 75 0 45 -2 82 -5 82
-3 0 -5 -3 -6 -7z"/>
<path d="M14461 1894 c0 -11 3 -14 6 -6 3 7 2 16 -1 19 -3 4 -6 -2 -5 -13z"/>
<path d="M6384 1883 c3 -6 1 -13 -6 -15 -7 -3 -9 -11 -4 -24 8 -18 9 -18 19 4
8 17 7 26 -3 35 -9 8 -11 8 -6 0z"/>
<path d="M5523 1833 c-2 -35 1 -43 15 -42 10 0 12 3 5 6 -18 7 -16 23 1 23 8
0 21 14 30 30 8 17 11 30 6 30 -5 0 -12 -9 -15 -20 -3 -11 -11 -20 -16 -20 -6
0 -8 8 -5 18 4 12 1 19 -6 19 -8 0 -14 -17 -15 -44z"/>
<path d="M16466 1865 c4 -8 12 -15 20 -15 16 0 34 -31 34 -57 0 -15 -2 -16
-10 -3 -15 24 -18 7 -3 -20 8 -16 13 -19 13 -9 0 9 7 22 15 29 12 10 15 10 15
0 0 -8 2 -11 5 -8 11 11 -37 78 -56 78 -10 0 -19 5 -19 10 0 6 -4 10 -10 10
-5 0 -7 -7 -4 -15z"/>
<path d="M16520 1870 c0 -5 9 -10 20 -10 11 0 20 5 20 10 0 6 -9 10 -20 10
-11 0 -20 -4 -20 -10z"/>
<path d="M15280 1859 c0 -14 31 -81 36 -76 3 3 -4 22 -15 44 -11 21 -20 35
-21 32z"/>
<path d="M14463 1788 c4 -41 2 -68 -3 -68 -6 0 -10 -10 -10 -22 0 -19 2 -20
11 -8 8 11 9 2 5 -34 -3 -27 -6 -61 -7 -75 l-1 -26 -9 25 c-8 23 -8 22 -4 -5
15 -88 15 -100 6 -80 -9 18 -10 18 -10 -7 -1 -14 5 -28 11 -30 9 -3 13 -34 12
-109 0 -65 2 -88 6 -61 9 60 4 551 -5 560 -4 4 -5 -23 -2 -60z"/>
<path d="M7062 1820 c0 -14 2 -19 5 -12 2 6 2 18 0 25 -3 6 -5 1 -5 -13z"/>
<path d="M6345 1802 c2 -3 0 -13 -6 -23 -7 -13 -6 -19 1 -19 6 0 14 8 17 18 4
9 11 20 17 24 6 4 1 6 -11 5 -12 0 -20 -3 -18 -5z"/>
<path d="M5292 1775 c0 -16 2 -22 5 -12 2 9 2 23 0 30 -3 6 -5 -1 -5 -18z"/>
<path d="M17053 1760 c0 -25 2 -35 4 -22 2 12 2 32 0 45 -2 12 -4 2 -4 -23z"/>
<path d="M7050 1751 c0 -17 5 -31 10 -31 6 0 10 11 10 24 0 14 -4 28 -10 31
-6 4 -10 -7 -10 -24z"/>
<path d="M5326 1730 c4 -25 10 -72 14 -105 l7 -60 1 50 c1 28 -5 75 -13 105
-14 52 -15 53 -9 10z"/>
<path d="M5498 1762 c-10 -2 -18 -10 -18 -18 0 -9 -7 -22 -15 -30 -8 -9 -15
-27 -14 -42 1 -26 1 -26 16 8 8 19 24 45 36 57 22 25 21 31 -5 25z"/>
<path d="M6386 1761 c-4 -7 -5 -15 -2 -18 9 -9 19 4 14 18 -4 11 -6 11 -12 0z"/>
<path d="M15320 1756 c0 -9 5 -16 10 -16 6 0 10 4 10 9 0 6 -4 13 -10 16 -5 3
-10 -1 -10 -9z"/>
<path d="M16535 1750 c-8 -25 3 -62 16 -55 5 4 9 0 9 -8 0 -8 10 -17 21 -20
18 -5 20 -11 15 -33 -6 -24 -5 -25 8 -11 9 8 21 18 28 21 10 5 10 7 1 12 -7 3
-13 14 -13 24 0 10 6 20 13 23 7 2 8 8 3 13 -5 5 -11 4 -13 -3 -6 -16 -43 -17
-43 -2 0 7 -9 9 -21 6 -18 -5 -20 -2 -14 24 7 33 0 40 -10 9z"/>
<path d="M5352 1720 c0 -19 2 -27 5 -17 2 9 2 25 0 35 -3 9 -5 1 -5 -18z"/>
<path d="M15290 1735 c0 -8 7 -15 16 -15 14 0 14 3 4 15 -7 8 -14 15 -16 15
-2 0 -4 -7 -4 -15z"/>
<path d="M6295 1703 c-17 -40 -15 -52 5 -28 13 15 24 65 14 65 -2 0 -11 -16
-19 -37z"/>
<path d="M5492 1695 c-17 -37 -14 -45 4 -12 9 16 14 31 11 33 -2 2 -9 -7 -15
-21z"/>
<path d="M17070 1680 c-4 -58 0 -103 9 -112 4 -5 5 22 3 60 -4 88 -9 108 -12
52z"/>
<path d="M5303 1653 c0 -30 3 -40 7 -28 7 20 8 20 12 0 3 -11 3 -2 0 20 -6 58
-19 64 -19 8z"/>
<path d="M15364 1687 c3 -10 6 -26 6 -36 0 -10 8 -17 20 -17 16 0 17 3 6 16
-7 8 -19 24 -25 35 -10 17 -12 17 -7 2z"/>
<path d="M6263 1633 c-3 -10 -8 -21 -10 -25 -2 -5 0 -8 5 -8 5 0 12 11 14 25
6 29 0 33 -9 8z"/>
<path d="M6296 1634 c-9 -23 -7 -46 3 -40 11 7 21 56 11 56 -4 0 -11 -7 -14
-16z"/>
<path d="M5456 1623 c-3 -10 -9 -24 -12 -30 -3 -7 -1 -13 4 -13 5 0 12 8 16
18 3 9 9 23 12 30 3 6 1 12 -4 12 -5 0 -12 -8 -16 -17z"/>
<path d="M7080 1560 c0 -73 2 -80 20 -80 13 0 20 7 20 19 0 10 3 45 6 77 6 59
6 59 -20 62 l-26 2 0 -80z"/>
<path d="M17040 1596 c0 -19 3 -37 8 -40 4 -2 6 13 4 35 -5 48 -12 51 -12 5z"/>
<path d="M15381 1604 c0 -11 3 -14 6 -6 3 7 2 16 -1 19 -3 4 -6 -2 -5 -13z"/>
<path d="M16613 1604 c-7 -7 -9 -15 -4 -19 5 -3 12 1 15 7 4 7 4 3 2 -8 -2
-13 6 -33 21 -50 14 -16 31 -41 39 -56 17 -33 20 -34 28 -11 4 10 4 14 0 11
-9 -9 -74 78 -74 100 0 29 -13 42 -27 26z"/>
<path d="M15361 1600 c0 -8 4 -22 9 -30 12 -18 12 -2 0 25 -6 13 -9 15 -9 5z"/>
<path d="M15406 1588 c-12 -46 -7 -66 17 -70 18 -2 23 -10 25 -43 2 -22 7 -44
12 -49 11 -11 5 88 -7 106 -4 7 -15 13 -23 13 -11 0 -14 9 -12 33 4 37 -3 43
-12 10z"/>
<path d="M5301 1563 c0 -10 4 -27 9 -38 7 -16 9 -13 9 18 1 20 -3 37 -9 37 -5
0 -10 -8 -9 -17z"/>
<path d="M6210 1528 c-41 -89 -41 -90 -27 -85 6 2 11 12 11 21 -1 9 2 16 7 16
5 0 9 7 9 15 0 9 6 18 14 21 9 3 14 18 14 35 -1 16 -2 29 -3 29 -1 0 -12 -24
-25 -52z"/>
<path d="M6260 1570 c-12 -8 -10 -10 8 -10 13 0 20 4 17 10 -7 12 -6 12 -25 0z"/>
<path d="M5341 1527 c0 -21 -8 -45 -16 -53 -8 -9 -14 -30 -14 -47 l2 -32 7 35
6 35 7 -35 c4 -19 9 -48 11 -65 2 -16 2 4 1 45 -3 71 -2 73 10 40 7 -19 11
-48 9 -65 -4 -27 -4 -28 5 -7 6 12 14 22 20 22 19 0 16 47 -5 100 -26 61 -32
46 -9 -20 8 -23 15 -50 15 -59 -1 -27 -33 51 -40 99 l-7 45 -2 -38z"/>
<path d="M5396 1523 c8 -46 24 -67 24 -32 0 35 -11 69 -22 69 -5 0 -6 -16 -2
-37z"/>
<path d="M5435 1549 c-4 -6 -5 -12 -2 -15 2 -3 7 2 10 11 7 17 1 20 -8 4z"/>
<path d="M16703 1544 c-15 -16 -16 -24 -4 -24 8 0 24 30 19 35 -2 2 -9 -3 -15
-11z"/>
<path d="M17072 1500 c0 -14 2 -19 5 -12 2 6 2 18 0 25 -3 6 -5 1 -5 -13z"/>
<path d="M7124 1476 c-3 -21 -4 -39 -1 -42 3 -4 9 10 13 30 3 21 4 39 1 42 -3
4 -9 -10 -13 -30z"/>
<path d="M17045 1452 c0 -33 4 -58 9 -55 4 3 7 -15 5 -40 -2 -25 0 -43 4 -40
4 2 5 -8 2 -24 -4 -22 -3 -24 4 -8 5 11 7 39 5 63 -2 23 1 42 6 42 13 0 13 41
-1 60 -8 11 -9 7 -4 -17 4 -21 3 -33 -4 -33 -6 0 -11 17 -12 38 0 20 -4 45 -8
55 -4 10 -7 -7 -6 -41z"/>
<path d="M6220 1473 c-7 -16 -14 -35 -14 -43 -1 -10 -10 -14 -26 -13 -22 1
-29 -8 -53 -60 -15 -34 -32 -70 -37 -79 -7 -13 -6 -16 3 -12 14 6 61 103 58
122 -1 7 9 12 24 12 35 0 50 17 58 63 7 44 5 46 -13 10z"/>
<path d="M15487 1427 c3 -15 9 -27 14 -27 13 0 11 13 -5 35 -13 18 -14 18 -9
-8z"/>
<path d="M7147 1380 c8 -78 9 -111 0 -140 -4 -14 0 -9 9 10 13 28 14 44 5 90
-17 88 -21 99 -14 40z"/>
<path d="M14432 1331 c-2 -65 1 -91 12 -106 14 -18 15 -18 16 -2 0 9 -5 17
-11 17 -8 0 -9 24 -5 78 4 42 3 82 -1 88 -4 7 -9 -27 -11 -75z"/>
<path d="M7122 1370 c0 -19 2 -27 5 -17 2 9 2 25 0 35 -3 9 -5 1 -5 -18z"/>
<path d="M16745 1389 c-3 -4 5 -25 18 -46 13 -21 26 -44 28 -51 3 -10 10 -7
24 9 20 22 20 22 -1 17 -19 -5 -21 -1 -19 36 1 36 -2 41 -22 42 -13 1 -26 -2
-28 -7z m33 -20 c7 -12 11 -24 8 -27 -6 -6 -35 27 -36 41 0 14 15 7 28 -14z"/>
<path d="M5381 1374 c0 -11 3 -14 6 -6 3 7 2 16 -1 19 -3 4 -6 -2 -5 -13z"/>
<path d="M6466 1371 c-4 -5 -2 -20 3 -33 9 -21 10 -21 10 10 1 32 -3 39 -13
23z"/>
<path d="M6423 1346 c7 -14 13 -23 15 -21 7 6 -9 45 -18 45 -4 0 -3 -11 3 -24z"/>
<path d="M15526 1338 c-2 -13 -4 -40 -3 -61 l1 -37 18 36 c18 38 16 61 -3 34
-8 -11 -9 -7 -5 18 6 36 -1 45 -8 10z"/>
<path d="M17041 1344 c0 -11 3 -14 6 -6 3 7 2 16 -1 19 -3 4 -6 -2 -5 -13z"/>
<path d="M5371 1334 c0 -11 3 -14 6 -6 3 7 2 16 -1 19 -3 4 -6 -2 -5 -13z"/>
<path d="M5302 1278 l1 -63 7 55 c6 50 7 52 8 14 1 -22 9 -49 17 -60 14 -17
15 -15 9 26 -9 76 -14 90 -29 90 -12 0 -15 -13 -13 -62z"/>
<path d="M6147 1334 c-4 -4 -7 -14 -7 -23 0 -11 3 -12 11 -4 6 6 10 16 7 23
-2 6 -7 8 -11 4z"/>
<path d="M7132 1310 c0 -14 2 -19 5 -12 2 6 2 18 0 25 -3 6 -5 1 -5 -13z"/>
<path d="M5361 1294 c0 -11 3 -14 6 -6 3 7 2 16 -1 19 -3 4 -6 -2 -5 -13z"/>
<path d="M6130 1281 c0 -7 7 -19 15 -27 13 -13 15 -13 15 -1 0 8 -7 20 -15 27
-11 9 -15 10 -15 1z"/>
<path d="M15561 1274 c0 -11 3 -14 6 -6 3 7 2 16 -1 19 -3 4 -6 -2 -5 -13z"/>
<path d="M17047 1250 c3 -25 7 -47 9 -49 8 -9 2 55 -6 74 -6 13 -7 5 -3 -25z"/>
<path d="M7122 1240 c0 -19 2 -27 5 -17 2 9 2 25 0 35 -3 9 -5 1 -5 -18z"/>
<path d="M16862 1258 c-13 -16 -11 -70 3 -81 7 -6 6 -10 -3 -14 -9 -3 -8 -12
5 -34 10 -16 21 -29 26 -29 5 0 6 -8 3 -17 -3 -10 1 -29 9 -43 16 -28 21 -9 5
21 -7 13 -7 19 0 19 5 0 10 9 10 20 0 13 -7 20 -20 20 -11 0 -20 3 -21 8 -1 4
-2 21 -4 38 -1 16 -6 41 -10 53 -5 16 -4 21 4 17 7 -4 11 1 11 13 0 24 -4 26
-18 9z"/>
<path d="M7171 1229 c0 -19 4 -43 9 -54 6 -13 7 -2 3 30 -7 59 -13 72 -12 24z"/>
<path d="M6047 1198 c-33 -70 -38 -88 -26 -88 5 0 12 14 16 31 5 29 7 30 19
15 8 -12 14 -14 19 -6 4 7 2 17 -4 23 -13 13 -15 41 -2 33 5 -3 8 5 7 19 0 14
-2 25 -3 25 -1 0 -13 -24 -26 -52z"/>
<path d="M15567 1243 c-14 -13 -6 -42 15 -57 30 -21 34 -12 9 20 -11 14 -18
30 -15 35 6 11 0 12 -9 2z"/>
<path d="M16820 1235 c0 -5 5 -17 10 -25 5 -8 10 -10 10 -5 0 6 -5 17 -10 25
-5 8 -10 11 -10 5z"/>
<path d="M15522 1200 c0 -14 2 -19 5 -12 2 6 2 18 0 25 -3 6 -5 1 -5 -13z"/>
<path d="M5310 1202 c0 -12 19 -26 26 -19 2 2 -2 10 -11 17 -9 8 -15 8 -15 2z"/>
<path d="M14473 1160 c0 -30 2 -43 4 -27 2 15 2 39 0 55 -2 15 -4 2 -4 -28z"/>
<path d="M7147 1186 c-4 -10 -5 -21 -2 -24 9 -9 17 6 13 25 -3 17 -4 17 -11
-1z"/>
<path d="M14419 1105 c-2 -55 1 -138 7 -185 10 -78 10 -70 6 90 -4 206 -8 233
-13 95z"/>
<path d="M7121 1174 c0 -11 3 -14 6 -6 3 7 2 16 -1 19 -3 4 -6 -2 -5 -13z"/>
<path d="M15606 1143 c-7 -23 8 -121 20 -133 6 -6 9 6 9 29 0 22 -2 38 -6 35
-3 -2 -4 9 -2 24 4 22 2 24 -7 12 -9 -12 -11 -8 -6 18 6 34 1 43 -8 15z"/>
<path d="M6047 1117 c-3 -8 -16 -17 -28 -19 -16 -2 -23 -11 -24 -28 -2 -14 -6
-40 -10 -59 -6 -25 -5 -32 4 -27 6 4 9 11 6 16 -9 15 7 40 26 40 14 0 19 7 19
30 0 30 23 43 33 18 3 -7 6 -8 6 -2 1 5 -5 18 -12 28 -12 16 -15 17 -20 3z"/>
<path d="M7207 1085 c3 -27 7 -60 8 -72 1 -13 5 -26 8 -30 4 -3 7 -14 7 -24 0
-10 5 -21 11 -25 8 -4 9 1 3 17 -4 13 -16 60 -25 104 -12 50 -16 61 -12 30z"/>
<path d="M14446 1086 c-4 -21 -5 -40 -2 -43 7 -8 18 42 14 64 -3 11 -7 3 -12
-21z"/>
<path d="M16926 1053 c9 -37 24 -53 24 -26 0 12 3 30 6 40 5 15 4 15 -5 3 -7
-10 -11 -11 -11 -2 0 6 -5 12 -10 12 -6 0 -8 -11 -4 -27z"/>
<path d="M5971 1049 c-7 -12 -10 -23 -8 -26 3 -3 11 5 17 17 15 28 8 35 -9 9z"/>
<path d="M15652 1020 c0 -14 2 -19 5 -12 2 6 2 18 0 25 -3 6 -5 1 -5 -13z"/>
<path d="M5945 996 c-3 -9 -7 -23 -10 -31 -2 -8 0 -15 5 -15 11 0 25 48 16 57
-3 3 -8 -2 -11 -11z"/>
<path d="M16920 1000 c0 -13 18 -22 24 -11 3 5 -1 11 -9 15 -8 3 -15 1 -15 -4z"/>
<path d="M14463 960 c0 -25 2 -35 4 -22 2 12 2 32 0 45 -2 12 -4 2 -4 -23z"/>
<path d="M16952 972 c-9 -28 3 -52 28 -52 5 0 10 -5 10 -12 0 -6 2 -9 5 -6 3
3 1 16 -4 29 -5 13 -10 18 -10 11 -1 -7 -6 -10 -12 -7 -6 4 -7 19 -4 36 8 37
0 38 -13 1z"/>
<path d="M16992 980 c0 -14 2 -19 5 -12 2 6 2 18 0 25 -3 6 -5 1 -5 -13z"/>
<path d="M17018 984 c-5 -4 -8 -21 -7 -38 0 -30 0 -30 10 -7 11 27 8 57 -3 45z"/>
<path d="M7202 960 c0 -14 2 -19 5 -12 2 6 2 18 0 25 -3 6 -5 1 -5 -13z"/>
<path d="M5957 948 c-10 -11 -15 -23 -11 -26 3 -4 9 -1 11 6 3 6 11 12 18 12
7 0 16 -6 18 -12 3 -7 6 -8 6 -2 1 5 -5 17 -11 26 -12 14 -15 13 -31 -4z"/>
<path d="M7226 883 c9 -51 14 -54 14 -10 0 20 -5 39 -11 42 -7 5 -8 -5 -3 -32z"/>
<path d="M5880 862 c-13 -26 -30 -55 -38 -64 -8 -9 -11 -22 -7 -27 3 -6 2 -11
-3 -11 -4 0 -18 -19 -31 -42 -21 -41 -21 -42 -1 -19 22 25 42 22 20 -4 -8 -10
-9 -15 -1 -15 6 0 12 3 13 8 3 14 8 67 9 84 0 10 9 23 20 29 11 6 18 16 16 22
-2 7 1 17 7 24 34 38 38 45 29 54 -5 5 -19 -11 -33 -39z"/>
<path d="M15691 901 c-1 -8 8 -45 20 -84 14 -47 19 -82 14 -106 -6 -34 -5 -35
11 -19 16 16 15 22 -14 120 -17 57 -31 97 -31 89z"/>
<path d="M7251 885 c0 -11 4 -27 9 -35 9 -13 10 -13 9 0 0 8 -4 24 -9 35 l-9
20 0 -20z"/>
<path d="M16970 875 c0 -8 4 -15 10 -15 5 0 7 7 4 15 -4 8 -8 15 -10 15 -2 0
-4 -7 -4 -15z"/>
<path d="M17011 868 c0 -9 -4 -25 -7 -35 -5 -17 -5 -17 6 0 6 10 9 25 7 35 -4
15 -5 15 -6 0z"/>
<path d="M7201 854 c0 -11 3 -14 6 -6 3 7 2 16 -1 19 -3 4 -6 -2 -5 -13z"/>
<path d="M5902 835 c-14 -31 -15 -55 -3 -55 8 0 24 70 17 77 -1 2 -8 -8 -14
-22z"/>
<path d="M15684 756 c-1 -50 0 -55 6 -26 4 19 8 27 9 18 0 -10 6 -18 11 -18
14 0 13 11 -8 51 l-18 35 0 -60z"/>
<path d="M7283 720 c0 -86 1 -91 12 -57 6 21 14 35 18 31 4 -4 7 0 7 9 0 20
-17 31 -23 15 -3 -7 -3 1 -1 17 3 17 1 41 -4 55 -7 18 -9 0 -9 -70z"/>
<path d="M17001 794 c0 -11 3 -14 6 -6 3 7 2 16 -1 19 -3 4 -6 -2 -5 -13z"/>
<path d="M7301 643 c-12 -43 -6 -57 8 -19 14 34 25 34 17 -1 -5 -22 -4 -24 4
-11 11 18 3 68 -11 68 -4 0 -13 -17 -18 -37z"/>
<path d="M14399 608 c-2 -40 -1 -111 2 -158 5 -71 6 -58 7 73 2 164 -3 210 -9
85z"/>
<path d="M15762 640 c0 -19 2 -27 5 -17 2 9 2 25 0 35 -3 9 -5 1 -5 -18z"/>
<path d="M5740 611 c0 -6 4 -13 10 -16 6 -3 7 1 4 9 -7 18 -14 21 -14 7z"/>
<path d="M15760 591 c0 -6 5 -13 10 -16 6 -3 10 -17 10 -31 0 -13 5 -24 11
-24 6 0 8 7 5 16 -3 9 -9 27 -12 40 -6 23 -24 34 -24 15z"/>
<path d="M5732 549 c-7 -11 -11 -24 -8 -27 10 -9 28 15 24 32 -2 14 -5 13 -16
-5z"/>
<path d="M5700 550 c0 -5 5 -10 10 -10 6 0 10 5 10 10 0 6 -4 10 -10 10 -5 0
-10 -4 -10 -10z"/>
<path d="M15762 530 c0 -14 2 -19 5 -12 2 6 2 18 0 25 -3 6 -5 1 -5 -13z"/>
<path d="M7380 515 c1 -6 7 -21 15 -35 17 -29 18 -40 6 -40 -5 0 -14 15 -21
33 -7 19 -14 27 -17 19 -3 -8 4 -27 16 -43 11 -15 21 -32 21 -36 0 -12 41 -35
48 -28 4 4 -1 13 -11 20 -10 7 -20 27 -22 44 -4 28 -35 89 -35 66z"/>
<path d="M15790 497 c0 -10 -4 -16 -9 -12 -11 6 -26 -96 -18 -117 3 -7 6 6 6
30 1 23 5 42 10 42 5 0 11 8 14 18 2 10 8 -2 15 -28 l12 -45 -5 48 c-5 51 -24
100 -25 64z"/>
<path d="M5647 464 c-10 -13 -13 -24 -7 -24 5 0 10 -6 10 -14 0 -26 18 -27 22
-2 4 17 1 23 -9 19 -16 -6 -17 9 -1 25 6 6 10 14 7 16 -2 2 -12 -7 -22 -20z"/>
<path d="M5583 353 c-33 -52 -40 -70 -32 -84 5 -11 13 -19 17 -19 13 0 31 55
26 78 -4 13 -2 22 5 22 7 0 10 4 6 9 -3 5 4 12 15 16 11 3 20 15 20 26 0 32
-13 21 -57 -48z m7 -47 c0 -15 -18 -31 -26 -23 -7 7 7 37 17 37 5 0 9 -6 9
-14z"/>
<path d="M15792 385 c0 -16 2 -22 5 -12 2 9 2 23 0 30 -3 6 -5 -1 -5 -18z"/>
<path d="M7380 375 c0 -8 7 -15 16 -15 14 0 14 3 4 15 -7 8 -14 15 -16 15 -2
0 -4 -7 -4 -15z"/>
<path d="M7444 356 c-3 -8 -1 -23 5 -33 8 -15 10 -12 8 14 -2 36 -5 40 -13 19z"/>
<path d="M14386 338 c-11 -52 -16 -338 -7 -338 15 0 21 73 19 222 -2 76 -4
138 -5 138 -2 0 -5 -10 -7 -22z"/>
<path d="M7460 292 c0 -6 15 -25 33 -43 17 -18 32 -40 33 -48 3 -47 5 -54 11
-48 3 4 12 2 20 -4 7 -6 13 -7 13 -2 0 5 -9 15 -20 23 -11 8 -18 21 -15 31 3
9 -6 27 -21 42 -16 16 -23 31 -18 39 4 7 4 10 -1 6 -4 -4 -14 -3 -22 3 -8 8
-13 8 -13 1z"/>
<path d="M15841 264 c0 -11 3 -14 6 -6 3 7 2 16 -1 19 -3 4 -6 -2 -5 -13z"/>
<path d="M7440 234 c0 -3 7 -12 15 -21 20 -19 32 -9 15 12 -12 15 -30 20 -30
9z"/>
<path d="M5482 193 c-13 -19 -21 -37 -19 -40 3 -3 13 7 23 22 16 25 19 26 25
9 7 -17 8 -17 8 -1 1 9 6 17 11 17 6 0 10 7 10 15 0 8 -4 15 -10 15 -5 0 -10
-6 -10 -12 0 -10 -2 -10 -8 -1 -5 8 -15 0 -30 -24z"/>
<path d="M15847 208 c-10 -36 -8 -88 3 -88 6 0 10 -7 10 -15 0 -8 -3 -15 -8
-15 -4 0 -8 -18 -8 -40 -1 -39 -1 -40 18 -24 10 10 14 20 9 24 -6 3 -10 21
-10 40 0 19 -2 53 -5 75 -4 31 -3 34 3 15 l9 -25 1 25 c1 38 -15 58 -22 28z"/>
<path d="M5490 150 c0 -5 5 -10 10 -10 6 0 10 5 10 10 0 6 -4 10 -10 10 -5 0
-10 -4 -10 -10z"/>
<path d="M5460 130 c0 -5 5 -10 11 -10 5 0 7 5 4 10 -3 6 -8 10 -11 10 -2 0
-4 -4 -4 -10z"/>
<path d="M15875 116 c3 -14 7 -37 10 -51 3 -14 10 -25 16 -25 7 0 8 7 4 18 -3
9 -9 29 -12 45 -3 15 -10 30 -15 33 -5 3 -6 -6 -3 -20z"/>
<path d="M7540 94 c0 -18 -6 -34 -12 -37 -8 -2 -9 -8 -4 -13 5 -5 11 -4 13 4
3 6 20 12 39 12 32 0 33 -1 29 -32 -5 -33 -5 -33 4 -5 12 34 5 54 -21 68 -11
6 -17 16 -15 23 3 6 -3 12 -14 12 -15 0 -19 -8 -19 -32z"/>
<path d="M7221 89 c-17 -48 3 -102 25 -68 3 6 1 15 -7 19 -10 7 -10 16 -2 44
14 44 -1 48 -16 5z"/>
<path d="M7320 110 c0 -5 9 -10 20 -10 11 0 20 5 20 10 0 6 -9 10 -20 10 -11
0 -20 -4 -20 -10z"/>
<path d="M7300 80 c11 -11 20 -24 20 -30 0 -5 7 -10 15 -10 14 0 14 3 0 30 -9
18 -23 30 -35 30 -20 0 -20 0 0 -20z"/>
<path d="M5430 73 c0 -15 -2 -16 -10 -3 -7 12 -11 10 -18 -10 -6 -16 -5 -31 2
-42 12 -20 26 -24 26 -8 0 6 -4 10 -10 10 -5 0 -10 7 -10 16 0 12 3 14 13 6
10 -9 13 -4 15 19 1 16 0 29 -3 29 -3 0 -5 -8 -5 -17z"/>
<path d="M7620 16 c0 -9 5 -16 10 -16 6 0 10 4 10 9 0 6 -4 13 -10 16 -5 3
-10 -1 -10 -9z"/>
</g>
</svg>
