<?xml version="1.0" encoding="UTF-8" standalone="no"?>
<svg
   width="300"
   height="300"
   viewBox="0 0 300 300"
   version="1.1"
   id="svg4"
   sodipodi:docname="happy_full.svg"
   inkscape:version="1.3.2 (091e20ef0f, 2023-11-25)"
   inkscape:export-filename="happy_fulls.svg"
   inkscape:export-xdpi="96"
   inkscape:export-ydpi="96"
   xmlns:inkscape="http://www.inkscape.org/namespaces/inkscape"
   xmlns:sodipodi="http://sodipodi.sourceforge.net/DTD/sodipodi-0.dtd"
   xmlns="http://www.w3.org/2000/svg"
   xmlns:svg="http://www.w3.org/2000/svg">
  <defs
     id="defs4" />
  <sodipodi:namedview
     id="namedview4"
     pagecolor="#ffffff"
     bordercolor="#000000"
     borderopacity="0.25"
     inkscape:showpageshadow="2"
     inkscape:pageopacity="0.0"
     inkscape:pagecheckerboard="0"
     inkscape:deskcolor="#d1d1d1"
     inkscape:zoom="1.3504346"
     inkscape:cx="78.493252"
     inkscape:cy="227.70448"
     inkscape:window-width="1447"
     inkscape:window-height="1015"
     inkscape:window-x="5"
     inkscape:window-y="60"
     inkscape:window-maximized="1"
     inkscape:current-layer="svg4" />
  <g
     id="g4"
     transform="matrix(0.80191687,0,0,0.80191687,31.634816,49.244411)">
    <path
       d="m 184.97955,82.888765 c -1.864,1.983 -2.172,3.109 -1.635,5.971 0.67,3.574 3.703,6.585 6.63,6.585 2.403,0 5.952,-4.281 5.952,-7.18 0,-3.416 -3.603,-7.82 -6.398,-7.82 -1.239,0 -3.287,1.1 -4.549,2.444 m -69.029,6.027 c -1.906,2.297 -1.663,8.165 0.434,10.483 2.293,2.534005 4.721,2.610005 6.887,0.217 2.25,-2.486 2.08,-6.361 -0.418,-9.536 -2.306,-2.932 -5.051,-3.395 -6.903,-1.164 m 56.176,4.729 c -2.533,2.533 -0.637,6.800005 3.021,6.800005 1.002,0 2.357,-1.174005 3.011,-2.610005 1.021,-2.24 0.92,-2.806 -0.713,-4 -2.333,-1.705 -3.753,-1.756 -5.319,-0.19 m -68.45,2.88 c -0.963,0.561 -1.75,1.807 -1.75,2.77 0,3.780005 4.61,5.529005 6.996,2.655005 1,-1.205 0.922,-1.981005 -0.401,-4.000005 -1.814,-2.77 -2.294,-2.911 -4.845,-1.425 m 62.25,56.406005 c -9.075,0.674 -24.306,1.831 -33.846,2.57 l -17.346,1.345 0.618,4.049 c 1.695,11.111 12.703,25.334 23.574,30.458 4.659,2.196 6.876,2.59 14.5,2.577 7.94,-0.014 9.684,-0.36 14.804,-2.939 6.708,-3.379 11.54,-8.331 15.226,-15.606 2.541,-5.013 6.47,-18.435 6.47,-22.1 0,-2.156 0.22,-2.153 -24,-0.354"
       stroke="none"
       fill="#f4f3f0"
       fill-rule="evenodd"
       id="path1" />
    <path
       d="m 150.68355,11.478765 c -16.362,2.754 -28.512,10.2 -42.073,25.783 -4.264,4.899 -5.703,7.282 -5.39,8.927 0.555,2.921 -1.609,4.645 -4.819,3.839 -4.010004,-1.006 -19.140004,3.067 -28.475004,7.666 -11.843,5.835 -21.114,15.141 -27.08,27.181 -3.99,8.051 -4.37,9.474 -4.394,16.442005 -0.021,6.06 0.413,8.347 2.109,11.128 1.214,1.99 1.861,4.23 1.5,5.192 -0.349,0.93 -3.42,3.49 -6.823,5.688 -6.561,4.237 -12.069,9.313 -16.712,15.4 -2.52,3.304 -2.754,4.228 -2.146,8.464 2.982,20.76 12.894,37.921 26.26,45.464 5.909,3.335 6.462,4.094 8.218,11.292 3.765,15.433 15.039,24.986 34.461,29.201 6.56,1.423 9.101,1.512 16.433004,0.572 10.554,-1.353 18.798,-4.403 24.051,-8.899 2.167,-1.856 4.602,-3.374 5.41,-3.374 0.807,0 2.028,-0.675 2.713,-1.5 1.892,-2.28 5.617,-1.814 12.467,1.559 15.645,7.701 30.985,8.878 41.217,3.161 2.975,-1.661 4.906,-1.534 8.059,0.53 2.011,1.316 4.666,1.735 10.715,1.691 14.05,-0.104 23.155,-5.898 25.715,-16.367 1.133,-4.634 1.971,-5.878 5.745,-8.527 5.287,-3.71 12.83,-16.4 19.345,-32.547 l 4.237,-10.5 v -17 -17 l 4.726,-3 c 6.285,-3.99 8.186,-9.73 7.582,-22.894005 -0.357,-7.774 -0.909,-10.13 -3.775,-16.106 -8.752,-18.254 -31.932,-32.609 -55.455,-34.343 -8.568,-0.631 -8.992,-0.776 -10.677,-3.657 -0.965,-1.65 -1.788,-3.706 -1.828,-4.568 -0.219,-4.705 -3.487,-12.12 -7.199,-16.337 -8.897,-10.108 -27.398,-15.3759997 -44.117,-12.561 m 25.975,61.043 c -13.065,6.897 -16.835,30.066005 -7.162,44.025005 3.822,5.514 8.114,7.898 14.22,7.898 15.837,0 25.133,-24.316 16.135,-42.208005 -2.836,-5.64 -4.657,-7.613 -9.135,-9.898 -4.708,-2.403 -9.27,-2.344 -14.058,0.183 m -71.232,5.323 c -8.057,3.551 -13.475004,13.281 -13.490004,24.224005 -0.016,11.788 4.595004,21.253 12.936004,26.552 5.056,3.212 12.255,3.816 16.854,1.413 7.425,-3.879 12.55,-13.496 12.571,-23.589 0.027,-12.749005 -5.129,-22.541005 -14.347,-27.250005 -5.887,-3.008 -9.913,-3.382 -14.524,-1.35 m 74,68.270005 c -10.45,0.759 -29.125,2.225 -41.5,3.258 -19.905,1.662 -22.635,1.706 -23.674,0.387 -2.176,-2.762 -4.411,-1.008 -6.457,5.067 -2.072,6.148 -1.923,8.618 0.519,8.618 0.851,0 2.13,2.043 3.091,4.937 3.895,11.727 13.973,23.018 25.341,28.391 6.03,2.85 7.605,3.158 16.18,3.165 8.722,0.006 10.094,-0.271 16.753,-3.392 14.027,-6.575 22.509,-20.014 25.751,-40.802 0.633,-4.06 0.802,-4.222 5.043,-4.858 4.757,-0.714 7.014,-2.538 6.096,-4.928 -0.675,-1.76 -0.762,-1.759 -27.143,0.157"
       stroke="none"
       fill="#f9e1ae"
       fill-rule="evenodd"
       id="path2" />
    <path
       d="m 92.556546,93.694765 c -0.803,2.996 -0.667,15.802005 0.19,17.963005 0.374,0.942 0.68,-3.221 0.68,-9.25001 0,-6.029995 -0.06,-10.962995 -0.133,-10.962995 -0.074,0 -0.405,1.013 -0.737,2.25 m 171.565004,29.377005 -3.306,2.605 0.306,16.634 0.305,16.634 -4.237,10.5 c -6.515,16.147 -14.058,28.837 -19.345,32.547 -3.774,2.649 -4.612,3.893 -5.745,8.527 -2.56,10.469 -11.665,16.263 -25.715,16.367 -6.049,0.044 -8.704,-0.375 -10.715,-1.691 -3.153,-2.064 -5.084,-2.191 -8.059,-0.53 -10.232,5.717 -25.572,4.54 -41.217,-3.161 -6.85,-3.373 -10.575,-3.839 -12.467,-1.559 -0.685,0.825 -1.906,1.5 -2.713,1.5 -0.808,0 -3.243,1.518 -5.41,3.374 -5.253,4.496 -13.497,7.546 -24.051,8.899 -7.332004,0.94 -9.873004,0.851 -16.433004,-0.572 -19.422,-4.215 -30.696,-13.768 -34.461,-29.201 -1.756,-7.198 -2.309,-7.957 -8.218,-11.292 -13.437,-7.584 -23.662,-25.393 -26.244,-45.708 -0.6,-4.727 -0.429,-5.246 3.137,-9.5 3.513,-4.191 3.548,-4.294 0.515,-1.5 -5.397,4.971 -10.34,16.22 -10.89,24.78 -1.029,16.044 5.818,34.694 16.468,44.853 3.192,3.044 6.467,5.756 7.278,6.026 0.96,0.32 1.39,1.592 1.234,3.647 -0.603,7.909 9.393,20.419 20.788,26.016 9.641,4.735 19.355,6.499 32,5.808 13.918004,-0.76 19.956004,-2.48 35.730004,-10.175 7.277,-3.55 13.859,-6.455 14.628,-6.455 0.768,0 1.986,0.71 2.707,1.578 1.937,2.334 9.513,5.933 17.773,8.441 9.52,2.892 23.082,2.516 30.579,-0.848 4.83,-2.167 4.953,-2.173 7,-0.314 1.146,1.04 4.783,2.914 8.083,4.164 12.304,4.66 25.652,2.143 35.477,-6.691 5.759,-5.177 10.52,-12.601 10.241,-15.97 -0.156,-1.876 0.942,-2.811 6.29,-5.364 12.273,-5.857 23.722,-16.846 29.461,-28.277 3.834,-7.637 5.302,-15.192 4.877,-25.097 -0.297,-6.902 -0.898,-9.248 -4.003,-15.622 -4.276,-8.778 -11.897,-18.69 -15.392,-20.018 -2.334,-0.888 -2.89,-1.929 -2.526,-4.732 0.218,-1.677 0.08,-1.626 -3.73,1.377"
       stroke="none"
       fill="#e6ce9b"
       fill-rule="evenodd"
       id="path3" />
    <path
       d="m 146.51555,6.0897653 c -17.076,3.661 -33.435,14.9499997 -46.049,31.7809997 -3.657,4.88 -3.792,4.951 -14.441004,7.635 -16.996,4.284 -27.795,10.442 -38.402,21.9 -13.065,14.111 -18.984,33.104005 -13.867,44.496005 l 1.777,3.958 -5.833,3.895 c -12.458,8.319 -23.7769997,24.689 -25.7919997,37.301 -2.857,17.885 6.5939997,43.721 19.9059997,54.419 2.89,2.323 4.223,4.354 5.073,7.729 3.642,14.464 20.126,28.407 38.033,32.17 6.991,1.469 24.19,1.488 32.200004,0.036 7.983,-1.448 16.587,-4.72 28.333,-10.777 8.877,-4.577 9.544,-4.767 11.014,-3.143 2.315,2.558 12.252,6.746 21.641,9.12 9.304,2.353 19.031,2.154 26.818,-0.549 4.408,-1.529 4.664,-1.498 12.5,1.543 14.681,5.696 26.094,4.781 38.237,-3.068 6.633,-4.287 11.803,-10.152 15.574,-17.668 2.106,-4.197 3.705,-5.753 9.23,-8.985 22.399,-13.099 35.374,-36.341 32.904,-58.938 -1.095,-10.015 -7.483,-22.69 -15.747,-31.242 l -4.099,-4.242 1.72,-4.782 c 7.055,-19.621005 2.418,-37.778005 -13.725,-53.734005 -4.452,-4.4 -10.669,-9.51 -13.815,-11.355 -11.066,-6.488 -25.295,-11.145 -34.055,-11.145 -6.686,0 -8.691,-1.254 -8.538,-5.339 0.069,-1.817 -1.039,-5.845 -2.462,-8.952 -8.168,-17.842 -33.313,-27.3859997 -58.135,-22.0639997 m -2.042,5.8359997 c -9.958,2.846 -19.535,8.487 -27.775,16.359 -9.468,9.045 -14.036,14.619 -14.364,17.526 -0.133,1.174 -0.279,2.446 -0.325,2.827 -0.046,0.381 -2.277,0.675 -4.958,0.655 -6.181004,-0.048 -18.828004,3.395 -26.707004,7.27 -18.229,8.966 -32.591,28.603 -32.825,44.881995 -0.073,5.08701 0.403,7.33901 2.189,10.36101 1.255,2.124 2.03,4.655 1.722,5.625 -0.308,0.97 -3.134,3.354 -6.282,5.298 -8.473,5.232 -18.643,16.254 -22.395,24.271 -8.0369997,17.175 -2.07,44.324 12.873,58.578 3.192,3.044 6.467,5.756 7.278,6.026 0.96,0.32 1.39,1.592 1.234,3.647 -0.603,7.909 9.393,20.419 20.788,26.016 9.641,4.735 19.355,6.499 32,5.808 13.918004,-0.76 19.956004,-2.48 35.730004,-10.175 7.277,-3.55 13.859,-6.455 14.628,-6.455 0.768,0 1.986,0.71 2.707,1.578 1.937,2.334 9.513,5.933 17.773,8.441 9.52,2.892 23.082,2.516 30.579,-0.848 4.83,-2.167 4.953,-2.173 7,-0.314 1.146,1.04 4.783,2.914 8.083,4.164 12.304,4.66 25.652,2.143 35.477,-6.691 5.759,-5.177 10.52,-12.601 10.241,-15.97 -0.156,-1.876 0.942,-2.811 6.29,-5.364 12.273,-5.857 23.722,-16.846 29.461,-28.277 3.834,-7.637 5.302,-15.192 4.877,-25.097 -0.297,-6.902 -0.898,-9.248 -4.003,-15.622 -4.21,-8.643 -11.882,-18.684 -15.255,-19.967 -3.496,-1.329 -4.343,-6.033 -1.087,-6.033 2.705,0 4.999,-8.949 4.999,-19.50001 0,-9.116995 -0.274,-10.573995 -3.099,-16.499995 -6.152,-12.905 -16.328,-22.66 -30.901,-29.623 -8.838,-4.224 -21.097,-7.377 -28.676,-7.377 -5.645,0 -5.908,-0.117 -7.295,-3.25 -0.791,-1.788 -2.122,-5.754 -2.958,-8.814 -2.767,-10.135 -10.077,-17.661 -21.426,-22.058 -7.243,-2.807 -27.839,-3.6149997 -35.598,-1.397 m 31.819,61.438 c -7.714,4.703 -11.883,14.744 -11.156,26.865995 1.216,20.26901 16.503,30.30801 29.191,19.16801 10.296,-9.04 11.005,-32.391005 1.3,-42.786005 -5.044,-5.402 -13.479,-6.819 -19.335,-3.248 m -73.102,6.639 c -2.531,1.517 -5.349,4.432 -7,7.24 -2.545004,4.329 -2.764004,5.536 -2.764004,15.201995 0,9.79501 0.201,10.86401 3.000004,15.92201 7.569,13.679 20.822,16.655 30.168,6.774 7.069,-7.473 9.024,-18.08 5.45,-29.564005 -4.713,-15.143 -17.794,-22.203 -28.854,-15.574 m 82.259,1.603 c -2.456,1.931 -2.693,2.641 -2.236,6.689 0.565,5.018 2.577,7.15 6.749,7.15 6.282,0 8.653,-9.291 3.501,-13.722 -3.288,-2.828 -4.544,-2.847 -8.014,-0.117 m -69.966,7.062 c -3.498,4.993 -0.831,12.776995 4.377,12.776995 3.582,0 5.466,-2.262995 5.466,-6.565995 0,-3.776 -3.6,-8.434 -6.518,-8.434 -0.973,0 -2.469,1 -3.325,2.223 m 56.157,4.396 c -1.529,1.529 -0.694,6.321 1.286,7.380995 3.265,1.748 6.186,-0.422 5.808,-4.315995 -0.264,-2.732 -0.739,-3.226 -3.344,-3.481 -1.67,-0.164 -3.357,0.024 -3.75,0.416 m -68.544,3.255 c -1.808,1.146 -1.088,6.162995 1.08,7.519995 2.274,1.42401 5.126,-0.265 5.577,-3.301 0.592,-3.991995 -3.212,-6.402995 -6.657,-4.218995 m 69.83,51.123005 c -12.925,0.946 -31.262,2.321 -40.749,3.055 -16.736,1.295 -17.291,1.276 -18.682,-0.609 -2.342,-3.172 -3.404,-1.422 -6.255,10.307 -0.424,1.744 -0.114,2.25 1.38,2.25 1.475,0 2.228,1.171 3.204,4.98 2.716,10.595 14.157,23.767 25.102,28.9 4.805,2.253 6.827,2.582 16,2.6 9.478,0.018 11.106,-0.26 16.722,-2.854 7.53,-3.478 15.346,-11.349 18.832,-18.963 2.792,-6.098 6.446,-19.603 6.446,-23.823 0,-2.323 0.433,-2.84 2.375,-2.84 5.242,0 8.625,-1.226 8.625,-3.125 0,-2.279 -0.211,-2.278 -33,0.122 m -0.5,4.677 c -10.58,0.663 -58.012,4.527 -58.241,4.745 -0.594,0.565 2.94,12.051 4.874,15.841 3.546,6.952 13.154,16.147 20.154,19.288 14.965,6.716 34.565,1.093 42.321,-12.142 3.768,-6.43 7.256,-16.4 8.025,-22.938 l 0.642,-5.468 -6.387,0.18 c -3.514,0.099 -8.638,0.321 -11.388,0.494"
       stroke="none"
       fill="#546977"
       fill-rule="evenodd"
       id="path4" />
  </g>
</svg>
