<?xml version="1.0" encoding="UTF-8" standalone="no"?>
<svg
   width="300"
   height="300"
   viewBox="0 0 300 300"
   version="1.1"
   id="svg5"
   sodipodi:docname="happy_slight.svg"
   inkscape:version="1.3.2 (091e20ef0f, 2023-11-25)"
   xmlns:inkscape="http://www.inkscape.org/namespaces/inkscape"
   xmlns:sodipodi="http://sodipodi.sourceforge.net/DTD/sodipodi-0.dtd"
   xmlns="http://www.w3.org/2000/svg"
   xmlns:svg="http://www.w3.org/2000/svg">
  <defs
     id="defs5" />
  <sodipodi:namedview
     id="namedview5"
     pagecolor="#ffffff"
     bordercolor="#000000"
     borderopacity="0.25"
     inkscape:showpageshadow="2"
     inkscape:pageopacity="0.0"
     inkscape:pagecheckerboard="0"
     inkscape:deskcolor="#d1d1d1"
     inkscape:zoom="0.39892578"
     inkscape:cx="1022.7466"
     inkscape:cy="1024"
     inkscape:window-width="1447"
     inkscape:window-height="1015"
     inkscape:window-x="468"
     inkscape:window-y="60"
     inkscape:window-maximized="1"
     inkscape:current-layer="svg5" />
  <g
     id="g5"
     transform="translate(-1227.5307,-801.74692)">
    <path
       d=""
       stroke="none"
       fill="#b5bdc1"
       fill-rule="evenodd"
       id="path1" />
    <path
       d="m 1368,847.89 c -5.078,1.079 -10.337,3.808 -13.304,6.906 -3.997,4.174 -7.696,11.89 -7.696,16.057 0,4.674 -1.42,6.144 -5.95,6.159 -8.636,0.029 -18.025,3.963 -24.204,10.142 -5.748,5.748 -8.189,11.714 -7.335,17.927 0.552,4.009 0.399,4.919 -0.825,4.919 -2.236,0 -12.006,8.3 -17.031,14.469 l -4.406,5.409 -0.162,14.609 c -0.148,13.37 0.025,14.941 2.04,18.525 2.173,3.867 7.113,8.46 11.759,10.933 2.292,1.221 2.363,1.588 1.828,9.402 -0.741,10.8 0.638,17.561 5.482,26.894 4.357,8.395 12.146,16.524 20.585,21.485 4.477,2.632 5.279,2.761 15.646,2.523 l 10.927,-0.251 5.029,5.643 c 8.933,10.022 20.548,12.976 32.881,8.361 6.606,-2.471 10.377,-6.382 15.277,-15.842 4.376,-8.449 5.576,-9.16 15.475,-9.16 19.001,0 30.49,-6.795 37.858,-22.389 4.216,-8.922 4.707,-11.74 2.736,-15.691 -2.203,-4.415 -2.069,-5.631 1.478,-13.455 9.071,-20.005 7.245,-44.232 -4.184,-55.505 -1.737,-1.713 -2.789,-4.105 -3.234,-7.35 -1.431,-10.443 -11.699,-24.055 -22.713,-30.11 -5.269,-2.897 -5.887,-2.998 -17.957,-2.932 -7.815,0.043 -12.775,-0.332 -13.235,-1 -0.404,-0.587 -0.741,-2.442 -0.75,-4.122 -0.025,-4.99 -4.713,-13.148 -9.365,-16.295 -8.007,-5.418 -18.742,-7.94 -26.65,-6.261 m 34.961,62.652 c -3.352,3.567 -4.866,10.33 -4.915,21.958 -0.04,9.289 1.969,24.961 3.561,27.778 2.073,3.669 4.959,5.722 8.044,5.722 6.052,0 8.472,-7.199 8.529,-25.37 0.042,-13.608 -0.319,-16.253 -3.302,-24.227 -1.696,-4.532 -2.732,-5.862 -5.454,-6.999 -4.202,-1.756 -3.654,-1.853 -6.463,1.138 m -55.725,2.238 c -4.961,4.633 -6.435,16.252 -4.173,32.898 1.768,13.021 6.582,20.322 13.398,20.322 3.58,0 6.719,-2.743 8.579,-7.5 2.105,-5.382 0.605,-35.851 -2.095,-42.559 -2.422,-6.02 -10.837,-7.713 -15.709,-3.161 m 84.869,63.568 c -9.785,14.222 -30.23,25.996 -50.189,28.905 -14.645,2.135 -29.928,-2.743 -43.164,-13.776 -6.872,-5.729 -10.077,-6.638 -10.459,-2.967 -0.146,1.406 1.956,3.68 7.163,7.748 14.527,11.348 26.326,15.304 43.044,14.432 20.021,-1.044 39.233,-10.098 53.268,-25.101 6.007,-6.422 8.123,-10.339 6.767,-12.532 -1.297,-2.1 -3.496,-0.974 -6.43,3.291"
       stroke="none"
       fill="#f4e1ba"
       fill-rule="evenodd"
       id="path2" />
    <path
       d="m 1465.027,919.193 c -0.015,0.381 0.85,2.181 1.922,4 6.899,11.704 6.538,31.956 -0.861,48.272 -3.547,7.824 -3.681,9.04 -1.478,13.455 1.971,3.951 1.48,6.769 -2.736,15.691 -7.368,15.594 -18.857,22.389 -37.858,22.389 -9.899,0 -11.099,0.711 -15.475,9.16 -4.9,9.46 -8.671,13.371 -15.277,15.842 -12.333,4.615 -23.948,1.661 -32.881,-8.361 l -5.029,-5.643 -10.927,0.251 c -10.367,0.238 -11.169,0.109 -15.646,-2.523 -8.439,-4.961 -16.228,-13.09 -20.585,-21.485 -4.844,-9.333 -6.223,-16.094 -5.482,-26.894 0.535,-7.814 0.464,-8.181 -1.828,-9.402 -4.656,-2.478 -9.588,-7.069 -11.775,-10.961 -2.02,-3.594 -2.2,-5.149 -2.021,-17.488 0.108,-7.449 -0.084,-13.824 -0.427,-14.166 -0.99,-0.99 -7.543,13.664 -8.573,19.17 -1.736,9.289 1.24,18.732 8.276,26.253 4.478,4.787 4.484,4.805 3.961,10.771 -1.175,13.398 5.478,29.339 17.132,41.053 9.7,9.749 16.342,12.923 27.041,12.923 4.4,0 10.083,-0.357 12.63,-0.793 l 4.629,-0.793 2.647,4.516 c 4.8,8.191 17.816,13.321 31.094,12.256 14.507,-1.164 21.384,-5.824 27.213,-18.44 3.971,-8.596 5.553,-9.535 12.589,-7.473 7.64,2.24 15.224,1.26 24.065,-3.11 17.54,-8.669 27.551,-29.155 23.732,-48.567 -1.07,-5.435 -0.963,-6.708 1.109,-13.303 3.236,-10.298 3.169,-25.75 -0.15,-34.2 -1.954,-4.978 -8.946,-14.577 -9.031,-12.4"
       stroke="none"
       fill="#ceba91"
       fill-rule="evenodd"
       id="path3" />
    <path
       d="m 1364.081,842.588 c -6.726,1.809 -10.865,4.324 -15.428,9.374 -4.572,5.061 -6.542,8.953 -7.289,14.396 -0.598,4.369 -0.626,4.394 -5.244,4.941 -2.553,0.303 -7.24,1.522 -10.415,2.71 -11.303,4.229 -22.705,18.161 -22.705,27.742 0,3.398 -0.528,4.273 -4.271,7.078 -9.229,6.915 -19.529,20.778 -23.836,32.085 -5.157,13.534 -2.879,28.668 5.679,37.738 2.516,2.667 4.29,4.286 3.942,3.598 -0.372,-0.736 0.01,-1.25 0.927,-1.25 1.967,0 2.005,1.697 0.08,3.622 -3.112,3.112 0.401,21.531 6.27,32.878 4.176,8.073 15.963,20.575 23.562,24.991 7.811,4.538 21.796,6.997 25.647,4.509 1.333,-0.862 1.333,-0.984 0,-1.103 -1.895,-0.169 3.7,-1.62 6.857,-1.779 1.612,-0.081 2.191,0.315 1.831,1.251 -0.868,2.265 2.767,7.082 7.922,10.496 6.795,4.501 14.266,6.451 24.89,6.496 11.966,0.051 20.739,-2.807 26.738,-8.71 4.038,-3.974 10.359,-13.756 7.911,-12.243 -1.464,0.905 -1.447,0.058 0.085,-4.18 1.143,-3.16 1.486,-3.373 4.624,-2.864 1.865,0.303 4.23,1.31 5.256,2.239 1.535,1.389 3.134,1.582 9.011,1.09 12.045,-1.01 24.21,-7.855 32.063,-18.041 3.117,-4.043 3.127,-4.086 0.371,-1.652 -2.324,2.052 -2.632,2.142 -1.723,0.5 1.822,-3.292 5.429,-7.246 4.788,-5.25 -1.252,3.903 0.66,1.366 3.392,-4.5 4.036,-8.666 5.442,-18.631 3.985,-28.247 -0.959,-6.323 -0.895,-8.321 0.393,-12.278 3.161,-9.708 4.692,-25.455 2.428,-24.975 -0.676,0.143 -1.514,-1.606 -1.966,-4.104 -0.433,-2.395 -1.023,-5.32 -1.312,-6.5 -0.32,-1.309 0.074,-0.976 1.009,0.854 l 1.533,3 -0.606,-3 c -1.195,-5.919 -5.281,-13.206 -10.127,-18.06 -4.022,-4.029 -5.163,-5.98 -6.188,-10.575 -3.059,-13.716 -18.186,-30.461 -31.04,-34.359 -1.67,-0.506 -2.165,-0.38 -1.666,0.427 0.508,0.823 -0.091,0.926 -2.125,0.365 -1.559,-0.431 -6.547,-0.709 -11.084,-0.618 l -8.25,0.165 -0.022,-2.673 c -0.033,-4.025 -3.633,-11.201 -7.783,-15.51 -4.687,-4.867 -13.11,-9.175 -20.675,-10.574 -7.524,-1.39 -10.75,-1.298 -17.439,0.5 m 1.711,3.814 c -11.303,3.043 -19.366,12.882 -20.975,25.598 -0.279,2.199 -0.93,2.575 -5.415,3.122 -7.595,0.927 -12.271,2.717 -18.583,7.114 -8.631,6.012 -14.549,15.875 -13.48,22.465 0.435,2.682 0.128,3.51 -1.652,4.444 -13.372,7.017 -29.687,32.535 -29.687,46.431 0,6.918 3.819,16.064 9.135,21.881 4.05,4.432 4.853,5.852 3.934,6.96 -1.436,1.73 0.029,14.822 2.479,22.147 4.418,13.21 16.678,27.52 28.561,33.337 5.648,2.764 7.685,3.233 14,3.224 4.065,-0.01 9.545,-0.431 12.178,-0.945 4.625,-0.904 4.837,-0.841 6.224,1.842 2.16,4.176 8.659,9.277 14.651,11.499 4.066,1.507 7.84,1.979 15.838,1.979 9.203,0 11.18,-0.319 16.009,-2.584 7.065,-3.315 10.635,-7.148 15.043,-16.157 3.477,-7.107 3.623,-7.252 7,-6.928 1.896,0.183 7.723,0.408 12.948,0.5 9.267,0.165 9.679,0.074 16.785,-3.723 9.025,-4.822 15.313,-11.581 20.091,-21.596 3.162,-6.629 3.616,-8.584 3.956,-17.031 0.211,-5.249 -0.064,-11.162 -0.61,-13.14 -0.802,-2.905 -0.588,-4.729 1.113,-9.469 1.726,-4.809 2.113,-8.226 2.136,-18.872 0.028,-12.513 -0.087,-13.244 -3.079,-19.5 -2.689,-5.622 -10.472,-15 -12.45,-15 -0.365,0 -0.931,-2.263 -1.259,-5.028 -1.288,-10.877 -13.134,-26.501 -24.711,-32.593 -5.183,-2.727 -6.12,-2.877 -17.722,-2.839 l -12.25,0.041 v -2.425 c 0,-4.417 -2.278,-10.12 -5.585,-13.984 -3.937,-4.6 -12.982,-9.55 -20.214,-11.063 -6.498,-1.36 -8.413,-1.321 -14.409,0.293 m 36.577,66.348 -2.869,3.75 v 17 c 0,19.318 0.913,23.8 5.957,29.304 3.112,3.395 3.507,3.552 5.829,2.309 3.288,-1.759 4.537,-4.742 5.846,-13.963 2.261,-15.921 -1.106,-35.623 -6.86,-40.15 -3.538,-2.782 -4.622,-2.542 -7.905,1.75 m -53.539,0.238 c -4.97,4.097 -6.29,9.93 -5.529,24.431 0.871,16.608 3.617,23.35 11.135,27.341 4.628,2.457 9.719,-3.686 10.99,-13.26 0.766,-5.773 -1.837,-32.532 -3.461,-35.565 -1.109,-2.073 -6.62,-5.924 -8.487,-5.931 -0.562,-0.002 -2.654,1.341 -4.648,2.984 m 56.67,3.358 c -1.997,4.779 -1.937,5.905 0.25,4.735 0.963,-0.514 2.503,-1.165 3.422,-1.447 1.911,-0.585 1.464,-3.861 -0.78,-5.724 -1.121,-0.93 -1.683,-0.457 -2.892,2.436 m -55.045,0.109 c -1.35,1.35 -2.455,3.16 -2.455,4.023 0,1.406 0.258,1.399 2.498,-0.069 1.477,-0.967 3.726,-1.456 5.5,-1.196 3.632,0.533 4.038,-1.374 0.779,-3.656 -2.938,-2.058 -3.438,-1.987 -6.322,0.898 m 57.693,9.674 c -1.147,3.1 -0.367,5.58 1.943,6.185 2.501,0.654 2.893,-0.159 2.053,-4.264 -0.84,-4.11 -2.832,-5.067 -3.996,-1.921 m -52.481,-0.462 c -0.367,0.366 -0.667,2.391 -0.667,4.5 0,3.127 0.357,3.833 1.941,3.833 2.658,0 3.272,-1.349 2.496,-5.483 -0.611,-3.26 -2.177,-4.444 -3.77,-2.85 m 55.965,26.177 c -0.491,0.762 -1.899,1.147 -3.249,0.889 -2.782,-0.532 -2.944,0.282 -0.857,4.317 1.893,3.662 3.223,3.739 4.544,0.266 1.239,-3.258 0.895,-7.542 -0.438,-5.472 M 1351.018,957 c 0.052,2.127 5,5.244 6.636,4.18 0.576,-0.374 1.521,-1.582 2.1,-2.685 0.987,-1.877 0.742,-2.005 -3.847,-2 -2.695,0.003 -4.895,0.23 -4.889,0.505 m 82.503,19.233 c -6.918,11.712 -25.415,23.864 -43.021,28.264 -9.714,2.428 -23.159,2.271 -31.5,-0.368 -7.987,-2.527 -16.817,-7.749 -23.204,-13.723 -4.461,-4.173 -7.332,-5.013 -6.601,-1.932 0.584,2.465 14.352,12.842 21.406,16.135 9.266,4.324 13.975,5.337 24.961,5.367 18.206,0.049 37.07,-7.786 52.101,-21.639 5.272,-4.858 11.526,-13.222 10.784,-14.422 -1.102,-1.785 -3.041,-0.872 -4.926,2.318"
       stroke="none"
       fill="#546977"
       fill-rule="evenodd"
       id="path4" />
    <path
       d="m 1365.792,846.402 c -7.986,2.15 -13.931,7.164 -18.137,15.298 -2.612,5.051 -1.904,5.28 0.926,0.3 6.289,-11.069 13.428,-15.303 25.919,-15.371 5.149,-0.028 6.931,-0.283 5,-0.718 -4.612,-1.037 -8.555,-0.896 -13.708,0.491 m 22.201,3.174 c 10.846,5.049 15.488,10.645 16.877,20.344 l 0.656,4.58 h 11.987 c 11.24,0 12.361,0.183 17.987,2.942 11.097,5.44 20.286,16.866 23.772,29.558 1.721,6.266 1.767,6.326 1.262,1.65 -1.14,-10.571 -13.043,-26.209 -24.562,-32.271 -5.183,-2.727 -6.12,-2.877 -17.722,-2.839 l -12.25,0.041 v -2.425 c 0,-4.417 -2.278,-10.12 -5.585,-13.984 -3.142,-3.671 -13.749,-10.182 -16.555,-10.162 -0.748,0.005 1.112,1.16 4.133,2.566 M 1344.941,871 c -0.384,3.049 -0.827,3.533 -3.441,3.758 -4.291,0.368 -15.434,3.327 -16.004,4.249 -0.265,0.428 2.255,-0.073 5.6,-1.114 3.345,-1.041 7.856,-1.893 10.024,-1.893 4.335,0 5.26,-1.127 4.646,-5.666 -0.364,-2.693 -0.405,-2.659 -0.825,0.666 M 1410,870.172 c 0,0.37 3.713,0.599 8.25,0.508 4.537,-0.091 9.6,0.201 11.25,0.648 2.452,0.665 2.767,0.577 1.724,-0.483 -1.339,-1.361 -21.224,-1.992 -21.224,-0.673 m -102.557,33.593 c 0.31,3.563 0.016,4.451 -1.786,5.396 -13.34,6.999 -29.657,32.536 -29.657,46.415 0,6.918 3.819,16.064 9.135,21.881 4.05,4.432 4.853,5.852 3.934,6.96 -1.436,1.73 0.029,14.822 2.479,22.147 4.418,13.21 16.678,27.52 28.561,33.337 5.648,2.764 7.685,3.233 14,3.224 4.065,-0.01 9.545,-0.431 12.178,-0.945 4.625,-0.904 4.837,-0.841 6.224,1.842 1.512,2.922 9.162,9.978 10.819,9.978 0.534,0 -0.885,-1.344 -3.153,-2.987 -2.267,-1.642 -5.046,-4.796 -6.174,-7.008 -2.032,-3.982 -2.092,-4.014 -6.277,-3.263 -2.324,0.417 -8.276,0.754 -13.226,0.748 -8.351,-0.01 -9.46,-0.258 -15.377,-3.457 -11.473,-6.202 -21.576,-18.372 -26.236,-31.601 -2.508,-7.121 -3.859,-19.327 -2.482,-22.414 0.839,-1.88 0.388,-2.742 -3.135,-5.995 -7.761,-7.167 -11.285,-17.741 -9.246,-27.745 2.14,-10.496 8.554,-21.838 17.515,-30.972 4.421,-4.507 9.259,-8.659 10.75,-9.226 2.84,-1.08 3.109,-2.329 1.629,-7.58 -0.734,-2.605 -0.797,-2.438 -0.475,1.265 m 159.207,15.76 c 6.752,7.14 9.421,14.018 10.093,26.012 0.413,7.357 0.087,10.609 -1.754,17.5 -2.484,9.297 -2.448,8.763 -1.424,21.235 0.891,10.861 -1.064,19.11 -6.52,27.507 -10.213,15.717 -25.511,22.73 -41.967,19.238 -7.328,-1.556 -9.075,-0.689 -11.382,5.646 -2.839,7.795 -7.838,13.77 -14.074,16.821 -8.461,4.14 -21.1,4.546 -33.124,1.065 -1.099,-0.318 -0.423,0.196 1.502,1.142 2.645,1.301 6.186,1.732 14.5,1.765 9.794,0.039 11.604,-0.239 16.509,-2.54 7.065,-3.315 10.635,-7.148 15.043,-16.157 3.477,-7.107 3.623,-7.252 7,-6.928 1.896,0.183 7.723,0.408 12.948,0.5 9.267,0.165 9.679,0.074 16.785,-3.723 9.025,-4.822 15.313,-11.581 20.091,-21.596 3.162,-6.629 3.616,-8.584 3.956,-17.031 0.211,-5.249 -0.064,-11.162 -0.61,-13.14 -0.802,-2.905 -0.588,-4.729 1.113,-9.469 1.726,-4.809 2.113,-8.226 2.136,-18.872 0.028,-12.513 -0.087,-13.244 -3.079,-19.5 -1.71,-3.575 -5.061,-8.413 -7.448,-10.75 -6.246,-6.118 -6.45,-5.235 -0.294,1.275 m -49.416,117.703 c -1.603,4.434 -1.557,5.285 0.207,3.821 0.792,-0.657 1.247,-1.725 1.01,-2.372 -0.927,-2.538 1,-3.59 4.947,-2.7 2.453,0.553 3.499,0.52 2.888,-0.091 -0.527,-0.527 -2.502,-1.209 -4.388,-1.515 -3.185,-0.517 -3.517,-0.313 -4.664,2.857"
       stroke="none"
       fill="#5b7077"
       fill-rule="evenodd"
       id="path5" />
  </g>
</svg>
