<?xml version="1.0" encoding="UTF-8" standalone="no"?>
<svg
   width="300"
   height="300"
   viewBox="0 0 300 300"
   version="1.1"
   id="svg4"
   sodipodi:docname="sad_slight.svg"
   inkscape:version="1.3.2 (091e20ef0f, 2023-11-25)"
   xmlns:inkscape="http://www.inkscape.org/namespaces/inkscape"
   xmlns:sodipodi="http://sodipodi.sourceforge.net/DTD/sodipodi-0.dtd"
   xmlns="http://www.w3.org/2000/svg"
   xmlns:svg="http://www.w3.org/2000/svg">
  <defs
     id="defs4" />
  <sodipodi:namedview
     id="namedview4"
     pagecolor="#ffffff"
     bordercolor="#000000"
     borderopacity="0.25"
     inkscape:showpageshadow="2"
     inkscape:pageopacity="0.0"
     inkscape:pagecheckerboard="0"
     inkscape:deskcolor="#d1d1d1"
     inkscape:zoom="0.43066406"
     inkscape:cx="1024"
     inkscape:cy="929.95918"
     inkscape:window-width="1447"
     inkscape:window-height="1015"
     inkscape:window-x="5"
     inkscape:window-y="60"
     inkscape:window-maximized="1"
     inkscape:current-layer="svg4" />
  <g
     id="g4"
     transform="translate(-511.69614,-806.35721)">
    <path
       d="m 689,925.5 c -1.04,1.253 -0.896,1.5 0.878,1.5 1.744,0 2.122,0.602 2.122,3.378 0,3.498 2.134,6.276 3.956,5.149 1.963,-1.213 1.037,-5.025 -2.011,-8.277 -3.531,-3.767 -3.33,-3.696 -4.945,-1.75 m -52,5.5 c -1.132,2.115 0.163,6 2,6 1.657,0 2.795,-3.417 1.914,-5.75 -1.051,-2.784 -2.508,-2.877 -3.914,-0.25 m -13.695,12.499 c -1.999,1.4 -6.305,7.457 -6.305,8.869 0,1.596 4.318,0.35 8.45,-2.439 3.309,-2.233 4.55,-3.733 4.55,-5.5 0,-1.861 -0.533,-2.429 -2.277,-2.429 -1.253,0 -3.241,0.675 -4.418,1.499"
       stroke="none"
       fill="#f4f3f0"
       fill-rule="evenodd"
       id="path1" />
    <path
       d="m 637.5,873.164 c -3.919,2.163 -7.5,6.247 -7.5,8.554 0,1.362 -0.734,2.57 -1.75,2.881 -11.321,3.47 -22.25,13.987 -22.25,21.411 0,3.108 -2.707,7.762 -4.925,8.466 -2.978,0.945 -12.803,12.063 -15.783,17.86 -2.848,5.539 -3.565,13.261 -1.977,21.278 0.666,3.363 0.484,4.439 -1,5.901 -5.841,5.754 -6.641,10.843 -3.142,19.987 1.435,3.748 2.932,5.968 4.403,6.527 3.095,1.176 3.762,2.609 3.571,7.664 -0.213,5.625 3.039,9.307 8.219,9.307 4.846,0 8.634,4.554 8.634,10.381 0,3.954 4.014,12.274 6.733,13.954 1.242,0.768 10.022,-1.603 13.767,-3.717 1.65,-0.932 4.8,-3.012 7,-4.623 5.316,-3.892 8.741,-3.87 11.55,0.075 3.262,4.581 11.539,10.742 16.07,11.962 6.7,1.804 13.902,-0.927 21.381,-8.108 3.393,-3.258 6.966,-5.924 7.94,-5.924 0.973,0 3.107,1.125 4.741,2.5 1.634,1.375 3.56,2.5 4.28,2.5 0.719,0 2.041,1.119 2.938,2.487 1.803,2.753 8.43,6.513 11.477,6.513 2.734,0 10.068,-3.445 13.483,-6.332 2.753,-2.328 2.81,-2.556 1.533,-6.088 -1.591,-4.4 -0.585,-6.598 3.703,-8.091 5.145,-1.792 6.484,-3.045 8.077,-7.56 2.041,-5.783 2.961,-17.419 1.452,-18.352 -2.191,-1.354 -1.06,-5.522 4.375,-16.122 6.343,-12.372 7.04,-17.494 3.367,-24.745 -4.466,-8.815 -14.211,-18.066 -19.867,-18.859 -2.392,-0.336 -2.524,-0.72 -3.049,-8.851 -0.795,-12.332 -4.951,-19.459 -15.217,-26.094 -4.35,-2.811 -6.652,-3.714 -8.372,-3.282 -2.014,0.505 -2.603,0.044 -3.895,-3.05 -2.269,-5.429 -9.157,-7.062 -12.548,-2.976 -1.769,2.131 -4.691,1.679 -6.445,-0.997 -2.522,-3.85 -6.664,-5.088 -12.012,-3.59 -2.483,0.695 -4.753,1.652 -5.047,2.126 -0.979,1.585 -4.332,0.887 -5.409,-1.127 -2.347,-4.385 -13.375,-6.677 -18.506,-3.846 m -3.112,44.816 c -3.378,1.365 -5.98,5.458 -8.004,12.59 -1.51,5.325 -2.616,7.224 -5.576,9.574 -6.56,5.21 -9.675,12.589 -6.608,15.656 2.074,2.074 8.588,1.316 15.46,-1.8 6.929,-3.142 9.806,-3.673 10.84,-2 1.226,1.984 5.435,1.108 6.028,-1.254 0.788,-3.141 -1.286,-27.426 -2.543,-29.775 -1.894,-3.538 -5.477,-4.655 -9.597,-2.991 m 50.836,3.418 c -3.334,3.797 -5.224,11.856 -5.224,22.279 0,4.555 0.443,6.414 1.829,7.668 2.445,2.213 4.472,2.085 6.743,-0.425 2.136,-2.36 6.525,-2.047 9.538,0.68 2.859,2.587 5.371,1.396 5.515,-2.614 0.215,-6.019 -1.74,-17.291 -3.863,-22.273 -3.828,-8.983 -9.497,-11.056 -14.538,-5.315 M 656,978.061 c -9.972,1.651 -19.955,6.097 -26.045,11.599 -4.229,3.821 -4.912,5.759 -2.373,6.733 2.111,0.81 1.653,1.001 6.03,-2.523 10.155,-8.177 24.327,-12.015 37.053,-10.037 8.323,1.294 20.625,6.206 27.654,11.043 4.942,3.4 6.862,3.815 8.501,1.84 1.43,-1.722 0.637,-2.66 -5.82,-6.879 -14.241,-9.304 -31.944,-13.937 -45,-11.776"
       stroke="none"
       fill="#e8e4ca"
       fill-rule="evenodd"
       id="path2" />
    <path
       d="m 750.115,954.614 c -0.063,1.713 -2.59,7.941 -5.615,13.841 -5.435,10.6 -6.566,14.768 -4.375,16.122 1.509,0.933 0.589,12.569 -1.452,18.352 -1.593,4.515 -2.932,5.768 -8.077,7.56 -4.288,1.493 -5.294,3.691 -3.703,8.091 1.277,3.532 1.22,3.76 -1.533,6.088 -3.415,2.887 -10.749,6.332 -13.483,6.332 -3.047,0 -9.674,-3.76 -11.477,-6.513 -0.897,-1.368 -2.219,-2.487 -2.938,-2.487 -0.72,0 -2.646,-1.125 -4.28,-2.5 -1.634,-1.375 -3.768,-2.5 -4.741,-2.5 -0.974,0 -4.547,2.666 -7.94,5.924 -7.479,7.181 -14.681,9.912 -21.381,8.108 -4.531,-1.22 -12.808,-7.381 -16.07,-11.962 -2.809,-3.945 -6.234,-3.967 -11.55,-0.075 -2.2,1.611 -5.35,3.691 -7,4.623 -3.745,2.114 -12.525,4.485 -13.767,3.717 -2.719,-1.68 -6.733,-10 -6.733,-13.954 0,-5.827 -3.788,-10.381 -8.634,-10.381 -5.18,0 -8.432,-3.682 -8.219,-9.307 0.191,-5.055 -0.476,-6.488 -3.571,-7.664 -2.657,-1.01 -6.554,-10.35 -6.62,-15.868 l -0.044,-3.661 -2.154,4 c -1.516,2.815 -2.17,5.834 -2.206,10.192 -0.048,5.705 0.212,6.465 3.31,9.664 1.85,1.909 3.054,3.971 2.676,4.582 -2.025,3.276 4.513,14.062 8.524,14.062 1.021,0 3.387,0.788 5.257,1.75 3.147,1.619 3.481,2.257 4.448,8.502 1.403,9.062 4.942,14.944 10.652,17.709 3.927,1.901 4.951,2.017 8.764,0.993 5.512,-1.48 10.866,-5.421 15.361,-11.308 3.823,-5.007 5.159,-5.635 6.156,-2.896 1.593,4.378 6.774,10.444 11.082,12.977 4.262,2.505 5.636,2.773 14.218,2.773 8.141,0 10.287,-0.371 15,-2.591 3.025,-1.425 7.194,-4.344 9.264,-6.486 l 3.765,-3.894 5.235,5.636 c 9,9.688 17.843,11.519 29.03,6.01 7.853,-3.866 9.962,-7.132 9.675,-14.98 -0.281,-7.701 -0.191,-8.195 1.496,-8.195 2.27,0 8.438,-5.889 10.594,-10.115 2.378,-4.661 2.569,-13.445 0.406,-18.623 -1.42,-3.399 -1.39,-4.012 0.401,-8.217 2.575,-6.045 4.193,-17.533 3.176,-22.545 -0.754,-3.716 -0.82,-3.779 -0.927,-0.886"
       stroke="none"
       fill="#c7c2a3"
       fill-rule="evenodd"
       id="path3" />
    <path
       d="m 634.06,868.657 c -3.716,1.852 -6.126,3.935 -7.947,6.869 -1.759,2.835 -4.344,5.12 -7.908,6.989 -9.742,5.11 -18.205,16.022 -18.205,23.474 0,1.656 -0.388,3.011 -0.862,3.011 -1.541,0 -8.037,5.662 -12.208,10.64 -8.736,10.429 -12.694,22.96 -10.22,32.36 0.819,3.11 0.561,4.002 -2.313,8.006 -8.604,11.987 -10.01,28.091 -2.963,33.939 0.861,0.715 1.576,2.482 1.588,3.927 0.06,7.203 7.083,15.641 13.929,16.736 3.682,0.589 3.813,0.752 4.368,5.438 1.274,10.76 7.951,20.238 16.167,22.949 7.449,2.459 16.282,-0.608 23.242,-8.069 l 3.927,-4.21 4.709,5.035 c 11.454,12.245 30.801,13.405 46.571,2.793 l 5.146,-3.463 4.035,3.916 c 2.25,2.183 6.546,4.866 9.71,6.064 5.086,1.925 6.317,2.031 11.88,1.027 16.494,-2.98 25.276,-11.146 23.958,-22.277 -0.313,-2.646 -0.169,-4.811 0.32,-4.811 1.815,0 8.28,-7.663 10.593,-12.554 2.702,-5.715 3.448,-16.202 1.458,-20.507 -0.985,-2.132 -0.805,-3.639 1.078,-9 2.895,-8.24 3.17,-26.069 0.499,-32.377 -3.954,-9.34 -11.149,-17.856 -19.612,-23.213 -4.449,-2.817 -4.501,-2.914 -4.616,-8.607 -0.229,-11.284 -9.259,-24.078 -21.339,-30.231 -2.5,-1.274 -5.895,-3.516 -7.545,-4.984 -1.65,-1.468 -4.042,-3.087 -5.315,-3.598 -2.941,-1.18 -10.243,-1.178 -12.11,0.004 -0.981,0.62 -2.433,0.133 -4.657,-1.564 -4.242,-3.235 -8.79,-3.835 -14.878,-1.964 -4.163,1.281 -5.207,1.31 -6.5,0.181 -6.086,-5.313 -15.645,-6.082 -23.98,-1.929 m 3.361,4.239 c -4.516,2.052 -8.421,6.35 -8.421,9.27 0,1.043 -0.788,2.138 -1.75,2.433 -11.825,3.625 -22.25,14.194 -22.25,22.558 0,2.586 -1.623,4.544 -8.313,10.032 -5.3,4.348 -12.16,14.291 -14.222,20.614 -1.533,4.699 -1.584,6.155 -0.449,12.788 1.234,7.216 1.202,7.557 -0.878,9.495 -1.187,1.106 -3.59,4.801 -5.341,8.212 -2.53,4.93 -3.195,7.472 -3.24,12.394 -0.053,5.709 0.205,6.463 3.305,9.664 1.85,1.909 3.054,3.971 2.676,4.582 -2.025,3.276 4.513,14.062 8.524,14.062 1.021,0 3.387,0.788 5.257,1.75 3.147,1.619 3.481,2.257 4.448,8.502 1.403,9.062 4.942,14.944 10.652,17.709 3.927,1.901 4.951,2.017 8.764,0.993 5.512,-1.48 10.866,-5.421 15.361,-11.308 3.823,-5.007 5.159,-5.635 6.156,-2.896 1.593,4.378 6.774,10.444 11.082,12.977 4.262,2.505 5.636,2.773 14.218,2.773 8.141,0 10.287,-0.371 15,-2.591 3.025,-1.425 7.194,-4.344 9.264,-6.486 l 3.765,-3.894 5.235,5.636 c 9,9.688 17.843,11.519 29.03,6.01 7.853,-3.866 9.962,-7.132 9.675,-14.98 -0.281,-7.701 -0.191,-8.195 1.496,-8.195 2.27,0 8.438,-5.889 10.594,-10.115 2.391,-4.688 2.56,-13.297 0.369,-18.774 -1.445,-3.611 -1.436,-4.195 0.109,-7.182 1.984,-3.838 4.662,-18.187 3.97,-21.276 -0.265,-1.184 -0.682,-4.02 -0.927,-6.303 -1.15,-10.733 -12.914,-24.44 -23.816,-27.749 -1.432,-0.435 -1.631,-1.295 -1.135,-4.912 0.766,-5.59 -1.54,-13.703 -5.667,-19.933 -3.854,-5.819 -15.501,-13.951 -18.76,-13.099 -1.703,0.446 -2.393,-0.028 -3.223,-2.214 -0.582,-1.529 -1.827,-3.365 -2.768,-4.08 -2.307,-1.752 -7.387,-1.697 -9.77,0.105 -2.891,2.187 -4.641,1.857 -7.779,-1.468 -3.435,-3.64 -8.851,-4.005 -15.387,-1.038 l -4.225,1.918 -1.924,-2.447 c -4.32,-5.492 -11.436,-6.838 -18.705,-3.537 m -5.13,47.354 c -2.67,2.92 -4.798,7.198 -6.231,12.523 -0.809,3.008 -2.742,5.819 -6.531,9.5 -6.186,6.009 -7.672,9.807 -4.993,12.767 2.476,2.735 6.267,2.45 13.806,-1.04 6.993,-3.237 10.563,-3.701 13.647,-1.775 3.924,2.451 4.439,0.105 3.329,-15.14 C 644.137,920.878 642.981,918 637.651,918 c -2.148,0 -4.021,0.786 -5.36,2.25 m 52.88,1.509 c -2.598,3.649 -3.954,9.002 -4.761,18.792 -0.563,6.825 -0.406,8.31 1.034,9.75 2.1,2.1 4.908,2.185 6.556,0.199 1.592,-1.918 7.041,-1.936 9.559,-0.032 3.771,2.853 5.441,1.969 5.441,-2.88 0,-5.45 -2.475,-18.71 -4.07,-21.8 -3.752,-7.273 -10.121,-9.138 -13.759,-4.029 m -48.942,0.966 c -1.181,0.423 -4.229,5.349 -4.229,6.834 0,0.362 1.113,0.378 2.473,0.037 1.941,-0.487 2.349,-0.295 1.893,0.894 -0.32,0.833 -0.292,2.668 0.061,4.077 0.486,1.933 1.188,2.485 2.858,2.248 1.777,-0.253 2.178,-0.908 2.026,-3.315 -0.496,-7.875 -2.329,-11.763 -5.082,-10.775 m 52.339,2.481 c -2.194,3.133 -1.962,3.931 0.932,3.205 2.309,-0.58 2.5,-0.361 2.5,2.858 0,4.367 2.119,6.469 4.311,4.277 1.797,-1.797 1.129,-4.985 -1.811,-8.648 -3.073,-3.829 -4.208,-4.153 -5.932,-1.692 m -67.2,20.162 c -7.39,7.39 -4.849,11.238 3.629,5.495 5.381,-3.645 6.851,-6.136 4.963,-8.411 -1.972,-2.377 -3.98,-1.695 -8.592,2.916 m 30.841,34.092 c -8.066,1.835 -16.152,5.549 -21.194,9.736 -7.628,6.334 -3.854,8.938 4.128,2.847 12.689,-9.682 31.69,-11.674 48.625,-5.096 4.547,1.767 10.533,4.737 13.303,6.601 2.77,1.864 5.575,3.456 6.233,3.539 4.968,0.623 4.902,-2.023 -0.135,-5.356 -6.063,-4.013 -17.18,-9.36 -23.139,-11.129 -7.898,-2.346 -20.293,-2.854 -27.821,-1.142"
       stroke="none"
       fill="#556a78"
       fill-rule="evenodd"
       id="path4" />
  </g>
</svg>
