<svg xmlns="http://www.w3.org/2000/svg" width="2160" height="1620" viewBox="0 0 2160 1620" version="1.1"><path d="M 1509.363 365.922 C 1507.088 366.956, 1503.433 369.421, 1501.242 371.401 C 1499.050 373.380, 1496.187 375.045, 1494.879 375.100 C 1493.570 375.155, 1491.375 375.582, 1490 376.049 C 1488.329 376.617, 1489.158 376.702, 1492.500 376.304 C 1496.389 375.842, 1498.468 374.860, 1501.857 371.885 C 1504.253 369.781, 1508.528 367.170, 1511.357 366.082 C 1514.185 364.994, 1515.825 364.091, 1515 364.074 C 1514.175 364.057, 1511.638 364.889, 1509.363 365.922 M 1593.084 370.047 C 1590.655 371.149, 1586.505 373.605, 1583.861 375.504 C 1580.904 377.629, 1578.370 378.745, 1577.277 378.403 C 1575.628 377.889, 1575.624 377.929, 1577.210 378.952 C 1578.591 379.842, 1579.899 379.351, 1584.017 376.392 C 1586.820 374.378, 1591.676 371.677, 1594.807 370.389 C 1597.938 369.101, 1599.825 368.047, 1599 368.046 C 1598.175 368.045, 1595.513 368.945, 1593.084 370.047 M 1631.335 370.447 C 1637.771 373.093, 1643.504 376.779, 1647.041 380.544 C 1648.951 382.577, 1650.309 383.003, 1654.924 383.017 C 1663.021 383.043, 1673.553 385.524, 1681 389.162 C 1685.800 391.507, 1689.854 394.744, 1696.500 401.541 C 1704.977 410.209, 1709.539 413.795, 1710.661 412.672 C 1710.930 412.403, 1710.124 411.857, 1708.870 411.459 C 1707.616 411.061, 1702.294 406.360, 1697.045 401.013 C 1689.877 393.712, 1685.881 390.506, 1681 388.139 C 1673.593 384.547, 1663.003 382.043, 1655.112 382.017 C 1650.212 382.002, 1649.324 381.632, 1645.313 377.934 C 1640.987 373.947, 1629.959 367.979, 1627 368.025 C 1626.175 368.037, 1628.126 369.127, 1631.335 370.447 M 1546 369.305 C 1546 369.538, 1547.688 370.863, 1549.750 372.250 C 1552.508 374.105, 1555.352 374.927, 1560.500 375.359 C 1564.350 375.682, 1568.625 376.196, 1570 376.501 L 1572.500 377.056 1570 375.958 C 1568.625 375.354, 1564.350 374.601, 1560.500 374.286 C 1556.439 373.954, 1552.450 373.002, 1551 372.020 C 1547.402 369.584, 1546 368.823, 1546 369.305 M 1475.500 379.901 C 1463.336 383.579, 1457.003 387.020, 1449.430 394.065 C 1445.921 397.329, 1443.316 400, 1443.642 400 C 1443.967 400, 1446.785 397.637, 1449.905 394.750 C 1457.198 388, 1465.136 383.824, 1477 380.496 C 1482.225 379.030, 1486.688 377.644, 1486.917 377.415 C 1487.844 376.491, 1484.036 377.320, 1475.500 379.901 M 982.543 504.957 C 977.896 509.674, 977.367 509.930, 971.580 510.264 L 965.500 510.615 971.534 510.807 L 977.568 511 983 505.500 C 985.987 502.475, 988.205 500, 987.928 500 C 987.651 500, 985.228 502.231, 982.543 504.957 M 1152 513.147 C 1154.475 515.547, 1158.242 519.646, 1160.370 522.256 C 1162.499 524.865, 1164.974 526.971, 1165.870 526.937 C 1167.119 526.888, 1167.032 526.676, 1165.500 526.031 C 1164.400 525.568, 1161.700 522.883, 1159.500 520.064 C 1157.300 517.246, 1153.700 513.554, 1151.500 511.861 L 1147.500 508.782 1152 513.147 M 939 518.576 C 934.222 521.285, 925.572 529.179, 923.769 532.475 C 923.175 533.561, 925.209 531.728, 928.289 528.401 C 931.369 525.074, 936.502 520.935, 939.695 519.203 C 942.888 517.470, 945.050 516.047, 944.500 516.039 C 943.950 516.031, 941.475 517.172, 939 518.576 M 1100.671 580.289 C 1099.038 581.521, 1096 587.937, 1096 590.155 C 1096 590.826, 1097.345 590.085, 1098.990 588.510 C 1100.634 586.935, 1102.170 585.838, 1102.404 586.073 C 1102.637 586.308, 1103.732 590.100, 1104.837 594.500 C 1105.942 598.900, 1108 605.087, 1109.410 608.250 C 1111.498 612.931, 1112.419 614, 1114.365 614 C 1118.294 614, 1119.305 611.776, 1118.562 604.762 C 1117.906 598.563, 1115.674 589.608, 1114.213 587.310 C 1113.452 586.114, 1107.708 581.984, 1104.173 580.093 C 1102.835 579.376, 1101.804 579.434, 1100.671 580.289 M 994.023 597.250 C 992.997 599.587, 991.842 603.300, 991.455 605.500 L 990.752 609.500 994.126 606.370 C 995.982 604.648, 998.581 602.684, 999.902 602.004 C 1002.081 600.882, 1002.229 600.940, 1001.499 602.634 C 997.828 611.157, 1003.938 628.041, 1010.673 627.985 C 1014.801 627.950, 1015.215 626.779, 1014.052 618.416 C 1012.729 608.904, 1010.309 603.617, 1004.511 597.565 C 998.878 591.686, 996.495 591.615, 994.023 597.250 M 1123.840 645.351 C 1122.281 647.498, 1113.758 651.007, 1110.135 650.994 C 1109.236 650.990, 1107.196 650.307, 1105.601 649.476 C 1104.007 648.645, 1102.540 648.127, 1102.340 648.326 C 1101.811 648.855, 1108.708 662.142, 1110.775 664.576 C 1113.496 667.780, 1117.553 670.109, 1119.267 669.451 C 1121.958 668.418, 1125.178 659.162, 1125.750 650.815 C 1126.045 646.517, 1126.109 643.014, 1125.893 643.031 C 1125.677 643.049, 1124.753 644.092, 1123.840 645.351 M 1090.500 714.666 C 1080.600 718.756, 1067.894 723.992, 1062.265 726.301 C 1055.413 729.112, 1052.025 731.022, 1052.015 732.079 C 1051.987 734.993, 1058.070 742.858, 1062.748 745.956 C 1075.307 754.275, 1090.596 751.916, 1101.304 740.007 C 1107.218 733.429, 1110.022 726.019, 1109.930 717.212 C 1109.813 706.074, 1110.941 706.221, 1090.500 714.666 M 424.348 827.974 C 419.788 830.589, 403.087 845, 404.616 845 C 404.943 845, 408.480 841.947, 412.476 838.216 C 416.471 834.485, 422.386 829.997, 425.620 828.243 C 428.854 826.489, 431.050 825.046, 430.500 825.036 C 429.950 825.027, 427.182 826.348, 424.348 827.974 M 1794.199 856.744 C 1798.984 856.927, 1807.084 856.928, 1812.199 856.746 C 1817.315 856.564, 1813.400 856.414, 1803.500 856.413 C 1793.600 856.412, 1789.415 856.561, 1794.199 856.744 M 1696.750 859.740 C 1700.188 859.936, 1705.813 859.936, 1709.250 859.740 C 1712.688 859.545, 1709.875 859.385, 1703 859.385 C 1696.125 859.385, 1693.313 859.545, 1696.750 859.740 M 852.143 1101.279 C 858.467 1106.102, 862.762 1112.228, 863.562 1117.567 C 864.138 1121.403, 865.230 1123.135, 870.346 1128.320 C 873.756 1131.776, 875.421 1133.049, 874.123 1131.207 C 872.847 1129.396, 870.502 1126.952, 868.913 1125.777 C 867.006 1124.368, 865.826 1122.426, 865.445 1120.071 C 864.091 1111.716, 859.561 1104.641, 852.853 1100.407 C 847.444 1096.993, 847.092 1097.426, 852.143 1101.279 M 635.250 1130.743 C 639.513 1130.931, 646.487 1130.931, 650.750 1130.743 C 655.013 1130.556, 651.525 1130.402, 643 1130.402 C 634.475 1130.402, 630.987 1130.556, 635.250 1130.743 M 575.318 1158.446 C 567.463 1165.743, 567.187 1165.898, 561.402 1166.256 L 555.500 1166.622 561.500 1166.762 L 567.500 1166.902 575.962 1158.951 C 580.616 1154.578, 584.179 1151, 583.878 1151 C 583.578 1151, 579.726 1154.351, 575.318 1158.446 M 529.183 1175.710 C 525.734 1177.750, 520.766 1181.463, 518.142 1183.960 C 515.518 1186.457, 514.751 1187.332, 516.436 1185.904 C 521.723 1181.424, 526.523 1178.087, 532.105 1175.010 C 535.072 1173.374, 537.040 1172.028, 536.477 1172.018 C 535.915 1172.008, 532.633 1173.669, 529.183 1175.710" stroke="none" fill="#f7f0e2" fill-rule="evenodd"/><path d="M 996 346.858 C 996 353.969, 993.575 360.232, 988.718 365.670 C 986.836 367.776, 985.005 370.702, 984.649 372.171 C 982.417 381.379, 966.394 393.714, 953.046 396.501 C 947.830 397.590, 947.471 397.874, 944.835 402.974 C 937.649 416.881, 926.656 421.651, 905.669 419.970 C 899.712 419.492, 893.265 418.583, 891.343 417.948 C 888.240 416.924, 887.591 417.035, 885.565 418.939 C 880.223 423.958, 870.407 423.561, 864.952 418.105 C 860.100 413.254, 858.916 401.151, 862.582 393.899 C 864.052 390.993, 862.829 388.745, 860.306 389.713 C 859.508 390.019, 857.629 389.362, 856.129 388.254 C 853.816 386.543, 852.346 386.314, 846.414 386.738 C 840.647 387.151, 838.512 386.846, 834.205 384.993 C 827.647 382.172, 823.006 377.093, 822.985 372.715 C 822.966 368.819, 821.565 370.457, 819.961 376.250 C 817.969 383.447, 822.757 392.089, 830.315 394.939 C 834.010 396.332, 845.844 396.299, 849.902 394.884 C 854.541 393.267, 854.763 394.414, 850.684 398.929 C 845.238 404.956, 843 410.069, 843 416.483 C 843 421.587, 843.331 422.404, 847.023 426.409 C 853.403 433.331, 859.312 435.418, 872.500 435.408 C 880.203 435.402, 884.549 434.938, 887 433.860 C 889.706 432.670, 893.001 432.425, 901.527 432.780 C 924.838 433.749, 942.828 426.466, 951.679 412.475 C 953.905 408.956, 955.518 407.712, 959.971 406.080 C 974.179 400.871, 989.482 388.537, 994.425 378.309 C 995.969 375.114, 998.059 371.594, 999.069 370.486 C 1004.663 364.350, 1005.443 355.049, 1001.011 347.322 C 996.783 339.949, 996 339.877, 996 346.858 M 1737.118 426 C 1740.380 430.062, 1740.499 430.519, 1740.481 438.856 C 1740.467 445.325, 1739.996 448.381, 1738.607 451 C 1736.068 455.789, 1730.329 462.739, 1727.245 464.759 C 1723.607 467.143, 1714.895 467.910, 1704.639 466.751 C 1693.412 465.482, 1689.524 466.520, 1685.163 471.947 C 1678.809 479.853, 1660.610 490.774, 1650.241 492.903 C 1647.349 493.497, 1638.615 494.462, 1630.833 495.047 C 1608.363 496.738, 1588.840 494.102, 1582.153 488.475 C 1580.535 487.114, 1578.889 486, 1578.495 486 C 1578.101 486, 1574.566 487.585, 1570.639 489.521 C 1558.577 495.470, 1545.995 496.299, 1533.417 491.971 C 1530.326 490.908, 1526.381 489.165, 1524.649 488.097 C 1521.695 486.276, 1521.159 486.248, 1516 487.642 C 1505.398 490.506, 1491.936 486.890, 1486.665 479.761 C 1484.328 476.600, 1481.701 476.213, 1479.807 478.750 C 1476.066 483.759, 1470.065 485.484, 1462 483.868 C 1450.728 481.610, 1441.985 475.475, 1438.362 467.285 C 1437.077 464.378, 1435.394 462, 1434.622 462 C 1433.850 462, 1431.257 462.890, 1428.859 463.978 C 1420.345 467.842, 1404.449 466.296, 1392.980 460.488 C 1384.018 455.950, 1375 442.897, 1375 434.462 C 1375 430.373, 1372.201 431.538, 1370.961 436.145 C 1368.740 444.393, 1373.195 459.003, 1379.869 465.360 C 1384.123 469.411, 1394.006 474.916, 1401 477.130 C 1405.491 478.551, 1410.395 479.214, 1416.865 479.275 L 1426.231 479.364 1431.171 484.587 C 1436.499 490.221, 1446.115 495.813, 1454.932 498.404 C 1461.585 500.359, 1476.027 500.438, 1481.328 498.547 C 1484.893 497.276, 1485.545 497.364, 1490.828 499.833 C 1495.755 502.135, 1497.748 502.476, 1506 502.429 C 1511.225 502.399, 1517.975 502.215, 1521 502.020 C 1524.836 501.773, 1528.618 502.363, 1533.500 503.970 C 1542.751 507.014, 1560.374 507.400, 1566.456 504.692 L 1570.412 502.930 1580.610 507.961 C 1595.318 515.217, 1605.177 517.355, 1621 516.719 C 1643.841 515.802, 1661.548 508.631, 1688.914 489.216 C 1694.879 484.983, 1695.721 484.681, 1700.945 484.894 C 1715.051 485.470, 1727.904 479.441, 1737.983 467.520 C 1747.348 456.444, 1749.878 446.954, 1746.118 437 C 1743.912 431.160, 1739.189 424.707, 1735.789 422.887 C 1734.283 422.081, 1734.638 422.912, 1737.118 426 M 1290.822 483.321 C 1287.698 484.640, 1283.374 487.120, 1281.211 488.833 C 1263.041 503.224, 1241.283 538.996, 1235.947 563.250 L 1234.682 569 1228.841 569 C 1219.705 569, 1220.959 571.806, 1232.898 578.076 C 1236.418 579.925, 1244.253 584.826, 1250.310 588.968 C 1263.156 597.753, 1267.423 603.073, 1271.504 615.394 C 1272.942 619.736, 1275.164 624.686, 1276.441 626.394 C 1280.190 631.407, 1281.916 635.471, 1283.506 643.026 C 1285.536 652.678, 1285.383 660.157, 1282.979 668.834 C 1281.268 675.009, 1281.135 676.771, 1282.115 680.314 C 1284.155 687.690, 1283.539 703.301, 1280.706 716 C 1277.370 730.960, 1277.069 731.663, 1271.255 738.066 C 1267.237 742.490, 1265.981 744.801, 1264.498 750.500 C 1262.953 756.437, 1261.961 758.184, 1257.965 762 C 1255.375 764.475, 1250.653 768.075, 1247.473 770 C 1237.038 776.317, 1234.961 778.746, 1232.883 787.063 C 1231.861 791.153, 1228.934 798.745, 1226.378 803.933 C 1222.732 811.335, 1220.168 814.928, 1214.466 820.631 C 1205.775 829.322, 1197.303 835, 1193.026 835 C 1190.855 835, 1188.716 836.135, 1185.728 838.872 C 1171.459 851.939, 1151.111 858.801, 1130.165 857.608 C 1124.299 857.274, 1117.169 856.735, 1114.320 856.409 C 1109.176 855.820, 1109.124 855.842, 1106.676 859.658 C 1098.676 872.129, 1078.544 881.907, 1059.909 882.372 L 1051.318 882.586 1045.409 887.633 C 1036.674 895.093, 1023.348 904.364, 1016.299 907.883 C 1005.259 913.396, 996.025 915.347, 984 914.709 C 966.207 913.765, 954.984 910.301, 939.105 900.853 C 933.721 897.649, 933.695 897.645, 926.836 898.821 C 918.175 900.307, 902.727 900.341, 895.799 898.890 C 883.703 896.358, 868.926 885.749, 867.592 878.640 C 866.765 874.232, 866.128 873.756, 856.218 870.139 C 841.564 864.791, 830.700 856.173, 823.894 844.500 C 820.580 838.814, 817.176 828.688, 816.824 823.463 C 816.555 819.456, 815.667 818.527, 808 814.223 C 797.172 808.146, 788.312 797.098, 779.275 778.405 C 776.706 773.092, 773.880 765.343, 772.994 761.186 C 770.262 748.366, 768 751.479, 768 768.060 C 768 777.021, 769.876 788.372, 772.329 794.248 C 773.075 796.037, 773.992 799.131, 774.365 801.124 C 775.653 808.002, 789.693 825.253, 799.488 831.992 C 803.971 835.076, 806.579 839.679, 805.715 842.982 C 804.795 846.500, 808.100 858.261, 812.290 866.377 C 818.948 879.277, 832.966 891.529, 846.368 896.161 C 849.411 897.213, 854.490 897.948, 858.846 897.967 L 866.193 898 872.346 903.375 C 890.979 919.648, 905.074 924.270, 937.116 924.613 C 954.311 924.797, 957.212 925.064, 960.616 926.774 C 962.752 927.847, 967.538 929.723, 971.250 930.944 L 978 933.163 978 937.547 C 978 939.958, 978.641 946.784, 979.425 952.716 C 980.209 958.647, 981.139 968.450, 981.493 974.500 C 982.195 986.514, 985.316 1011.561, 987.100 1019.500 C 989.349 1029.504, 994.788 1036.189, 1004.173 1040.481 C 1019.618 1047.545, 1032.786 1043.566, 1043.458 1028.611 C 1052.925 1015.344, 1055.519 1005.954, 1057.161 979 C 1058.173 962.398, 1057.764 931.169, 1056.420 922.483 C 1055.812 918.552, 1055.902 918.400, 1060.650 915.310 C 1063.317 913.574, 1067.401 910.519, 1069.724 908.521 L 1073.948 904.889 1085.724 904.594 C 1099.815 904.242, 1110.045 901.356, 1119.994 894.925 L 1126.331 890.829 1131.916 892.386 C 1147.932 896.851, 1166.408 896.337, 1177.564 891.117 L 1183.720 888.236 1192.996 898.368 C 1203.164 909.474, 1208.061 916.353, 1218.772 934.575 C 1229.870 953.454, 1236.677 958.275, 1253 958.814 C 1261.988 959.111, 1262.732 958.976, 1266.811 956.314 C 1270.011 954.225, 1271.886 951.903, 1274.086 947.304 C 1280.714 933.451, 1281.192 929.600, 1277.975 916 C 1274.613 901.786, 1265.879 881.652, 1258.021 870 C 1255.981 866.975, 1251.069 859.003, 1247.106 852.284 L 1239.899 840.069 1244.029 834.844 C 1249.201 828.301, 1252.592 821.666, 1254.493 814.365 C 1255.305 811.248, 1256.089 808.631, 1256.235 808.551 C 1256.381 808.470, 1260.036 806.689, 1264.358 804.594 C 1274.687 799.586, 1282.601 791.751, 1287.390 781.795 C 1291.470 773.313, 1294.349 762.062, 1293.736 757 C 1293.366 753.945, 1293.924 752.827, 1298.130 748.198 C 1310.091 735.035, 1314.918 712.731, 1309.983 693.433 C 1308.874 689.096, 1306.804 683.791, 1305.384 681.646 L 1302.803 677.744 1304.987 671.122 C 1308.021 661.923, 1308.730 648.390, 1306.617 640 C 1304.499 631.593, 1299.146 620.701, 1293.884 614.091 L 1289.715 608.856 1290.389 599.264 C 1291.150 588.439, 1293.971 574.373, 1297.403 564.291 C 1300.307 555.760, 1305.690 545.018, 1307.288 544.564 C 1314.756 542.445, 1319.087 540.043, 1323.630 535.501 C 1329.780 529.350, 1332.446 524.446, 1333.892 516.625 C 1336.412 502.993, 1329.219 491.568, 1313.622 484.427 C 1305.395 480.661, 1297.974 480.301, 1290.822 483.321 M 1294.200 490.050 C 1277.298 496.832, 1252.340 533.146, 1244.070 562.991 L 1242.185 569.793 1247.661 571.889 C 1254.169 574.379, 1262.150 579.531, 1268.897 585.597 C 1271.590 588.019, 1274.026 590, 1274.309 590 C 1274.592 590, 1275.140 588.087, 1275.525 585.750 C 1277.607 573.135, 1284.852 555.972, 1292.285 546.050 C 1295.603 541.620, 1296.325 539.885, 1296.142 536.784 C 1295.971 533.874, 1296.342 532.832, 1297.709 532.391 C 1303.781 530.431, 1306.127 528.902, 1312.066 523.036 C 1318.482 516.698, 1322 510.233, 1322 504.782 C 1322 495.062, 1304.639 485.861, 1294.200 490.050 M 778.929 548.367 C 772.997 549.967, 765.870 554.177, 762.683 557.965 C 759.192 562.113, 756 571.130, 756 576.842 C 756 582.314, 759.446 588.640, 766.345 595.830 C 771.372 601.069, 773.756 602.379, 781.313 604.056 C 786.307 605.165, 787.773 606.062, 791.721 610.423 C 797.707 617.037, 803.657 626.261, 811.646 641.311 C 820.075 657.191, 821.247 659.122, 823.198 660.353 C 825.218 661.627, 828 659.635, 828 656.915 C 828 655.903, 824.252 648.196, 819.671 639.788 C 809.956 621.955, 806.940 616.988, 802.445 611.425 C 800.509 609.029, 799.018 605.939, 798.826 603.925 C 798.467 600.157, 798.621 600.231, 783.664 596.648 C 776.196 594.859, 771.803 592.008, 769.953 587.752 C 768.219 583.761, 769.185 573.586, 771.616 570.237 C 774.419 566.374, 783.746 561.740, 787.322 562.433 C 797.793 564.459, 814.608 574.938, 828.348 588 C 838.319 597.480, 848.596 611.872, 855.837 626.500 C 859.955 634.818, 861.439 636.945, 863.154 636.985 C 864.786 637.023, 871 630.425, 871 628.652 C 871 626.427, 862.935 610.783, 853.664 595.023 C 838.741 569.657, 806.833 546.690, 787.040 547.067 C 785.093 547.105, 781.443 547.690, 778.929 548.367 M 397 564.184 C 397 567.385, 397.793 571.006, 399.073 573.651 C 402.961 581.682, 416.075 591.592, 429.758 596.840 C 436.006 599.235, 437.710 599.428, 453 599.462 C 469.008 599.499, 469.694 599.415, 476 596.642 C 479.575 595.070, 483.175 593.788, 484 593.794 C 484.825 593.799, 488.585 594.983, 492.355 596.424 C 496.474 597.998, 502.262 599.272, 506.855 599.616 C 511.060 599.931, 515.902 600.813, 517.614 601.577 C 523.524 604.211, 541.526 608.097, 550.500 608.675 C 561.774 609.402, 569.038 607.951, 576.437 603.496 C 581.307 600.563, 582.476 600.233, 584.799 601.131 C 589.091 602.789, 598.045 602.549, 603.730 600.624 C 607.461 599.360, 610.112 597.544, 612.980 594.286 C 615.191 591.774, 617 589.181, 617 588.523 C 617 587.866, 618.535 585.342, 620.412 582.914 C 624.917 577.086, 626.500 571.212, 624.734 566.882 L 623.419 563.660 622.233 567.615 C 620.040 574.936, 614.214 578.721, 609.735 575.734 C 607.671 574.357, 607.232 574.455, 604 577.006 C 597.436 582.189, 586.370 583.554, 579.739 580 C 574.812 577.360, 573.834 577.453, 568.722 581.057 C 562.022 585.779, 553.922 586.803, 540.530 584.621 C 534.641 583.662, 528.794 582.408, 527.535 581.834 C 525.761 581.026, 524.654 581.180, 522.605 582.523 C 518.525 585.197, 506.363 584.187, 498.150 580.493 C 492.422 577.917, 491.491 577.762, 488.650 578.917 C 481.693 581.743, 470.874 584.965, 462.945 586.571 C 448.657 589.466, 429.778 586.814, 417.636 580.205 C 412.061 577.171, 404.906 569.469, 401.886 563.250 C 398.976 557.258, 397 557.636, 397 564.184 M 1094.659 575.408 C 1089.464 580.603, 1087.855 586.422, 1087.263 602.161 C 1086.880 612.335, 1087.183 618.460, 1088.449 626.161 C 1090.442 638.287, 1095.833 655.218, 1100.047 662.583 C 1109.867 679.746, 1122.788 682.414, 1129.438 668.652 C 1140.930 644.868, 1128.531 585.762, 1109.594 574.058 C 1107.651 572.857, 1104.557 572, 1102.165 572 C 1098.836 572, 1097.427 572.639, 1094.659 575.408 M 1101.223 579.727 C 1099.702 580.272, 1096 587.234, 1096 589.549 C 1096 590.840, 1096.647 590.633, 1099.126 588.548 C 1100.845 587.101, 1102.381 586.049, 1102.540 586.209 C 1102.698 586.369, 1103.732 590.100, 1104.837 594.500 C 1105.942 598.900, 1108 605.087, 1109.410 608.250 C 1111.498 612.931, 1112.419 614, 1114.365 614 C 1118.294 614, 1119.305 611.776, 1118.562 604.762 C 1117.906 598.563, 1115.674 589.608, 1114.213 587.310 C 1112.441 584.524, 1103.083 579.061, 1101.223 579.727 M 992.841 586.524 C 985.979 590.252, 983.036 601.096, 983.015 622.734 C 982.999 638.663, 985.152 652.540, 990.158 668.796 C 998.091 694.549, 1011.834 707.900, 1021.790 699.523 C 1030.428 692.255, 1033.156 668.341, 1028.466 641 C 1021.868 602.533, 1006.535 579.087, 992.841 586.524 M 993.872 597.557 C 992.763 600.064, 991.589 603.776, 991.264 605.807 L 990.672 609.500 994.839 605.750 C 999.443 601.606, 1002.809 600.620, 1001.035 603.934 C 997.468 610.600, 1004.456 628.037, 1010.673 627.985 C 1014.801 627.950, 1015.215 626.779, 1014.052 618.416 C 1012.735 608.949, 1010.212 603.408, 1004.510 597.456 C 998.869 591.570, 996.510 591.592, 993.872 597.557 M 1123.386 645.481 C 1122.223 646.792, 1118.772 648.592, 1115.717 649.480 C 1110.665 650.949, 1109.825 650.954, 1106.428 649.534 C 1104.374 648.676, 1102.532 648.135, 1102.336 648.331 C 1102.139 648.527, 1103.606 651.941, 1105.594 655.916 C 1109.295 663.313, 1114.945 670, 1117.494 670 C 1121.744 670, 1126.409 657.842, 1125.820 648.299 L 1125.500 643.097 1123.386 645.481 M 1018.878 669.361 C 1015.506 673.214, 1014.909 673.495, 1010.226 673.429 C 1007.216 673.387, 1004.117 672.652, 1002.511 671.599 C 1001.034 670.632, 999.566 670.100, 999.249 670.418 C 998.931 670.736, 1000.541 674.770, 1002.827 679.383 C 1009.451 692.750, 1014.931 697.087, 1018.437 691.736 C 1020.885 688.001, 1023.117 677.463, 1022.799 671.147 L 1022.500 665.222 1018.878 669.361 M 1221.500 686.916 C 1213.312 690.748, 1200.973 709.108, 1196.576 724 C 1194.610 730.658, 1194.311 744.464, 1196.086 746.603 C 1196.874 747.553, 1198.641 747.991, 1200.914 747.801 L 1204.500 747.500 1205.061 740.287 C 1205.451 735.281, 1206.187 732.451, 1207.466 731.037 C 1210.074 728.155, 1211.220 728.481, 1213.502 732.753 C 1214.958 735.478, 1216.155 736.500, 1217.893 736.500 C 1221.496 736.500, 1222.827 733.672, 1220.824 730.274 C 1214.708 719.900, 1217.814 700.057, 1226.602 693.354 C 1230.402 690.456, 1230.974 687.592, 1228.066 686.035 C 1225.687 684.762, 1226.269 684.684, 1221.500 686.916 M 1106 696.501 C 1104.625 697.287, 1101.925 698.450, 1100 699.086 C 1098.075 699.721, 1090.875 702.846, 1084 706.029 C 1077.125 709.212, 1065.507 713.968, 1058.182 716.599 C 1047.612 720.395, 1044.443 721.974, 1042.822 724.250 L 1040.780 727.118 1043.515 733.309 C 1049.562 746.997, 1057.964 754.590, 1070.480 757.678 C 1076.276 759.109, 1078.311 759.182, 1084.194 758.174 C 1093.024 756.659, 1098.028 754.068, 1105.041 747.380 C 1111.191 741.514, 1115.358 734.092, 1117.123 725.862 C 1119.439 715.064, 1116.176 698.770, 1111.160 696.086 C 1108.714 694.777, 1109.064 694.749, 1106 696.501 M 1100.500 710.189 C 1071.822 722.418, 1055.982 728.966, 1053.685 729.543 C 1052.208 729.914, 1051.004 730.506, 1051.009 730.858 C 1051.015 731.211, 1052.377 733.869, 1054.038 736.764 C 1065.931 757.503, 1096.305 754.851, 1106.817 732.155 C 1109.506 726.348, 1110.920 714.802, 1109.590 709.503 C 1108.837 706.502, 1109.212 706.474, 1100.500 710.189 M 903.200 736.200 C 901.164 738.236, 901.796 739.376, 907.984 744.823 C 915.034 751.028, 918.472 756.510, 921.469 766.325 C 923.533 773.087, 923.828 773.500, 926.580 773.500 C 928.847 773.500, 929.571 772.997, 929.820 771.250 C 930.213 768.482, 930.035 768.477, 935.828 771.413 C 942.144 774.613, 950.430 782.170, 953.652 787.670 C 955.815 791.361, 956.695 792.057, 958.877 791.804 C 965.049 791.088, 961.067 781.662, 950.855 772.818 C 947.478 769.893, 941.061 763.900, 936.595 759.500 C 927.718 750.755, 916.301 740.674, 911.346 737.207 C 907.829 734.746, 905.003 734.397, 903.200 736.200 M 1212.802 854.913 C 1206.381 857.029, 1205.001 857.869, 1204.484 859.975 C 1204.144 861.364, 1202.095 866.658, 1199.932 871.741 C 1197.770 876.823, 1196 882.273, 1196 883.851 C 1196 886.958, 1196.405 887.618, 1209.292 905.500 C 1214.048 912.100, 1220.766 922.445, 1224.220 928.488 C 1231.818 941.782, 1234.852 945.384, 1241.127 948.564 C 1246.531 951.303, 1252.424 951.694, 1257.282 949.638 C 1262.817 947.295, 1264.124 944.952, 1264.710 936.322 C 1265.634 922.727, 1263.894 915.349, 1255.911 899 C 1242.701 871.945, 1235.768 860.903, 1228.683 855.631 C 1224.065 852.195, 1221.412 852.075, 1212.802 854.913 M 1865.692 873 C 1866.137 874.925, 1866.494 882.350, 1866.486 889.500 C 1866.473 902.316, 1866.419 902.627, 1862.661 911.445 C 1858.166 921.990, 1854.148 928.285, 1846.560 936.671 C 1842.909 940.705, 1841 943.680, 1841 945.335 C 1841 948.672, 1835.319 959.438, 1829.713 966.723 C 1813.544 987.736, 1780.008 1007.514, 1756.798 1009.726 C 1749.855 1010.387, 1747.533 1012.501, 1744.776 1020.669 C 1740.246 1034.088, 1726.847 1048.778, 1712.272 1056.305 C 1696.969 1064.209, 1690.669 1065.517, 1668.500 1065.396 C 1646.811 1065.277, 1629.664 1063.673, 1619.507 1060.813 C 1615.653 1059.728, 1610.632 1058.610, 1608.349 1058.327 C 1604.569 1057.860, 1603.987 1058.101, 1601.849 1061.010 C 1598.608 1065.420, 1588.991 1070.100, 1581.836 1070.749 C 1571.385 1071.696, 1560.274 1068.467, 1553.041 1062.381 C 1539.866 1051.295, 1535.964 1021.709, 1545.230 1003.151 C 1548.207 997.187, 1548.308 996.642, 1546.883 994.151 C 1545.510 991.749, 1544.882 991.526, 1540.191 991.779 C 1533.944 992.116, 1530.672 990.593, 1525.613 984.994 C 1522.982 982.082, 1521.525 981.147, 1520.688 981.834 C 1520.035 982.371, 1516.827 983.585, 1513.560 984.532 C 1497.798 989.098, 1472.843 982.348, 1460.229 970.106 C 1451.735 961.863, 1448.924 954.630, 1450.860 946 L 1451.870 941.500 1449.789 944 C 1444.465 950.397, 1440.520 963.864, 1441.669 971.718 C 1442.332 976.253, 1444.495 983.123, 1446.449 986.902 C 1449.102 992.031, 1460.478 1001.658, 1466.683 1004.024 C 1479.273 1008.825, 1504.744 1008.747, 1516.073 1003.873 C 1520.246 1002.078, 1521.435 1001.937, 1523.878 1002.949 L 1526.760 1004.143 1519.606 1011.322 C 1511.532 1019.422, 1503.773 1030.548, 1500.387 1038.880 C 1496.103 1049.421, 1496.365 1062.855, 1501.035 1072.052 C 1505.814 1081.464, 1519.943 1092.660, 1532.572 1097.043 C 1544.713 1101.256, 1551.851 1102.273, 1569.500 1102.304 C 1588.889 1102.338, 1598.267 1100.799, 1609.259 1095.781 L 1616.018 1092.696 1623.759 1094.420 C 1644.718 1099.090, 1676.684 1096.314, 1705.448 1087.327 C 1728.986 1079.972, 1748.449 1065.006, 1761.132 1044.509 L 1766.550 1035.751 1775.426 1032.858 C 1788.103 1028.727, 1802.653 1021.415, 1816.500 1012.219 C 1842.169 995.172, 1857.991 978.005, 1864.797 959.814 C 1867.561 952.425, 1869.747 949.009, 1874.203 945.113 C 1878.641 941.233, 1883.435 932.038, 1885.033 924.342 C 1885.672 921.264, 1886.038 915.090, 1885.846 910.622 C 1885.549 903.704, 1884.937 901.328, 1881.721 894.589 C 1878.311 887.443, 1872.645 878.761, 1866.979 872 L 1864.885 869.500 1865.692 873 M 759.179 874.750 C 764.653 880.477, 765.445 882.623, 765.358 891.500 C 765.254 902.202, 762.638 908.849, 755.372 916.878 C 747.219 925.887, 745.898 926.385, 731 926.063 C 724.125 925.915, 715.254 925.735, 711.286 925.664 L 704.073 925.535 697.286 932.683 C 690.404 939.931, 677.437 949.080, 667.790 953.495 C 660.289 956.927, 651.449 958.759, 636.605 959.958 C 603.814 962.607, 583.578 959.901, 570.468 951.112 L 567.436 949.080 559.668 953.103 C 542.484 962.002, 523.857 962.122, 506.231 953.449 L 498.962 949.872 491.438 951.546 C 478.050 954.525, 466.143 951.358, 457.736 942.585 C 455.320 940.063, 452.819 938, 452.179 938 C 451.539 938, 449.774 939.395, 448.258 941.101 C 443.116 946.881, 436.854 948.635, 427.463 946.925 C 415.416 944.732, 400.136 934.449, 398.389 927.360 C 397.472 923.642, 395.089 920, 393.573 920 C 392.914 920, 390.503 920.905, 388.215 922.010 C 376.333 927.751, 356.614 925.791, 341.551 917.373 C 331.589 911.805, 322.839 898.672, 321.263 886.922 C 320.582 881.844, 319.536 881.252, 317.294 884.676 C 315.909 886.792, 315.512 889.362, 315.554 895.958 C 315.602 903.701, 315.953 905.215, 319.300 912.146 C 321.946 917.625, 324.570 921.234, 328.557 924.878 C 334.776 930.562, 347.409 937.184, 356.500 939.526 C 361.684 940.861, 378.638 941.755, 381.518 940.844 C 382.058 940.674, 386.151 944.184, 390.613 948.645 C 396.620 954.650, 400.643 957.693, 406.113 960.367 C 414.113 964.279, 423.732 967.057, 429.728 967.185 C 435.797 967.315, 449.793 965.172, 452.650 963.676 C 455.007 962.441, 455.707 962.533, 459.390 964.569 C 467.138 968.851, 474.504 970.324, 484.965 969.682 C 490.209 969.360, 496.160 968.558, 498.189 967.899 C 501.381 966.863, 502.528 966.978, 506.689 968.748 C 520.343 974.555, 541.236 976.107, 552.668 972.162 L 558.836 970.034 571.168 975.987 C 593.478 986.755, 613.728 989.539, 636.300 984.939 C 646.650 982.830, 661.584 977.721, 670.500 973.241 C 677.398 969.774, 697.950 956.688, 703.972 951.928 L 708.935 948.005 719.718 947.608 C 733.172 947.112, 739.422 945.210, 748.724 938.780 C 762.366 929.349, 772.665 914.268, 773.671 902.248 C 774.480 892.592, 768.576 879.592, 760.628 873.530 C 755.780 869.832, 755.059 870.440, 759.179 874.750 M 1026.731 932.065 C 1023.558 933.091, 1017.033 934.434, 1012.231 935.049 C 991.350 937.725, 987.551 943.697, 989.043 971.500 C 989.900 987.474, 993.319 1014.659, 995.164 1020.175 C 999.333 1032.639, 1012.235 1037.574, 1023.604 1031.054 C 1041.509 1020.784, 1049.333 993.213, 1043.058 962.500 C 1040.630 950.616, 1034.338 929.937, 1033.200 930.100 C 1032.815 930.155, 1029.904 931.039, 1026.731 932.065 M 875.559 1139.117 C 876.539 1147.745, 874.575 1155.311, 870.148 1159.965 C 865.585 1164.762, 862.135 1165.749, 856.993 1163.730 C 852.517 1161.971, 852.245 1162.159, 847.682 1170.155 C 844.401 1175.907, 839.456 1179.901, 830.014 1184.426 C 818.618 1189.888, 812.421 1190.758, 801.325 1188.454 C 796.060 1187.361, 791.881 1189.438, 788.062 1195.044 C 782.997 1202.482, 776.722 1207.797, 768.548 1211.573 C 755.092 1217.790, 733.953 1222.170, 717 1222.252 L 707.500 1222.299 701.917 1227.561 C 695.632 1233.485, 690.807 1235.373, 677.175 1237.242 C 670.856 1238.109, 666.266 1238.097, 658.129 1237.192 C 643.190 1235.531, 642.331 1235.598, 639.743 1238.619 C 633.961 1245.369, 607.961 1263.110, 592.401 1270.922 C 572.948 1280.690, 556.997 1284.185, 531 1284.378 C 512.745 1284.513, 506.487 1283.396, 495.500 1278.043 C 488.139 1274.457, 475.880 1265.309, 470.500 1259.388 C 467.323 1255.892, 466.037 1255.114, 464.250 1255.610 C 461.509 1256.369, 461.502 1256.613, 463.996 1264.987 C 467.214 1275.791, 475.253 1285.248, 486.631 1291.610 C 494.025 1295.746, 513.563 1302.271, 525.105 1304.460 C 535.637 1306.458, 555.437 1306.444, 566.048 1304.431 C 595.902 1298.768, 616.877 1289.192, 633.852 1273.476 L 639.725 1268.039 648.613 1269.140 C 662.261 1270.831, 682.898 1268.841, 692.523 1264.906 C 694.521 1264.089, 700.763 1263.760, 711.500 1263.904 C 746.334 1264.371, 776.487 1259.051, 793.764 1249.389 C 802.367 1244.578, 811.173 1237.050, 815.709 1230.629 L 819.500 1225.263 828 1224.611 C 844.154 1223.371, 854.069 1219.337, 864.541 1209.741 C 872.935 1202.050, 876.873 1194.285, 877.625 1183.944 C 877.985 1178.998, 878.941 1174.990, 880.475 1172 C 882.872 1167.326, 885 1158.925, 885 1154.132 C 885 1148.804, 881.915 1140.876, 878.397 1137.166 L 874.922 1133.500 875.559 1139.117" stroke="none" fill="#d9cbad" fill-rule="evenodd"/><path d="M 955.500 335.661 C 950.582 337.595, 949.403 337.623, 940 336.029 C 930.966 334.499, 917.983 335.180, 912.647 337.464 C 910.527 338.371, 906.702 341.052, 904.147 343.421 C 899.587 347.648, 899.341 347.739, 891 348.273 C 885.365 348.634, 879.972 349.740, 875 351.554 C 869.311 353.629, 864.723 354.465, 856 355.013 C 849.675 355.410, 842.583 356.451, 840.239 357.327 C 835.225 359.200, 827.224 364.409, 824.772 367.395 C 820.313 372.828, 824.624 380.871, 834.205 384.993 C 838.512 386.846, 840.647 387.151, 846.414 386.738 C 852.346 386.314, 853.816 386.543, 856.129 388.254 C 857.629 389.362, 859.508 390.019, 860.306 389.713 C 862.829 388.745, 864.052 390.993, 862.582 393.899 C 858.916 401.151, 860.100 413.254, 864.952 418.105 C 870.407 423.561, 880.223 423.958, 885.565 418.939 C 887.591 417.035, 888.240 416.924, 891.343 417.948 C 896.986 419.811, 915.794 420.966, 922 419.832 C 928.342 418.673, 935.699 414.967, 939.466 411.035 C 940.903 409.536, 943.319 405.908, 944.835 402.974 C 947.471 397.874, 947.830 397.590, 953.046 396.501 C 966.394 393.714, 982.417 381.379, 984.649 372.171 C 985.005 370.702, 986.836 367.776, 988.718 365.670 C 993.646 360.154, 996 353.985, 996 346.591 C 996 338.973, 994.117 336.767, 986.201 335.109 C 978.243 333.443, 960.320 333.765, 955.500 335.661 M 1511.357 366.082 C 1508.528 367.170, 1504.253 369.777, 1501.857 371.874 C 1498.887 374.474, 1496.132 375.903, 1493.205 376.363 C 1485.127 377.632, 1467.506 383.187, 1461.539 386.345 C 1458.260 388.080, 1453.042 391.846, 1449.944 394.714 L 1444.311 399.928 1432.405 401.992 C 1415.526 404.920, 1411.218 405.970, 1405.119 408.646 C 1395.867 412.704, 1383.054 421.146, 1378.559 426.145 C 1374.353 430.824, 1374.268 431.054, 1375.106 435.536 C 1378.606 454.271, 1394.579 466.038, 1416.432 465.978 C 1422.298 465.962, 1425.690 465.416, 1428.859 463.978 C 1431.257 462.890, 1433.850 462, 1434.622 462 C 1435.394 462, 1437.077 464.378, 1438.362 467.285 C 1441.985 475.475, 1450.728 481.610, 1462 483.868 C 1470.065 485.484, 1476.066 483.759, 1479.807 478.750 C 1481.701 476.213, 1484.328 476.600, 1486.665 479.761 C 1491.936 486.890, 1505.398 490.506, 1516 487.642 C 1521.159 486.248, 1521.695 486.276, 1524.649 488.097 C 1526.381 489.165, 1530.326 490.908, 1533.417 491.971 C 1545.995 496.299, 1558.577 495.470, 1570.639 489.521 C 1574.566 487.585, 1578.101 486, 1578.495 486 C 1578.889 486, 1580.535 487.114, 1582.153 488.475 C 1588.840 494.102, 1608.363 496.738, 1630.833 495.047 C 1638.615 494.462, 1647.349 493.497, 1650.241 492.903 C 1660.610 490.774, 1678.809 479.853, 1685.163 471.947 C 1689.524 466.520, 1693.412 465.482, 1704.639 466.751 C 1714.895 467.910, 1723.607 467.143, 1727.245 464.759 C 1730.329 462.739, 1736.068 455.789, 1738.607 451 C 1739.996 448.380, 1740.467 445.325, 1740.481 438.846 C 1740.499 430.661, 1740.333 429.983, 1737.414 426.346 C 1733.433 421.385, 1728.812 418.858, 1716.500 414.913 L 1706.500 411.708 1697 402.037 C 1689.945 394.855, 1685.827 391.544, 1681 389.176 C 1673.639 385.565, 1663.056 383.043, 1655.153 383.017 C 1650.313 383.002, 1649.366 382.608, 1645.153 378.860 C 1635.729 370.477, 1622.626 366.314, 1608.903 367.344 C 1599.744 368.031, 1592.157 370.721, 1584.755 375.906 L 1579.239 379.770 1573.438 377.812 C 1570.247 376.734, 1564.455 375.614, 1560.568 375.323 C 1554.955 374.902, 1552.655 374.205, 1549.394 371.938 C 1538.929 364.661, 1521.878 362.036, 1511.357 366.082 M 1294.200 490.050 C 1277.298 496.832, 1252.340 533.146, 1244.070 562.991 L 1242.185 569.793 1247.661 571.889 C 1254.169 574.379, 1262.150 579.531, 1268.897 585.597 C 1271.590 588.019, 1274.026 590, 1274.309 590 C 1274.592 590, 1275.140 588.087, 1275.525 585.750 C 1277.607 573.135, 1284.852 555.972, 1292.285 546.050 C 1295.603 541.620, 1296.325 539.885, 1296.142 536.784 C 1295.971 533.874, 1296.342 532.832, 1297.709 532.391 C 1303.781 530.431, 1306.127 528.902, 1312.066 523.036 C 1318.482 516.698, 1322 510.233, 1322 504.782 C 1322 495.062, 1304.639 485.861, 1294.200 490.050 M 1057.465 492.886 C 1050.945 495.234, 1048.026 496.770, 1045.216 499.331 C 1043.158 501.206, 1042.613 501.283, 1039.716 500.108 C 1027.732 495.247, 1021.243 493.734, 1012 493.647 C 1003.250 493.564, 1001.938 493.819, 995.378 496.868 C 990.707 499.039, 986.416 502.041, 982.912 505.589 L 977.568 511 970.944 511 C 957.045 511, 939.622 517.461, 930.656 525.941 C 924.041 532.198, 920.160 539.151, 917.510 549.500 C 915.558 557.123, 915.321 557.513, 912.481 557.768 C 903.948 558.534, 890.100 564.138, 880.338 570.775 C 870.008 577.798, 861.725 588.196, 858.976 597.592 C 857.797 601.619, 857.882 601.881, 864.389 614.179 C 868.025 621.052, 871 627.565, 871 628.653 C 871 630.425, 864.786 637.023, 863.154 636.985 C 861.439 636.945, 859.955 634.818, 855.837 626.500 C 848.596 611.872, 838.319 597.480, 828.348 588 C 814.608 574.938, 797.793 564.459, 787.322 562.433 C 783.746 561.740, 774.419 566.374, 771.616 570.237 C 769.185 573.586, 768.219 583.761, 769.953 587.752 C 771.803 592.008, 776.196 594.859, 783.664 596.648 C 798.621 600.231, 798.467 600.157, 798.826 603.925 C 799.018 605.939, 800.509 609.029, 802.445 611.425 C 806.940 616.988, 809.956 621.955, 819.671 639.788 C 824.252 648.196, 828 655.903, 828 656.915 C 828 657.927, 827.287 659.347, 826.416 660.070 C 823.698 662.325, 821.394 659.973, 815.807 649.237 L 813.589 644.974 808.230 650.237 C 801.490 656.857, 794.365 668.153, 791.866 676.183 C 788.565 686.789, 788.436 699.970, 791.531 710.555 C 791.968 712.051, 790.877 714.135, 787.525 718.206 C 778.418 729.268, 768.447 750.300, 770.847 753.386 C 771.323 753.999, 772.261 757.425, 772.930 761 C 773.599 764.575, 776.320 772.078, 778.975 777.673 C 788.028 796.747, 797.007 808.053, 808 814.223 C 815.667 818.527, 816.555 819.456, 816.824 823.463 C 817.176 828.688, 820.580 838.814, 823.894 844.500 C 830.700 856.173, 841.564 864.791, 856.218 870.139 C 866.128 873.756, 866.765 874.232, 867.592 878.640 C 868.926 885.749, 883.703 896.358, 895.799 898.890 C 902.727 900.341, 918.175 900.307, 926.836 898.821 C 933.695 897.645, 933.721 897.649, 939.105 900.853 C 954.984 910.301, 966.207 913.765, 984 914.709 C 996.025 915.347, 1005.259 913.396, 1016.299 907.883 C 1023.348 904.364, 1036.674 895.093, 1045.409 887.633 L 1051.318 882.586 1059.909 882.372 C 1078.544 881.907, 1098.676 872.129, 1106.676 859.658 C 1109.124 855.842, 1109.176 855.820, 1114.320 856.409 C 1117.169 856.735, 1124.299 857.274, 1130.165 857.608 C 1151.111 858.801, 1171.459 851.939, 1185.728 838.872 C 1188.716 836.135, 1190.855 835, 1193.026 835 C 1197.303 835, 1205.775 829.322, 1214.466 820.631 C 1220.168 814.928, 1222.732 811.335, 1226.378 803.933 C 1228.934 798.745, 1231.861 791.153, 1232.883 787.063 C 1234.961 778.746, 1237.038 776.317, 1247.473 770 C 1250.653 768.075, 1255.375 764.475, 1257.965 762 C 1261.961 758.184, 1262.953 756.437, 1264.498 750.500 C 1265.981 744.801, 1267.237 742.490, 1271.255 738.066 C 1277.069 731.663, 1277.370 730.960, 1280.706 716 C 1283.539 703.301, 1284.155 687.690, 1282.115 680.314 C 1281.135 676.771, 1281.268 675.009, 1282.979 668.834 C 1287.043 654.167, 1284.405 637.043, 1276.441 626.394 C 1275.164 624.686, 1272.942 619.736, 1271.504 615.394 C 1267.414 603.045, 1263.165 597.759, 1250.205 588.896 C 1244.089 584.714, 1235.974 579.658, 1232.172 577.659 C 1224.503 573.630, 1222.154 570.996, 1216.419 560 C 1211.312 550.208, 1202.440 541.485, 1192.201 536.188 C 1184.619 532.267, 1169.642 527, 1166.071 527 C 1165.067 527, 1162.277 524.626, 1159.872 521.724 C 1150.573 510.504, 1140.412 503.485, 1129.994 501.084 C 1124.601 499.842, 1110.896 499.723, 1105.939 500.876 C 1102.823 501.601, 1101.610 501.240, 1096.223 497.982 C 1085.047 491.224, 1068.220 489.012, 1057.465 492.886 M 533.500 519.497 C 532.950 519.684, 530.823 520.117, 528.773 520.459 C 526.723 520.802, 522.983 522.656, 520.462 524.581 L 515.879 528.079 508.349 525.480 C 502.513 523.466, 498.646 522.843, 491.160 522.712 C 482.041 522.552, 481.024 522.750, 473 526.237 C 465.460 529.514, 464.048 529.825, 460.500 528.990 C 449.206 526.330, 434.728 530.039, 425.778 537.886 C 423.624 539.774, 420.442 541.183, 416.500 541.994 C 409.093 543.518, 406.375 544.897, 402.370 549.165 C 397.392 554.469, 395.568 559, 398.411 559 C 399.187 559, 400.751 560.913, 401.886 563.250 C 404.906 569.469, 412.061 577.171, 417.636 580.205 C 429.778 586.814, 448.657 589.466, 462.945 586.571 C 470.874 584.965, 481.693 581.743, 488.650 578.917 C 491.491 577.762, 492.422 577.917, 498.150 580.493 C 506.363 584.187, 518.525 585.197, 522.605 582.523 C 524.654 581.180, 525.761 581.026, 527.535 581.834 C 528.794 582.408, 534.641 583.662, 540.530 584.621 C 553.922 586.803, 562.022 585.779, 568.722 581.057 C 573.834 577.453, 574.812 577.360, 579.739 580 C 586.338 583.537, 597.373 582.197, 604 577.053 C 607.288 574.501, 607.659 574.428, 610.113 575.846 C 614.004 578.095, 618.343 575.988, 620.962 570.579 C 623.371 565.602, 623.550 562.109, 621.532 559.441 C 620.724 558.374, 620.048 555.475, 620.028 553 C 619.957 543.999, 615.111 539.641, 597.158 532.432 C 578.042 524.757, 540.490 517.126, 533.500 519.497 M 1094.659 575.408 C 1089.464 580.603, 1087.855 586.422, 1087.263 602.161 C 1086.880 612.335, 1087.183 618.460, 1088.449 626.161 C 1090.442 638.287, 1095.833 655.218, 1100.047 662.583 C 1109.867 679.746, 1122.788 682.414, 1129.438 668.652 C 1140.930 644.868, 1128.531 585.762, 1109.594 574.058 C 1107.651 572.857, 1104.557 572, 1102.165 572 C 1098.836 572, 1097.427 572.639, 1094.659 575.408 M 992.841 586.524 C 985.979 590.252, 983.036 601.096, 983.015 622.734 C 982.999 638.663, 985.152 652.540, 990.158 668.796 C 998.091 694.549, 1011.834 707.900, 1021.790 699.523 C 1030.428 692.255, 1033.156 668.341, 1028.466 641 C 1021.868 602.533, 1006.535 579.087, 992.841 586.524 M 1018.878 669.361 C 1015.506 673.214, 1014.909 673.495, 1010.226 673.429 C 1007.216 673.387, 1004.117 672.652, 1002.511 671.599 C 1001.034 670.632, 999.566 670.100, 999.249 670.418 C 998.931 670.736, 1000.541 674.770, 1002.827 679.383 C 1009.451 692.750, 1014.931 697.087, 1018.437 691.736 C 1020.885 688.001, 1023.117 677.463, 1022.799 671.147 L 1022.500 665.222 1018.878 669.361 M 1221.500 686.916 C 1213.312 690.748, 1200.973 709.108, 1196.576 724 C 1194.610 730.658, 1194.311 744.464, 1196.086 746.603 C 1196.874 747.553, 1198.641 747.991, 1200.914 747.801 L 1204.500 747.500 1205.061 740.287 C 1205.451 735.281, 1206.187 732.451, 1207.466 731.037 C 1210.074 728.155, 1211.220 728.481, 1213.502 732.753 C 1214.958 735.478, 1216.155 736.500, 1217.893 736.500 C 1221.496 736.500, 1222.827 733.672, 1220.824 730.274 C 1214.708 719.900, 1217.814 700.057, 1226.602 693.354 C 1230.402 690.456, 1230.974 687.592, 1228.066 686.035 C 1225.687 684.762, 1226.269 684.684, 1221.500 686.916 M 1106 696.501 C 1104.625 697.287, 1101.925 698.450, 1100 699.086 C 1098.075 699.721, 1090.875 702.846, 1084 706.029 C 1077.125 709.212, 1065.507 713.968, 1058.182 716.599 C 1047.612 720.395, 1044.443 721.974, 1042.822 724.250 L 1040.780 727.118 1043.515 733.309 C 1049.562 746.997, 1057.964 754.590, 1070.480 757.678 C 1076.276 759.109, 1078.311 759.182, 1084.194 758.174 C 1093.024 756.659, 1098.028 754.068, 1105.041 747.380 C 1111.191 741.514, 1115.358 734.092, 1117.123 725.862 C 1119.439 715.064, 1116.176 698.770, 1111.160 696.086 C 1108.714 694.777, 1109.064 694.749, 1106 696.501 M 903.200 736.200 C 901.164 738.236, 901.796 739.376, 907.984 744.823 C 915.034 751.028, 918.472 756.510, 921.469 766.325 C 923.533 773.087, 923.828 773.500, 926.580 773.500 C 928.847 773.500, 929.571 772.997, 929.820 771.250 C 930.213 768.482, 930.035 768.477, 935.828 771.413 C 942.144 774.613, 950.430 782.170, 953.652 787.670 C 955.815 791.361, 956.695 792.057, 958.877 791.804 C 965.049 791.088, 961.067 781.662, 950.855 772.818 C 947.478 769.893, 941.061 763.900, 936.595 759.500 C 927.718 750.755, 916.301 740.674, 911.346 737.207 C 907.829 734.746, 905.003 734.397, 903.200 736.200 M 488.643 802.555 C 483.398 804.478, 478.194 807.670, 474 811.538 C 471.842 813.527, 468.966 815.019, 466.500 815.427 C 457.097 816.982, 435.882 823.444, 428.397 827.031 C 422.803 829.712, 418.001 833.056, 412.891 837.828 L 405.489 844.741 391.995 846.900 C 361.811 851.732, 354.858 854.018, 338.459 864.504 C 322.762 874.540, 319.612 878.539, 321.104 886.530 C 325.131 908.099, 340.680 921.922, 364.194 924.835 C 372.936 925.919, 382.438 924.801, 388.215 922.010 C 390.503 920.905, 392.914 920, 393.573 920 C 395.089 920, 397.472 923.642, 398.389 927.360 C 400.136 934.449, 415.416 944.732, 427.463 946.925 C 436.854 948.635, 443.116 946.881, 448.258 941.101 C 449.774 939.395, 451.539 938, 452.179 938 C 452.819 938, 455.320 940.063, 457.736 942.585 C 466.143 951.358, 478.050 954.525, 491.438 951.546 L 498.962 949.872 506.231 953.449 C 523.857 962.122, 542.484 962.002, 559.668 953.103 L 567.436 949.080 570.468 951.112 C 583.578 959.901, 603.814 962.607, 636.605 959.958 C 651.449 958.759, 660.289 956.927, 667.790 953.495 C 677.437 949.080, 690.404 939.931, 697.286 932.683 L 704.073 925.535 711.286 925.664 C 715.254 925.735, 724.125 925.915, 731 926.063 C 745.898 926.385, 747.219 925.887, 755.372 916.878 C 762.644 908.843, 765.256 902.200, 765.352 891.500 C 765.434 882.365, 764.285 879.486, 758.332 873.910 C 752.644 868.582, 746.586 865.507, 736.132 862.642 C 730.979 861.230, 725.579 859.321, 724.132 858.399 C 722.684 857.477, 716.775 851.878, 711 845.958 C 703.362 838.128, 698.864 834.380, 694.500 832.211 C 684.978 827.479, 675.408 824.953, 664.500 824.291 L 654.500 823.684 649 818.716 C 642.534 812.876, 632.036 807.682, 623.203 805.954 C 619.315 805.193, 612.811 804.922, 606.203 805.245 C 593.726 805.856, 585.859 808.517, 575.446 815.647 L 569.080 820.006 561.412 817.503 C 556.009 815.739, 551.537 815, 546.266 815 C 539.455 815, 538.448 814.731, 534.977 811.982 C 530.351 808.318, 522.226 804.632, 514.186 802.548 C 506.850 800.647, 493.837 800.651, 488.643 802.555 M 1212.802 854.913 C 1206.381 857.029, 1205.001 857.869, 1204.484 859.975 C 1204.144 861.364, 1202.095 866.658, 1199.932 871.741 C 1197.770 876.823, 1196 882.273, 1196 883.851 C 1196 886.958, 1196.405 887.618, 1209.292 905.500 C 1214.048 912.100, 1220.766 922.445, 1224.220 928.488 C 1231.818 941.782, 1234.852 945.384, 1241.127 948.564 C 1246.531 951.303, 1252.424 951.694, 1257.282 949.638 C 1262.817 947.295, 1264.124 944.952, 1264.710 936.322 C 1265.634 922.727, 1263.894 915.349, 1255.911 899 C 1242.701 871.945, 1235.768 860.903, 1228.683 855.631 C 1224.065 852.195, 1221.412 852.075, 1212.802 854.913 M 1776.500 858.613 C 1772.650 859.410, 1766.350 861.590, 1762.500 863.457 L 1755.500 866.852 1747.500 864.921 C 1724.793 859.439, 1689.505 858.483, 1674.148 862.933 C 1660.414 866.913, 1650.147 873.313, 1641.135 883.511 L 1634.770 890.714 1622.637 890.877 C 1604.540 891.121, 1593.847 893.081, 1573.182 899.939 C 1566.430 902.181, 1558.725 905.119, 1556.061 906.469 C 1551.560 908.750, 1550.766 908.848, 1544.858 907.859 C 1534.826 906.179, 1514.315 907.491, 1501.976 910.602 C 1486.228 914.573, 1479.286 918.005, 1463.335 929.700 C 1454.755 935.991, 1452.389 939.087, 1450.916 945.955 C 1448.992 954.929, 1451.624 961.756, 1460.229 970.106 C 1472.843 982.348, 1497.798 989.098, 1513.560 984.532 C 1516.827 983.585, 1520.035 982.371, 1520.688 981.834 C 1521.525 981.147, 1522.982 982.082, 1525.613 984.994 C 1530.672 990.593, 1533.944 992.116, 1540.191 991.779 C 1544.882 991.526, 1545.510 991.749, 1546.883 994.151 C 1548.308 996.642, 1548.207 997.187, 1545.230 1003.151 C 1535.964 1021.709, 1539.866 1051.295, 1553.041 1062.381 C 1560.274 1068.467, 1571.385 1071.696, 1581.836 1070.749 C 1588.991 1070.100, 1598.608 1065.420, 1601.849 1061.010 C 1603.987 1058.101, 1604.569 1057.860, 1608.349 1058.327 C 1610.632 1058.610, 1615.653 1059.728, 1619.507 1060.813 C 1629.664 1063.673, 1646.811 1065.277, 1668.500 1065.396 C 1690.669 1065.517, 1696.969 1064.209, 1712.272 1056.305 C 1726.847 1048.778, 1740.246 1034.088, 1744.776 1020.669 C 1747.533 1012.501, 1749.855 1010.387, 1756.798 1009.726 C 1780.008 1007.514, 1813.544 987.736, 1829.713 966.723 C 1835.319 959.438, 1841 948.672, 1841 945.335 C 1841 943.680, 1842.909 940.705, 1846.560 936.671 C 1854.138 928.297, 1858.159 922.002, 1862.674 911.445 C 1866.476 902.552, 1866.499 902.421, 1866.499 889 C 1866.500 867.922, 1865.794 866.609, 1852 862.071 C 1837.576 857.326, 1792.649 855.268, 1776.500 858.613 M 1026.731 932.065 C 1023.558 933.091, 1017.033 934.434, 1012.231 935.049 C 991.350 937.725, 987.551 943.697, 989.043 971.500 C 989.900 987.474, 993.319 1014.659, 995.164 1020.175 C 999.333 1032.639, 1012.235 1037.574, 1023.604 1031.054 C 1041.509 1020.784, 1049.333 993.213, 1043.058 962.500 C 1040.630 950.616, 1034.338 929.937, 1033.200 930.100 C 1032.815 930.155, 1029.904 931.039, 1026.731 932.065 M 762.873 1092.058 C 738.917 1093.501, 714.169 1097.144, 697.500 1101.680 C 681.872 1105.933, 668.656 1115.339, 662.976 1126.250 L 660.503 1131 643.149 1131 C 626.560 1131, 625.404 1131.131, 616.925 1133.972 C 600.904 1139.339, 588.911 1146.718, 574.856 1159.855 L 567.212 1167 560.816 1167 C 548.581 1167, 533.923 1172.540, 522.159 1181.611 C 518.671 1184.300, 514.025 1187.790, 511.834 1189.366 C 507.265 1192.654, 501.826 1199.679, 499.344 1205.500 C 497.808 1209.101, 496.689 1209.949, 488.137 1214 C 476.544 1219.491, 470.459 1225.269, 465.322 1235.664 C 462.391 1241.594, 461.675 1244.207, 461.597 1249.253 C 461.501 1255.465, 461.516 1255.500, 464.325 1255.500 C 466.383 1255.500, 468.150 1256.629, 470.825 1259.654 C 475.764 1265.237, 488.127 1274.451, 495.500 1278.043 C 506.487 1283.396, 512.745 1284.513, 531 1284.378 C 556.997 1284.185, 572.948 1280.690, 592.401 1270.922 C 607.961 1263.110, 633.961 1245.369, 639.743 1238.619 C 642.331 1235.598, 643.190 1235.531, 658.129 1237.192 C 666.266 1238.097, 670.856 1238.109, 677.175 1237.242 C 690.807 1235.373, 695.632 1233.485, 701.917 1227.561 L 707.500 1222.299 717 1222.252 C 733.953 1222.170, 755.092 1217.790, 768.548 1211.573 C 776.722 1207.797, 782.997 1202.482, 788.062 1195.044 C 791.881 1189.438, 796.060 1187.361, 801.325 1188.454 C 812.421 1190.758, 818.618 1189.888, 830.014 1184.426 C 839.456 1179.901, 844.401 1175.907, 847.682 1170.155 C 852.245 1162.159, 852.517 1161.971, 856.993 1163.730 C 862.135 1165.749, 865.585 1164.762, 870.148 1159.965 C 874.675 1155.206, 876.526 1147.844, 875.474 1138.780 C 874.823 1133.166, 874.383 1132.340, 869.386 1127.343 C 866.424 1124.380, 863.997 1121.179, 863.994 1120.228 C 863.973 1113.459, 857.487 1104.112, 849.651 1099.554 C 843.918 1096.220, 827.728 1093.308, 807.949 1092.053 C 789.933 1090.910, 781.912 1090.911, 762.873 1092.058" stroke="none" fill="#fdf0d4" fill-rule="evenodd"/><path d="M 1312.500 57.496 C 1309.750 58.246, 1300.975 61.762, 1293 65.309 C 1249.783 84.532, 1197.311 99.228, 1103.500 118.386 C 1022.532 134.921, 985.636 141.032, 943 144.968 C 924.575 146.669, 899.825 149.060, 888 150.280 C 869.392 152.201, 863.339 152.411, 843 151.840 C 727.877 148.608, 586.273 148.476, 574.317 151.590 C 565.915 153.778, 559.509 157.683, 553.276 164.416 C 544.254 174.160, 540.316 185.200, 541.243 198.153 L 541.722 204.851 537.111 205.431 C 534.575 205.750, 519.450 207.602, 503.500 209.547 C 447.160 216.416, 376.454 226.995, 330 235.505 C 246.987 250.713, 227.171 256.663, 213.573 270.463 C 196.662 287.626, 194.752 310.865, 208.628 330.632 C 215.869 340.947, 227.245 347.582, 242.937 350.643 C 254.379 352.875, 299.784 353.866, 347.500 352.924 C 391.196 352.061, 446.877 350.349, 457.851 349.530 L 464.203 349.056 463.520 351.776 C 463.145 353.272, 462.733 354.601, 462.605 354.729 C 462.477 354.857, 456.101 355.880, 448.436 357.002 C 367.399 368.870, 339.008 375.578, 325.407 386.072 C 320.778 389.643, 312 400.512, 312 402.672 C 312 403.142, 309.700 404.073, 306.889 404.741 C 293.107 408.015, 282.354 416.457, 276.259 428.790 C 272.540 436.316, 272.500 436.524, 272.500 448.500 C 272.500 460.334, 272.578 460.760, 275.991 467.552 C 283.364 482.225, 296.273 490.955, 313.671 493.033 C 323.679 494.228, 360.624 493.197, 406.500 490.441 C 436.325 488.649, 503.451 485.022, 507.032 485.009 C 509.199 485.001, 509.757 485.683, 510.907 489.750 C 511.646 492.363, 513.319 496.469, 514.625 498.876 C 515.931 501.283, 517 503.385, 517 503.548 C 517 503.711, 515.312 504.389, 513.250 505.053 C 508.271 506.657, 498.004 513.995, 494.728 518.290 L 492.103 521.731 497.702 522.309 C 500.781 522.626, 506.047 523.856, 509.404 525.041 L 515.508 527.196 520.766 523.657 C 527.063 519.420, 532.060 518.505, 544.466 519.320 C 567.455 520.830, 602.893 531.579, 614.784 540.649 C 618.719 543.650, 621.225 548.847, 620.923 553.375 C 620.808 555.094, 621.761 558.750, 623.040 561.500 C 626.355 568.624, 626.154 574.720, 622.428 580.061 C 620.818 582.370, 618.121 586.787, 616.436 589.876 C 611.012 599.820, 598.671 604.827, 586.965 601.833 C 581.502 600.436, 581.371 600.455, 576.965 603.242 C 570.644 607.241, 563.861 609, 554.761 609 C 545.853 609, 529.745 605.947, 519.879 602.388 C 516.237 601.075, 511.062 599.974, 508.379 599.942 C 503.561 599.885, 493.430 597.483, 487.395 594.966 C 484.619 593.808, 483.584 593.954, 477.615 596.343 C 468.171 600.124, 459.102 601.193, 446.130 600.055 C 433.453 598.942, 424.670 595.998, 415.638 589.833 L 409.558 585.683 398.529 587.423 C 362.751 593.070, 278.280 609.298, 252 615.573 C 224.494 622.141, 216.194 625.831, 207.129 635.521 C 198.564 644.678, 195.588 652.435, 195.630 665.500 C 195.654 673.143, 196.160 676.855, 197.777 681.249 C 202.462 693.986, 212.268 704.137, 224.757 709.181 C 230.022 711.307, 231.873 711.488, 247 711.358 C 262.555 711.224, 280.950 709.561, 362.786 700.888 C 373.943 699.705, 383.277 698.944, 383.528 699.195 C 383.780 699.447, 384.408 701.868, 384.924 704.576 C 385.440 707.284, 386.166 710.288, 386.538 711.250 C 387.013 712.479, 386.727 713, 385.578 713 C 382.143 713, 371.454 719.415, 366.298 724.572 C 357.121 733.749, 352.062 747.924, 353.477 760.500 C 353.848 763.800, 355.522 769.624, 357.196 773.442 L 360.241 780.384 356.210 783.942 C 338.263 799.786, 337.149 828.769, 353.779 847.177 C 358.810 852.746, 359.900 853.137, 365.591 851.413 C 368.291 850.595, 378.252 848.646, 387.727 847.083 L 404.955 844.240 412.603 837.097 C 417.617 832.415, 422.706 828.783, 427.376 826.556 C 435.087 822.878, 456.509 816.426, 464.531 815.365 C 468.407 814.852, 470.450 813.841, 473.820 810.768 C 476.197 808.602, 481.147 805.405, 484.820 803.665 C 490.861 800.803, 492.409 800.500, 501 800.500 C 512.565 800.500, 525.026 804.149, 533.333 809.968 C 538.229 813.398, 539.350 813.740, 547.325 814.237 C 552.475 814.559, 558.588 815.694, 562.387 817.035 L 568.780 819.292 576.434 814.173 C 585.549 808.076, 594.289 805.167, 605.933 804.354 C 622.702 803.184, 638.652 808.260, 649.573 818.241 C 654.301 822.562, 655.791 823.382, 658.495 823.149 C 664.292 822.649, 678.140 825.072, 686.108 827.980 C 696.841 831.897, 703.643 836.702, 713.096 847.045 C 717.539 851.907, 722.291 856.616, 723.656 857.510 C 725.020 858.404, 730.941 860.485, 736.812 862.133 C 742.683 863.782, 748.165 865.707, 748.994 866.411 C 749.822 867.116, 752.601 868.684, 755.169 869.896 C 764.416 874.261, 772.558 886.315, 773.694 897.322 C 774.312 903.316, 772.156 912.283, 768.720 918 C 765.578 923.229, 755.509 935.248, 752.255 937.653 C 743.200 944.348, 729.887 948.273, 717.466 947.911 L 710.369 947.703 702.241 954.131 C 691.876 962.327, 668.150 975.103, 654.115 980.047 C 639.758 985.104, 629.219 987, 615.465 987 C 599.666 987, 588.842 984.405, 572.834 976.781 C 563.192 972.188, 559.492 970.886, 557.334 971.327 C 555.775 971.645, 551.575 972.592, 548 973.432 C 544.425 974.271, 539.421 974.968, 536.881 974.979 C 530.080 975.010, 516.150 972.370, 508.338 969.569 C 501.805 967.227, 501.232 967.181, 495.500 968.543 C 483.208 971.463, 468.097 969.921, 458.910 964.809 C 455.504 962.914, 455.082 962.893, 450.640 964.401 C 448.066 965.275, 442.819 966.282, 438.980 966.638 C 435.141 966.995, 432 967.603, 432 967.989 C 432 968.374, 432.908 969.512, 434.018 970.516 C 435.993 972.304, 435.684 972.431, 419.268 976.578 C 388.734 984.291, 375.059 990.262, 364.449 1000.513 C 359.744 1005.058, 357.074 1008.742, 354.395 1014.384 C 351.079 1021.366, 350.654 1023.260, 349.725 1035.185 C 348.124 1055.745, 351.541 1067.476, 362.157 1077.871 C 372.960 1088.450, 389.861 1094, 411.270 1094 L 417.092 1094 413.599 1098.574 C 411.678 1101.090, 409.621 1104.620, 409.027 1106.418 C 408.067 1109.328, 407.265 1109.875, 401.724 1111.405 C 384.103 1116.269, 371.122 1132.073, 369.384 1150.779 C 367.751 1168.348, 378.340 1186.530, 394.726 1194.291 C 400.700 1197.121, 402.695 1197.540, 411.616 1197.837 C 420.271 1198.126, 501.573 1191.939, 508.691 1190.450 C 509.896 1190.198, 513.609 1187.613, 516.942 1184.706 C 529.415 1173.829, 544.147 1167.428, 559.184 1166.353 L 567.500 1165.759 573 1160.493 C 586.488 1147.578, 599.903 1139.061, 615 1133.825 C 624.227 1130.624, 625.016 1130.523, 642.462 1130.305 L 660.423 1130.081 662.643 1125.713 C 667.801 1115.564, 678.619 1107.277, 692.873 1102.557 C 708.802 1097.282, 737.065 1092.962, 768.621 1090.980 C 801.867 1088.891, 840.877 1093.035, 852 1099.836 C 858.940 1104.079, 864.111 1111.616, 865.285 1119.199 C 865.682 1121.765, 867.180 1124.229, 870.179 1127.247 C 880.397 1137.532, 884.061 1143.886, 884.754 1152.527 C 885.292 1159.225, 883.230 1168.205, 879.912 1173.618 C 878.697 1175.600, 878 1178.568, 878 1181.763 C 878 1190.813, 874.637 1199.196, 868.216 1206.151 C 857.400 1217.868, 845.864 1223.312, 828.784 1224.761 L 820.068 1225.500 815.260 1231.476 C 802.192 1247.716, 782.617 1257.347, 754.440 1261.398 C 738.346 1263.712, 711.555 1265.150, 704.861 1264.060 C 700.243 1263.307, 698.084 1263.495, 692.945 1265.094 C 678.720 1269.522, 661.016 1271.015, 645.562 1269.092 L 639.623 1268.353 632.830 1274.588 C 619.510 1286.812, 609.132 1292.519, 589.184 1298.589 C 570.026 1304.419, 559.992 1306.191, 546 1306.218 C 531.736 1306.246, 524.746 1305.184, 510.244 1300.788 C 504.603 1299.078, 499.763 1297.903, 499.489 1298.178 C 498.342 1299.325, 501.249 1310.012, 504.526 1316.694 C 509.096 1326.012, 517.354 1333.576, 527.955 1338.152 C 535.030 1341.206, 536.185 1341.403, 546.500 1341.310 C 552.550 1341.255, 578.687 1339.138, 604.582 1336.605 C 630.477 1334.072, 652.865 1332, 654.332 1332 C 656.471 1332, 657 1332.469, 657 1334.366 C 657 1335.667, 658.570 1339.869, 660.488 1343.704 C 667.028 1356.776, 679.624 1366.085, 693.593 1368.171 C 699.755 1369.091, 705.248 1368.602, 744.500 1363.646 C 768.700 1360.590, 801.100 1356.730, 816.500 1355.068 C 848.216 1351.646, 883.129 1348.004, 884.250 1348.002 C 884.663 1348.001, 885 1349.705, 885 1351.790 C 885 1353.874, 885.680 1358.190, 886.511 1361.380 C 890.911 1378.274, 905.910 1391.136, 926.576 1395.736 C 933.379 1397.251, 939.663 1397.493, 971 1397.449 C 1008.929 1397.396, 1029.465 1396.266, 1053.855 1392.889 C 1080.642 1389.180, 1114.843 1381.140, 1124.368 1376.313 C 1135.717 1370.563, 1144.921 1357.366, 1147.207 1343.567 C 1148.179 1337.701, 1148.664 1336.753, 1151.621 1334.925 C 1153.447 1333.796, 1156.780 1330.785, 1159.027 1328.232 C 1162.902 1323.830, 1163.454 1323.554, 1169.806 1322.848 C 1173.487 1322.438, 1179.053 1322.080, 1182.172 1322.051 L 1187.845 1322 1189.071 1325.750 C 1192.093 1334.996, 1201.446 1345.148, 1211.324 1349.904 C 1219.905 1354.035, 1227.219 1355.282, 1296.779 1364.471 L 1331.059 1368.999 1337.343 1374.330 C 1341.800 1378.111, 1345.935 1380.509, 1351.564 1382.575 C 1358.634 1385.171, 1360.645 1385.471, 1370 1385.322 C 1375.775 1385.231, 1388.375 1384.448, 1398 1383.583 C 1420.123 1381.596, 1446.816 1380.022, 1458.613 1380.010 L 1467.725 1380 1470.965 1386.581 C 1478.924 1402.747, 1496.739 1413.146, 1514.001 1411.702 C 1526.884 1410.624, 1536.427 1405.254, 1552.164 1390.224 C 1566.043 1376.969, 1572.845 1365.329, 1575.062 1351.041 C 1577.616 1334.580, 1570.457 1316.297, 1557.392 1305.914 L 1553.856 1303.104 1597.178 1303.139 C 1634.076 1303.168, 1641.379 1302.933, 1646.425 1301.554 C 1659.702 1297.925, 1669.668 1289.612, 1675.807 1277.047 C 1679.307 1269.884, 1679.495 1268.992, 1679.497 1259.500 C 1679.499 1254, 1679.130 1248.054, 1678.679 1246.287 C 1677.640 1242.226, 1675.729 1242.582, 1709.500 1240.539 C 1756.282 1237.710, 1777.397 1235.284, 1787.967 1231.524 C 1797.976 1227.964, 1805.895 1221.700, 1811.621 1212.812 C 1817.023 1204.427, 1818.500 1198.885, 1818.500 1187 C 1818.500 1177.250, 1818.270 1176.015, 1815.283 1169.709 C 1807.095 1152.422, 1794.120 1144.007, 1770.292 1140.531 C 1761.499 1139.249, 1754.373 1138.611, 1724.846 1136.465 L 1716.192 1135.836 1715.528 1132.168 C 1715.162 1130.151, 1714.641 1127.569, 1714.369 1126.431 C 1713.971 1124.766, 1715.032 1123.648, 1719.799 1120.705 C 1723.058 1118.693, 1727.400 1115.193, 1729.448 1112.926 C 1733.940 1107.954, 1739.676 1096.343, 1740.563 1090.426 L 1741.208 1086.126 1772.854 1085.813 L 1804.500 1085.500 1812 1081.920 C 1837.759 1069.625, 1847.224 1037.840, 1831.838 1015.298 L 1828.970 1011.096 1832.235 1010.592 C 1834.031 1010.315, 1837.569 1009.826, 1840.099 1009.505 C 1853.465 1007.812, 1866.977 998.481, 1874.317 985.875 C 1878.216 979.178, 1880.459 966.439, 1879.099 958.718 C 1877.573 950.059, 1876.065 945, 1875.009 945 C 1873.016 945, 1867.693 952.970, 1864.658 960.500 C 1860.408 971.043, 1855.658 978.249, 1846.832 987.540 C 1828.409 1006.934, 1799.689 1025.105, 1774.268 1033.450 C 1766.059 1036.145, 1766.027 1036.169, 1762.955 1041.933 C 1754.741 1057.344, 1738.774 1072.378, 1721.500 1080.964 C 1710.053 1086.654, 1699.228 1089.973, 1680 1093.690 C 1662.203 1097.130, 1636.108 1097.559, 1623.326 1094.622 C 1615.206 1092.756, 1615.129 1092.757, 1611.826 1094.774 C 1598.290 1103.038, 1563.604 1105.390, 1540.761 1099.593 C 1519.149 1094.107, 1502.476 1080.604, 1498.509 1065.373 C 1494.530 1050.096, 1498.575 1036.377, 1512.057 1019.430 C 1514.713 1016.092, 1518.969 1011.440, 1521.515 1009.093 C 1525.846 1005.101, 1526.027 1004.737, 1524.322 1003.445 C 1522.200 1001.836, 1519.800 1001.617, 1518.450 1002.909 C 1514.694 1006.504, 1491.698 1008.957, 1478.853 1007.134 C 1467.717 1005.554, 1460.876 1002.653, 1454.467 996.796 C 1447.783 990.687, 1444.832 985.737, 1442.440 976.625 C 1439.366 964.911, 1442.393 953.057, 1451.696 940.388 C 1456.809 933.423, 1470.523 922.789, 1481.563 917.226 C 1497.366 909.264, 1521.805 904.913, 1540.108 906.804 L 1550.716 907.900 1561.697 903.490 C 1584.321 894.406, 1604.497 890.033, 1624 889.987 L 1634.500 889.962 1640.500 883.142 C 1658.337 862.867, 1684.386 855.827, 1724.300 860.496 C 1731.334 861.319, 1741.274 862.953, 1746.390 864.128 L 1755.692 866.265 1760.182 863.634 C 1762.652 862.186, 1768.234 860.049, 1772.586 858.884 C 1789.884 854.255, 1834.290 855.705, 1851.472 861.461 C 1858.359 863.768, 1858.473 863.773, 1860.868 861.889 C 1865.206 858.477, 1871.684 848.649, 1873.979 842 C 1875.522 837.528, 1876.223 833.160, 1876.227 828 C 1876.244 805.860, 1861.365 788.349, 1838.490 783.588 C 1830.908 782.009, 1805.174 779.412, 1787.500 778.440 C 1781.450 778.108, 1775.957 777.670, 1775.294 777.466 C 1774.531 777.232, 1775.541 774.921, 1778.045 771.170 C 1782.802 764.047, 1784.500 759.472, 1785.345 751.500 C 1786.780 737.959, 1782.246 724.777, 1772.881 715.264 L 1767.895 710.198 1775.096 708.984 C 1799.596 704.851, 1817.106 681.820, 1813.850 658.013 C 1811.934 644.004, 1802.486 630.883, 1789.714 624.494 C 1785.874 622.572, 1782.144 621, 1781.427 621 C 1780.629 621, 1779.869 619.155, 1779.470 616.250 C 1778.360 608.170, 1777.177 604.677, 1773.453 598.480 C 1768.796 590.731, 1766.762 588.599, 1759.500 583.853 C 1751.131 578.382, 1744.879 576.765, 1724 574.671 C 1722.075 574.478, 1731.300 574.237, 1744.500 574.136 C 1757.700 574.034, 1770.512 573.487, 1772.972 572.921 C 1797.148 567.350, 1813.295 543.673, 1808.523 520.790 C 1805.374 505.686, 1796.739 494.568, 1783.316 488.336 C 1779.364 486.501, 1775.653 485, 1775.068 485 C 1774.483 485, 1775.916 482.359, 1778.252 479.130 C 1780.588 475.902, 1782.950 472.541, 1783.500 471.661 C 1784.104 470.695, 1786.929 469.683, 1790.632 469.105 C 1809.787 466.119, 1825.242 451.319, 1828.663 432.685 C 1831.518 417.138, 1826.958 402.925, 1815.698 392.275 C 1804.131 381.337, 1795.920 379.323, 1743 374.449 C 1727.325 373.005, 1714.395 371.721, 1714.267 371.596 C 1714.139 371.470, 1714.477 369.825, 1715.017 367.940 C 1715.558 366.055, 1716 362.148, 1716 359.257 L 1716 354 1719.250 353.987 C 1724.312 353.966, 1740.012 350.410, 1745 348.153 C 1754.819 343.712, 1764.543 334.735, 1769 326 C 1776.638 311.028, 1775.085 291.763, 1765.131 278.022 C 1761.341 272.791, 1753.177 265.641, 1747.944 262.972 C 1744.674 261.303, 1744.033 260.383, 1743.094 256.003 C 1741.515 248.639, 1737.800 241.978, 1731.442 235.111 C 1721.237 224.088, 1713.172 221.013, 1688.892 218.885 C 1675.908 217.748, 1675.097 217.550, 1673.851 215.221 C 1670.220 208.437, 1657.550 200.505, 1644.799 197.034 C 1636.358 194.736, 1612.541 190.756, 1596.250 188.922 L 1585 187.655 1584.988 180.577 C 1584.951 158.616, 1571.382 140.991, 1550.267 135.478 C 1538.682 132.453, 1511.914 131.734, 1431.211 132.280 L 1352.921 132.809 1356.781 128.622 C 1367.873 116.588, 1370.619 96.475, 1363.257 81.173 C 1360.061 74.529, 1350.267 64.197, 1344.261 61.133 C 1334.622 56.216, 1322.345 54.810, 1312.500 57.496 M 959 333.859 C 957.075 334.283, 954.422 335.214, 953.104 335.928 C 951.169 336.977, 949.257 336.993, 943.184 336.014 C 932.445 334.281, 920.096 334.475, 914.089 336.470 C 911.323 337.389, 906.909 340.045, 904.280 342.373 C 899.702 346.427, 899.091 346.655, 889.830 347.790 C 884.512 348.442, 877.087 350.124, 873.330 351.528 C 868.100 353.484, 864.158 354.163, 856.500 354.428 C 844.160 354.854, 837.920 356.749, 830.248 362.396 C 819.903 370.012, 816.792 378.458, 821.186 387 C 824.541 393.524, 829.757 396.128, 839.544 396.167 C 843.706 396.183, 848.451 395.642, 850.088 394.964 C 854.616 393.088, 854.657 394.446, 850.225 399.481 C 844.833 405.607, 842.632 410.524, 842.707 416.277 C 842.800 423.401, 846.293 428.034, 854.687 432.167 C 861.058 435.304, 862.074 435.500, 871.978 435.500 C 879.694 435.500, 883.737 435.023, 887.138 433.710 C 891.037 432.205, 892.764 432.079, 897.984 432.920 C 909.042 434.701, 929.056 430.981, 938.644 425.363 C 943.287 422.642, 951.421 414.365, 953.123 410.629 C 953.897 408.930, 956.076 407.511, 960.243 405.992 C 975.357 400.481, 989.637 388.737, 995.073 377.347 C 996.719 373.899, 998.547 370.780, 999.137 370.416 C 1001.145 369.174, 1003.956 361.511, 1003.978 357.217 C 1004.021 348.827, 995.874 337.191, 988.488 335.092 C 983.462 333.664, 963.650 332.836, 959 333.859 M 1513.324 364.380 C 1508.165 366.067, 1503.225 369.067, 1500.059 372.438 C 1498.735 373.847, 1496.713 375, 1495.566 375 C 1491.461 375, 1467.829 382.058, 1461.883 385.059 C 1458.549 386.742, 1453.042 390.705, 1449.643 393.867 L 1443.465 399.615 1430.982 401.433 C 1424.117 402.433, 1415.125 404.309, 1411 405.601 C 1400.389 408.925, 1384.437 418.647, 1377.950 425.744 C 1369.414 435.083, 1368.287 440.245, 1372.094 452.569 C 1373.824 458.171, 1375.170 460.328, 1379.844 464.991 C 1389.445 474.571, 1406.294 480.806, 1419.494 479.664 L 1425.487 479.145 1430.732 484.517 C 1436.772 490.704, 1445.875 496.085, 1454.500 498.569 C 1462.083 500.752, 1476.186 500.785, 1481.340 498.631 C 1484.834 497.171, 1485.263 497.215, 1489.792 499.490 C 1495.055 502.133, 1504.872 504.062, 1509.514 503.365 C 1511.156 503.118, 1515.039 502.472, 1518.142 501.929 C 1523.156 501.052, 1524.660 501.238, 1531.642 503.596 C 1542.204 507.163, 1554.435 507.894, 1564.136 505.536 L 1571.295 503.796 1580.897 508.392 C 1595.830 515.538, 1604.543 517.352, 1620.950 516.730 C 1634.677 516.210, 1638.531 515.426, 1652.500 510.315 C 1662.090 506.806, 1683.900 494.555, 1689.897 489.309 C 1694.722 485.088, 1694.973 484.999, 1702.161 484.942 C 1718.489 484.814, 1729.403 479.410, 1739.043 466.681 C 1747.642 455.325, 1749.785 446.595, 1746.408 436.684 C 1743.038 426.794, 1731.872 418.188, 1717.094 414.093 C 1707.519 411.440, 1706.630 410.852, 1696.500 400.481 C 1689.784 393.606, 1685.850 390.471, 1681 388.127 C 1673.582 384.543, 1662.986 382.043, 1655.112 382.017 C 1650.208 382.002, 1649.326 381.633, 1645.291 377.915 C 1630.123 363.933, 1603.510 362.387, 1585.530 374.443 L 1578.931 378.869 1573.216 376.877 C 1570.072 375.782, 1564.400 374.616, 1560.611 374.286 C 1555.226 373.818, 1552.496 372.949, 1548.111 370.308 C 1545.025 368.450, 1540.250 366.224, 1537.500 365.361 C 1530.556 363.184, 1518.483 362.694, 1513.324 364.380 M 1292.292 482.449 C 1287.402 483.977, 1277.114 491.121, 1271.831 496.656 C 1265.416 503.378, 1253.078 522.020, 1246.973 534.216 C 1242.104 543.943, 1239.042 552.128, 1234.410 567.798 C 1234.136 568.725, 1232.250 569.011, 1227.812 568.798 L 1221.599 568.500 1217.549 560.901 C 1211.899 550.299, 1206.820 544.495, 1198.358 538.971 C 1191.114 534.242, 1177.873 528.809, 1168.901 526.885 C 1164.915 526.030, 1163.540 525.046, 1159.851 520.404 C 1147.096 504.356, 1129.147 496.968, 1109.772 499.792 L 1101.899 500.939 1097.760 497.941 C 1091.421 493.349, 1081.147 490.554, 1070.500 490.525 C 1060.526 490.497, 1054.685 492.168, 1047.076 497.226 C 1042.210 500.461, 1041.880 500.449, 1031.908 496.655 C 1012.908 489.428, 996.061 492.123, 983.128 504.459 C 977.817 509.525, 976.927 510, 972.748 510 C 962.940 510, 945.798 514.584, 937.566 519.409 C 927.662 525.213, 919.174 537.628, 916.650 550.003 L 915.347 556.388 907.924 558.037 C 894.670 560.980, 883.289 566.780, 873.007 575.830 C 866.412 581.635, 862.650 586.852, 859.541 594.500 L 857.237 600.170 851.513 591.388 C 844.131 580.063, 835.951 571.539, 823.500 562.196 C 812.425 553.886, 806.678 550.898, 797.002 548.421 C 784.715 545.275, 771.709 548.593, 763.542 556.957 C 758.519 562.101, 754.607 573.297, 755.870 578.917 C 757.154 584.630, 761.553 591.684, 767.222 597.120 C 771.305 601.034, 773.359 602.135, 779.801 603.864 C 786.413 605.638, 788.039 606.534, 791.319 610.215 C 796.529 616.062, 801.730 623.749, 807.929 634.763 L 813.142 644.027 806.130 651.637 C 798.711 659.689, 793.233 668.962, 790.596 677.932 C 788.703 684.374, 788.463 700.521, 790.152 707.839 L 791.304 712.830 786.757 718.028 C 780.791 724.848, 772.683 740.485, 769.953 750.438 C 768.084 757.253, 767.843 760.156, 768.254 770.938 C 768.668 781.772, 769.228 785.067, 772.327 794.890 C 774.303 801.155, 777.001 807.914, 778.323 809.912 C 782.937 816.884, 793.242 827.923, 798.548 831.577 C 804.082 835.389, 806.430 839.398, 805.455 843.369 C 804.659 846.608, 808.544 860.359, 812.221 867.314 C 816.563 875.526, 829.592 888.597, 837.603 892.777 C 845.286 896.785, 856.029 899.360, 862.133 898.656 C 866.181 898.189, 867.065 898.444, 869.133 900.672 C 872.680 904.494, 881.787 911.314, 888.061 914.846 C 901.243 922.269, 916.921 925.278, 940.441 924.900 C 955.612 924.656, 956.749 924.772, 961 926.989 C 963.475 928.280, 967.975 930.107, 971 931.049 L 976.500 932.763 978.194 944.631 C 979.125 951.159, 980.593 965.050, 981.455 975.500 C 984.644 1014.134, 987.640 1027.396, 994.796 1034.550 C 1001.969 1041.723, 1016.151 1045.671, 1025.575 1043.120 C 1039.760 1039.281, 1051.702 1021.776, 1055.443 999.339 C 1058.519 980.895, 1059.061 941.540, 1056.490 923.332 C 1055.914 919.250, 1056.002 919.095, 1060.701 915.894 C 1063.340 914.095, 1067.554 910.908, 1070.064 908.812 C 1074.576 905.044, 1074.728 905, 1083.249 905 C 1098.015 905, 1113.473 900.453, 1122.743 893.382 C 1125.990 890.906, 1126.115 890.891, 1131.310 892.402 C 1147.553 897.124, 1166.719 896.648, 1177.980 891.243 L 1183.770 888.464 1192.989 898.593 C 1203.893 910.573, 1208.762 917.385, 1217.787 933.288 C 1225.263 946.461, 1229.510 951.320, 1237.247 955.553 C 1241.776 958.030, 1243.839 958.482, 1252.216 958.828 C 1261.293 959.203, 1262.229 959.056, 1266.448 956.584 C 1268.931 955.128, 1271.521 952.939, 1272.203 951.719 C 1275.829 945.232, 1279.203 935.846, 1279.697 930.873 C 1281.060 917.144, 1271.034 889.135, 1257.192 868 C 1254.130 863.325, 1249.034 855.051, 1245.868 849.613 L 1240.112 839.726 1243.984 835.113 C 1248.736 829.453, 1252.314 822.442, 1254.543 814.423 C 1256.147 808.649, 1256.452 808.264, 1260.635 806.714 C 1266.989 804.358, 1275.375 798.517, 1280.089 793.161 C 1287.774 784.431, 1294 768.402, 1294 757.348 C 1294 753.346, 1294.556 752.175, 1298.587 747.692 C 1301.110 744.886, 1304.289 740.389, 1305.652 737.699 C 1313.891 721.442, 1314.055 696.622, 1306.018 682.380 L 1303.129 677.259 1305.174 670.880 C 1308.053 661.901, 1308.706 647.335, 1306.605 638.999 C 1304.409 630.290, 1299.904 621.293, 1294.283 614.392 L 1289.654 608.710 1290.817 596.605 C 1292.288 581.293, 1296.835 563.996, 1302.274 553.025 C 1305.916 545.678, 1306.915 544.419, 1309.500 543.914 C 1318.007 542.253, 1327.222 534.094, 1331.796 524.175 C 1333.839 519.746, 1334.409 516.963, 1334.396 511.500 C 1334.370 500.920, 1330.237 494.226, 1319.552 487.454 C 1309.615 481.157, 1301.306 479.632, 1292.292 482.449 M 1630.500 647.827 C 1626.592 648.253, 1625.703 649.211, 1627.250 651.328 C 1628.197 652.623, 1629.311 652.888, 1631.754 652.399 C 1636.859 651.378, 1635.729 647.257, 1630.500 647.827 M 317.297 916.848 C 317.711 925.201, 318.163 926.990, 321.541 933.645 C 329.810 949.937, 343.825 958, 363.873 958 C 371.969 958, 395.919 956.175, 396.782 955.493 C 396.936 955.370, 393.818 952.025, 389.851 948.058 L 382.639 940.846 377.069 941.473 C 355.629 943.890, 328 930.404, 319.759 913.500 L 316.833 907.500 317.297 916.848" stroke="none" fill="#d4fcfd" fill-rule="evenodd"/></svg>